<?xml version="1.0" encoding="UTF-8" standalone="no"?>
<!-- Created with Inkscape (http://www.inkscape.org/) -->
<svg
   xmlns:dc="http://purl.org/dc/elements/1.1/"
   xmlns:cc="http://creativecommons.org/ns#"
   xmlns:rdf="http://www.w3.org/1999/02/22-rdf-syntax-ns#"
   xmlns:svg="http://www.w3.org/2000/svg"
   xmlns="http://www.w3.org/2000/svg"
   xmlns:sodipodi="http://sodipodi.sourceforge.net/DTD/sodipodi-0.dtd"
   xmlns:inkscape="http://www.inkscape.org/namespaces/inkscape"
   width="143.39151"
   height="77.896416"
   id="svg18233"
   sodipodi:version="0.32"
   inkscape:version="0.46"
   version="1.0"
   sodipodi:docname="oolitic_dolostone_or_dolomite_644.svg"
   inkscape:output_extension="org.inkscape.output.svg.inkscape">
  <defs
     id="defs18235">
    <inkscape:perspective
       sodipodi:type="inkscape:persp3d"
       inkscape:vp_x="0 : 526.18109 : 1"
       inkscape:vp_y="0 : 1000 : 0"
       inkscape:vp_z="744.09448 : 526.18109 : 1"
       inkscape:persp3d-origin="372.04724 : 350.78739 : 1"
       id="perspective18241" />
  </defs>
  <sodipodi:namedview
     id="base"
     pagecolor="#ffffff"
     bordercolor="#666666"
     borderopacity="1.0"
     inkscape:pageopacity="0.0"
     inkscape:pageshadow="2"
     inkscape:zoom="5.251219"
     inkscape:cx="77.401005"
     inkscape:cy="43.513709"
     inkscape:document-units="px"
     inkscape:current-layer="layer1"
     showgrid="true"
     units="cm"
     inkscape:window-width="1280"
     inkscape:window-height="752"
     inkscape:window-x="107"
     inkscape:window-y="65">
    <inkscape:grid
       type="xygrid"
       id="grid34292"
       visible="true"
       enabled="true" />
  </sodipodi:namedview>
  <metadata
     id="metadata18238">
    <rdf:RDF>
      <cc:Work
         rdf:about="">
        <dc:format>image/svg+xml</dc:format>
        <dc:type
           rdf:resource="http://purl.org/dc/dcmitype/StillImage" />
      </cc:Work>
    </rdf:RDF>
  </metadata>
  <g
     inkscape:label="Ebene 1"
     inkscape:groupmode="layer"
     id="layer1"
     transform="translate(2.5928356,4.7534757)">
    <path
       style="fill:none;fill-rule:evenodd;stroke:#000000;stroke-width:1.0429405;stroke-linecap:butt;stroke-linejoin:miter;stroke-miterlimit:4;stroke-dasharray:none;stroke-opacity:1"
       d="M -1.3381948,5.0195853 L 139.75704,5.0195853"
       id="path17522" />
    <path
       style="fill:none;fill-rule:evenodd;stroke:#000000;stroke-width:1.0450412;stroke-linecap:butt;stroke-linejoin:miter;stroke-miterlimit:4;stroke-dasharray:none;stroke-opacity:1"
       d="M -1.3880418,14.801676 L 140.27616,14.801676"
       id="path17528" />
    <path
       style="fill:none;fill-rule:evenodd;stroke:#000000;stroke-width:1.0429405;stroke-linecap:butt;stroke-linejoin:miter;stroke-miterlimit:4;stroke-dasharray:none;stroke-opacity:1"
       d="M -1.4265748,24.893326 L 139.66866,24.893326"
       id="path41971" />
    <path
       style="fill:none;fill-rule:evenodd;stroke:#000000;stroke-width:1;stroke-linecap:butt;stroke-linejoin:miter;stroke-miterlimit:4;stroke-dasharray:none;stroke-opacity:1"
       d="M 9.0503362,5.3376889 L 2.7587062,14.88648"
       id="path47036"
       sodipodi:nodetypes="cc" />
    <path
       style="fill:none;fill-rule:evenodd;stroke:#000000;stroke-width:1;stroke-linecap:butt;stroke-linejoin:miter;stroke-miterlimit:4;stroke-dasharray:none;stroke-opacity:1"
       d="M 37.064842,5.5162589 L 30.773212,15.06505"
       id="path47038"
       sodipodi:nodetypes="cc" />
    <path
       style="fill:none;fill-rule:evenodd;stroke:#000000;stroke-width:1;stroke-linecap:butt;stroke-linejoin:miter;stroke-miterlimit:4;stroke-dasharray:none;stroke-opacity:1"
       d="M 66.117618,5.1353949 L 59.825988,14.684186"
       id="path47040"
       sodipodi:nodetypes="cc" />
    <path
       style="fill:none;fill-rule:evenodd;stroke:#000000;stroke-width:1;stroke-linecap:butt;stroke-linejoin:miter;stroke-miterlimit:4;stroke-dasharray:none;stroke-opacity:1"
       d="M 90.623748,5.2483989 L 84.332118,14.79719"
       id="path47042"
       sodipodi:nodetypes="cc" />
    <path
       style="fill:none;fill-rule:evenodd;stroke:#000000;stroke-width:1;stroke-linecap:butt;stroke-linejoin:miter;stroke-miterlimit:4;stroke-dasharray:none;stroke-opacity:1"
       d="M 108.3099,5.3376889 L 102.01827,14.88648"
       id="path47044"
       sodipodi:nodetypes="cc" />
    <path
       style="fill:none;fill-rule:evenodd;stroke:#000000;stroke-width:1;stroke-linecap:butt;stroke-linejoin:miter;stroke-miterlimit:4;stroke-dasharray:none;stroke-opacity:1"
       d="M 133.23424,5.3823287 L 126.94261,14.93112"
       id="path47046"
       sodipodi:nodetypes="cc" />
    <path
       style="fill:none;fill-rule:evenodd;stroke:#000000;stroke-width:1;stroke-linecap:butt;stroke-linejoin:miter;stroke-miterlimit:4;stroke-dasharray:none;stroke-opacity:1"
       d="M 31.913301,-4.0511817 L 25.621671,5.497609"
       id="path47200"
       sodipodi:nodetypes="cc" />
    <path
       style="fill:none;fill-rule:evenodd;stroke:#000000;stroke-width:1;stroke-linecap:butt;stroke-linejoin:miter;stroke-miterlimit:4;stroke-dasharray:none;stroke-opacity:1"
       d="M 59.927807,-3.8726117 L 53.636177,5.676179"
       id="path47202"
       sodipodi:nodetypes="cc" />
    <path
       style="fill:none;fill-rule:evenodd;stroke:#000000;stroke-width:1;stroke-linecap:butt;stroke-linejoin:miter;stroke-miterlimit:4;stroke-dasharray:none;stroke-opacity:1"
       d="M 88.98058,-4.2534757 L 82.68895,5.295315"
       id="path47204"
       sodipodi:nodetypes="cc" />
    <path
       style="fill:none;fill-rule:evenodd;stroke:#000000;stroke-width:1;stroke-linecap:butt;stroke-linejoin:miter;stroke-miterlimit:4;stroke-dasharray:none;stroke-opacity:1"
       d="M 106.44073,-4.1404717 L 100.1491,5.408319"
       id="path47206"
       sodipodi:nodetypes="cc" />
    <path
       style="fill:none;fill-rule:evenodd;stroke:#000000;stroke-width:1;stroke-linecap:butt;stroke-linejoin:miter;stroke-miterlimit:4;stroke-dasharray:none;stroke-opacity:1"
       d="M 131.17286,-4.0511817 L 124.88123,5.497609"
       id="path47208"
       sodipodi:nodetypes="cc" />
    <path
       style="fill:none;fill-rule:evenodd;stroke:#000000;stroke-width:1;stroke-linecap:butt;stroke-linejoin:miter;stroke-miterlimit:4;stroke-dasharray:none;stroke-opacity:1"
       d="M 9.8454436,-4.1969739 L 3.5538136,5.351817"
       id="path47210"
       sodipodi:nodetypes="cc" />
    <path
       style="fill:none;fill-rule:evenodd;stroke:#000000;stroke-width:1;stroke-linecap:butt;stroke-linejoin:miter;stroke-miterlimit:4;stroke-dasharray:none;stroke-opacity:1"
       d="M 47.152984,14.992016 L 40.861354,24.540807"
       id="path47226"
       sodipodi:nodetypes="cc" />
    <path
       style="fill:none;fill-rule:evenodd;stroke:#000000;stroke-width:1;stroke-linecap:butt;stroke-linejoin:miter;stroke-miterlimit:4;stroke-dasharray:none;stroke-opacity:1"
       d="M 75.16749,15.170586 L 68.87586,24.719377"
       id="path47228"
       sodipodi:nodetypes="cc" />
    <path
       style="fill:none;fill-rule:evenodd;stroke:#000000;stroke-width:1;stroke-linecap:butt;stroke-linejoin:miter;stroke-miterlimit:4;stroke-dasharray:none;stroke-opacity:1"
       d="M 104.22026,14.789722 L 97.928635,24.338513"
       id="path47230"
       sodipodi:nodetypes="cc" />
    <path
       style="fill:none;fill-rule:evenodd;stroke:#000000;stroke-width:1;stroke-linecap:butt;stroke-linejoin:miter;stroke-miterlimit:4;stroke-dasharray:none;stroke-opacity:1"
       d="M 121.68042,14.902726 L 115.38878,24.451517"
       id="path47232"
       sodipodi:nodetypes="cc" />
    <path
       style="fill:none;fill-rule:evenodd;stroke:#000000;stroke-width:1;stroke-linecap:butt;stroke-linejoin:miter;stroke-miterlimit:4;stroke-dasharray:none;stroke-opacity:1"
       d="M 14.633624,14.992016 L 8.3419937,24.540807"
       id="path47234"
       sodipodi:nodetypes="cc" />
    <path
       style="fill:none;fill-rule:evenodd;stroke:#000000;stroke-width:1;stroke-linecap:butt;stroke-linejoin:miter;stroke-miterlimit:4;stroke-dasharray:none;stroke-opacity:1"
       d="M 25.085127,14.846224 L 18.793497,24.395015"
       id="path47236"
       sodipodi:nodetypes="cc" />
    <path
       style="fill:none;fill-rule:evenodd;stroke:#000000;stroke-width:1.0429405;stroke-linecap:butt;stroke-linejoin:miter;stroke-miterlimit:4;stroke-dasharray:none;stroke-opacity:1"
       d="M -1.9829854,33.867536 L 139.11224,33.867536"
       id="path47238" />
    <path
       style="fill:none;fill-rule:evenodd;stroke:#000000;stroke-width:1.0450412;stroke-linecap:butt;stroke-linejoin:miter;stroke-miterlimit:4;stroke-dasharray:none;stroke-opacity:1"
       d="M -2.0328324,43.649627 L 139.63136,43.649627"
       id="path47240" />
    <path
       style="fill:none;fill-rule:evenodd;stroke:#000000;stroke-width:1.0429405;stroke-linecap:butt;stroke-linejoin:miter;stroke-miterlimit:4;stroke-dasharray:none;stroke-opacity:1"
       d="M -2.0713654,53.741277 L 139.02386,53.741277"
       id="path47242" />
    <path
       style="fill:none;fill-rule:evenodd;stroke:#000000;stroke-width:1;stroke-linecap:butt;stroke-linejoin:miter;stroke-miterlimit:4;stroke-dasharray:none;stroke-opacity:1"
       d="M 8.4055456,34.18564 L 2.1139156,43.734431"
       id="path47244"
       sodipodi:nodetypes="cc" />
    <path
       style="fill:none;fill-rule:evenodd;stroke:#000000;stroke-width:1;stroke-linecap:butt;stroke-linejoin:miter;stroke-miterlimit:4;stroke-dasharray:none;stroke-opacity:1"
       d="M 36.420055,34.36421 L 30.128421,43.913001"
       id="path47246"
       sodipodi:nodetypes="cc" />
    <path
       style="fill:none;fill-rule:evenodd;stroke:#000000;stroke-width:1;stroke-linecap:butt;stroke-linejoin:miter;stroke-miterlimit:4;stroke-dasharray:none;stroke-opacity:1"
       d="M 65.472825,33.983346 L 59.181195,43.532137"
       id="path47248"
       sodipodi:nodetypes="cc" />
    <path
       style="fill:none;fill-rule:evenodd;stroke:#000000;stroke-width:1;stroke-linecap:butt;stroke-linejoin:miter;stroke-miterlimit:4;stroke-dasharray:none;stroke-opacity:1"
       d="M 89.978955,34.09635 L 83.687325,43.645141"
       id="path47250"
       sodipodi:nodetypes="cc" />
    <path
       style="fill:none;fill-rule:evenodd;stroke:#000000;stroke-width:1;stroke-linecap:butt;stroke-linejoin:miter;stroke-miterlimit:4;stroke-dasharray:none;stroke-opacity:1"
       d="M 107.6651,34.18564 L 101.37347,43.734431"
       id="path47252"
       sodipodi:nodetypes="cc" />
    <path
       style="fill:none;fill-rule:evenodd;stroke:#000000;stroke-width:1;stroke-linecap:butt;stroke-linejoin:miter;stroke-miterlimit:4;stroke-dasharray:none;stroke-opacity:1"
       d="M 132.58944,34.23028 L 126.29781,43.779071"
       id="path47254"
       sodipodi:nodetypes="cc" />
    <path
       style="fill:none;fill-rule:evenodd;stroke:#000000;stroke-width:1;stroke-linecap:butt;stroke-linejoin:miter;stroke-miterlimit:4;stroke-dasharray:none;stroke-opacity:1"
       d="M 31.26851,24.796769 L 24.97688,34.34556"
       id="path47256"
       sodipodi:nodetypes="cc" />
    <path
       style="fill:none;fill-rule:evenodd;stroke:#000000;stroke-width:1;stroke-linecap:butt;stroke-linejoin:miter;stroke-miterlimit:4;stroke-dasharray:none;stroke-opacity:1"
       d="M 59.283015,24.975339 L 52.991385,34.52413"
       id="path47258"
       sodipodi:nodetypes="cc" />
    <path
       style="fill:none;fill-rule:evenodd;stroke:#000000;stroke-width:1;stroke-linecap:butt;stroke-linejoin:miter;stroke-miterlimit:4;stroke-dasharray:none;stroke-opacity:1"
       d="M 88.335785,24.594475 L 82.044155,34.143266"
       id="path47260"
       sodipodi:nodetypes="cc" />
    <path
       style="fill:none;fill-rule:evenodd;stroke:#000000;stroke-width:1;stroke-linecap:butt;stroke-linejoin:miter;stroke-miterlimit:4;stroke-dasharray:none;stroke-opacity:1"
       d="M 105.79593,24.707479 L 99.504305,34.25627"
       id="path47262"
       sodipodi:nodetypes="cc" />
    <path
       style="fill:none;fill-rule:evenodd;stroke:#000000;stroke-width:1;stroke-linecap:butt;stroke-linejoin:miter;stroke-miterlimit:4;stroke-dasharray:none;stroke-opacity:1"
       d="M 130.52806,24.796769 L 124.23643,34.34556"
       id="path47264"
       sodipodi:nodetypes="cc" />
    <path
       style="fill:none;fill-rule:evenodd;stroke:#000000;stroke-width:1;stroke-linecap:butt;stroke-linejoin:miter;stroke-miterlimit:4;stroke-dasharray:none;stroke-opacity:1"
       d="M 12.437996,24.841409 L 6.1463662,34.3902"
       id="path47266"
       sodipodi:nodetypes="cc" />
    <path
       style="fill:none;fill-rule:evenodd;stroke:#000000;stroke-width:1;stroke-linecap:butt;stroke-linejoin:miter;stroke-miterlimit:4;stroke-dasharray:none;stroke-opacity:1"
       d="M 46.508195,43.839967 L 40.216565,53.388758"
       id="path47268"
       sodipodi:nodetypes="cc" />
    <path
       style="fill:none;fill-rule:evenodd;stroke:#000000;stroke-width:1;stroke-linecap:butt;stroke-linejoin:miter;stroke-miterlimit:4;stroke-dasharray:none;stroke-opacity:1"
       d="M 74.522695,44.018537 L 68.231065,53.567328"
       id="path47270"
       sodipodi:nodetypes="cc" />
    <path
       style="fill:none;fill-rule:evenodd;stroke:#000000;stroke-width:1;stroke-linecap:butt;stroke-linejoin:miter;stroke-miterlimit:4;stroke-dasharray:none;stroke-opacity:1"
       d="M 103.57546,43.637673 L 97.283845,53.186464"
       id="path47272"
       sodipodi:nodetypes="cc" />
    <path
       style="fill:none;fill-rule:evenodd;stroke:#000000;stroke-width:1;stroke-linecap:butt;stroke-linejoin:miter;stroke-miterlimit:4;stroke-dasharray:none;stroke-opacity:1"
       d="M 121.03562,43.750677 L 114.74398,53.299468"
       id="path47274"
       sodipodi:nodetypes="cc" />
    <path
       style="fill:none;fill-rule:evenodd;stroke:#000000;stroke-width:1;stroke-linecap:butt;stroke-linejoin:miter;stroke-miterlimit:4;stroke-dasharray:none;stroke-opacity:1"
       d="M 13.988833,43.839967 L 7.6972026,53.388758"
       id="path47276"
       sodipodi:nodetypes="cc" />
    <path
       style="fill:none;fill-rule:evenodd;stroke:#000000;stroke-width:1;stroke-linecap:butt;stroke-linejoin:miter;stroke-miterlimit:4;stroke-dasharray:none;stroke-opacity:1"
       d="M 24.440336,43.694175 L 18.148706,53.242966"
       id="path47278"
       sodipodi:nodetypes="cc" />
    <path
       style="fill:none;fill-rule:evenodd;stroke:#000000;stroke-width:1.0429405;stroke-linecap:butt;stroke-linejoin:miter;stroke-miterlimit:4;stroke-dasharray:none;stroke-opacity:1"
       d="M -2.012925,62.597478 L 139.08231,62.597478"
       id="path47280" />
    <path
       style="fill:none;fill-rule:evenodd;stroke:#000000;stroke-width:1.0450412;stroke-linecap:butt;stroke-linejoin:miter;stroke-miterlimit:4;stroke-dasharray:none;stroke-opacity:1"
       d="M -2.062772,72.379569 L 139.60143,72.379569"
       id="path47282" />
    <path
       style="fill:none;fill-rule:evenodd;stroke:#000000;stroke-width:1;stroke-linecap:butt;stroke-linejoin:miter;stroke-miterlimit:4;stroke-dasharray:none;stroke-opacity:1"
       d="M 8.375606,62.915582 L 2.083976,72.464373"
       id="path47284"
       sodipodi:nodetypes="cc" />
    <path
       style="fill:none;fill-rule:evenodd;stroke:#000000;stroke-width:1;stroke-linecap:butt;stroke-linejoin:miter;stroke-miterlimit:4;stroke-dasharray:none;stroke-opacity:1"
       d="M 36.390112,63.094152 L 30.098482,72.642943"
       id="path47286"
       sodipodi:nodetypes="cc" />
    <path
       style="fill:none;fill-rule:evenodd;stroke:#000000;stroke-width:1;stroke-linecap:butt;stroke-linejoin:miter;stroke-miterlimit:4;stroke-dasharray:none;stroke-opacity:1"
       d="M 65.442883,62.713288 L 59.151258,72.262079"
       id="path47288"
       sodipodi:nodetypes="cc" />
    <path
       style="fill:none;fill-rule:evenodd;stroke:#000000;stroke-width:1;stroke-linecap:butt;stroke-linejoin:miter;stroke-miterlimit:4;stroke-dasharray:none;stroke-opacity:1"
       d="M 89.949013,62.826292 L 83.657383,72.375083"
       id="path47290"
       sodipodi:nodetypes="cc" />
    <path
       style="fill:none;fill-rule:evenodd;stroke:#000000;stroke-width:1;stroke-linecap:butt;stroke-linejoin:miter;stroke-miterlimit:4;stroke-dasharray:none;stroke-opacity:1"
       d="M 107.63517,62.915582 L 101.34354,72.464373"
       id="path47292"
       sodipodi:nodetypes="cc" />
    <path
       style="fill:none;fill-rule:evenodd;stroke:#000000;stroke-width:1;stroke-linecap:butt;stroke-linejoin:miter;stroke-miterlimit:4;stroke-dasharray:none;stroke-opacity:1"
       d="M 132.55951,62.960222 L 126.26788,72.509013"
       id="path47294"
       sodipodi:nodetypes="cc" />
    <path
       style="fill:none;fill-rule:evenodd;stroke:#000000;stroke-width:1;stroke-linecap:butt;stroke-linejoin:miter;stroke-miterlimit:4;stroke-dasharray:none;stroke-opacity:1"
       d="M 31.238571,53.526711 L 24.946941,63.075502"
       id="path47296"
       sodipodi:nodetypes="cc" />
    <path
       style="fill:none;fill-rule:evenodd;stroke:#000000;stroke-width:1;stroke-linecap:butt;stroke-linejoin:miter;stroke-miterlimit:4;stroke-dasharray:none;stroke-opacity:1"
       d="M 59.253077,53.705281 L 52.961447,63.254072"
       id="path47298"
       sodipodi:nodetypes="cc" />
    <path
       style="fill:none;fill-rule:evenodd;stroke:#000000;stroke-width:1;stroke-linecap:butt;stroke-linejoin:miter;stroke-miterlimit:4;stroke-dasharray:none;stroke-opacity:1"
       d="M 88.305853,53.324417 L 82.014223,62.873208"
       id="path47300"
       sodipodi:nodetypes="cc" />
    <path
       style="fill:none;fill-rule:evenodd;stroke:#000000;stroke-width:1;stroke-linecap:butt;stroke-linejoin:miter;stroke-miterlimit:4;stroke-dasharray:none;stroke-opacity:1"
       d="M 105.766,53.437421 L 99.474373,62.986212"
       id="path47302"
       sodipodi:nodetypes="cc" />
    <path
       style="fill:none;fill-rule:evenodd;stroke:#000000;stroke-width:1;stroke-linecap:butt;stroke-linejoin:miter;stroke-miterlimit:4;stroke-dasharray:none;stroke-opacity:1"
       d="M 130.49813,53.526711 L 124.2065,63.075502"
       id="path47304"
       sodipodi:nodetypes="cc" />
    <path
       style="fill:none;fill-rule:evenodd;stroke:#000000;stroke-width:1;stroke-linecap:butt;stroke-linejoin:miter;stroke-miterlimit:4;stroke-dasharray:none;stroke-opacity:1"
       d="M 9.170714,53.380919 L 2.879084,62.92971"
       id="path47306"
       sodipodi:nodetypes="cc" />
    <path
       sodipodi:type="arc"
       style="opacity:1;fill:none;fill-opacity:1;stroke:#000000;stroke-width:12.26209831;stroke-miterlimit:4;stroke-dasharray:none;stroke-opacity:1"
       id="path42199"
       sodipodi:cx="507.60165"
       sodipodi:cy="434.6539"
       sodipodi:rx="36.870567"
       sodipodi:ry="28.789347"
       d="M 544.47222,434.6539 A 36.870567,28.789347 0 1 1 470.73109,434.6539 A 36.870567,28.789347 0 1 1 544.47222,434.6539 z"
       transform="matrix(0,7.1844471e-2,0.1446429,0,-45.276647,-36.260879)" />
    <path
       sodipodi:type="arc"
       style="opacity:1;fill:none;fill-opacity:1;stroke:#000000;stroke-width:12.26209831;stroke-miterlimit:4;stroke-dasharray:none;stroke-opacity:1"
       id="path17904"
       sodipodi:cx="507.60165"
       sodipodi:cy="434.6539"
       sodipodi:rx="36.870567"
       sodipodi:ry="28.789347"
       d="M 544.47222,434.6539 A 36.870567,28.789347 0 1 1 470.73109,434.6539 A 36.870567,28.789347 0 1 1 544.47222,434.6539 z"
       transform="matrix(0,7.1844471e-2,0.1446429,0,-19.187466,-36.260878)" />
    <path
       sodipodi:type="arc"
       style="opacity:1;fill:none;fill-opacity:1;stroke:#000000;stroke-width:12.26209831;stroke-miterlimit:4;stroke-dasharray:none;stroke-opacity:1"
       id="path17906"
       sodipodi:cx="507.60165"
       sodipodi:cy="434.6539"
       sodipodi:rx="36.870567"
       sodipodi:ry="28.789347"
       d="M 544.47222,434.6539 A 36.870567,28.789347 0 1 1 470.73109,434.6539 A 36.870567,28.789347 0 1 1 544.47222,434.6539 z"
       transform="matrix(0,7.1844471e-2,0.1446429,0,10.139057,-36.070447)" />
    <path
       sodipodi:type="arc"
       style="opacity:1;fill:none;fill-opacity:1;stroke:#000000;stroke-width:12.26209831;stroke-miterlimit:4;stroke-dasharray:none;stroke-opacity:1"
       id="path17908"
       sodipodi:cx="507.60165"
       sodipodi:cy="434.6539"
       sodipodi:rx="36.870567"
       sodipodi:ry="28.789347"
       d="M 544.47222,434.6539 A 36.870567,28.789347 0 1 1 470.73109,434.6539 A 36.870567,28.789347 0 1 1 544.47222,434.6539 z"
       transform="matrix(0,7.1844471e-2,0.1446429,0,32.229167,-36.070446)" />
    <path
       sodipodi:type="arc"
       style="opacity:1;fill:none;fill-opacity:1;stroke:#000000;stroke-width:12.26209831;stroke-miterlimit:4;stroke-dasharray:none;stroke-opacity:1"
       id="path17910"
       sodipodi:cx="507.60165"
       sodipodi:cy="434.6539"
       sodipodi:rx="36.870567"
       sodipodi:ry="28.789347"
       d="M 544.47222,434.6539 A 36.870567,28.789347 0 1 1 470.73109,434.6539 A 36.870567,28.789347 0 1 1 544.47222,434.6539 z"
       transform="matrix(0,7.1844471e-2,0.1446429,0,52.986252,-36.641742)" />
    <path
       sodipodi:type="arc"
       style="opacity:1;fill:none;fill-opacity:1;stroke:#000000;stroke-width:12.26209831;stroke-miterlimit:4;stroke-dasharray:none;stroke-opacity:1"
       id="path17912"
       sodipodi:cx="507.60165"
       sodipodi:cy="434.6539"
       sodipodi:rx="36.870567"
       sodipodi:ry="28.789347"
       d="M 544.47222,434.6539 A 36.870567,28.789347 0 1 1 470.73109,434.6539 A 36.870567,28.789347 0 1 1 544.47222,434.6539 z"
       transform="matrix(0,7.1844471e-2,0.1446429,0,71.839017,-35.676486)" />
    <path
       sodipodi:type="arc"
       style="opacity:1;fill:none;fill-opacity:1;stroke:#000000;stroke-width:12.26209831;stroke-miterlimit:4;stroke-dasharray:none;stroke-opacity:1"
       id="path17914"
       sodipodi:cx="507.60165"
       sodipodi:cy="434.6539"
       sodipodi:rx="36.870567"
       sodipodi:ry="28.789347"
       d="M 544.47222,434.6539 A 36.870567,28.789347 0 1 1 470.73109,434.6539 A 36.870567,28.789347 0 1 1 544.47222,434.6539 z"
       transform="matrix(0,7.1844471e-2,0.1446429,0,-42.991464,-26.73928)" />
    <path
       sodipodi:type="arc"
       style="opacity:1;fill:none;fill-opacity:1;stroke:#000000;stroke-width:12.26209831;stroke-miterlimit:4;stroke-dasharray:none;stroke-opacity:1"
       id="path17916"
       sodipodi:cx="507.60165"
       sodipodi:cy="434.6539"
       sodipodi:rx="36.870567"
       sodipodi:ry="28.789347"
       d="M 544.47222,434.6539 A 36.870567,28.789347 0 1 1 470.73109,434.6539 A 36.870567,28.789347 0 1 1 544.47222,434.6539 z"
       transform="matrix(0,7.1844471e-2,0.1446429,0,-13.284076,-26.73928)" />
    <path
       sodipodi:type="arc"
       style="opacity:1;fill:none;fill-opacity:1;stroke:#000000;stroke-width:12.26209831;stroke-miterlimit:4;stroke-dasharray:none;stroke-opacity:1"
       id="path17918"
       sodipodi:cx="507.60165"
       sodipodi:cy="434.6539"
       sodipodi:rx="36.870567"
       sodipodi:ry="28.789347"
       d="M 544.47222,434.6539 A 36.870567,28.789347 0 1 1 470.73109,434.6539 A 36.870567,28.789347 0 1 1 544.47222,434.6539 z"
       transform="matrix(0,7.1844471e-2,0.1446429,0,11.662513,-26.929712)" />
    <path
       sodipodi:type="arc"
       style="opacity:1;fill:none;fill-opacity:1;stroke:#000000;stroke-width:12.26209831;stroke-miterlimit:4;stroke-dasharray:none;stroke-opacity:1"
       id="path17920"
       sodipodi:cx="507.60165"
       sodipodi:cy="434.6539"
       sodipodi:rx="36.870567"
       sodipodi:ry="28.789347"
       d="M 544.47222,434.6539 A 36.870567,28.789347 0 1 1 470.73109,434.6539 A 36.870567,28.789347 0 1 1 544.47222,434.6539 z"
       transform="matrix(0,7.1844471e-2,0.1446429,0,33.371758,-26.929712)" />
    <path
       sodipodi:type="arc"
       style="opacity:1;fill:none;fill-opacity:1;stroke:#000000;stroke-width:12.26209831;stroke-miterlimit:4;stroke-dasharray:none;stroke-opacity:1"
       id="path17922"
       sodipodi:cx="507.60165"
       sodipodi:cy="434.6539"
       sodipodi:rx="36.870567"
       sodipodi:ry="28.789347"
       d="M 544.47222,434.6539 A 36.870567,28.789347 0 1 1 470.73109,434.6539 A 36.870567,28.789347 0 1 1 544.47222,434.6539 z"
       transform="matrix(0,7.1844471e-2,0.1446429,0,54.890571,-26.929712)" />
    <path
       sodipodi:type="arc"
       style="opacity:1;fill:none;fill-opacity:1;stroke:#000000;stroke-width:12.26209831;stroke-miterlimit:4;stroke-dasharray:none;stroke-opacity:1"
       id="path17924"
       sodipodi:cx="507.60165"
       sodipodi:cy="434.6539"
       sodipodi:rx="36.870567"
       sodipodi:ry="28.789347"
       d="M 544.47222,434.6539 A 36.870567,28.789347 0 1 1 470.73109,434.6539 A 36.870567,28.789347 0 1 1 544.47222,434.6539 z"
       transform="matrix(0,7.1844471e-2,0.1446429,0,-29.851657,-16.265521)" />
    <path
       sodipodi:type="arc"
       style="opacity:1;fill:none;fill-opacity:1;stroke:#000000;stroke-width:12.26209831;stroke-miterlimit:4;stroke-dasharray:none;stroke-opacity:1"
       id="path17926"
       sodipodi:cx="507.60165"
       sodipodi:cy="434.6539"
       sodipodi:rx="36.870567"
       sodipodi:ry="28.789347"
       d="M 544.47222,434.6539 A 36.870567,28.789347 0 1 1 470.73109,434.6539 A 36.870567,28.789347 0 1 1 544.47222,434.6539 z"
       transform="matrix(0,7.1844471e-2,0.1446429,0,-4.9050685,-16.646385)" />
    <path
       sodipodi:type="arc"
       style="opacity:1;fill:none;fill-opacity:1;stroke:#000000;stroke-width:12.26209831;stroke-miterlimit:4;stroke-dasharray:none;stroke-opacity:1"
       id="path17928"
       sodipodi:cx="507.60165"
       sodipodi:cy="434.6539"
       sodipodi:rx="36.870567"
       sodipodi:ry="28.789347"
       d="M 544.47222,434.6539 A 36.870567,28.789347 0 1 1 470.73109,434.6539 A 36.870567,28.789347 0 1 1 544.47222,434.6539 z"
       transform="matrix(0,7.1844471e-2,0.1446429,0,24.040592,-16.836817)" />
    <path
       sodipodi:type="arc"
       style="opacity:1;fill:none;fill-opacity:1;stroke:#000000;stroke-width:12.26209831;stroke-miterlimit:4;stroke-dasharray:none;stroke-opacity:1"
       id="path17930"
       sodipodi:cx="507.60165"
       sodipodi:cy="434.6539"
       sodipodi:rx="36.870567"
       sodipodi:ry="28.789347"
       d="M 544.47222,434.6539 A 36.870567,28.789347 0 1 1 470.73109,434.6539 A 36.870567,28.789347 0 1 1 544.47222,434.6539 z"
       transform="matrix(0,7.1844471e-2,0.1446429,0,46.511565,-16.646385)" />
    <path
       sodipodi:type="arc"
       style="opacity:1;fill:none;fill-opacity:1;stroke:#000000;stroke-width:12.26209831;stroke-miterlimit:4;stroke-dasharray:none;stroke-opacity:1"
       id="path17932"
       sodipodi:cx="507.60165"
       sodipodi:cy="434.6539"
       sodipodi:rx="36.870567"
       sodipodi:ry="28.789347"
       d="M 544.47222,434.6539 A 36.870567,28.789347 0 1 1 470.73109,434.6539 A 36.870567,28.789347 0 1 1 544.47222,434.6539 z"
       transform="matrix(0,7.1844471e-2,0.1446429,0,67.078218,-16.646385)" />
    <path
       sodipodi:type="arc"
       style="opacity:1;fill:none;fill-opacity:1;stroke:#000000;stroke-width:12.26209831;stroke-miterlimit:4;stroke-dasharray:none;stroke-opacity:1"
       id="path17934"
       sodipodi:cx="507.60165"
       sodipodi:cy="434.6539"
       sodipodi:rx="36.870567"
       sodipodi:ry="28.789347"
       d="M 544.47222,434.6539 A 36.870567,28.789347 0 1 1 470.73109,434.6539 A 36.870567,28.789347 0 1 1 544.47222,434.6539 z"
       transform="matrix(0,7.1844471e-2,0.1446429,0,-43.372327,-6.7439224)" />
    <path
       sodipodi:type="arc"
       style="opacity:1;fill:none;fill-opacity:1;stroke:#000000;stroke-width:12.26209831;stroke-miterlimit:4;stroke-dasharray:none;stroke-opacity:1"
       id="path17936"
       sodipodi:cx="507.60165"
       sodipodi:cy="434.6539"
       sodipodi:rx="36.870567"
       sodipodi:ry="28.789347"
       d="M 544.47222,434.6539 A 36.870567,28.789347 0 1 1 470.73109,434.6539 A 36.870567,28.789347 0 1 1 544.47222,434.6539 z"
       transform="matrix(0,7.1844471e-2,0.1446429,0,-20.139627,-7.1247863)" />
    <path
       sodipodi:type="arc"
       style="opacity:1;fill:none;fill-opacity:1;stroke:#000000;stroke-width:12.26209831;stroke-miterlimit:4;stroke-dasharray:none;stroke-opacity:1"
       id="path17938"
       sodipodi:cx="507.60165"
       sodipodi:cy="434.6539"
       sodipodi:rx="36.870567"
       sodipodi:ry="28.789347"
       d="M 544.47222,434.6539 A 36.870567,28.789347 0 1 1 470.73109,434.6539 A 36.870567,28.789347 0 1 1 544.47222,434.6539 z"
       transform="matrix(0,7.1844471e-2,0.1446429,0,8.4251692,-7.3152183)" />
    <path
       sodipodi:type="arc"
       style="opacity:1;fill:none;fill-opacity:1;stroke:#000000;stroke-width:12.26209831;stroke-miterlimit:4;stroke-dasharray:none;stroke-opacity:1"
       id="path17940"
       sodipodi:cx="507.60165"
       sodipodi:cy="434.6539"
       sodipodi:rx="36.870567"
       sodipodi:ry="28.789347"
       d="M 544.47222,434.6539 A 36.870567,28.789347 0 1 1 470.73109,434.6539 A 36.870567,28.789347 0 1 1 544.47222,434.6539 z"
       transform="matrix(0,7.1844471e-2,0.1446429,0,31.467438,-7.1247863)" />
    <path
       sodipodi:type="arc"
       style="opacity:1;fill:none;fill-opacity:1;stroke:#000000;stroke-width:12.26209831;stroke-miterlimit:4;stroke-dasharray:none;stroke-opacity:1"
       id="path17942"
       sodipodi:cx="507.60165"
       sodipodi:cy="434.6539"
       sodipodi:rx="36.870567"
       sodipodi:ry="28.789347"
       d="M 544.47222,434.6539 A 36.870567,28.789347 0 1 1 470.73109,434.6539 A 36.870567,28.789347 0 1 1 544.47222,434.6539 z"
       transform="matrix(0,7.1844471e-2,0.1446429,0,52.986252,-6.9343543)" />
    <path
       sodipodi:type="arc"
       style="opacity:1;fill:none;fill-opacity:1;stroke:#000000;stroke-width:12.26209831;stroke-miterlimit:4;stroke-dasharray:none;stroke-opacity:1"
       id="path17944"
       sodipodi:cx="507.60165"
       sodipodi:cy="434.6539"
       sodipodi:rx="36.870567"
       sodipodi:ry="28.789347"
       d="M 544.47222,434.6539 A 36.870567,28.789347 0 1 1 470.73109,434.6539 A 36.870567,28.789347 0 1 1 544.47222,434.6539 z"
       transform="matrix(0,7.1844471e-2,0.1446429,0,-44.324487,1.8255164)" />
    <path
       sodipodi:type="arc"
       style="opacity:1;fill:none;fill-opacity:1;stroke:#000000;stroke-width:12.26209831;stroke-miterlimit:4;stroke-dasharray:none;stroke-opacity:1"
       id="path17946"
       sodipodi:cx="507.60165"
       sodipodi:cy="434.6539"
       sodipodi:rx="36.870567"
       sodipodi:ry="28.789347"
       d="M 544.47222,434.6539 A 36.870567,28.789347 0 1 1 470.73109,434.6539 A 36.870567,28.789347 0 1 1 544.47222,434.6539 z"
       transform="matrix(0,7.1844471e-2,0.1446429,0,-14.807531,2.2063804)" />
    <path
       sodipodi:type="arc"
       style="opacity:1;fill:none;fill-opacity:1;stroke:#000000;stroke-width:12.26209831;stroke-miterlimit:4;stroke-dasharray:none;stroke-opacity:1"
       id="path17948"
       sodipodi:cx="507.60165"
       sodipodi:cy="434.6539"
       sodipodi:rx="36.870567"
       sodipodi:ry="28.789347"
       d="M 544.47222,434.6539 A 36.870567,28.789347 0 1 1 470.73109,434.6539 A 36.870567,28.789347 0 1 1 544.47222,434.6539 z"
       transform="matrix(0,7.1844471e-2,0.1446429,0,12.043378,2.2063804)" />
    <path
       sodipodi:type="arc"
       style="opacity:1;fill:none;fill-opacity:1;stroke:#000000;stroke-width:12.26209831;stroke-miterlimit:4;stroke-dasharray:none;stroke-opacity:1"
       id="path17950"
       sodipodi:cx="507.60165"
       sodipodi:cy="434.6539"
       sodipodi:rx="36.870567"
       sodipodi:ry="28.789347"
       d="M 544.47222,434.6539 A 36.870567,28.789347 0 1 1 470.73109,434.6539 A 36.870567,28.789347 0 1 1 544.47222,434.6539 z"
       transform="matrix(0,7.1844471e-2,0.1446429,0,32.800462,2.2063804)" />
    <path
       sodipodi:type="arc"
       style="opacity:1;fill:none;fill-opacity:1;stroke:#000000;stroke-width:12.26209831;stroke-miterlimit:4;stroke-dasharray:none;stroke-opacity:1"
       id="path17952"
       sodipodi:cx="507.60165"
       sodipodi:cy="434.6539"
       sodipodi:rx="36.870567"
       sodipodi:ry="28.789347"
       d="M 544.47222,434.6539 A 36.870567,28.789347 0 1 1 470.73109,434.6539 A 36.870567,28.789347 0 1 1 544.47222,434.6539 z"
       transform="matrix(0,7.1844471e-2,0.1446429,0,54.700139,2.3968124)" />
    <path
       sodipodi:type="arc"
       style="opacity:1;fill:none;fill-opacity:1;stroke:#000000;stroke-width:12.26209831;stroke-miterlimit:4;stroke-dasharray:none;stroke-opacity:1"
       id="path17954"
       sodipodi:cx="507.60165"
       sodipodi:cy="434.6539"
       sodipodi:rx="36.870567"
       sodipodi:ry="28.789347"
       d="M 544.47222,434.6539 A 36.870567,28.789347 0 1 1 470.73109,434.6539 A 36.870567,28.789347 0 1 1 544.47222,434.6539 z"
       transform="matrix(0,7.1844471e-2,0.1446429,0,-30.042089,12.299275)" />
    <path
       sodipodi:type="arc"
       style="opacity:1;fill:none;fill-opacity:1;stroke:#000000;stroke-width:12.26209831;stroke-miterlimit:4;stroke-dasharray:none;stroke-opacity:1"
       id="path17956"
       sodipodi:cx="507.60165"
       sodipodi:cy="434.6539"
       sodipodi:rx="36.870567"
       sodipodi:ry="28.789347"
       d="M 544.47222,434.6539 A 36.870567,28.789347 0 1 1 470.73109,434.6539 A 36.870567,28.789347 0 1 1 544.47222,434.6539 z"
       transform="matrix(0,7.1844471e-2,0.1446429,0,-5.6667964,12.489707)" />
    <path
       sodipodi:type="arc"
       style="opacity:1;fill:none;fill-opacity:1;stroke:#000000;stroke-width:12.26209831;stroke-miterlimit:4;stroke-dasharray:none;stroke-opacity:1"
       id="path17958"
       sodipodi:cx="507.60165"
       sodipodi:cy="434.6539"
       sodipodi:rx="36.870567"
       sodipodi:ry="28.789347"
       d="M 544.47222,434.6539 A 36.870567,28.789347 0 1 1 470.73109,434.6539 A 36.870567,28.789347 0 1 1 544.47222,434.6539 z"
       transform="matrix(0,7.1844471e-2,0.1446429,0,23.850159,12.489707)" />
    <path
       sodipodi:type="arc"
       style="opacity:1;fill:none;fill-opacity:1;stroke:#000000;stroke-width:12.26209831;stroke-miterlimit:4;stroke-dasharray:none;stroke-opacity:1"
       id="path17960"
       sodipodi:cx="507.60165"
       sodipodi:cy="434.6539"
       sodipodi:rx="36.870567"
       sodipodi:ry="28.789347"
       d="M 544.47222,434.6539 A 36.870567,28.789347 0 1 1 470.73109,434.6539 A 36.870567,28.789347 0 1 1 544.47222,434.6539 z"
       transform="matrix(0,7.1844471e-2,0.1446429,0,46.321132,11.674568)" />
    <path
       sodipodi:type="arc"
       style="opacity:1;fill:none;fill-opacity:1;stroke:#000000;stroke-width:12.26209831;stroke-miterlimit:4;stroke-dasharray:none;stroke-opacity:1"
       id="path17962"
       sodipodi:cx="507.60165"
       sodipodi:cy="434.6539"
       sodipodi:rx="36.870567"
       sodipodi:ry="28.789347"
       d="M 544.47222,434.6539 A 36.870567,28.789347 0 1 1 470.73109,434.6539 A 36.870567,28.789347 0 1 1 544.47222,434.6539 z"
       transform="matrix(0,7.1844471e-2,0.1446429,0,65.745194,11.918411)" />
    <path
       sodipodi:type="arc"
       style="opacity:1;fill:none;fill-opacity:1;stroke:#000000;stroke-width:12.26209831;stroke-miterlimit:4;stroke-dasharray:none;stroke-opacity:1"
       id="path17964"
       sodipodi:cx="507.60165"
       sodipodi:cy="434.6539"
       sodipodi:rx="36.870567"
       sodipodi:ry="28.789347"
       d="M 544.47222,434.6539 A 36.870567,28.789347 0 1 1 470.73109,434.6539 A 36.870567,28.789347 0 1 1 544.47222,434.6539 z"
       transform="matrix(0,7.1844471e-2,0.1446429,0,-46.038375,21.820874)" />
    <path
       sodipodi:type="arc"
       style="opacity:1;fill:none;fill-opacity:1;stroke:#000000;stroke-width:12.26209831;stroke-miterlimit:4;stroke-dasharray:none;stroke-opacity:1"
       id="path17966"
       sodipodi:cx="507.60165"
       sodipodi:cy="434.6539"
       sodipodi:rx="36.870567"
       sodipodi:ry="28.789347"
       d="M 544.47222,434.6539 A 36.870567,28.789347 0 1 1 470.73109,434.6539 A 36.870567,28.789347 0 1 1 544.47222,434.6539 z"
       transform="matrix(0,7.1844471e-2,0.1446429,0,-20.901354,22.201738)" />
    <path
       sodipodi:type="arc"
       style="opacity:1;fill:none;fill-opacity:1;stroke:#000000;stroke-width:12.26209831;stroke-miterlimit:4;stroke-dasharray:none;stroke-opacity:1"
       id="path17968"
       sodipodi:cx="507.60165"
       sodipodi:cy="434.6539"
       sodipodi:rx="36.870567"
       sodipodi:ry="28.789347"
       d="M 544.47222,434.6539 A 36.870567,28.789347 0 1 1 470.73109,434.6539 A 36.870567,28.789347 0 1 1 544.47222,434.6539 z"
       transform="matrix(0,7.1844471e-2,0.1446429,0,7.0921459,21.820874)" />
    <path
       sodipodi:type="arc"
       style="opacity:1;fill:none;fill-opacity:1;stroke:#000000;stroke-width:12.26209831;stroke-miterlimit:4;stroke-dasharray:none;stroke-opacity:1"
       id="path17970"
       sodipodi:cx="507.60165"
       sodipodi:cy="434.6539"
       sodipodi:rx="36.870567"
       sodipodi:ry="28.789347"
       d="M 544.47222,434.6539 A 36.870567,28.789347 0 1 1 470.73109,434.6539 A 36.870567,28.789347 0 1 1 544.47222,434.6539 z"
       transform="matrix(0,7.1844471e-2,0.1446429,0,31.467439,21.674568)" />
    <path
       sodipodi:type="arc"
       style="opacity:1;fill:none;fill-opacity:1;stroke:#000000;stroke-width:12.26209831;stroke-miterlimit:4;stroke-dasharray:none;stroke-opacity:1"
       id="path17972"
       sodipodi:cx="507.60165"
       sodipodi:cy="434.6539"
       sodipodi:rx="36.870567"
       sodipodi:ry="28.789347"
       d="M 544.47222,434.6539 A 36.870567,28.789347 0 1 1 470.73109,434.6539 A 36.870567,28.789347 0 1 1 544.47222,434.6539 z"
       transform="matrix(0,7.1844471e-2,0.1446429,0,52.414956,21.674568)" />
    <path
       sodipodi:type="arc"
       style="opacity:1;fill:none;fill-opacity:1;stroke:#000000;stroke-width:12.26209831;stroke-miterlimit:4;stroke-dasharray:none;stroke-opacity:1"
       id="path17974"
       sodipodi:cx="507.60165"
       sodipodi:cy="434.6539"
       sodipodi:rx="36.870567"
       sodipodi:ry="28.789347"
       d="M 544.47222,434.6539 A 36.870567,28.789347 0 1 1 470.73109,434.6539 A 36.870567,28.789347 0 1 1 544.47222,434.6539 z"
       transform="matrix(0,7.1844471e-2,0.1446429,0,72.600745,21.674568)" />
    <path
       sodipodi:type="arc"
       style="opacity:1;fill:none;fill-opacity:1;stroke:#000000;stroke-width:12.26209831;stroke-miterlimit:4;stroke-dasharray:none;stroke-opacity:1"
       id="path17976"
       sodipodi:cx="507.60165"
       sodipodi:cy="434.6539"
       sodipodi:rx="36.870567"
       sodipodi:ry="28.789347"
       d="M 544.47222,434.6539 A 36.870567,28.789347 0 1 1 470.73109,434.6539 A 36.870567,28.789347 0 1 1 544.47222,434.6539 z"
       transform="matrix(0,7.1844471e-2,0.1446429,0,-44.895783,30.961609)" />
    <path
       sodipodi:type="arc"
       style="opacity:1;fill:none;fill-opacity:1;stroke:#000000;stroke-width:12.26209831;stroke-miterlimit:4;stroke-dasharray:none;stroke-opacity:1"
       id="path17978"
       sodipodi:cx="507.60165"
       sodipodi:cy="434.6539"
       sodipodi:rx="36.870567"
       sodipodi:ry="28.789347"
       d="M 544.47222,434.6539 A 36.870567,28.789347 0 1 1 470.73109,434.6539 A 36.870567,28.789347 0 1 1 544.47222,434.6539 z"
       transform="matrix(0,7.1844471e-2,0.1446429,0,-14.626611,31.15204)" />
    <path
       sodipodi:type="arc"
       style="opacity:1;fill:none;fill-opacity:1;stroke:#000000;stroke-width:12.26209831;stroke-miterlimit:4;stroke-dasharray:none;stroke-opacity:1"
       id="path17980"
       sodipodi:cx="507.60165"
       sodipodi:cy="434.6539"
       sodipodi:rx="36.870567"
       sodipodi:ry="28.789347"
       d="M 544.47222,434.6539 A 36.870567,28.789347 0 1 1 470.73109,434.6539 A 36.870567,28.789347 0 1 1 544.47222,434.6539 z"
       transform="matrix(0,7.1844471e-2,0.1446429,0,12.614673,30.961609)" />
    <path
       sodipodi:type="arc"
       style="opacity:1;fill:none;fill-opacity:1;stroke:#000000;stroke-width:12.26209831;stroke-miterlimit:4;stroke-dasharray:none;stroke-opacity:1"
       id="path17982"
       sodipodi:cx="507.60165"
       sodipodi:cy="434.6539"
       sodipodi:rx="36.870567"
       sodipodi:ry="28.789347"
       d="M 544.47222,434.6539 A 36.870567,28.789347 0 1 1 470.73109,434.6539 A 36.870567,28.789347 0 1 1 544.47222,434.6539 z"
       transform="matrix(0,7.1844471e-2,0.1446429,0,32.800462,30.771177)" />
    <path
       sodipodi:type="arc"
       style="opacity:1;fill:none;fill-opacity:1;stroke:#000000;stroke-width:12.26209831;stroke-miterlimit:4;stroke-dasharray:none;stroke-opacity:1"
       id="path17984"
       sodipodi:cx="507.60165"
       sodipodi:cy="434.6539"
       sodipodi:rx="36.870567"
       sodipodi:ry="28.789347"
       d="M 544.47222,434.6539 A 36.870567,28.789347 0 1 1 470.73109,434.6539 A 36.870567,28.789347 0 1 1 544.47222,434.6539 z"
       transform="matrix(0,7.1844471e-2,0.1446429,0,54.70014,31.152041)" />
  </g>
</svg>
