<?xml version="1.0" encoding="UTF-8" standalone="no"?>
<!-- Created with Inkscape (http://www.inkscape.org/) -->
<svg
   xmlns:dc="http://purl.org/dc/elements/1.1/"
   xmlns:cc="http://creativecommons.org/ns#"
   xmlns:rdf="http://www.w3.org/1999/02/22-rdf-syntax-ns#"
   xmlns:svg="http://www.w3.org/2000/svg"
   xmlns="http://www.w3.org/2000/svg"
   xmlns:sodipodi="http://sodipodi.sourceforge.net/DTD/sodipodi-0.dtd"
   xmlns:inkscape="http://www.inkscape.org/namespaces/inkscape"
   width="494.82443"
   height="1529.4698"
   id="svg6832"
   sodipodi:version="0.32"
   inkscape:version="0.46"
   version="1.0"
   sodipodi:docname="anneliden.svg"
   inkscape:output_extension="org.inkscape.output.svg.inkscape">
  <defs
     id="defs6834">
    <inkscape:perspective
       sodipodi:type="inkscape:persp3d"
       inkscape:vp_x="0 : 526.18109 : 1"
       inkscape:vp_y="0 : 1000 : 0"
       inkscape:vp_z="744.09448 : 526.18109 : 1"
       inkscape:persp3d-origin="372.04724 : 350.78739 : 1"
       id="perspective6840" />
  </defs>
  <sodipodi:namedview
     id="base"
     pagecolor="#ffffff"
     bordercolor="#666666"
     borderopacity="1.0"
     inkscape:pageopacity="0.0"
     inkscape:pageshadow="2"
     inkscape:zoom="0.35"
     inkscape:cx="350"
     inkscape:cy="520"
     inkscape:document-units="px"
     inkscape:current-layer="layer1"
     showgrid="false"
     inkscape:window-width="640"
     inkscape:window-height="713"
     inkscape:window-x="80"
     inkscape:window-y="82" />
  <metadata
     id="metadata6837">
    <rdf:RDF>
      <cc:Work
         rdf:about="">
        <dc:format>image/svg+xml</dc:format>
        <dc:type
           rdf:resource="http://purl.org/dc/dcmitype/StillImage" />
      </cc:Work>
    </rdf:RDF>
  </metadata>
  <g
     inkscape:label="Ebene 1"
     inkscape:groupmode="layer"
     id="layer1"
     transform="translate(535.98364,35.229898)">
    <path
       style="fill:#000000"
       d="M -235.04921,1493.2985 C -265.89505,1487.1237 -292.54536,1450.5423 -308.61526,1392.3184 C -318.92849,1354.9519 -322.79732,1325.944 -325.06771,1268.9602 C -326.53563,1232.1175 -327.18802,1223.9029 -330.11469,1205.4099 C -339.54087,1145.8484 -365.58386,1071.7441 -397.7985,1012.8184 C -421.43542,969.58267 -445.42373,935.7673 -473.70413,905.81725 C -487.8386,890.84829 -494.57921,882.64739 -502.00543,871.38478 C -518.7205,846.03465 -529.56368,815.84142 -534.70977,780.31837 C -536.78841,765.96967 -536.23666,729.38102 -533.68435,712.31837 C -525.67598,658.78106 -503.17695,605.93802 -469.18005,560.81837 C -458.91114,547.18979 -450.30911,537.25745 -434.02572,520.22743 C -413.71473,498.98511 -398.52827,481.99244 -385.39998,465.81837 C -317.81101,382.54864 -263.69728,281.10808 -246.15286,204.7884 C -242.06462,187.0042 -240.6982,175.35501 -239.58775,148.81837 C -237.67946,103.21559 -231.97539,71.665251 -220.05894,40.800688 C -204.90324,1.5461725 -183.39604,-23.858914 -158.13966,-32.340626 C -143.10283,-37.390365 -126.07755,-35.763775 -111.74997,-27.908569 C -76.818185,-8.7569445 -51.399705,44.316065 -42.914225,115.81837 C -40.580345,135.48459 -40.572915,172.07652 -42.899805,186.81837 C -52.237815,245.9787 -79.148965,313.04228 -122.62198,385.48902 C -157.45822,443.54278 -194.25976,491.8402 -239.44978,538.81094 C -259.04567,559.17901 -269.12797,570.84521 -279.85641,585.56535 C -341.24781,669.79844 -354.58877,772.59298 -313.45851,844.47578 C -306.83505,856.05153 -298.95301,866.16175 -284.77842,881.26351 C -254.1122,913.93561 -230.17034,947.06158 -206.99242,988.88827 C -163.89965,1066.6531 -136.38974,1149.6719 -127.98396,1227.3184 C -125.66671,1248.7234 -126.44863,1297.8521 -129.51892,1323.7617 C -137.67441,1392.5843 -156.44836,1445.1993 -182.72147,1472.8648 C -198.96466,1489.9688 -216.83105,1496.9455 -235.04921,1493.2985 z M -214.05942,1455.3254 C -198.93949,1444.9226 -183.70888,1414.6636 -173.53689,1374.8184 C -165.86995,1344.7859 -161.87911,1313.6993 -160.89159,1276.3184 C -160.22931,1251.2487 -161.14153,1235.3926 -164.65853,1210.8418 C -178.16066,1116.5889 -228.93784,1001.1672 -288.94836,928.31837 C -292.79948,923.64337 -302.06158,913.26996 -309.53081,905.26635 C -329.71674,883.63625 -340.58064,868.4787 -349.98888,848.81837 C -359.2514,829.46255 -365.48701,808.76507 -369.18089,785.11544 C -371.3854,771.00132 -371.68799,733.88521 -369.72546,718.31837 C -362.0357,657.32313 -334.79436,596.50673 -292.3672,545.61573 C -288.60606,541.10427 -276.87087,528.26967 -266.28899,517.09439 C -245.05883,494.6737 -236.59605,485.28769 -225.45669,471.80757 C -147.7962,377.82797 -88.648095,262.47658 -77.027305,182.33871 C -72.607905,151.86218 -76.862155,103.75746 -87.022665,69.316701 C -101.52077,20.172924 -127.40554,-8.2893805 -149.28632,0.8529945 C -166.77325,8.1595015 -185.0841,37.638613 -194.91909,74.318371 C -201.22742,97.845411 -204.1292,119.65548 -205.54447,154.17994 C -206.59155,179.72243 -207.96116,191.27168 -212.20185,210.31837 C -232.44469,301.23712 -299.77906,422.23481 -381.17066,513.94988 C -386.60386,520.07221 -399.01815,533.43555 -408.75796,543.6462 C -443.87006,580.45564 -464.16218,610.13404 -480.32583,648.31837 C -494.38277,681.52587 -500.4495,709.08509 -501.283,743.52015 C -502.23172,782.71497 -496.86983,808.27542 -481.37275,838.43344 C -473.94956,852.8793 -464.96551,864.93522 -448.66976,882.31837 C -434.53794,897.39318 -425.5515,908.01719 -414.41233,922.81837 C -363.35004,990.66747 -320.57729,1085.1433 -301.50806,1172.1998 C -294.51312,1204.1337 -291.97602,1226.8366 -290.55792,1270.186 C -289.35267,1307.0287 -287.65001,1325.0669 -282.89967,1351.3184 C -272.58709,1408.3082 -250.10654,1453.6511 -229.47789,1459.0692 C -224.88465,1460.2756 -219.27421,1458.9133 -214.05942,1455.3254 z"
       id="path6830" />
  </g>
</svg>
