<?xml version="1.0" encoding="UTF-8" standalone="no"?>
<!-- Created with Inkscape (http://www.inkscape.org/) -->
<svg
   xmlns:dc="http://purl.org/dc/elements/1.1/"
   xmlns:cc="http://creativecommons.org/ns#"
   xmlns:rdf="http://www.w3.org/1999/02/22-rdf-syntax-ns#"
   xmlns:svg="http://www.w3.org/2000/svg"
   xmlns="http://www.w3.org/2000/svg"
   xmlns:sodipodi="http://sodipodi.sourceforge.net/DTD/sodipodi-0.dtd"
   xmlns:inkscape="http://www.inkscape.org/namespaces/inkscape"
   width="825.58929"
   height="1529.7281"
   id="svg5423"
   sodipodi:version="0.32"
   inkscape:version="0.46"
   version="1.0"
   sodipodi:docname="dinoflagellata.svg"
   inkscape:output_extension="org.inkscape.output.svg.inkscape">
  <defs
     id="defs5425">
    <inkscape:perspective
       sodipodi:type="inkscape:persp3d"
       inkscape:vp_x="0 : 526.18109 : 1"
       inkscape:vp_y="0 : 1000 : 0"
       inkscape:vp_z="744.09448 : 526.18109 : 1"
       inkscape:persp3d-origin="372.04724 : 350.78739 : 1"
       id="perspective5431" />
  </defs>
  <sodipodi:namedview
     id="base"
     pagecolor="#ffffff"
     bordercolor="#666666"
     borderopacity="1.0"
     inkscape:pageopacity="0.0"
     inkscape:pageshadow="2"
     inkscape:zoom="0.35"
     inkscape:cx="350"
     inkscape:cy="520"
     inkscape:document-units="px"
     inkscape:current-layer="layer1"
     showgrid="false"
     inkscape:window-width="640"
     inkscape:window-height="713"
     inkscape:window-x="300"
     inkscape:window-y="302" />
  <metadata
     id="metadata5428">
    <rdf:RDF>
      <cc:Work
         rdf:about="">
        <dc:format>image/svg+xml</dc:format>
        <dc:type
           rdf:resource="http://purl.org/dc/dcmitype/StillImage" />
      </cc:Work>
    </rdf:RDF>
  </metadata>
  <g
     inkscape:label="Ebene 1"
     inkscape:groupmode="layer"
     id="layer1"
     transform="translate(62.794647,232.50188)">
    <path
       style="fill:#000000"
       d="M 223.54901,1296.8975 C 192.98686,1292.3731 169.15181,1284.6798 139.08653,1269.6354 C 96.010312,1248.0804 57.420532,1220.1331 23.034403,1185.5887 C -4.5286753,1157.8988 -18.804523,1137.2062 -25.001013,1115.9622 C -41.070602,1060.8693 -59.641889,858.04362 -62.553114,705.83826 C -63.525174,655.01676 -61.684074,628.75425 -54.817856,595.49812 C -33.286417,491.21184 21.144311,361.91837 74.845802,287.49812 C 116.0315,230.42243 222.44568,102.24488 335.23361,-26.143065 L 352.04901,-45.284255 L 352.04901,-138.89306 L 352.04901,-232.50188 L 369.04901,-232.50188 L 386.04901,-232.50188 L 386.06375,-140.75188 C 386.07515,-69.828795 386.35889,-48.495725 387.31375,-46.772095 C 387.99314,-45.545725 399.17342,-29.795725 412.15882,-11.772095 C 526.89012,147.47402 631.13174,316.67652 687.09523,434.49812 C 727.60195,519.77813 745.50023,573.81988 754.49309,637.99812 C 769.94447,748.26799 763.8574,867.16622 735.97327,999.74442 C 727.72026,1038.9842 706.96333,1119.2403 697.48296,1148.566 C 682.5055,1194.8959 654.88861,1237.4603 625.54901,1259.4339 C 617.6425,1265.3555 602.79656,1272.9024 596.04901,1274.4303 C 581.26174,1277.7786 565.91929,1273.3833 531.87875,1256.0469 C 509.40179,1244.5996 480.23613,1227.6966 446.17257,1206.3758 L 420.79613,1190.4923 L 404.63467,1206.2452 C 353.80281,1255.792 307.82415,1284.3524 262.54901,1294.5039 C 253.82096,1296.4609 230.33592,1297.9023 223.54901,1296.8975 z M 256.50826,1261.0054 C 279.1078,1256.2503 308.22083,1241.5157 335.58727,1220.9821 C 362.22143,1200.998 382.78471,1181.4758 411.67703,1148.7445 L 414.54901,1145.4909 L 430.04901,1155.6251 C 504.00168,1203.9765 566.69808,1238.7064 584.41617,1241.1349 C 587.91925,1241.6151 589.67084,1241.1094 595.79218,1237.8503 C 622.04155,1223.8749 647.81298,1187.5076 663.71723,1141.9981 C 669.95916,1124.137 688.94345,1053.4631 697.4288,1016.4981 C 703.35781,990.66932 713.04901,941.61892 713.04901,937.43882 C 713.04901,936.02712 710.44119,936.72122 697.29901,941.63132 C 642.7532,962.01012 584.44814,975.78592 524.54901,982.44722 C 476.17035,987.82742 443.27809,988.83172 335.95722,988.20592 C 237.1996,987.63002 205.11054,986.37642 149.04901,980.90462 C 92.910732,975.42522 39.469732,965.49392 -3.4052263,952.57312 C -8.8800583,950.92322 -13.578139,949.79192 -13.845408,950.05922 C -14.802045,951.01582 -7.7808833,1016.1872 -3.4133153,1046.8913 C 2.4268997,1087.9481 6.1902587,1104.9291 12.123866,1116.9981 C 27.459232,1148.1904 76.479392,1193.7325 128.04901,1224.6982 C 163.65495,1246.0783 194.57224,1258.1842 225.54901,1262.875 C 231.19144,1263.7295 248.54132,1262.6817 256.50826,1261.0054 z M 477.04901,952.60362 C 563.25831,946.45912 628.52886,932.27342 699.22549,904.31632 C 708.94756,900.47172 717.57883,896.80232 718.40611,896.16212 C 721.51217,893.75842 730.53956,787.49812 727.6377,787.49812 C 727.41148,787.49812 722.01167,789.73092 715.63812,792.45992 C 627.60516,830.15372 466.94027,852.13202 293.54901,850.19992 C 257.18079,849.79462 237.95738,849.12252 218.97938,847.59262 C 134.48306,840.78112 64.757922,827.59082 -6.8047153,804.87962 C -16.349265,801.85052 -24.409883,799.62372 -24.717198,799.93102 C -25.309382,800.52322 -20.522028,878.33482 -18.591339,899.49812 L -17.450988,911.99812 L -1.9509883,917.17182 C 61.105682,938.21952 147.43246,950.08492 265.04901,953.87052 C 289.19645,954.64772 462.93669,953.60952 477.04901,952.60362 z M 373.04901,815.50452 C 531.5243,809.20012 650.95933,787.69702 719.94818,753.04876 C 728.09657,748.9564 729.04825,748.1913 729.04176,745.73808 C 729.01791,736.73096 725.86181,685.60751 724.55115,672.99812 C 720.11783,630.3465 714.53126,601.21212 704.41722,567.99812 C 667.15168,445.62004 551.36513,242.02191 391.77361,18.248125 C 379.71192,1.335625 369.54488,-12.501875 369.18019,-12.501875 C 368.34523,-12.501875 361.75555,-4.978225 306.98622,58.507005 C 181.18995,204.32227 112.28313,289.70646 85.182162,333.35006 C 46.878072,395.03523 11.259893,478.86645 -11.328428,560.49812 C -27.322755,618.29983 -30.356481,647.59048 -28.12413,722.6608 C -27.483625,744.19994 -26.779657,762.00278 -26.559756,762.22268 C -25.565016,763.21743 8.6323247,774.23292 28.549012,779.97412 C 62.453792,789.74742 99.509612,797.93042 137.31079,803.99182 C 168.53763,808.99902 228.21191,814.84212 258.04901,815.81412 C 280.90639,816.55872 351.31341,816.36922 373.04901,815.50452 z M 342.59497,613.35199 C 298.06862,609.15242 261.80303,574.92463 254.55975,530.26356 C 251.98417,514.38285 252.87199,501.77251 257.71142,485.49812 C 267.29228,453.27894 294.37791,427.29265 327.54901,418.49506 C 337.9311,415.74154 356.31741,414.78596 366.75108,416.45764 C 412.50056,423.78763 446.40249,459.42863 450.97131,504.99812 C 455.76693,552.82978 424.97612,597.42674 378.2085,610.38671 C 371.67516,612.19719 368.4819,612.67925 355.04901,613.88289 C 353.12401,614.05538 347.51969,613.81647 342.59497,613.35199 z M 366.24979,578.4139 C 369.16436,577.81758 375.78416,575.2972 380.96045,572.81307 C 402.899,562.28461 417.12166,539.84584 417.27182,515.52543 C 417.34459,503.74037 415.67603,496.55966 410.32314,485.62154 C 399.95349,464.43214 379.63917,451.01065 356.09463,449.79327 C 336.90901,448.80127 320.51197,455.01332 307.04059,468.37749 C 286.39171,488.86205 281.58245,517.10297 294.24802,543.49812 C 301.81714,559.27225 318.45215,573.07725 335.16504,577.4542 C 343.56503,579.65408 358.00877,580.10001 366.24979,578.4139 z"
       id="path5421" />
  </g>
</svg>
