<?xml version="1.0" encoding="UTF-8" standalone="no"?>
<!-- Created with Inkscape (http://www.inkscape.org/) -->
<svg
   xmlns:dc="http://purl.org/dc/elements/1.1/"
   xmlns:cc="http://creativecommons.org/ns#"
   xmlns:rdf="http://www.w3.org/1999/02/22-rdf-syntax-ns#"
   xmlns:svg="http://www.w3.org/2000/svg"
   xmlns="http://www.w3.org/2000/svg"
   xmlns:sodipodi="http://sodipodi.sourceforge.net/DTD/sodipodi-0.dtd"
   xmlns:inkscape="http://www.inkscape.org/namespaces/inkscape"
   width="989.60352"
   height="1344.6809"
   id="svg4336"
   sodipodi:version="0.32"
   inkscape:version="0.46"
   sodipodi:docname="insekten.svg"
   inkscape:output_extension="org.inkscape.output.svg.inkscape"
   version="1.0">
  <defs
     id="defs4338">
    <inkscape:perspective
       sodipodi:type="inkscape:persp3d"
       inkscape:vp_x="0 : 526.18109 : 1"
       inkscape:vp_y="0 : 1000 : 0"
       inkscape:vp_z="744.09448 : 526.18109 : 1"
       inkscape:persp3d-origin="372.04724 : 350.78739 : 1"
       id="perspective4344" />
  </defs>
  <sodipodi:namedview
     id="base"
     pagecolor="#ffffff"
     bordercolor="#666666"
     borderopacity="1.0"
     inkscape:pageopacity="0.0"
     inkscape:pageshadow="2"
     inkscape:zoom="0.35"
     inkscape:cx="350"
     inkscape:cy="520"
     inkscape:document-units="px"
     inkscape:current-layer="layer1"
     showgrid="false"
     inkscape:window-width="640"
     inkscape:window-height="713"
     inkscape:window-x="340"
     inkscape:window-y="340" />
  <metadata
     id="metadata4341">
    <rdf:RDF>
      <cc:Work
         rdf:about="">
        <dc:format>image/svg+xml</dc:format>
        <dc:type
           rdf:resource="http://purl.org/dc/dcmitype/StillImage" />
      </cc:Work>
    </rdf:RDF>
  </metadata>
  <g
     inkscape:label="Ebene 1"
     inkscape:groupmode="layer"
     id="layer1"
     transform="translate(144.80176,139.97827)">
    <path
       style="fill:#000000"
       d="M 68.502759,1198.1543 C 64.104279,1194.563 59.445289,1190.7907 58.149439,1189.7714 L 55.793359,1187.9181 L 81.896679,1150.1931 L 108,1112.468 L 108.07299,1080.9183 C 108.11313,1063.5659 108.5012,1036.3185 108.93537,1020.3685 L 109.72476,991.36854 L 106.42387,985.83894 C 104.60839,982.79774 91.658789,966.01404 77.646979,948.54204 C 41.658599,903.66634 27.574939,883.38644 15.119679,858.50546 C -3.7112115,820.88831 -5.8127615,790.70292 8.0763785,757.3397 C 20.690429,727.03939 53.695399,688.84827 92.249999,659.93965 L 97.999999,655.62825 L 98.002739,621.99839 C 98.008079,556.50719 102.00286,504.45598 110.00989,465.54746 C 111.61473,457.74906 113.41685,449.67499 114.01461,447.6051 C 114.61236,445.53522 114.82705,443.39772 114.4917,442.8551 C 113.71636,441.60059 99.935259,441.56246 96.665069,442.80578 C 91.035789,444.94603 57.827389,490.28652 15.320169,553.86854 L 4.2892385,570.36854 L -62.946204,614.21138 C -125.23001,654.82536 -130.27768,657.9185 -131.48559,656.21138 C -132.20277,655.19782 -135.557,650.79559 -138.93944,646.42865 C -142.32188,642.0617 -144.95673,637.70612 -144.79467,636.74956 C -144.6326,635.79301 -119.525,612.36596 -89.000001,584.68946 L -33.500001,534.36854 L -10.675371,502.36854 C 16.535379,464.21923 46.091479,423.81638 58.435869,407.89426 C 77.743759,382.99044 83.058779,378.45174 96.596259,375.30768 C 105.09758,373.33327 123.7012,373.15641 137.5,374.91883 C 152.49505,376.83405 151.93132,376.9233 155.67854,372.0408 C 158.9167,367.82159 159,367.4689 159,357.97722 C 159,346.94919 160.97901,330.65416 163.93186,317.36854 C 166.03066,307.92554 171.14284,289.24278 172.86707,284.71432 C 173.8378,282.16481 173.17012,281.42147 155.94329,265.87251 C 131.56676,243.8702 127.03359,238.77771 123.24116,229.13541 C 117.07559,213.45938 112.51936,187.00093 108.7736,145.12103 L 106.5,119.7007 L 68.569389,85.034616 C 47.707559,65.968276 29.972259,49.871336 29.157609,49.263656 C 27.918319,48.339206 29.039389,46.421316 36.022529,37.519406 L 44.368609,26.880036 L 46.934309,28.553146 C 69.219799,43.085676 150.63766,98.279746 151.09748,99.166516 C 151.44029,99.827626 155.47419,125.42302 160.06171,156.04516 L 168.40266,211.72178 L 180.95133,214.83623 C 187.8531,216.54918 194.1879,218.15591 195.02866,218.40675 C 196.17533,218.74885 197.4082,216.55211 199.96243,209.61568 C 212.93636,174.38286 230.81883,152.00898 259.68595,134.89182 L 266.87191,130.63081 L 261.04085,126.73698 C 249.42062,118.97729 243.98622,110.33421 243.21994,98.393936 C 242.31241,84.252796 247.98125,72.859106 263.74405,57.142906 C 269.38482,51.518806 274,46.753966 274,46.554356 C 274,45.643386 240.55915,17.171186 222,2.2805158 C 184.51257,-27.796984 166.87729,-39.375764 144.5,-48.603593 C 121.90994,-57.919164 90.632349,-78.453446 52.749999,-108.83906 C 46.287499,-114.02267 40.999999,-118.48073 40.999999,-118.74588 C 40.999999,-119.10791 49.308239,-130.42295 56.581789,-139.96681 C 56.722349,-140.15125 60.136459,-138.08693 64.168679,-135.37942 C 93.261629,-115.84448 128.61536,-98.247691 167.10396,-84.144935 C 189.10282,-76.084247 201.66592,-69.871439 217.83613,-59.056453 C 239.15408,-44.798543 266.08538,-21.414874 288.46355,2.2672858 L 300.65207,15.166036 L 300.77238,10.267286 C 301.00788,0.67847584 305.98011,-8.9793342 313.21768,-13.905804 C 318.06364,-17.204354 326.00623,-20.131464 330.11075,-20.131464 C 333.37237,-20.131464 333.48447,-19.833414 335,-7.1314642 C 335.62342,-1.9064642 336.3291,3.0625258 336.56818,3.9107458 C 336.88258,5.0261758 335.77794,5.7805758 332.57641,6.6368558 C 327.57246,7.9752058 326.52387,9.8136258 327.57343,15.408256 C 328.15638,18.515646 328.55811,18.946226 330.37694,18.413056 C 336.58159,16.594216 346.03562,14.903266 350,14.903266 C 353.97714,14.903266 363.38742,16.588876 369.68595,18.429496 C 371.57161,18.980546 371.96243,18.585726 372.53093,15.555356 C 373.56999,10.016666 372.4177,7.9725758 367.51754,6.6619858 C 363.43394,5.5697858 363.21133,5.3269858 363.64281,2.4358758 C 363.89459,0.74883584 364.65304,-4.9064642 365.32824,-10.131464 C 366.52688,-19.406974 366.62098,-19.639014 369.31048,-19.951024 C 372.3261,-20.300874 381.04573,-17.713684 385,-15.295824 C 392.76291,-10.549134 397.19852,-3.3977042 399.07964,7.4044458 L 400.26611,14.217676 L 411.99251,1.7931058 C 433.91867,-21.438504 462.52638,-46.141127 483.69617,-60.122652 C 498.48529,-69.890086 510.84059,-75.95237 531.5,-83.578201 C 557.15138,-93.046675 571.10056,-99.080609 590.51795,-109.10733 C 608.39773,-118.34006 623.56946,-127.13506 635.83132,-135.37533 C 639.86354,-138.08509 643.27765,-140.15125 643.41821,-139.96681 C 650.69176,-130.42295 659,-119.10791 659,-118.74588 C 659,-118.48073 653.7125,-114.02267 647.25,-108.83906 C 609.36765,-78.453446 578.09006,-57.919164 555.5,-48.603593 C 536.66896,-40.838146 525.319,-33.909484 499.5,-14.417994 C 477.94834,1.8519558 426,44.927416 426,46.528056 C 426,46.755116 430.22677,50.981716 435.39282,55.920496 C 450.83069,70.679186 457,82.212696 457,96.315036 C 457,108.93823 451.0436,118.96243 438.83736,126.88146 L 433.17473,130.5552 L 439.83736,134.44989 C 450.38173,140.61367 460.80645,148.92167 470.02217,158.50574 C 483.28833,172.30215 491.0901,185.21766 499.2197,206.84103 C 501.3852,212.60089 503.34105,217.61136 503.56603,217.97539 C 503.79102,218.33942 510.19014,217.081 517.78631,215.17891 L 531.59753,211.72057 L 539.93838,156.04455 C 544.52585,125.42275 548.5597,99.827656 548.90249,99.166576 C 549.36325,98.277976 632.29596,42.053076 653.06569,28.548296 L 655.63139,26.880036 L 663.86745,37.379146 L 672.1035,47.878256 L 666.30175,53.227046 C 663.11079,56.168886 645.65,72.145576 627.5,88.730806 C 609.35,105.31604 594.19288,119.8944 593.81752,121.12716 C 593.44215,122.35992 592.19277,134.16854 591.0411,147.36854 C 587.59275,186.89251 582.97458,213.33183 576.75884,229.13541 C 572.96696,238.77631 568.43243,243.87094 544.07628,265.85484 L 526.16147,282.02477 L 528.12741,287.69666 C 531.06907,296.18355 536.57828,318.10178 538.47608,328.86854 C 539.39706,334.09354 540.36681,344.44354 540.63108,351.86854 C 541.21733,368.34023 541.24471,368.46569 545.26998,373.12809 L 548.51578,376.88764 L 559.50789,375.31103 C 574.10706,373.21706 594.45892,373.21177 603.40374,375.29963 C 616.87405,378.44381 622.35716,383.13188 641.55446,407.91865 C 653.55817,423.41734 685.09572,466.52941 711.73835,503.86056 L 733.5,534.35257 L 789,584.69307 C 819.525,612.38035 844.6326,635.81099 844.79467,636.76116 C 844.95673,637.71134 842.32188,642.0617 838.93944,646.42865 C 835.55699,650.79559 832.20276,655.19782 831.48559,656.21138 C 830.27769,657.91849 825.23343,654.82671 762.9993,614.23412 L 695.81696,570.41402 L 675.22341,539.89128 C 634.97145,480.23183 608.79624,444.88217 603.33493,442.80578 C 600.21949,441.62129 586.30022,441.57376 585.57627,442.74513 C 585.2783,443.22726 585.68301,445.81476 586.47562,448.49513 C 587.26824,451.17551 589.06138,459.25241 590.46037,466.4438 C 598.29989,506.74211 601.99212,556.18947 601.99726,620.94902 L 602,655.5295 L 606.49498,658.75755 C 623.01915,670.62431 652.76359,698.79369 665.74336,714.86854 C 683.67942,737.08153 696.61329,763.17889 699.93981,783.86854 C 704.98738,815.26245 694.18877,848.46072 664.48469,892.86854 C 654.08304,908.41904 642.40639,923.70674 614.5,958.31084 C 606.25,968.54094 597.31095,980.16194 594.63544,984.13524 C 589.9117,991.15044 589.78875,991.51894 590.38843,996.86404 C 590.7281,999.89154 591.30179,1027.1998 591.66332,1057.5493 L 592.32063,1112.73 L 618.26926,1150.357 C 632.54101,1171.0518 644.05637,1188.104 643.85895,1188.2508 C 643.66153,1188.3976 638.96091,1192.1593 633.41314,1196.6101 L 623.32629,1204.7026 L 578.44909,1157.0861 L 533.57189,1109.4696 L 532.65222,1036.7762 L 531.73255,964.08274 L 553.16791,937.22564 C 599.41013,879.28724 628.86837,837.99076 640.22188,815.18787 L 645.29081,805.0072 L 620.89541,779.91719 L 596.5,754.82718 L 595.82906,758.09786 C 595.46004,759.89673 594.18267,768.79354 592.99046,777.86854 C 581.12905,868.15644 554.76539,925.76384 512.34013,954.09794 C 498.32764,963.45634 489.51279,967.60064 440.80462,987.73024 C 359.10441,1021.4945 355.55925,1022.8685 350.14064,1022.8685 C 344.83865,1022.8685 339.24998,1020.713 259.5,987.90924 C 200.1581,963.49984 187.05646,956.36024 169.10635,938.65004 C 137.96613,907.92594 117.05407,853.42468 107.03102,776.86854 C 105.84288,767.79354 104.56235,759.24354 104.18538,757.86854 C 103.54888,755.54685 101.75772,757.13397 79.071579,780.12146 L 54.643169,804.87438 L 59.754339,815.12146 C 71.173659,838.01537 100.77838,879.52934 146.82548,937.21924 L 168.25728,964.07004 L 167.34072,1036.7956 L 166.42415,1109.5213 L 125.0765,1153.4449 C 102.33529,1177.6029 82.102349,1199.0145 80.114419,1201.0262 L 76.499999,1204.6839 L 68.502759,1198.1543 z M 140.55773,1035.8416 L 141.27083,973.31474 L 124.88037,952.84164 C 72.163979,886.99434 39.627269,839.62483 30.445639,815.35627 C 27.215769,806.81921 26.883289,797.54529 29.651239,793.19825 C 30.642229,791.64191 47.142199,774.39354 66.317849,754.86854 L 101.18266,719.36854 L 100.62353,712.36854 C 100.31601,708.51854 99.778699,701.6631 99.429509,697.13422 L 98.794609,688.8999 L 91.614399,694.83917 C 80.593669,703.9552 59.220479,726.28367 51.383159,736.86854 C 39.903819,752.37222 34.173679,762.79359 29.389319,776.86854 C 26.708649,784.75473 26.504719,786.41564 26.565409,799.86854 C 26.622939,812.62076 26.942259,815.33283 29.214519,822.36854 C 39.019829,852.72909 54.126659,876.48654 99.479049,932.86854 C 111.64525,947.99354 123.52843,963.21364 125.88611,966.69094 C 131.77905,975.38224 135.90891,984.59144 136.05588,989.36854 C 136.12356,991.56854 135.8622,1018.1185 135.47507,1048.3685 L 134.7712,1103.3685 L 137.30792,1100.8685 L 139.84464,1098.3685 L 140.55773,1035.8416 z M 564.55446,1048.1185 C 564.14297,1018.006 563.85912,991.38754 563.92368,988.96634 C 564.17009,979.72504 569.84788,971.02694 600.80266,932.46954 C 632.51894,892.96354 642.50996,879.13214 655.0512,857.36854 C 662.04743,845.22755 666.86101,834.52002 670.78548,822.36854 C 673.05774,815.33283 673.37706,812.62076 673.43459,799.86854 C 673.49529,786.41178 673.29196,784.75698 670.60852,776.86854 C 665.10282,760.68363 655.83128,744.86865 642.46849,728.86854 C 635.61283,720.65983 611.96308,697.22423 605.34078,692.07704 L 601.18156,688.84428 L 600.57538,697.10641 C 600.24199,701.65058 599.86364,708.56668 599.7346,712.47552 L 599.5,719.58249 L 635.20047,756.1041 C 660.3469,781.82891 671.08121,793.47458 671.51071,795.49713 C 671.84607,797.0764 672.29196,799.21619 672.50157,800.25222 C 673.95852,807.4534 665.15319,828.05257 651.50628,849.36854 C 635.5278,874.32634 606.27826,913.95184 575.12493,952.84544 L 558.72317,973.32224 L 559.44805,1035.8454 C 560.16118,1097.3558 560.20674,1098.4049 562.26078,1100.6185 C 563.40909,1101.856 564.56328,1102.8685 564.82563,1102.8685 C 565.08798,1102.8685 564.96595,1078.231 564.55446,1048.1185 z M 364.73618,989.97034 C 401.32237,975.35384 468.55665,947.23814 479,942.18804 L 490.5,936.62694 L 420.12058,901.74774 C 381.41189,882.56414 349.34811,866.86854 348.86772,866.86854 C 347.5566,866.86854 210,935.78174 210,936.43864 C 210,937.71884 237.04671,949.66204 278.5,966.68644 C 331.83695,988.59134 349.42471,995.78764 349.73618,995.83364 C 349.86608,995.85284 356.61608,993.21434 364.73618,989.97034 z M 335,617.12167 L 335,390.86854 L 315.73437,390.86854 L 296.46874,390.86854 L 284.5,378.86854 L 272.53126,366.86854 L 229.28468,366.86854 L 186.0381,366.86854 L 185.47359,369.61854 C 183.18568,380.76386 180.9507,384.55961 169.4098,396.90032 C 152.93898,414.51262 143.78229,434.56897 136.5296,468.91954 C 127.86992,509.93397 124.39564,562.52228 125.33483,638.36854 C 126.61946,742.11154 135.05163,809.67622 152.99024,859.96384 C 160.50799,881.03854 173.20746,904.12984 182.7357,914.04974 L 186.27158,917.73094 L 260.63579,880.55294 L 335,843.3748 L 335,617.12167 z M 517.61794,913.86964 C 536.38654,893.09504 551.50098,856.11008 560.94676,807.84414 C 569.97149,761.7297 573.81467,714.16206 574.6798,637.86854 C 576.01652,519.98611 566.753,452.05085 544.15536,414.01339 C 541.91314,410.23917 535.78239,402.47508 530.53148,396.75985 C 519.97778,385.27293 516.51777,379.37534 514.88109,370.08374 L 513.7863,363.86854 L 473.62926,363.86854 L 433.47221,363.86854 L 420,377.36854 L 406.52779,390.86854 L 384.26389,390.86854 L 362,390.86854 L 362,616.92768 L 362,842.98682 L 437.25,880.34454 C 478.6375,900.89124 512.83867,917.73964 513.2526,917.78534 C 513.66653,917.83114 515.63093,916.06904 517.61794,913.86964 z M 614.32258,416.57254 C 607.48383,407.9574 602.26521,402.79148 599.57691,401.97581 C 594.05707,400.30101 585.78175,399.73547 576.92882,400.42802 L 568.24296,401.1075 L 572.26192,409.02823 L 576.28087,416.94897 L 580.89043,416.15875 C 588.64268,414.82979 607.03266,415.44009 611.5,417.17458 C 613.7,418.02875 615.64516,418.75932 615.82258,418.79808 C 616,418.83683 615.325,417.83534 614.32258,416.57254 z M 94.999999,415.72698 C 100.1974,414.69896 115.22478,415.11563 121.08666,416.4503 C 123.48502,416.99637 123.96797,416.45854 127.72069,409.06251 L 131.76806,401.08577 L 123.46957,400.39451 C 114.91284,399.68174 105.84862,400.3064 100.36574,401.98671 C 97.650779,402.81875 92.335279,408.1086 85.991129,416.29195 C 84.592389,418.0962 84.654889,418.17198 86.999999,417.51511 C 88.374999,417.12997 91.974999,416.32531 94.999999,415.72698 z M 408.99008,350.37848 L 422.45238,336.88841 L 467.57317,336.62848 L 512.69397,336.36854 L 510.41826,325.36854 C 506.66241,307.21397 500.14006,287.24367 480.20713,232.86738 C 467.17809,197.32464 463.59855,190.6532 449.90315,176.38776 C 439.81213,165.87672 427.3632,157.45761 406.5,147.03456 C 387.8625,137.72346 379.67787,134.65591 366.07659,131.88415 C 349.37995,128.48159 336.30946,129.69774 317.78903,136.37709 C 303.32206,141.59457 280.37825,153.14475 267.50922,161.68852 C 252.32112,171.77194 238.28379,188.13435 231.11623,204.10948 C 224.08063,219.79051 199.86198,287.24644 194.40224,306.36854 C 191.71551,315.77852 187,336.8331 187,339.4193 C 187,339.66638 208.71953,339.86854 235.26563,339.86854 L 283.53126,339.86854 L 295.5,351.86854 L 307.46874,363.86854 L 351.49826,363.86854 L 395.52779,363.86854 L 408.99008,350.37848 z M 185.18729,248.96202 L 186.75634,244.0555 L 176.62817,241.54428 L 166.5,239.03306 L 174.5,246.43714 C 178.9,250.50939 182.75161,253.84737 183.05913,253.85488 C 183.36665,253.86239 184.32432,251.66061 185.18729,248.96202 z M 525.5,246.43714 L 533.5,239.03306 L 523.21125,241.58455 C 516.77845,243.17981 513.10006,244.55438 513.39627,245.25229 C 513.65685,245.86623 514.42052,248.05604 515.09331,250.11854 C 515.76611,252.18104 516.58285,253.86239 516.90829,253.85488 C 517.23373,253.84737 521.1,250.50939 525.5,246.43714 z M 308.5,111.29343 C 328.80992,104.03363 344.41137,101.76966 360.51291,103.74568 C 370.98272,105.03056 385.72791,108.71093 394.96397,112.34458 L 401.42795,114.88763 L 405.96397,112.84816 C 408.45879,111.72644 411.77451,110.24691 413.33224,109.56031 L 416.16448,108.31195 L 410.86982,104.88112 C 398.24637,96.701406 387.70972,81.791806 386.34535,70.178446 C 385.8562,66.014846 386.15731,64.179316 387.8678,60.897656 C 389.04051,58.647766 390,56.565086 390,56.269486 C 390,55.123246 370.59314,46.739876 362.26834,44.289966 C 351.76391,41.198616 346.1809,41.404156 334.56626,45.309856 C 327.14798,47.804426 314.14676,53.547066 311.19214,55.634216 C 310.14751,56.372146 310.32218,57.300266 312.05999,60.245646 C 318.57551,71.288626 307.26235,93.794466 289.76773,104.59277 L 283.77339,108.29268 L 288.1367,110.06062 C 290.53651,111.03298 293.625,112.47141 295,113.25712 C 298.32933,115.15959 297.24135,115.31785 308.5,111.29343 z"
       id="path4334" />
  </g>
</svg>
