<?xml version="1.0" encoding="UTF-8" standalone="no"?>
<!-- Created with Inkscape (http://www.inkscape.org/) -->
<svg
   xmlns:dc="http://purl.org/dc/elements/1.1/"
   xmlns:cc="http://creativecommons.org/ns#"
   xmlns:rdf="http://www.w3.org/1999/02/22-rdf-syntax-ns#"
   xmlns:svg="http://www.w3.org/2000/svg"
   xmlns="http://www.w3.org/2000/svg"
   xmlns:sodipodi="http://sodipodi.sourceforge.net/DTD/sodipodi-0.dtd"
   xmlns:inkscape="http://www.inkscape.org/namespaces/inkscape"
   width="988.25214"
   height="988.43225"
   id="svg3720"
   sodipodi:version="0.32"
   inkscape:version="0.46"
   version="1.0"
   sodipodi:docname="korallen.svg"
   inkscape:output_extension="org.inkscape.output.svg.inkscape">
  <defs
     id="defs3722">
    <inkscape:perspective
       sodipodi:type="inkscape:persp3d"
       inkscape:vp_x="0 : 526.18109 : 1"
       inkscape:vp_y="0 : 1000 : 0"
       inkscape:vp_z="744.09448 : 526.18109 : 1"
       inkscape:persp3d-origin="372.04724 : 350.78739 : 1"
       id="perspective3728" />
  </defs>
  <sodipodi:namedview
     id="base"
     pagecolor="#ffffff"
     bordercolor="#666666"
     borderopacity="1.0"
     inkscape:pageopacity="0.0"
     inkscape:pageshadow="2"
     inkscape:zoom="0.35"
     inkscape:cx="350"
     inkscape:cy="520"
     inkscape:document-units="px"
     inkscape:current-layer="layer1"
     showgrid="false"
     inkscape:window-width="640"
     inkscape:window-height="713"
     inkscape:window-x="140"
     inkscape:window-y="140" />
  <metadata
     id="metadata3725">
    <rdf:RDF>
      <cc:Work
         rdf:about="">
        <dc:format>image/svg+xml</dc:format>
        <dc:type
           rdf:resource="http://purl.org/dc/dcmitype/StillImage" />
      </cc:Work>
    </rdf:RDF>
  </metadata>
  <g
     inkscape:label="Ebene 1"
     inkscape:groupmode="layer"
     id="layer1"
     transform="translate(144.12607,-38.146066)">
    <path
       style="fill:#000000"
       d="M 320.02301,1025.7515 C 245.55178,1021.5567 168.40576,998.46857 104.02301,961.10738 C 4.1988356,903.17961 -70.808863,815.28335 -111.95414,708.01891 C -151.71293,604.36901 -154.73641,486.74714 -120.38016,380.22382 C -79.195562,252.52886 13.856726,145.73624 134.73029,87.443127 C 270.65019,21.893692 428.65364,21.705349 564.28217,86.931092 C 697.19879,150.85264 795.16136,271.5326 829.96369,414.22382 C 859.53381,535.46278 842.37,664.67558 782.48988,771.61634 C 746.58532,835.73881 698.24473,890.35183 640.02301,932.56899 C 547.08399,999.96002 436.06588,1032.288 320.02301,1025.7515 z M 339.52301,892.3898 L 339.52301,779.8898 L 350.02301,779.8898 L 360.52301,779.8898 L 360.52301,892.3898 L 360.52301,1004.8898 L 368.77301,1004.8795 C 373.31051,1004.8738 382.42301,1004.4105 389.02301,1003.8499 C 491.29912,995.16289 585.51896,954.93623 663.02301,886.86706 C 669.07301,881.55355 674.66625,876.42906 675.45244,875.47931 C 676.75358,873.90746 668.09388,864.96415 578.96595,775.83273 L 481.05003,677.91299 L 488.52302,670.38979 L 495.99601,662.86659 L 594.02939,760.89618 L 692.06277,858.92577 L 696.59581,854.15778 C 747.92128,800.17213 788.91425,725.3228 807.92022,650.8898 C 815.95906,619.40734 821.00182,586.64632 822.19684,558.1398 L 822.83613,542.8898 L 709.17957,542.8898 L 595.52301,542.8898 L 595.52301,532.3898 L 595.52301,521.8898 L 709.02301,521.8898 L 822.52301,521.8898 L 822.51269,513.6398 C 822.46805,477.94603 813.15912,426.34645 798.83424,382.3898 C 779.26014,322.32563 741.46221,258.31065 698.59024,212.6155 L 692.15748,205.75912 L 594.07675,303.83607 L 495.99601,401.91301 L 488.52302,394.38981 L 481.05003,386.86661 L 579.00346,288.90936 L 676.95688,190.9521 L 673.98995,187.79437 C 668.59863,182.05633 648.23276,164.86615 635.02301,154.90361 C 562.74759,100.39486 479.62662,68.642681 389.02301,60.931712 C 382.42301,60.370008 373.31051,59.905789 368.77301,59.900114 L 360.52301,59.889797 L 360.52301,173.3898 L 360.52301,286.8898 L 350.02301,286.8898 L 339.52301,286.8898 L 339.52301,173.3898 L 339.52301,59.889797 L 331.27301,59.900114 C 321.38825,59.912476 303.28445,61.390305 287.52301,63.471466 C 203.97226,74.503614 124.51847,107.93103 58.523006,159.81525 C 47.715376,168.31198 30.355256,183.2576 26.298836,187.55757 L 23.574676,190.44531 L 121.04884,287.91563 C 174.65963,341.52431 218.52301,385.84808 218.52301,386.4129 C 218.52301,386.97773 215.2548,390.68625 211.26033,394.65406 L 203.99765,401.86827 L 106.03808,303.90487 L 8.0785056,205.94148 L 5.1907756,208.66564 C 0.84984565,212.76069 -14.136264,230.15178 -22.577164,240.8898 C -44.839781,269.21101 -65.728755,303.40806 -79.99624,334.8898 C -105.3223,390.7727 -119.73253,449.49076 -122.14607,506.6398 L -122.79011,521.8898 L -9.1335544,521.8898 L 104.52301,521.8898 L 104.52301,532.3898 L 104.52301,542.8898 L -9.1335544,542.8898 L -122.79011,542.8898 L -122.15082,558.1398 C -120.79892,590.3889 -114.45559,628.62468 -104.82237,662.59072 C -85.131328,732.01999 -44.487604,803.94241 3.4331456,854.15778 L 7.9832456,858.92577 L 106.01663,760.89618 L 204.05001,662.86659 L 211.51751,670.38427 L 218.98502,677.90194 L 204.50939,692.64587 C 196.54779,700.75503 152.52823,745.00641 106.68815,790.98226 L 23.342536,874.57472 L 31.682766,882.15342 C 92.045036,937.00413 165.70794,975.58937 244.02301,993.379 C 274.32429,1000.2621 305.60061,1004.4347 329.27301,1004.7523 L 339.52301,1004.8898 L 339.52301,892.3898 z"
       id="path3718" />
  </g>
</svg>
