<?xml version="1.0" encoding="UTF-8" standalone="no"?>
<!-- Created with Inkscape (http://www.inkscape.org/) -->
<svg
   xmlns:dc="http://purl.org/dc/elements/1.1/"
   xmlns:cc="http://creativecommons.org/ns#"
   xmlns:rdf="http://www.w3.org/1999/02/22-rdf-syntax-ns#"
   xmlns:svg="http://www.w3.org/2000/svg"
   xmlns="http://www.w3.org/2000/svg"
   xmlns:sodipodi="http://sodipodi.sourceforge.net/DTD/sodipodi-0.dtd"
   xmlns:inkscape="http://www.inkscape.org/namespaces/inkscape"
   width="210mm"
   height="297mm"
   id="svg2615"
   sodipodi:version="0.32"
   inkscape:version="0.46"
   sodipodi:docname="stromatopora.svg"
   inkscape:output_extension="org.inkscape.output.svg.inkscape">
  <defs
     id="defs2617">
    <inkscape:perspective
       sodipodi:type="inkscape:persp3d"
       inkscape:vp_x="0 : 526.18109 : 1"
       inkscape:vp_y="0 : 1000 : 0"
       inkscape:vp_z="744.09448 : 526.18109 : 1"
       inkscape:persp3d-origin="372.04724 : 350.78739 : 1"
       id="perspective2623" />
  </defs>
  <sodipodi:namedview
     id="base"
     pagecolor="#ffffff"
     bordercolor="#666666"
     borderopacity="1.0"
     inkscape:pageopacity="0.0"
     inkscape:pageshadow="2"
     inkscape:zoom="0.35"
     inkscape:cx="350"
     inkscape:cy="520"
     inkscape:document-units="px"
     inkscape:current-layer="layer1"
     showgrid="false"
     inkscape:window-width="640"
     inkscape:window-height="713"
     inkscape:window-x="20"
     inkscape:window-y="20" />
  <metadata
     id="metadata2620">
    <rdf:RDF>
      <cc:Work
         rdf:about="">
        <dc:format>image/svg+xml</dc:format>
        <dc:type
           rdf:resource="http://purl.org/dc/dcmitype/StillImage" />
      </cc:Work>
    </rdf:RDF>
  </metadata>
  <g
     inkscape:label="Ebene 1"
     inkscape:groupmode="layer"
     id="layer1">
    <path
       style="fill:#000000"
       d="M 349.02474,712.59804 C 347.90988,710.65083 346.14564,707.65869 345.1042,705.949 L 343.21067,702.84034 L 348.99501,699.33953 C 396.45377,670.61616 430.05163,624.24898 443.78196,568.52751 C 447.41475,553.78467 448.79758,544.70814 449.94371,528.0832 C 451.77082,501.5806 447.61751,471.0686 438.6671,445.2404 C 436.9803,440.3728 435.69932,436.32158 435.82049,436.23769 C 437.15744,435.31195 450.32783,430.89194 450.68813,431.24808 C 451.57989,432.12957 457.22515,449.75143 459.47367,458.67241 C 464.3107,477.86328 466.23313,494.26574 466.23271,516.3413 C 466.23122,593.35302 428.43839,665.89569 366.8686,707.06906 C 358.24112,712.83847 352.73075,716.14037 351.73178,716.13925 C 351.35777,716.13888 350.1396,714.54534 349.02474,712.59804 z M 132.73211,638.56307 C 129.92623,638.23713 127.52788,637.86191 127.40245,637.72921 C 127.14778,637.45971 128.58055,622.70912 128.89643,622.34851 C 129.00678,622.22252 134.67637,622.50127 141.49553,622.96796 C 191.60064,626.39675 243.67714,609.44979 285.81897,576.00147 C 294.71231,568.94276 311.62027,552.25256 318.31345,543.92542 C 337.16186,520.4759 351.46504,493.68374 358.56582,468.52628 L 360.59363,461.34198 L 365.51442,462.75964 C 368.22086,463.53934 371.69328,464.5207 373.23091,464.94043 C 374.76854,465.36016 376.0266,466.05283 376.0266,466.47969 C 376.0266,468.58932 367.35254,492.84484 363.69336,500.96747 C 341.24338,550.80185 302.68291,590.94261 253.76171,615.40431 C 228.5238,628.02384 205.26954,634.96811 177.35072,638.22252 C 167.0581,639.42228 141.78854,639.61515 132.73211,638.56307 z M 638.85571,603.44136 C 635.59421,603.06957 632.83048,602.67013 632.71408,602.55375 C 632.59768,602.43738 632.89952,596.88744 633.38482,590.22065 C 635.9004,555.66315 628.11907,518.23716 611.51431,485.02956 C 584.83576,431.67555 537.58701,391.33973 480.95821,373.57504 C 476.1403,372.06363 472.19838,370.50194 472.19838,370.10459 C 472.19838,369.32616 475.98059,355.82905 476.30238,355.45912 C 476.69004,355.01347 501.09272,363.38664 508.35598,366.45751 C 540.79331,380.17178 572.60827,403.93723 595.92199,431.86841 C 624.21619,465.76649 641.54831,504.731 648.25417,549.51681 C 649.35582,556.87432 649.69737,598.64381 648.68548,602.26218 C 648.04725,604.54443 648.2834,604.5161 638.85571,603.44136 z M 165.41787,471.12182 C 128.40609,468.17077 98.235896,459.62053 68.44033,443.63837 C 58.902483,438.52233 43.488868,428.30412 34.579523,421.19089 C 24.055542,412.78854 0.28571143,388.35346 0.28571143,385.93729 C 0.28571143,385.15067 11.117359,376.18398 12.067596,376.18398 C 12.465777,376.18398 14.703195,378.54997 17.039625,381.44172 C 32.035078,400.0013 57.067563,419.81862 80.630161,431.78404 C 102.40148,442.83983 122.96943,449.26066 150.13476,453.48175 C 163.5827,455.57136 197.45222,455.35908 211.93308,453.09441 C 235.0295,449.48236 256.51657,442.70163 276.86027,432.60517 C 283.61898,429.25086 289.32219,426.42615 289.53407,426.32804 C 289.74596,426.22993 291.56123,429.21841 293.56802,432.9691 C 297.88231,441.03251 298.63444,439.77655 285.53772,446.37866 C 258.06779,460.22637 229.54605,468.15006 197.47513,470.84351 C 189.20748,471.53787 172.45942,471.68327 165.41787,471.12182 z M 249.2886,365.08694 C 235.51542,360.54001 227.63697,357.2448 214.62203,350.58745 C 168.03488,326.75736 129.16507,285.68316 107.62058,237.5177 C 98.841644,217.89127 91.9037,192.59371 89.423549,171.16663 C 87.805396,157.18671 88.049471,121.66507 89.773324,120.26206 C 89.964318,120.10661 93.571267,120.30692 97.788764,120.70719 L 105.45695,121.43494 L 104.87118,128.9675 C 103.95769,140.71449 104.37218,161.65915 105.72106,171.91215 C 112.15681,220.83117 135.51607,266.12775 172.18643,300.79693 C 196.60786,323.88564 226.14281,341.19409 257.73032,350.92845 C 261.90313,352.21439 265.45816,353.39185 265.6304,353.54502 C 266.27237,354.11594 261.74758,368.72736 260.93969,368.69223 C 260.47709,368.6721 255.23411,367.04972 249.2886,365.08694 z M 720.20889,337.58467 C 712.51962,328.39231 696.97926,313.68289 687.28022,306.4167 C 675.14156,297.32283 666.37182,292.0032 652.24089,285.16224 C 628.31709,273.58043 603.5853,266.76431 576.58889,264.31244 C 562.96687,263.07526 538.35677,263.79489 524.95375,265.82231 C 500.74348,269.4845 476.02584,277.596 455.18339,288.7186 C 450.95058,290.97745 447.39352,292.71031 447.27882,292.56942 C 447.16413,292.42853 445.45735,289.32879 443.48599,285.68112 C 440.02722,279.28124 439.95158,279.01113 441.32607,277.96782 C 443.94545,275.97956 466.51984,265.27489 473.68941,262.62127 C 516.42098,246.80538 559.60426,243.31729 604.28155,252.07281 C 653.15737,261.65113 698.41823,287.69862 730.24581,324.56486 C 733.88204,328.77674 736.85714,332.52272 736.85714,332.88925 C 736.85714,333.25579 734.19518,335.75798 730.94166,338.44967 L 725.0262,343.34366 L 720.20889,337.58467 z M 285.83412,280.19859 C 258.84102,205.66296 273.37716,119.08928 323.54342,55.611396 C 331.59105,45.428311 351.39506,26.206928 361.98413,18.301585 C 371.38896,11.280338 385.75323,1.9341257 387.1394,1.9341257 C 387.54023,1.9341257 389.59429,4.866843 391.70397,8.4512846 C 395.31985,14.59482 395.46125,15.024439 394.17026,15.945071 C 393.41703,16.482217 388.77495,19.527783 383.85454,22.712992 C 330.84137,57.030876 296.40207,115.04338 289.59221,181.49649 C 288.58534,191.32184 288.57262,213.44052 289.56806,223.46026 C 291.1806,239.69148 294.19969,253.77604 299.73651,270.89788 C 301.62926,276.75091 303.0463,281.64063 302.88549,281.76391 C 302.22188,282.27269 289.7796,286.72187 289.0204,286.72187 C 288.56727,286.72187 287.13345,283.78639 285.83412,280.19859 z M 369.6897,253.36868 C 365.99939,252.30762 362.88769,251.37386 362.77483,251.29368 C 362.35261,250.99367 367.84159,233.86197 370.891,225.96218 C 378.48299,206.29443 392.61827,182.10257 407.04622,164.08422 C 415.44845,153.59109 431.49651,137.54113 442.00491,129.12141 C 460.85439,114.01851 486.07381,99.546237 507.1465,91.739653 C 536.71717,80.784898 568.37461,75.9928 598.08918,77.973335 C 605.32071,78.455327 611.32548,78.93708 611.43311,79.043898 C 611.64597,79.255118 610.06233,94.636608 609.79746,94.93067 C 609.70849,95.029451 606.30577,94.786495 602.23586,94.390766 C 555.13468,89.811029 503.69556,104.28737 462.73932,133.64883 C 447.68708,144.43976 430.30342,160.84045 419.02191,174.89422 C 401.38449,196.86576 386.48202,225.50107 379.35049,251.1234 C 378.69426,253.4811 377.7618,255.38487 377.27835,255.354 C 376.79491,255.32313 373.38001,254.42973 369.6897,253.36868 z"
       id="path2613" />
  </g>
</svg>
