<?xml version="1.0" encoding="UTF-8" standalone="no"?>
<!-- Created with Inkscape (http://www.inkscape.org/) -->
<svg
   xmlns:dc="http://purl.org/dc/elements/1.1/"
   xmlns:cc="http://creativecommons.org/ns#"
   xmlns:rdf="http://www.w3.org/1999/02/22-rdf-syntax-ns#"
   xmlns:svg="http://www.w3.org/2000/svg"
   xmlns="http://www.w3.org/2000/svg"
   xmlns:sodipodi="http://sodipodi.sourceforge.net/DTD/sodipodi-0.dtd"
   xmlns:inkscape="http://www.inkscape.org/namespaces/inkscape"
   width="51.628525"
   height="27.003483"
   id="svg3216"
   sodipodi:version="0.32"
   inkscape:version="0.46"
   version="1.0"
   sodipodi:docname="gipsknolle.svg"
   inkscape:output_extension="org.inkscape.output.svg.inkscape">
  <defs
     id="defs3218">
    <inkscape:perspective
       sodipodi:type="inkscape:persp3d"
       inkscape:vp_x="0 : 526.18109 : 1"
       inkscape:vp_y="0 : 1000 : 0"
       inkscape:vp_z="744.09448 : 526.18109 : 1"
       inkscape:persp3d-origin="372.04724 : 350.78739 : 1"
       id="perspective3224" />
  </defs>
  <sodipodi:namedview
     id="base"
     pagecolor="#ffffff"
     bordercolor="#666666"
     borderopacity="1.0"
     inkscape:pageopacity="0.0"
     inkscape:pageshadow="2"
     inkscape:zoom="10.051445"
     inkscape:cx="63.923428"
     inkscape:cy="17.375717"
     inkscape:document-units="px"
     inkscape:current-layer="layer1"
     showgrid="false"
     inkscape:window-width="1280"
     inkscape:window-height="752"
     inkscape:window-x="40"
     inkscape:window-y="62" />
  <metadata
     id="metadata3221">
    <rdf:RDF>
      <cc:Work
         rdf:about="">
        <dc:format>image/svg+xml</dc:format>
        <dc:type
           rdf:resource="http://purl.org/dc/dcmitype/StillImage" />
      </cc:Work>
    </rdf:RDF>
  </metadata>
  <g
     inkscape:label="Ebene 1"
     inkscape:groupmode="layer"
     id="layer1"
     transform="translate(-359.78291,-501.91359)">
    <path
       style="fill:none;fill-rule:evenodd;stroke:#000000;stroke-width:1.25;stroke-linecap:butt;stroke-linejoin:miter;stroke-miterlimit:4;stroke-dasharray:none;stroke-opacity:1"
       d="M 373.03746,507.96716 C 375.40158,503.84281 380.90867,504.53859 385.8946,504.53859 C 389.73682,504.53859 389.80184,502.53859 395.60888,502.53859 C 399.11143,502.53859 404.13779,506.58111 402.46603,508.25287 C 396.43698,514.28192 406.0814,514.48913 408.46603,515.68144 C 413.82809,518.36248 408.96337,523.11002 403.32317,523.11002 C 397.89366,523.11002 397.00058,527.94411 392.46603,525.11002 C 392.17789,524.92993 383.61262,527.39199 383.03746,527.96716 C 381.77602,529.22859 373.22704,526.44313 371.32317,525.96716 C 366.44614,524.7479 365.75742,523.72141 361.8946,520.8243 C 359.5682,519.0795 360.37009,514.34881 361.60888,513.11002 C 364.27797,510.44093 366.89746,514.91572 370.18031,510.53859 C 371.40715,508.9028 370.95326,509.63452 373.03746,507.96716 z"
       id="path3226"
       sodipodi:nodetypes="csssssssssssc" />
    <path
       style="fill:none;fill-rule:evenodd;stroke:#000000;stroke-width:1px;stroke-linecap:butt;stroke-linejoin:miter;stroke-opacity:1"
       d="M 375.85495,525.73098 L 378.17007,522.38692 L 379.97073,525.73098"
       id="path24466" />
    <path
       style="fill:none;fill-rule:evenodd;stroke:#000000;stroke-width:1px;stroke-linecap:butt;stroke-linejoin:miter;stroke-opacity:1"
       d="M 390.0665,510.27513 L 392.38163,506.93106 L 394.18228,510.27513"
       id="path24492" />
    <path
       style="fill:none;fill-rule:evenodd;stroke:#000000;stroke-width:1px;stroke-linecap:butt;stroke-linejoin:miter;stroke-opacity:1"
       d="M 382.08515,518.54705 L 384.40027,515.20298 L 386.20092,518.54705"
       id="path24494" />
    <path
       style="fill:none;fill-rule:evenodd;stroke:#000000;stroke-width:1px;stroke-linecap:butt;stroke-linejoin:miter;stroke-opacity:1"
       d="M 376.87277,511.67152 L 379.1879,508.32745 L 380.98855,511.67152"
       id="path24548" />
    <path
       style="fill:none;fill-rule:evenodd;stroke:#000000;stroke-width:1px;stroke-linecap:butt;stroke-linejoin:miter;stroke-opacity:1"
       d="M 392.25602,521.18146 L 394.57115,517.83739 L 396.3718,521.18146"
       id="path24550" />
    <path
       style="fill:none;fill-rule:evenodd;stroke:#000000;stroke-width:1px;stroke-linecap:butt;stroke-linejoin:miter;stroke-opacity:1"
       d="M 367.16127,518.81809 L 369.47639,515.47402 L 371.27705,518.81809"
       id="path24578" />
    <path
       style="fill:none;fill-rule:evenodd;stroke:#000000;stroke-width:1px;stroke-linecap:butt;stroke-linejoin:miter;stroke-opacity:1"
       d="M 402.96175,520.87216 L 405.27688,517.52809 L 407.07753,520.87216"
       id="path24604" />
  </g>
</svg>
