<?xml version="1.0" encoding="UTF-8" standalone="no"?>
<!-- Created with Inkscape (http://www.inkscape.org/) -->
<svg
   xmlns:dc="http://purl.org/dc/elements/1.1/"
   xmlns:cc="http://creativecommons.org/ns#"
   xmlns:rdf="http://www.w3.org/1999/02/22-rdf-syntax-ns#"
   xmlns:svg="http://www.w3.org/2000/svg"
   xmlns="http://www.w3.org/2000/svg"
   xmlns:sodipodi="http://sodipodi.sourceforge.net/DTD/sodipodi-0.dtd"
   xmlns:inkscape="http://www.inkscape.org/namespaces/inkscape"
   width="989.97565"
   height="1529.5381"
   id="svg6930"
   sodipodi:version="0.32"
   inkscape:version="0.46"
   version="1.0"
   sodipodi:docname="amphibien.svg"
   inkscape:output_extension="org.inkscape.output.svg.inkscape">
  <defs
     id="defs6932">
    <inkscape:perspective
       sodipodi:type="inkscape:persp3d"
       inkscape:vp_x="0 : 526.18109 : 1"
       inkscape:vp_y="0 : 1000 : 0"
       inkscape:vp_z="744.09448 : 526.18109 : 1"
       inkscape:persp3d-origin="372.04724 : 350.78739 : 1"
       id="perspective6938" />
  </defs>
  <sodipodi:namedview
     id="base"
     pagecolor="#ffffff"
     bordercolor="#666666"
     borderopacity="1.0"
     inkscape:pageopacity="0.0"
     inkscape:pageshadow="2"
     inkscape:zoom="0.35"
     inkscape:cx="350"
     inkscape:cy="520"
     inkscape:document-units="px"
     inkscape:current-layer="layer1"
     showgrid="false"
     inkscape:window-width="640"
     inkscape:window-height="713"
     inkscape:window-x="120"
     inkscape:window-y="122" />
  <metadata
     id="metadata6935">
    <rdf:RDF>
      <cc:Work
         rdf:about="">
        <dc:format>image/svg+xml</dc:format>
        <dc:type
           rdf:resource="http://purl.org/dc/dcmitype/StillImage" />
      </cc:Work>
    </rdf:RDF>
  </metadata>
  <g
     inkscape:label="Ebene 1"
     inkscape:groupmode="layer"
     id="layer1"
     transform="translate(144.98782,232.40685)">
    <path
       style="fill:#000000"
       d="M 19.389762,1295.9449 C 4.7564723,1292.5956 -5.3311577,1283.6498 -7.7783677,1271.8519 C -13.531118,1244.1181 23.166652,1205.8207 111.98796,1146.865 C 125.46296,1137.9209 140.53796,1128.1393 145.48796,1125.1281 C 150.5323,1122.0596 154.44116,1119.0154 154.38147,1118.2019 C 154.05184,1113.7089 95.921512,1037.2261 72.311932,1010.2219 C 51.540992,986.46444 42.531032,980.60214 -25.012038,946.89754 C -75.259739,921.82344 -95.345728,909.01024 -115.14979,889.39694 C -135.48169,869.26084 -145.04198,849.23684 -144.98759,826.90154 C -144.95772,814.63294 -144.00687,810.27924 -139.04444,799.68974 C -124.23267,768.08224 -86.786556,732.2086 -20.226768,685.86164 C 19.769202,658.01162 82.787972,619.88665 135.98796,591.35516 C 144.51296,586.78315 151.66184,582.90286 151.87436,582.73229 C 152.08689,582.56172 150.33791,577.79605 147.98776,572.1419 C 126.79027,521.14371 111.98724,459.35104 110.30976,414.86164 C 108.7992,374.799 117.80914,328.90703 136.4108,281.91655 C 139.44697,274.24674 141.75647,267.79682 141.54304,267.58338 C 141.3296,267.36994 135.15489,269.01041 127.82146,271.22885 C 110.46736,276.47867 94.601562,280.58941 78.487962,284.01089 C 67.378622,286.36979 63.085522,286.77782 48.969012,286.81644 L 32.450052,286.86164 L 25.752142,283.56529 C -7.5312577,267.185 -103.52339,126.82421 -128.35325,58.230625 C -135.90586,37.366215 -137.07149,21.131105 -131.75977,10.784165 C -127.37421,2.2413145 -119.09511,-2.6008355 -108.60509,-2.7582055 C -100.73537,-2.8762655 -95.269209,-1.3694255 -86.012038,3.4699845 C -66.578252,13.629465 -43.190058,35.275505 0.84984234,83.861645 C 40.353782,127.44358 56.003472,143.67618 64.019192,149.38388 C 66.611682,151.22989 66.694102,151.21857 74.098412,147.99979 C 91.868402,140.27487 143.21261,106.72303 180.78935,78.280595 L 187.48796,73.210315 L 188.02056,1.0359745 L 188.55316,-71.138355 L 191.18323,-80.771155 C 204.14069,-128.22869 243.5381,-181.76173 286.86825,-210.78759 C 299.69272,-219.3784 306.73952,-222.97229 319.09436,-227.22296 C 337.51268,-233.55978 347.6814,-233.97502 364.60874,-229.08154 C 388.24536,-222.2485 410.7965,-207.77566 434.60633,-184.15861 C 467.13214,-151.89614 492.50804,-108.94861 499.44005,-74.430515 C 500.74685,-67.923265 500.99285,-55.851625 501.01938,3.0694845 L 501.05081,72.861645 L 503.76938,74.848395 C 570.68735,123.75234 615.59687,151.93153 623.46892,149.95577 C 628.3431,148.73243 649.40827,126.46277 694.97441,74.361645 C 757.99198,2.3062345 788.11782,-25.340475 810.91946,-32.042005 C 821.83196,-35.249255 831.49936,-33.418115 838.35434,-26.845485 C 844.23382,-21.208185 844.98798,-18.544985 844.98782,-3.4204755 C 844.98771,7.7923945 844.61744,11.030085 842.61111,17.361645 C 831.43805,52.621615 803.42006,104.26722 760.84845,168.07493 C 718.71915,231.21969 682.3574,275.22137 665.50463,283.45136 L 658.5213,286.86164 L 642.00463,286.7872 C 627.39402,286.72135 623.75693,286.34385 610.48796,283.51603 C 594.01691,280.0058 575.62308,275.23424 558.15903,269.94136 C 551.50375,267.92432 547.0234,266.99338 547.29868,267.68475 C 547.5564,268.33204 550.01204,274.48664 552.75566,281.36164 C 562.14088,304.87928 569.39021,329.26735 573.86033,352.36164 C 578.09255,374.22686 578.45956,378.51821 578.43584,405.86164 C 578.41592,428.8158 578.07534,435.0344 576.16295,447.36164 C 569.56661,489.88168 557.89903,532.18397 542.49045,569.44557 L 537.14592,582.36991 L 541.31694,584.73895 C 543.611,586.04192 551.56296,590.38885 558.98796,594.39879 C 665.17543,651.74635 753.90263,712.41686 797.49175,757.48459 C 811.65995,772.13344 820.81973,784.35954 826.9928,796.86164 C 833.51037,810.06144 835.35449,818.10834 834.67005,830.36164 C 833.34677,854.05204 819.87357,877.64484 796.28099,897.58444 C 776.18092,914.57224 760.25192,924.04104 704.97096,951.86274 C 636.77636,986.18364 634.01854,988.28964 597.10626,1034.2335 C 578.39681,1057.5208 533.98796,1116.9392 533.98796,1118.685 C 533.98796,1118.9503 538.60046,1121.9875 544.23796,1125.4342 C 560.47549,1135.3617 599.18289,1161.244 614.44785,1172.3812 C 652.09367,1199.8473 677.28484,1223.0316 689.02738,1241.0194 C 695.15138,1250.4004 697.36926,1256.9897 697.40453,1265.908 C 697.46873,1282.1381 685.78216,1293.3991 665.622,1296.5333 C 644.79051,1299.7719 610.9471,1289.8219 566.69222,1267.4477 C 515.02643,1241.3267 461.63911,1204.7563 431.11317,1174.5756 C 412.36458,1156.0391 408.32475,1148.3991 409.32019,1133.3616 C 410.80767,1110.8909 423.95822,1063.0434 439.66607,1022.9499 C 455.95216,981.38054 473.64397,949.03454 492.37374,926.58444 C 510.30914,905.08644 553.27433,866.56844 597.98796,831.90194 C 607.06296,824.86614 615.11164,818.52654 615.87392,817.81394 C 617.02965,816.73354 615.78374,815.77994 608.37392,812.07364 C 597.19396,806.48154 584.08775,801.26044 572.48796,797.77794 C 563.61609,795.11434 563.04664,795.07354 532.48796,794.90584 C 506.0066,794.76064 499.30292,794.40704 486.49758,792.48034 C 441.15272,785.65764 403.89189,770.56324 382.69782,750.43099 L 375.25563,743.36164 L 344.66187,743.36164 L 314.06811,743.36164 L 309.5694,748.17112 C 293.27329,765.59298 258.30323,781.76934 220.64039,789.30774 C 196.98808,794.04184 189.55943,794.70054 157.98796,794.86324 C 141.21296,794.94964 126.13796,795.36864 124.48796,795.79434 C 105.46693,800.70234 70.309382,815.26324 72.614622,817.27844 C 73.094962,817.69824 81.812962,824.49364 91.987962,832.37924 C 147.41671,875.33614 189.19776,914.21194 206.95776,939.35454 C 230.71366,972.98544 255.67249,1030.3736 270.45801,1085.3616 C 280.0469,1121.0231 282.39545,1140.3063 278.25274,1149.3616 C 262.87474,1182.9755 159.59537,1255.5702 86.872412,1283.8821 C 57.678982,1295.2475 34.469272,1299.3963 19.389762,1295.9449 z M 45.156192,1264.9136 C 80.390832,1257.4458 139.22689,1227.2812 191.17343,1190.0522 C 217.23529,1171.3742 240.80396,1151.0066 247.44531,1141.4231 C 250.65023,1136.7984 250.61424,1135.9595 246.34885,1115.8616 C 233.52721,1055.4479 203.24685,983.66454 176.14978,949.44604 C 155.8691,923.83534 95.554572,871.95724 30.200122,823.91104 L 16.912272,814.14234 L 32.200122,804.63054 C 59.600962,787.58234 80.652952,777.32994 102.64101,770.32544 C 122.60957,763.96424 125.47084,763.67598 162.98796,764.24565 C 183.69454,764.56007 203.5242,762.19568 224.5075,756.91037 C 260.6936,747.79575 283.13754,734.96761 295.98796,716.05473 L 298.48796,712.37531 L 344.58545,712.36847 L 390.68295,712.36164 L 396.60438,720.11164 C 400.0233,724.58633 405.47616,730.09112 409.50689,733.13702 C 434.4065,751.95288 482.89699,764.84569 526.48796,764.24034 C 555.2164,763.84139 561.32177,764.07226 570.67331,765.91122 C 587.73537,769.26644 614.71553,779.90344 634.35841,791.01934 C 642.91514,795.86154 670.767,812.85234 671.82324,813.87444 C 672.00764,814.05284 662.26613,821.61374 650.17544,830.67624 C 580.14062,883.17074 530.07123,927.18244 510.03509,953.86164 C 483.61592,989.04014 454.07562,1061.0779 442.52763,1118.4872 C 438.68781,1137.5764 438.72371,1137.819 446.67767,1146.5328 C 483.50582,1186.8791 577.61957,1245.3532 631.98796,1261.6684 C 647.02983,1266.1823 660.64338,1267.6867 665.05956,1265.3233 C 666.9076,1264.3342 666.9213,1264.1325 665.34819,1261.0733 C 660.93028,1252.4817 645.89083,1236.6502 627.48796,1221.2189 C 603.81503,1201.3686 556.18361,1168.5397 511.73796,1141.4409 C 499.77546,1134.1473 489.98796,1128.0036 489.98796,1127.7884 C 489.98796,1127.222 511.51049,1096.8278 527.51779,1074.7885 C 549.15323,1045.0002 575.34523,1011.4418 591.8511,992.36164 C 616.52338,963.84144 627.53065,956.30324 691.29097,924.26174 C 748.42163,895.55194 762.98373,886.72274 780.41829,870.22264 C 802.51289,849.31244 809.16113,829.23784 800.00103,811.09194 C 782.41272,776.25014 718.12321,723.8346 621.51142,665.5685 C 590.4494,646.83514 526.78786,611.25288 503.23796,599.46206 C 499.80046,597.74099 496.98796,595.88183 496.98796,595.33059 C 496.98796,594.77934 499.42841,589.46221 502.41118,583.51473 C 523.51432,541.43628 539.14104,489.61769 546.63678,436.86164 C 548.95332,420.55747 548.93678,390.96592 546.60211,374.86164 C 539.83553,328.1864 526.38883,291.06538 493.64421,228.66571 L 485.14529,212.46979 L 500.81663,217.99906 C 542.38448,232.66534 550.85939,235.54714 566.09689,240.19696 C 606.00607,252.3755 637.96002,258.66569 649.21775,256.55946 C 664.21304,253.75395 732.00719,162.40729 777.01666,84.361645 C 794.86333,53.415835 812.7612,14.885605 814.58378,3.4877745 L 815.27557,-0.83844548 L 812.18637,0.75904452 C 806.44337,3.7288645 789.55521,17.941505 777.48796,29.960325 C 762.74648,44.642655 742.38033,66.872745 712.98962,100.36164 C 661.5235,159.00411 647.92665,172.69604 633.98796,179.91571 C 628.889,182.55677 619.30244,182.17293 610.08574,178.9587 C 589.17926,171.66776 545.99547,144.10569 484.76805,98.974665 L 471.04813,88.861645 L 471.01805,16.835415 C 470.99951,-27.532895 470.58236,-58.444735 469.93169,-63.664585 C 464.38051,-108.19823 413.29346,-174.70332 369.31883,-194.64237 C 359.73571,-198.98757 350.49635,-201.63836 344.93425,-201.63836 C 339.27544,-201.63836 325.97139,-197.65456 317.6804,-193.47741 C 276.79298,-172.87756 232.1369,-117.19485 220.9719,-72.889275 C 219.11937,-65.537975 219.01787,-61.185605 219.00331,11.528965 L 218.98796,88.196275 L 202.23796,100.5944 C 154.12741,136.2052 116.60626,161.0993 93.786242,172.54869 C 70.716692,184.12327 61.515582,184.74214 48.180052,175.61617 C 35.626832,167.02555 24.484862,155.78204 -16.980648,109.86164 C -55.762143,66.913615 -77.858702,45.334215 -94.512038,34.144845 L -103.51204,28.097745 L -103.81916,31.146065 C -104.55977,38.496955 -87.679609,77.670955 -72.054961,104.86164 C -48.289488,146.21934 -17.264588,192.08571 8.5437223,224.01651 C 18.294772,236.08081 34.868682,253.60293 38.487962,255.6739 C 41.771762,257.55291 57.451052,256.69843 71.987962,253.84824 C 98.819442,248.58751 128.14537,239.74031 174.44033,222.93987 C 190.36414,217.16112 203.52922,212.56957 203.69608,212.73643 C 203.86294,212.90328 199.19569,222.22471 193.32442,233.45072 C 163.29252,290.87241 150.43424,326.18425 143.28828,370.86164 C 140.78655,386.50278 140.78125,425.32313 143.27866,441.36164 C 151.29446,492.83948 166.73084,542.90338 187.17176,583.71752 C 190.43753,590.23826 192.96968,595.68446 192.79874,595.8202 C 192.62781,595.95593 187.53796,598.67421 181.48796,601.8608 C 72.710382,659.15508 -11.132318,712.39474 -63.512038,757.43445 C -75.922762,768.10604 -94.576422,787.35044 -101.24432,796.36164 C -116.4906,816.96594 -118.26376,828.36384 -109.10055,846.86164 C -100.07359,865.08444 -81.871321,881.14004 -48.512038,900.30484 C -43.562038,903.14864 -21.737038,914.41334 -0.01203766,925.33754 C 62.575262,956.80884 72.882632,963.80364 95.694152,990.28554 C 117.76048,1015.9024 143.876,1049.6342 171.62565,1088.3616 C 197.70132,1124.7528 199.40847,1127.3828 197.86993,1128.7924 C 197.10985,1129.4889 188.83796,1134.7029 179.48796,1140.3792 C 108.57588,1183.4294 56.767072,1221.5695 34.207582,1247.3304 C 25.433452,1257.3497 21.712982,1263.9437 24.013352,1265.3985 C 26.204412,1266.784 37.559612,1266.5236 45.156192,1264.9136 z"
       id="path6928" />
  </g>
</svg>
