<?xml version="1.0" encoding="UTF-8" standalone="no"?>
<!-- Created with Inkscape (http://www.inkscape.org/) -->
<svg
   xmlns:dc="http://purl.org/dc/elements/1.1/"
   xmlns:cc="http://creativecommons.org/ns#"
   xmlns:rdf="http://www.w3.org/1999/02/22-rdf-syntax-ns#"
   xmlns:svg="http://www.w3.org/2000/svg"
   xmlns="http://www.w3.org/2000/svg"
   xmlns:sodipodi="http://sodipodi.sourceforge.net/DTD/sodipodi-0.dtd"
   xmlns:inkscape="http://www.inkscape.org/namespaces/inkscape"
   width="987.31757"
   height="986.41138"
   id="svg5233"
   sodipodi:version="0.32"
   inkscape:version="0.46"
   version="1.0"
   sodipodi:docname="echinoiden.svg"
   inkscape:output_extension="org.inkscape.output.svg.inkscape">
  <defs
     id="defs5235">
    <inkscape:perspective
       sodipodi:type="inkscape:persp3d"
       inkscape:vp_x="0 : 526.18109 : 1"
       inkscape:vp_y="0 : 1000 : 0"
       inkscape:vp_z="744.09448 : 526.18109 : 1"
       inkscape:persp3d-origin="372.04724 : 350.78739 : 1"
       id="perspective5241" />
  </defs>
  <sodipodi:namedview
     id="base"
     pagecolor="#ffffff"
     bordercolor="#666666"
     borderopacity="1.0"
     inkscape:pageopacity="0.0"
     inkscape:pageshadow="2"
     inkscape:zoom="0.35"
     inkscape:cx="350"
     inkscape:cy="520"
     inkscape:document-units="px"
     inkscape:current-layer="layer1"
     showgrid="false"
     inkscape:window-width="640"
     inkscape:window-height="713"
     inkscape:window-x="200"
     inkscape:window-y="202" />
  <metadata
     id="metadata5238">
    <rdf:RDF>
      <cc:Work
         rdf:about="">
        <dc:format>image/svg+xml</dc:format>
        <dc:type
           rdf:resource="http://purl.org/dc/dcmitype/StillImage" />
      </cc:Work>
    </rdf:RDF>
  </metadata>
  <g
     inkscape:label="Ebene 1"
     inkscape:groupmode="layer"
     id="layer1"
     transform="translate(143.65878,-39.156498)">
    <path
       style="fill:#000000"
       d="M 320.99659,1024.801 C 152.96187,1015.5973 0.17878036,919.3435 -82.453277,770.62642 C -106.73619,726.92324 -124.04547,679.63072 -133.9637,629.88929 C -160.75898,495.50689 -131.48333,357.54378 -52.691458,246.88929 C -25.7199,209.01072 9.5091304,172.2155 46.49659,143.29162 C 116.29577,88.709247 200.30105,53.956545 289.14699,42.90796 C 383.51679,31.172446 480.09307,47.133848 564.99659,88.49831 C 661.34731,135.43978 736.92418,208.50348 787.27917,303.38929 C 861.31409,442.89614 862.50729,614.0586 790.43003,755.38929 C 700.82095,931.09677 518.68045,1035.6287 320.99659,1024.801 z M 389.99659,1002.4163 C 409.86704,1000.6546 418.40681,999.52587 435.49659,996.40257 C 611.08769,964.31179 754.6765,834.33849 803.94744,662.88929 C 811.18774,637.69503 816.01809,613.18268 819.71205,582.88929 C 822.24227,562.13946 822.24123,502.62431 819.71028,481.88929 C 812.32118,421.35346 797.51158,371.43182 771.8002,320.38929 C 731.87035,241.1201 670.30093,174.7952 593.248,128.04612 C 576.83684,118.08925 542.39625,100.94025 524.99659,94.061719 C 443.13452,61.699516 354.7181,52.782045 266.49659,67.990022 C 185.14076,82.014465 102.86047,121.49986 39.77136,176.79295 C -42.68954,249.06401 -97.836677,346.98317 -115.44187,452.38929 C -120.74252,484.12549 -121.48699,493.9776 -121.48699,532.38929 C -121.48699,570.00387 -120.7496,580.24993 -115.9095,609.88929 C -94.396441,741.62877 -16.30765,859.04013 97.99659,931.51041 C 153.94068,966.97964 219.98242,991.01544 285.99659,999.93274 C 315.71482,1003.9471 360.63266,1005.0198 389.99659,1002.4163 z M 132.99659,858.08269 L 132.99659,846.97015 L 141.74659,846.9689 C 186.65821,846.96248 235.49524,797.96495 280.37062,707.88929 C 292.69619,683.14891 308.67962,645.88964 313.9382,629.63929 C 315.41544,625.07424 315.93902,625.05661 327.18654,629.19327 L 335.87649,632.38929 L 330.48636,646.64667 C 313.87367,690.58868 294.05622,731.62803 273.14684,765.38929 C 237.86646,822.35465 200.71087,856.2863 162.99659,865.98194 C 158.87159,867.0424 150.43409,868.19922 144.24659,868.55265 L 132.99659,869.19524 L 132.99659,858.08269 z M 556.49659,865.24386 C 522.88765,861.37023 490.71596,839.90233 458.86822,800.09728 C 430.67314,764.85751 399.22442,706.13516 375.56093,644.54247 C 372.42371,636.37673 370.08082,629.47173 370.35451,629.19804 C 371.45255,628.1 389.41897,622.0323 390.17984,622.50255 C 390.62905,622.78017 390.99659,623.45544 390.99659,624.00313 C 390.99659,625.60667 404.48614,659.75806 410.6035,673.64182 C 423.77818,703.54261 444.72608,742.4352 459.13685,763.75052 C 476.63036,789.62559 497.16639,812.53596 513.83101,824.76833 C 530.36321,836.9035 548.69745,843.88929 564.0141,843.88929 L 571.71168,843.88929 L 572.35413,850.03598 C 573.4341,860.36851 573.17292,864.60765 571.4148,865.2823 C 569.81286,865.89702 561.98874,865.87686 556.49659,865.24386 z M 67.27363,791.17463 C 69.65901,742.24703 110.38532,695.9039 190.58772,650.85351 C 220.6255,633.98103 267.86752,612.55601 298.5657,601.88376 L 303.63481,600.12148 L 306.82976,609.25539 C 308.58698,614.27903 310.01838,618.87078 310.01065,619.45928 C 310.00292,620.04777 304.25909,622.69635 297.24659,625.34502 C 265.90208,637.18403 232.62977,652.29328 206.80449,666.41558 C 144.39559,700.54328 104.54876,737.19353 92.57089,771.4852 C 89.93678,779.02644 87.68503,793.02124 88.18226,798.7609 L 88.49659,802.38929 L 77.59782,802.67463 L 66.69905,802.95997 L 67.27363,791.17463 z M 622.24659,799.15205 L 616.99659,798.78477 L 616.99659,790.99699 C 616.99659,757.79354 589.19843,721.35586 536.99659,686.13342 C 505.29135,664.74077 455.5348,639.86451 410.49659,622.88854 C 402.79659,619.98623 396.14728,617.30228 395.72034,616.9242 C 394.9931,616.28019 400.50451,599.33581 402.00992,597.58741 C 402.73489,596.74541 435.7001,609.22333 454.49659,617.45455 C 460.54659,620.10392 476.07159,627.55691 488.99659,634.01676 C 571.06789,675.03555 620.08737,719.10375 634.40732,764.7401 C 637.38033,774.21481 639.58962,790.91466 638.58118,796.29006 L 637.90596,799.88929 L 632.70128,799.70431 C 629.8387,799.60257 625.13409,799.35405 622.24659,799.15205 z M 32.58157,623.33334 C 7.2300104,619.8819 -13.64328,610.55129 -29.50341,595.5806 L -36.50341,588.97317 L -28.50341,581.50468 L -20.50341,574.03619 L -15.77976,578.89657 C 2.2209704,597.41834 34.2591,606.01439 74.16753,603.03005 C 123.10802,599.37029 182.58008,582.48479 246.81812,554.01052 C 256.89497,549.54385 265.26673,545.88929 265.42205,545.88929 C 265.98405,545.88929 274.29107,564.92808 273.89907,565.3177 C 272.8446,566.36578 241.48501,579.88895 224.99659,586.40586 C 173.47782,606.76825 124.2011,619.87056 84.14064,623.8584 C 70.19116,625.24701 44.7336,624.98776 32.58157,623.33334 z M 613.99659,623.74726 C 575.44847,619.77326 525.29664,606.3025 475.01052,586.41566 C 458.43342,579.85985 427.14433,566.36164 426.08579,565.30939 C 425.69809,564.92399 432.12159,549.87238 433.85804,547.09735 C 434.47288,546.11478 439.19594,547.81639 453.58153,554.20327 C 516.9823,582.3518 577.0652,599.38376 625.82565,603.03005 C 665.70408,606.01214 698.21788,597.27007 715.99659,578.78553 L 720.49659,574.10688 L 728.49659,581.50396 L 736.49659,588.90105 L 729.65069,595.47738 C 713.76223,610.7402 692.99535,619.89466 666.33078,623.39008 C 653.93723,625.01473 628.00782,625.1917 613.99659,623.74726 z M 249.49659,531.84389 C 201.85669,510.17546 147.24075,492.67535 104.5,485.38388 C 49.93385,476.07504 9.1898804,482.46516 -13.34307,503.86591 L -20.50341,510.66647 L -28.50341,503.35202 L -36.50341,496.03756 L -33.50341,492.82983 C -22.97121,481.56836 -3.5145096,470.17997 13.36118,465.39906 C 31.3458,460.30399 59.79484,458.50213 84.14064,460.91613 C 125.08407,464.97588 178.0507,479.19296 229.49659,499.93196 C 246.11556,506.63145 272.72695,518.28632 273.75722,519.31659 C 274.35239,519.91176 265.80228,538.94674 265.01562,538.77788 C 264.73015,538.7166 257.74659,535.59631 249.49659,531.84389 z M 430.05114,529.39511 C 427.66686,524.13786 425.94961,519.60294 426.23503,519.31752 C 427.2661,518.28645 453.87072,506.63423 470.49659,499.93196 C 534.62863,474.07888 594.88951,459.88929 640.55133,459.88929 C 679.95101,459.88929 708.54181,469.32535 729.49659,489.24463 L 736.49659,495.89872 L 728.49897,503.35304 L 720.50136,510.80736 L 715.94762,506.03304 C 694.02933,483.05302 651.85148,475.82114 595.45123,485.37251 C 548.50769,493.3224 500.47033,509.26598 435.4414,538.47972 C 434.86104,538.74044 432.43543,534.65237 430.05114,529.39511 z M 324.60889,505.10604 C 319.88967,495.78347 306.14814,463.05931 299.99877,446.49935 C 278.36652,388.24477 267.03774,336.17513 267.0073,294.86306 C 266.9784,255.65793 276.12872,227.55245 295.60917,207.01154 L 302.8379,199.38929 L 307.9966,204.38929 C 310.83388,207.13929 314.05337,210.63119 315.151,212.14907 L 317.1467,214.90884 L 311.48136,221.14907 C 289.17843,245.71516 283.11236,283.73752 292.5405,339.87095 C 299.79033,383.0351 315.32906,431.68855 338.36209,483.34329 C 342.52,492.66798 345.78414,500.43507 345.61573,500.60348 C 345.44732,500.77189 341.18912,502.91513 336.15306,505.36623 L 326.99658,509.82278 L 324.60889,505.10604 z M 362.22931,505.09689 C 357.1323,502.52556 353.16276,499.96444 353.4081,499.40552 C 353.65345,498.84659 356.602,492.32885 359.96044,484.92165 C 395.10133,407.41673 414.30911,329.57746 410.24584,281.14067 C 407.90926,253.28711 400.98186,235.36377 386.6823,220.17441 L 381.7729,214.95953 L 384.79989,211.17441 C 386.46474,209.09259 389.64425,205.63079 391.86547,203.48152 L 395.90406,199.57375 L 399.76645,202.98152 C 413.4653,215.06795 423.96721,235.13214 429.14366,259.10748 C 432.06178,272.62309 432.78441,304.57894 430.59729,323.38929 C 425.13741,370.34701 409.76546,423.7522 385.26306,480.88929 C 378.31499,497.09147 372.29375,509.9704 371.73219,509.83066 C 371.60261,509.79842 367.32631,507.66822 362.22931,505.09689 z"
       id="path5231" />
  </g>
</svg>
