<?xml version="1.0" encoding="UTF-8" standalone="no"?>
<!-- Created with Inkscape (http://www.inkscape.org/) -->
<svg
   xmlns:dc="http://purl.org/dc/elements/1.1/"
   xmlns:cc="http://creativecommons.org/ns#"
   xmlns:rdf="http://www.w3.org/1999/02/22-rdf-syntax-ns#"
   xmlns:svg="http://www.w3.org/2000/svg"
   xmlns="http://www.w3.org/2000/svg"
   xmlns:sodipodi="http://sodipodi.sourceforge.net/DTD/sodipodi-0.dtd"
   xmlns:inkscape="http://www.inkscape.org/namespaces/inkscape"
   width="907.59662"
   height="499.25919"
   id="svg4221"
   sodipodi:version="0.32"
   inkscape:version="0.46"
   sodipodi:docname="invertebraten.svg"
   inkscape:output_extension="org.inkscape.output.svg.inkscape"
   version="1.0">
  <defs
     id="defs4223">
    <inkscape:perspective
       sodipodi:type="inkscape:persp3d"
       inkscape:vp_x="0 : 526.18109 : 1"
       inkscape:vp_y="0 : 1000 : 0"
       inkscape:vp_z="744.09448 : 526.18109 : 1"
       inkscape:persp3d-origin="372.04724 : 350.78739 : 1"
       id="perspective4229" />
  </defs>
  <sodipodi:namedview
     id="base"
     pagecolor="#ffffff"
     bordercolor="#666666"
     borderopacity="1.0"
     inkscape:pageopacity="0.0"
     inkscape:pageshadow="2"
     inkscape:zoom="0.35"
     inkscape:cx="350"
     inkscape:cy="520"
     inkscape:document-units="px"
     inkscape:current-layer="layer1"
     showgrid="false"
     inkscape:window-width="640"
     inkscape:window-height="713"
     inkscape:window-x="300"
     inkscape:window-y="300" />
  <metadata
     id="metadata4226">
    <rdf:RDF>
      <cc:Work
         rdf:about="">
        <dc:format>image/svg+xml</dc:format>
        <dc:type
           rdf:resource="http://purl.org/dc/dcmitype/StillImage" />
      </cc:Work>
    </rdf:RDF>
  </metadata>
  <g
     inkscape:label="Ebene 1"
     inkscape:groupmode="layer"
     id="layer1"
     transform="translate(103.7983,-282.73259)">
    <path
       style="fill:#000000"
       d="M 91.996386,781.49111 C 27.095056,775.36174 -29.852491,741.71064 -65.463798,688.4457 C -72.860221,677.38264 -84.96271,652.73898 -89.527674,639.4457 C -112.86684,571.48152 -107.18559,483.47138 -75.362984,420.0158 C -62.465049,394.29679 -49.446917,376.04696 -30.523713,357.15661 C 7.6026664,319.09643 57.605186,295.33912 118.46489,286.3688 C 157.53859,280.6096 193.95544,281.69889 225.99639,289.58525 C 299.30258,307.62839 382.42254,358.03354 480.49639,443.91773 C 499.1828,460.2816 523.54004,482.59764 551.24178,508.73448 C 576.53051,532.59463 586.9822,541.70787 592.76411,544.93944 C 600.19519,549.09275 613.31704,553.3062 625.85977,555.56652 C 635.97501,557.38938 640.04584,557.59504 656.99639,557.13958 C 683.09468,556.43833 699.46925,552.91433 721.99639,543.15084 C 743.63474,533.77256 759.14738,523.36936 780.22682,504.09995 L 789.95725,495.20503 L 797.02251,501.46886 C 800.9084,504.91396 803.95471,508.32566 803.79208,509.05042 C 803.26952,511.37921 781.34324,533.98651 767.70769,546.25558 C 721.50373,587.82921 676.82552,615.12347 633.49639,628.24629 C 600.20845,638.32799 559.67913,643.37684 522.99639,642.01158 C 464.65736,639.84031 411.14504,627.68723 342.64761,601.05294 C 336.13078,598.51896 330.61828,596.4457 330.39761,596.4457 C 330.17694,596.4457 329.99639,597.73675 329.99639,599.31471 C 329.99639,600.89267 329.31839,606.07164 328.48973,610.82354 C 322.87549,643.01798 302.77818,676.96028 271.13761,707.68537 C 231.53365,746.14345 182.65796,772.21122 135.55967,779.99563 C 124.3875,781.84217 103.35781,782.5641 91.996386,781.49111 z M 129.48162,760.31115 C 164.46648,755.73864 205.75275,736.37657 239.55946,708.68781 C 273.63663,680.77753 298.34409,646.60848 306.62078,615.9457 C 308.89446,607.52236 309.30415,604.0537 309.21924,593.9457 C 308.95129,562.0477 296.57148,535.03215 270.0131,508.38906 C 240.91779,479.20095 204.87959,463.23597 171.49639,464.74601 C 136.31242,466.3375 111.78642,480.1043 99.000376,505.43905 C 92.869596,517.58681 90.278116,533.09525 92.022786,547.1957 C 96.925606,586.82031 131.349,626.04806 163.87017,629.07059 L 170.99639,629.7329 L 170.99639,639.73732 L 170.99639,649.74174 L 162.24639,649.14848 C 132.48126,647.13036 101.01731,622.35449 83.252416,586.9457 C 63.141836,546.8615 68.483836,502.89712 96.996386,473.83365 C 110.17957,460.39574 126.98636,451.57216 148.49639,446.7961 C 158.09076,444.66577 183.00687,443.86363 192.75323,445.37131 C 239.43472,452.59251 286.2872,485.07116 310.90111,527.27271 C 318.07695,539.57597 324.44169,555.63976 326.97434,567.83947 L 328.11792,573.34807 L 348.32245,581.32889 C 404.87911,603.66884 449.32896,615.21035 497.49639,620.06224 C 519.52386,622.28106 564.65444,621.4876 583.49639,618.55023 C 618.54189,613.08681 644.88419,604.66514 671.99639,590.25666 C 682.74176,584.54614 700.7272,573.69027 701.49148,572.45364 C 701.76963,572.00358 699.63453,572.24473 696.7468,572.98954 C 662.20188,581.8994 618.17376,578.95728 589.14481,565.79919 C 576.78788,560.1981 572.50626,556.63294 527.94933,514.84374 C 462.49366,453.45396 425.20854,421.96888 377.92818,388.15972 C 309.7045,339.37446 248.00271,311.20638 194.49639,304.4195 C 183.24832,302.99277 152.94079,303.01118 137.87568,304.45391 C 24.822896,315.28054 -52.400617,379.85527 -76.483433,483.7022 C -81.770569,506.50073 -84.311748,539.07258 -82.891979,565.84446 C -79.28866,633.79047 -51.764711,688.78314 -3.5036136,724.46187 C 35.036526,752.95404 84.255566,766.22218 129.48162,760.31115 z"
       id="path4219" />
  </g>
</svg>
