<?xml version="1.0" encoding="UTF-8" standalone="no"?>
<!-- Created with Inkscape (http://www.inkscape.org/) -->
<svg
   xmlns:dc="http://purl.org/dc/elements/1.1/"
   xmlns:cc="http://creativecommons.org/ns#"
   xmlns:rdf="http://www.w3.org/1999/02/22-rdf-syntax-ns#"
   xmlns:svg="http://www.w3.org/2000/svg"
   xmlns="http://www.w3.org/2000/svg"
   xmlns:sodipodi="http://sodipodi.sourceforge.net/DTD/sodipodi-0.dtd"
   xmlns:inkscape="http://www.inkscape.org/namespaces/inkscape"
   width="989.61743"
   height="990.39679"
   id="svg4018"
   sodipodi:version="0.32"
   inkscape:version="0.46"
   version="1.0"
   sodipodi:docname="kleine_plankt_foraminiferen.svg"
   inkscape:output_extension="org.inkscape.output.svg.inkscape">
  <defs
     id="defs4020">
    <inkscape:perspective
       sodipodi:type="inkscape:persp3d"
       inkscape:vp_x="0 : 526.18109 : 1"
       inkscape:vp_y="0 : 1000 : 0"
       inkscape:vp_z="744.09448 : 526.18109 : 1"
       inkscape:persp3d-origin="372.04724 : 350.78739 : 1"
       id="perspective4026" />
  </defs>
  <sodipodi:namedview
     id="base"
     pagecolor="#ffffff"
     bordercolor="#666666"
     borderopacity="1.0"
     inkscape:pageopacity="0.0"
     inkscape:pageshadow="2"
     inkscape:zoom="0.35"
     inkscape:cx="350"
     inkscape:cy="520"
     inkscape:document-units="px"
     inkscape:current-layer="layer1"
     showgrid="false"
     inkscape:window-width="640"
     inkscape:window-height="713"
     inkscape:window-x="220"
     inkscape:window-y="220" />
  <metadata
     id="metadata4023">
    <rdf:RDF>
      <cc:Work
         rdf:about="">
        <dc:format>image/svg+xml</dc:format>
        <dc:type
           rdf:resource="http://purl.org/dc/dcmitype/StillImage" />
      </cc:Work>
    </rdf:RDF>
  </metadata>
  <g
     inkscape:label="Ebene 1"
     inkscape:groupmode="layer"
     id="layer1"
     transform="translate(144.80875,-37.163796)">
    <path
       style="fill:#000000"
       d="M 320.66848,1026.7627 C 245.0788,1022.4978 169.75563,1000.2753 104.66848,963.03653 C -24.69626,889.02214 -113.9625,761.68805 -138.70557,615.87488 C -144.05648,584.34146 -144.80571,574.09087 -144.80873,532.37488 C -144.81174,490.64072 -144.13733,481.39685 -138.75326,449.37488 C -111.81456,289.15601 -6.4336703,151.31474 141.40763,82.916279 C 271.8418,22.571198 422.72638,21.889199 553.51836,81.053538 C 679.86278,138.20601 777.80974,247.49007 820.46564,378.89926 C 885.15558,578.18835 818.17481,795.21787 652.10466,924.41839 C 558.73726,997.05707 440.61992,1033.5306 320.66848,1026.7627 z M 374.16848,1004.845 C 478.54493,999.24408 573.2001,961.85174 654.66848,894.03702 C 666.77798,883.957 706.23398,845.10704 705.3051,844.17817 C 705.00666,843.87972 702.60383,845.20487 699.96548,847.12294 C 691.56889,853.22723 674.54315,862.62325 662.66848,867.70609 C 632.30187,880.70422 606.04361,886.05877 572.66848,886.05877 C 538.28968,886.05877 510.19013,880.07372 478.98672,866.10509 C 439.80415,848.56447 402.9054,815.86644 379.42155,777.87488 C 368.52834,760.25212 357.73259,733.99853 352.64104,712.74883 L 350.33459,703.12278 L 346.59179,717.79706 C 336.19962,758.54127 317.57262,791.08111 287.24203,821.47625 C 243.82459,864.98608 188.82079,887.87488 127.68025,887.87488 C 100.52728,887.87488 78.11417,884.13201 52.5903,875.33526 C 38.47252,870.46959 16.28186,859.50512 4.3675197,851.50824 C -7.4979503,843.54416 -6.6334403,844.90531 12.46632,864.25975 C 101.35779,954.33651 217.89802,1003.8143 345.66848,1005.7227 C 350.89348,1005.8007 363.71848,1005.4058 374.16848,1004.845 z M 153.36726,864.3402 C 199.2253,858.37664 239.13183,838.6851 271.68815,805.95577 C 309.15659,768.28821 329.07892,722.83001 331.32643,669.87488 C 332.9978,630.49465 322.19878,588.78863 301.85713,556.06383 C 248.10106,469.58332 141.3508,435.19184 48.16848,474.33357 C 3.5042897,493.095 -35.74331,530.64774 -56.434274,574.41915 C -88.117919,641.44542 -81.278288,719.89977 -38.50362,780.09369 C -22.99098,801.92359 1.5807897,824.51247 24.93855,838.41621 C 46.72035,851.38186 77.86933,861.85109 103.16848,864.70943 C 116.2064,866.18248 140.57924,866.00321 153.36726,864.3402 z M 601.16848,862.25444 C 670.68033,852.79321 732.25646,805.66946 760.00861,740.69528 C 789.08818,672.6133 779.50787,596.273 734.37163,536.40825 C 726.6374,526.15024 706.56539,506.11547 695.9817,498.08953 C 667.06598,476.16186 633.10626,462.42323 596.69471,457.92234 C 585.78199,456.5734 559.52891,456.57551 548.64225,457.92621 C 512.14511,462.45439 478.53847,476.02815 449.44816,497.99083 C 438.84324,505.99736 417.82655,527.00227 409.85514,537.56166 C 381.49433,575.13006 367.2939,620.23804 368.98869,667.37488 C 369.6389,685.45901 371.35312,697.20368 375.77569,713.87488 C 390.40109,769.00642 429.89673,816.96368 482.26981,843.18453 C 518.54668,861.34672 559.53635,867.92097 601.16848,862.25444 z M -97.985279,671.12488 C -101.0697,590.19149 -62.305123,516.2913 6.9474597,471.08273 C 31.46854,455.0752 64.19351,443.04938 96.16848,438.29565 C 112.28092,435.90021 143.74511,435.90626 159.16848,438.30777 C 177.61243,441.17959 199.98582,447.22413 213.30655,452.93406 C 215.70561,453.96242 217.66848,454.64963 217.66848,454.46119 C 217.66848,454.27275 213.36939,450.88717 208.11494,446.93768 C 188.32072,432.0594 165.56594,406.17576 151.94595,383.04525 C 136.97887,357.62702 126.60267,326.79398 122.61061,295.87488 C 121.936,290.64988 121.38404,278.49988 121.38404,268.87488 C 121.38404,242.11815 124.82617,220.88965 133.15408,196.28599 C 149.4131,148.25094 178.33459,110.93612 223.66848,79.503336 C 228.34348,76.26187 231.4836,73.840911 230.64652,74.123426 C 229.80944,74.405942 224.81696,75.810612 219.55211,77.244916 C 171.47375,90.342907 119.46213,115.43933 75.17491,146.90919 C 53.28914,162.4609 39.74528,173.85641 18.81154,194.33209 C -36.3064,248.24398 -75.205504,310.29961 -99.375082,382.87488 C -110.18084,415.32189 -116.56548,444.19347 -121.04673,480.87488 C -123.58739,501.67148 -123.58739,563.07828 -121.04673,583.87488 C -117.03215,616.73629 -110.85801,646.15265 -102.2683,673.34358 C -99.917282,680.78579 -97.856766,686.87488 -97.689378,686.87488 C -97.52199,686.87488 -97.655145,679.78738 -97.985279,671.12488 z M 807.68162,650.37488 C 835.49265,541.72347 824.2937,427.70005 776.0069,327.87488 C 765.1932,305.51929 756.97584,290.94665 744.58414,272.14984 C 682.18106,177.49138 586.14004,107.04425 478.66848,77.097807 C 457.15747,71.103867 457.10524,71.10133 465.65739,76.465972 C 494.23025,94.389299 522.76994,123.21542 540.06139,151.6167 C 554.60292,175.50123 564.71868,202.596 569.65223,230.87488 C 572.4168,246.72131 573.41115,275.01485 571.76388,290.96041 C 565.11475,355.32376 532.84985,412.01217 480.77166,450.83087 C 468.97863,459.62131 468.84844,459.77354 476.33165,456.02283 C 492.21865,448.06001 515.63395,440.82168 537.16848,437.21646 C 554.34381,434.34103 593.65074,434.60382 610.97891,437.70992 C 699.02636,453.49256 769.19936,518.01853 791.18092,603.41053 C 796.68388,624.78792 798.09759,636.5419 798.13519,661.23033 L 798.16848,683.08577 L 801.00531,674.23033 C 802.56557,669.35983 805.56991,658.62488 807.68162,650.37488 z M 358.62537,587.72943 C 372.28458,546.76811 400.45953,507.64214 435.36693,481.15999 C 441.58278,476.44439 446.66848,472.45174 446.66848,472.28742 C 446.66848,472.12311 443.18578,473.57578 438.92915,475.51559 C 397.43615,494.42456 345.13461,499.78313 299.20175,489.83139 C 288.77774,487.57295 270.4104,481.97913 263.02743,478.81442 C 260.47432,477.72003 258.2342,476.97582 258.0494,477.16063 C 257.86459,477.34544 261.5602,480.34575 266.26186,483.828 C 284.30616,497.19235 307.4,522.98589 320.91921,544.87488 C 332.0628,562.9175 343.62728,591.50474 348.21359,612.34626 L 349.96775,620.31763 L 352.23665,610.2008 C 353.48454,604.63655 356.35947,594.52443 358.62537,587.72943 z M 367.66848,471.85454 C 438.42404,464.51319 500.12918,420.78936 531.34444,355.87488 C 557.5993,301.27593 556.94214,233.07484 529.63631,178.60099 C 518.92402,157.23049 508.09361,142.2766 490.68815,124.82404 C 456.7571,90.801188 414.29738,70.604584 366.81253,65.900736 C 283.08537,57.606728 202.27247,102.51831 164.42908,178.37488 C 142.96455,221.40024 137.66503,270.68128 149.32019,318.87488 C 163.07235,375.73949 205.72762,427.69634 259.5431,453.13346 C 292.85019,468.87681 331.6391,475.59282 367.66848,471.85454 z"
       id="path4016" />
  </g>
</svg>
