<?xml version="1.0" encoding="UTF-8" standalone="no"?>
<!-- Created with Inkscape (http://www.inkscape.org/) -->
<svg
   xmlns:dc="http://purl.org/dc/elements/1.1/"
   xmlns:cc="http://creativecommons.org/ns#"
   xmlns:rdf="http://www.w3.org/1999/02/22-rdf-syntax-ns#"
   xmlns:svg="http://www.w3.org/2000/svg"
   xmlns="http://www.w3.org/2000/svg"
   xmlns:sodipodi="http://sodipodi.sourceforge.net/DTD/sodipodi-0.dtd"
   xmlns:inkscape="http://www.inkscape.org/namespaces/inkscape"
   width="985.65558"
   height="979.17474"
   id="svg4116"
   sodipodi:version="0.32"
   inkscape:version="0.46"
   version="1.0"
   sodipodi:docname="kleine_bent_foraminiferen.svg"
   inkscape:output_extension="org.inkscape.output.svg.inkscape">
  <defs
     id="defs4118">
    <inkscape:perspective
       sodipodi:type="inkscape:persp3d"
       inkscape:vp_x="0 : 526.18109 : 1"
       inkscape:vp_y="0 : 1000 : 0"
       inkscape:vp_z="744.09448 : 526.18109 : 1"
       inkscape:persp3d-origin="372.04724 : 350.78739 : 1"
       id="perspective4124" />
  </defs>
  <sodipodi:namedview
     id="base"
     pagecolor="#ffffff"
     bordercolor="#666666"
     borderopacity="1.0"
     inkscape:pageopacity="0.0"
     inkscape:pageshadow="2"
     inkscape:zoom="0.35"
     inkscape:cx="350"
     inkscape:cy="520"
     inkscape:document-units="px"
     inkscape:current-layer="layer1"
     showgrid="false"
     inkscape:window-width="640"
     inkscape:window-height="713"
     inkscape:window-x="260"
     inkscape:window-y="260" />
  <metadata
     id="metadata4121">
    <rdf:RDF>
      <cc:Work
         rdf:about="">
        <dc:format>image/svg+xml</dc:format>
        <dc:type
           rdf:resource="http://purl.org/dc/dcmitype/StillImage" />
      </cc:Work>
    </rdf:RDF>
  </metadata>
  <g
     inkscape:label="Ebene 1"
     inkscape:groupmode="layer"
     id="layer1"
     transform="translate(142.82779,-42.774801)">
    <path
       style="fill:#000000"
       d="M 320.98901,1021.125 C 256.68956,1017.4971 193.90816,1001.1211 134.98901,972.60849 C 14.929288,914.50822 -76.71931,809.63651 -118.33287,682.73719 C -132.29586,640.15749 -139.5707,600.56194 -142.12201,553.25762 C -142.77619,541.12829 -143.02004,530.91291 -142.6639,530.55677 C -142.30776,530.20062 -137.37961,529.70302 -131.71246,529.45097 L -121.40856,528.99271 L -120.20881,551.72913 C -119.54895,564.23415 -118.08132,581.50166 -116.9474,590.10137 C -113.16837,618.76176 -105.14228,654.06538 -97.137537,677.23719 L -94.201195,685.73719 L -94.628582,678.23719 C -94.863645,674.11219 -95.238596,668.03719 -95.461805,664.73719 C -96.037111,656.23168 -94.453328,633.30573 -92.484241,621.63564 C -84.581817,574.80075 -63.205105,533.4117 -29.520792,499.72739 C 5.5624576,464.64414 49.202458,442.82026 98.489008,435.71111 C 112.93542,433.62735 142.13612,433.34857 155.98901,435.16217 C 175.18162,437.67484 196.7722,443.26254 213.98901,450.17273 C 220.3504,452.72596 220.26646,452.62528 208.98901,444.17537 C 197.67719,435.69972 178.05311,415.88268 168.83958,403.63117 C 143.36264,369.75368 128.99781,333.76522 123.98786,291.26342 C 122.68601,280.21913 122.7139,254.1547 124.0398,242.73719 C 130.03285,191.13015 152.38595,144.84025 188.98901,108.23719 C 223.67771,73.548487 266.30595,52.182781 315.98901,44.583505 C 331.69302,42.181497 363.15334,42.170023 378.98901,44.560527 C 428.17708,51.98581 471.41848,73.666661 505.98901,108.23719 C 542.59207,144.84025 564.94517,191.13015 570.93822,242.73719 C 572.26412,254.1547 572.29201,280.21913 570.99016,291.26342 C 565.93486,334.14996 551.06119,370.98736 524.95164,405.28628 C 515.99866,417.0474 496.33679,436.43405 483.98901,445.67552 C 478.21401,449.99771 473.09729,453.88148 472.61851,454.30611 C 472.13974,454.73075 477.53974,452.6607 484.61851,449.70601 C 511.48709,438.49102 535.63535,433.33764 565.22735,432.50361 C 610.7705,431.22001 651.05698,441.67116 688.00648,464.35506 C 737.96931,495.02806 773.13129,541.4257 788.85763,597.4322 C 794.45617,617.37039 796.34692,632.24925 796.42173,656.95645 L 796.48901,679.17571 L 798.27483,673.95645 C 802.00055,663.06765 808.17197,639.10144 811.46406,622.73719 C 816.11337,599.62653 818.71458,578.30712 820.15514,551.50543 L 821.36522,528.99176 L 831.67981,529.4505 C 837.35283,529.7028 842.26963,530.18448 842.60603,530.52088 C 843.60302,531.51786 841.03511,573.47273 838.95101,590.23719 C 833.71628,632.34532 823.42782,672.40843 807.49224,712.73719 C 801.53523,727.8128 786.3416,759.28405 778.04278,773.73719 C 728.59898,859.84795 653.88318,929.59011 564.98901,972.60849 C 488.50836,1009.6196 406.40728,1025.9445 320.98901,1021.125 z M 376.98901,999.2303 C 483.91979,992.7652 581.82329,952.48845 661.48901,882.18918 C 672.52753,872.44848 695.87079,849.21839 702.13806,841.73719 L 705.48901,837.73719 L 701.98901,840.28812 C 682.05556,854.81634 653.1031,868.11761 627.02425,874.72826 C 606.93759,879.81996 599.1534,880.66157 571.98901,880.67852 C 549.88717,880.69231 544.88988,880.39899 534.48901,878.47742 C 504.6852,872.97115 479.46019,863.53938 455.97154,849.11932 C 404.23496,817.35738 367.39374,767.31172 353.44863,709.85067 C 352.129,704.41308 350.88808,699.80293 350.69104,699.60589 C 350.494,699.40885 349.78924,702.1976 349.1249,705.80311 C 348.46055,709.40862 346.38363,717.41731 344.50952,723.60019 C 324.3398,790.14195 272.18462,845.43305 207.08128,869.29154 C 159.04949,886.89379 106.46201,887.7127 58.104218,871.61146 C 37.913428,864.88871 16.765468,854.31891 1.5096876,843.32536 C -2.8122824,840.21089 -3.2396024,840.06723 -1.7271924,842.23719 C 1.2039676,846.44276 26.835428,871.90585 38.489008,882.18924 C 79.022328,917.95676 124.36364,945.98373 174.48901,966.25536 C 237.66673,991.80561 308.63947,1003.3627 376.98901,999.2303 z M 150.48901,860.21511 C 239.056,850.31851 311.50496,784.1461 328.3782,697.73719 C 332.08007,678.77968 333.08579,654.48841 330.94517,635.73719 C 326.82333,599.63121 313.11437,565.59554 290.66696,535.73719 C 281.96711,524.16512 262.18698,504.76194 249.64185,495.49389 C 168.62223,435.63849 57.369258,443.90139 -13.788562,515.0592 C -52.96655,554.23719 -73.297911,603.36009 -73.255102,658.73719 C -73.21223,714.19491 -53.105126,762.41476 -13.603322,801.79111 C 3.3325276,818.67317 19.662888,830.5452 39.824118,840.63239 C 56.915628,849.18371 82.221978,856.90449 100.48901,859.14078 C 105.43901,859.74677 110.61401,860.40508 111.98901,860.6037 C 117.53867,861.40535 142.05144,861.15793 150.48901,860.21511 z M 596.01524,858.18973 C 665.77432,849.56669 724.82976,806.92974 755.46369,743.07087 C 774.34209,703.71735 779.56865,659.24599 770.50948,615.05053 C 754.62201,537.54303 691.54281,474.37255 613.98901,458.30357 C 599.17239,455.23359 588.83453,454.23719 571.79963,454.23719 C 517.08205,454.23719 467.42492,474.87105 428.52389,513.77207 C 390.24191,552.05406 368.92093,603.46665 369.02841,657.23719 C 369.13623,711.1808 390.50484,761.95964 429.35818,800.60061 C 461.28592,832.35382 502.16223,852.34423 547.03139,858.14826 C 556.50825,859.37413 586.23006,859.3993 596.01524,858.18973 z M 359.28278,583.73719 C 367.68113,559.9998 378.35214,540.24314 393.79687,519.83662 C 403.60255,506.88077 422.06525,488.50493 435.08844,478.73933 C 448.48901,468.69075 448.58297,468.58826 441.48901,471.75863 C 388.44297,495.46548 329.84797,498.52296 276.5636,480.36444 C 268.82257,477.72642 261.58901,475.23093 260.48901,474.81891 C 258.58253,474.10481 258.58751,474.15553 260.59562,475.90349 C 261.75425,476.91202 266.31181,480.56035 270.72353,484.01089 C 280.13899,491.375 296.61981,507.805 304.55415,517.73719 C 324.72098,542.982 340.58805,575.36245 348.04913,606.49883 L 350.38828,616.26047 L 353.59722,603.49883 C 355.36213,596.47993 357.92064,587.58719 359.28278,583.73719 z M 367.77842,469.20119 C 389.11773,466.92455 413.79176,460.27967 432.20545,451.85057 C 451.94625,442.81397 474.52624,426.78668 491.35243,409.86802 C 523.4486,377.59544 543.31874,336.67187 548.94001,291.26342 C 550.29093,280.35078 550.28882,254.09771 548.93616,243.21096 C 543.2629,197.55046 522.85678,155.9326 490.25099,123.52379 C 438.14874,71.736309 364.61842,52.474489 292.98901,71.849535 C 220.97079,91.32975 163.67138,153.00061 148.61576,227.23719 C 144.91485,245.48574 143.79974,273.18278 146.03801,291.26342 C 151.67429,336.79315 171.47528,377.54112 203.71729,409.96025 C 242.14951,448.60359 291.65215,469.48785 346.27842,470.10417 C 352.7626,470.17733 362.4376,469.77099 367.77842,469.20119 z"
       id="path4114" />
  </g>
</svg>
