<?xml version="1.0" encoding="UTF-8" standalone="no"?>
<!-- Created with Inkscape (http://www.inkscape.org/) -->
<svg
   xmlns:dc="http://purl.org/dc/elements/1.1/"
   xmlns:cc="http://creativecommons.org/ns#"
   xmlns:rdf="http://www.w3.org/1999/02/22-rdf-syntax-ns#"
   xmlns:svg="http://www.w3.org/2000/svg"
   xmlns="http://www.w3.org/2000/svg"
   xmlns:sodipodi="http://sodipodi.sourceforge.net/DTD/sodipodi-0.dtd"
   xmlns:inkscape="http://www.inkscape.org/namespaces/inkscape"
   width="985.30884"
   height="975.7558"
   id="svg3200"
   sodipodi:version="0.32"
   inkscape:version="0.46"
   version="1.0"
   sodipodi:docname="mollusken.svg"
   inkscape:output_extension="org.inkscape.output.svg.inkscape">
  <defs
     id="defs3202">
    <inkscape:perspective
       sodipodi:type="inkscape:persp3d"
       inkscape:vp_x="0 : 526.18109 : 1"
       inkscape:vp_y="0 : 1000 : 0"
       inkscape:vp_z="744.09448 : 526.18109 : 1"
       inkscape:persp3d-origin="372.04724 : 350.78739 : 1"
       id="perspective3208" />
  </defs>
  <sodipodi:namedview
     id="base"
     pagecolor="#ffffff"
     bordercolor="#666666"
     borderopacity="1.0"
     inkscape:pageopacity="0.0"
     inkscape:pageshadow="2"
     inkscape:zoom="0.35"
     inkscape:cx="350"
     inkscape:cy="520"
     inkscape:document-units="px"
     inkscape:current-layer="layer1"
     showgrid="false"
     inkscape:window-width="640"
     inkscape:window-height="713"
     inkscape:window-x="242"
     inkscape:window-y="250" />
  <metadata
     id="metadata3205">
    <rdf:RDF>
      <cc:Work
         rdf:about="">
        <dc:format>image/svg+xml</dc:format>
        <dc:type
           rdf:resource="http://purl.org/dc/dcmitype/StillImage" />
      </cc:Work>
    </rdf:RDF>
  </metadata>
  <g
     inkscape:label="Ebene 1"
     inkscape:groupmode="layer"
     id="layer1"
     transform="translate(142.65441,-44.484262)">
    <path
       style="fill:#000000"
       d="M 318.66855,1019.3772 C 183.08647,1011.991 62.015607,952.67455 -20.956503,852.98426 C -80.771659,781.11685 -119.94814,689.27381 -135.48759,584.48426 C -140.57378,550.18585 -144.21339,488.68172 -141.98632,474.66515 C -137.77723,448.17417 -128.80092,418.12434 -119.86548,400.61158 C -111.07672,383.38629 -106.07901,377.80636 -89.410656,366.60882 C -81.734838,361.45232 -66.171118,350.53216 -54.824613,342.34178 L -34.194603,327.45018 L -33.675583,292.71722 C -33.017803,248.69814 -30.694733,227.4026 -23.450513,198.98426 C -13.674413,160.63362 1.1763573,136.45448 22.703767,123.83857 C 36.008247,116.04163 64.294627,110.43908 110.04538,106.53925 C 153.19635,102.86102 206.67603,100.49401 246.76717,100.48793 L 270.98896,100.48426 L 308.36849,72.484262 L 345.74802,44.484262 L 351.94913,44.484262 L 358.15025,44.484262 L 395.01226,72.32526 L 431.87428,100.16626 L 472.20983,100.79658 C 577.59577,102.44345 652.18521,110.17951 676.22605,121.95617 C 716.10333,141.49047 737.00159,204.07045 737.0366,304.05379 L 737.04538,329.12331 L 756.29538,343.13261 C 766.88288,350.83772 781.03451,360.81216 787.74344,365.29803 C 802.72836,375.31756 805.98435,378.13897 811.52857,385.9085 C 824.11773,403.55062 836.4888,439.49395 842.07708,474.66515 C 843.58767,484.1724 841.97772,527.32201 839.06165,555.48426 C 829.07627,651.91914 800.4767,736.77494 753.68884,808.78801 C 727.67178,848.83191 693.44855,886.83921 657.04538,916.11736 C 564.39781,990.63145 447.24575,1026.3818 318.66855,1019.3772 z M 385.09549,997.46101 C 438.6978,993.38301 483.07166,983.57783 528.54538,965.76323 C 675.47006,908.20463 777.17801,778.83057 809.42173,608.48426 C 818.84848,558.68196 823.5406,495.05658 819.49685,471.86525 C 815.6736,449.93859 806.90137,421.65462 799.74295,408.17356 C 794.03306,397.42041 788.67968,392.04986 773.54538,381.89194 C 743.92135,362.00871 614.10677,265.4476 448.54538,140.14437 C 395.74538,100.18329 352.01632,67.685097 351.3697,67.926159 C 350.72308,68.16722 307.97308,100.03358 256.3697,138.7403 C 95.007147,259.7753 -40.771903,359.93704 -72.387626,381.25862 C -89.655973,392.90435 -90.182315,393.36806 -95.665296,401.76641 C -103.07226,413.11175 -109.28871,429.15913 -114.92504,451.48426 C -119.48722,469.55471 -120.94924,479.89137 -120.93626,493.98426 C -120.91769,514.13802 -117.68944,556.85535 -114.82353,574.87015 L -113.72808,581.75605 L 110.92625,357.10339 L 335.58058,132.45072 L 341.03016,137.96885 L 346.47974,143.48698 L 351.71643,138.31534 L 356.95311,133.1437 L 562.74925,338.24665 C 675.93712,451.05327 777.3164,552.15524 788.03654,562.9177 L 807.5277,582.48581 L 799.78296,590.23055 L 792.03822,597.97529 L 584.0418,389.98068 C 469.64377,275.58364 376.04538,182.3336 376.04538,182.75837 C 376.04538,183.18315 448.2511,324.70774 536.50255,497.25747 C 624.75399,669.80721 697.21169,811.66637 697.51967,812.50007 C 697.93381,813.62116 695.61424,815.24055 688.61199,818.71892 L 679.14436,823.42195 L 671.21252,808.20311 C 666.85001,799.83274 596.11236,661.58426 514.01773,500.98426 C 431.92311,340.38426 364.31959,208.53426 363.78769,207.98426 C 363.15849,207.33366 363.01931,207.68306 363.38933,208.98426 C 363.70214,210.08426 394.79931,377.48426 432.49416,580.98426 C 470.18901,784.48426 501.25621,951.95283 501.53237,953.13665 C 502.00086,955.14488 501.34837,955.41803 491.78993,957.21523 C 486.15543,958.27464 481.25478,958.88107 480.89961,958.56285 C 480.54444,958.24462 450.16944,795.68426 413.39961,597.3176 C 376.62978,398.95094 346.42609,236.77023 346.28029,236.91602 C 346.13449,237.06182 315.91015,399.51116 279.11509,597.91455 C 242.32003,796.31795 212.06432,958.79006 211.88018,958.9637 C 211.47767,959.34324 191.83016,955.60237 191.26669,955.0389 C 191.04992,954.82213 221.9708,786.91802 259.97977,581.91865 C 297.98874,376.91928 328.91814,209.02368 328.71177,208.81732 C 328.50541,208.61096 257.55639,346.79152 171.04728,515.88524 L 13.757987,823.32836 L 4.3508273,818.65631 C -2.9168327,815.04684 -4.9543127,813.5938 -4.6077827,812.26746 C -4.3610727,811.32323 67.499457,670.47323 155.08229,499.26746 C 242.66513,328.0617 314.97901,186.63426 315.7798,184.98426 C 316.58059,183.33426 223.70504,275.47176 109.38968,389.73426 C -4.9256727,503.99676 -98.89391,597.48426 -99.428617,597.48426 C -99.963324,597.48426 -103.22542,594.68476 -106.67772,591.26315 C -114.20257,583.80518 -114.08209,583.27597 -109.92024,605.50529 C -94.575741,687.46365 -64.625195,758.40552 -19.581673,819.48426 C 25.266347,880.29789 87.298247,929.56809 157.04538,959.77416 C 205.39191,980.71207 256.16348,992.92541 313.54538,997.42095 C 328.56696,998.59781 369.84929,998.62092 385.09549,997.46101 z M 714.91716,283.98426 C 712.73227,211.67766 697.2792,161.4936 672.00103,144.61348 C 657.41879,134.87584 621.79878,129.30896 546.54538,125.00664 C 511.69313,123.0141 461.27225,121.95859 462.54538,123.24819 C 464.45021,125.17766 559.89458,197.11604 637.03595,254.76531 C 713.06545,311.58365 714.53676,312.62189 715.06934,309.8299 C 715.36788,308.2648 715.2994,296.63426 714.91716,283.98426 z M 64.545377,254.61034 C 139.20566,199.3502 238.64042,125.12183 240.54538,123.22577 C 241.84404,121.93318 191.88384,122.99711 156.04538,125.02525 C 91.356337,128.68607 49.820977,134.48493 35.240307,141.89117 C 13.796717,152.78341 -1.2479627,184.91867 -8.3428627,234.98426 C -10.542263,250.50451 -11.759183,266.72262 -12.536343,290.87174 C -13.102623,308.46783 -12.991563,311.63023 -11.831583,310.94057 C -11.074253,310.49032 23.295377,285.14171 64.545377,254.61034 z M 353.20756,188.61297 C 353.57175,188.26718 352.1655,184.6213 350.08256,180.51101 L 346.29538,173.03775 L 342.67038,180.23604 C 340.67663,184.1951 339.04538,187.86705 339.04538,188.39594 C 339.04538,190.23289 351.30354,190.42075 353.20756,188.61297 z M 349.04538,155.68426 C 349.04538,153.8331 346.70229,152.52411 345.36917,153.6305 C 343.32072,155.33056 343.79623,156.48426 346.54538,156.48426 C 347.92038,156.48426 349.04538,156.12426 349.04538,155.68426 z"
       id="path3198" />
  </g>
</svg>
