<?xml version="1.0" encoding="UTF-8" standalone="no"?>
<!-- Created with Inkscape (http://www.inkscape.org/) -->
<svg
   xmlns:dc="http://purl.org/dc/elements/1.1/"
   xmlns:cc="http://creativecommons.org/ns#"
   xmlns:rdf="http://www.w3.org/1999/02/22-rdf-syntax-ns#"
   xmlns:svg="http://www.w3.org/2000/svg"
   xmlns="http://www.w3.org/2000/svg"
   xmlns:sodipodi="http://sodipodi.sourceforge.net/DTD/sodipodi-0.dtd"
   xmlns:inkscape="http://www.inkscape.org/namespaces/inkscape"
   width="988.79071"
   height="1124.4696"
   id="svg6653"
   sodipodi:version="0.32"
   inkscape:version="0.46"
   version="1.0"
   sodipodi:docname="arthropoden.svg"
   inkscape:output_extension="org.inkscape.output.svg.inkscape">
  <defs
     id="defs6655">
    <inkscape:perspective
       sodipodi:type="inkscape:persp3d"
       inkscape:vp_x="0 : 526.18109 : 1"
       inkscape:vp_y="0 : 1000 : 0"
       inkscape:vp_z="744.09448 : 526.18109 : 1"
       inkscape:persp3d-origin="372.04724 : 350.78739 : 1"
       id="perspective6661" />
  </defs>
  <sodipodi:namedview
     id="base"
     pagecolor="#ffffff"
     bordercolor="#666666"
     borderopacity="1.0"
     inkscape:pageopacity="0.0"
     inkscape:pageshadow="2"
     inkscape:zoom="0.35"
     inkscape:cx="350"
     inkscape:cy="520"
     inkscape:document-units="px"
     inkscape:current-layer="layer1"
     showgrid="false"
     inkscape:window-width="640"
     inkscape:window-height="713"
     inkscape:window-x="100"
     inkscape:window-y="102" />
  <metadata
     id="metadata6658">
    <rdf:RDF>
      <cc:Work
         rdf:about="">
        <dc:format>image/svg+xml</dc:format>
        <dc:type
           rdf:resource="http://purl.org/dc/dcmitype/StillImage" />
      </cc:Work>
    </rdf:RDF>
  </metadata>
  <g
     inkscape:label="Ebene 1"
     inkscape:groupmode="layer"
     id="layer1"
     transform="translate(144.39534,29.872559)">
    <path
       style="fill:#000000"
       d="M 270.49569,1090.8962 C 257.67815,1082.5075 232.76189,1059.7182 227.12818,1051.2306 C 209.26211,1024.3143 205.78396,963.57877 217.07274,875.64282 C 224.59384,817.05583 238.66099,749.36029 248.43515,724.71696 C 249.60877,721.75795 250.39546,719.16341 250.18335,718.9513 C 249.97125,718.7392 217.62974,711.13612 178.31333,702.05558 L 106.82896,685.54551 L 73.764073,702.65342 L 40.699183,719.76133 L -1.8531473,763.60458 L -44.405467,807.44783 L -53.954888,799.85417 C -59.207069,795.67765 -63.504307,791.91689 -63.504307,791.49693 C -63.504307,791.07696 -49.81831,770.11516 -33.090977,744.91516 L -2.6776573,699.09697 L 42.935443,663.59697 C 73.537723,639.77966 89.190033,628.19858 90.497853,628.40572 C 91.569983,628.57553 121.98265,635.88803 158.08156,644.65572 C 194.18047,653.42341 223.86579,660.59697 224.04893,660.59697 C 224.23206,660.59697 222.87626,657.29306 221.03604,653.25495 C 215.06547,640.1534 208.3545,622.50015 201.96825,603.09697 L 195.71469,584.09697 L 122.07509,548.99563 L 48.435493,513.8943 L 3.7155927,527.3319 C -23.771017,535.59118 -41.490207,540.44724 -42.265207,539.93324 C -42.958697,539.47329 -63.605011,510.74697 -88.145905,476.09697 C -112.6868,441.44697 -135.38238,409.41387 -138.58053,404.91231 L -144.39534,396.72765 L -134.80137,389.01107 C -127.96539,383.51279 -124.81898,381.55357 -123.85628,382.19573 C -123.11317,382.69141 -99.52137,408.29697 -71.430066,439.09697 C -40.278897,473.25189 -19.701437,495.04896 -18.679637,494.97389 C -17.758207,494.9062 0.57389268,488.8506 22.058353,481.51701 L 61.121023,468.18321 L 120.90705,496.95806 C 153.78936,512.78423 180.85616,525.56983 181.0555,525.37049 C 181.25483,525.17116 180.52305,520.07807 179.42931,514.05252 C 177.00089,500.674 174.85493,481.97455 173.98098,466.57683 L 173.32712,455.05669 L 169.6614,452.63279 C 162.29168,447.75968 27.203293,365.48951 23.654893,363.71339 C 21.642333,362.70602 -2.5043073,353.20963 -30.004307,342.61031 C -57.504307,332.01099 -80.342987,323.03573 -80.75693,322.66527 C -81.398319,322.09127 -115.72362,164.20292 -116.67065,157.47058 C -116.98436,155.24041 -116.297,154.89926 -105.17182,151.76361 C -98.663953,149.92936 -93.190368,148.57899 -93.008298,148.76279 C -92.826228,148.94659 -81.329368,181.49697 -67.459721,221.09697 C -53.590073,260.69697 -42.094847,293.26578 -41.914777,293.4721 C -41.734707,293.67843 -22.670307,299.20303 0.45054268,305.74899 L 42.488473,317.65075 L 104.96672,354.21145 C 161.0756,387.04495 168.33276,391.01641 176.15346,393.1681 C 180.94313,394.48587 184.89316,395.45895 184.9313,395.33051 C 185.96036,391.86506 196.45986,372.39808 201.5074,364.59697 C 210.54753,350.62522 212.49569,346.76004 212.49569,342.79604 C 212.49569,338.81682 211.68169,337.19695 205.21298,328.30327 C 196.60881,316.47361 193.51584,304.12888 193.50324,281.56711 C 193.46165,207.0705 245.88473,65.883369 296.5285,4.0969673 C 309.21989,-11.386783 322.14073,-21.918163 334.91422,-27.190057 C 343.58041,-30.766784 356.41097,-30.766784 365.07716,-27.190057 C 377.95086,-21.876803 391.40608,-10.79139 404.26642,5.0969673 C 454.41554,67.053925 506.52866,207.91361 506.48814,281.39819 C 506.47519,304.88208 503.92086,314.64693 493.94064,329.36564 C 484.7992,342.84732 484.87802,343.61468 497.38845,362.9346 C 503.26724,372.01323 513.95313,391.60278 515.06008,395.33051 C 515.30364,396.15071 533.27157,390.33518 536.74715,388.31124 C 539.08385,386.9505 567.21649,370.48689 599.26413,351.72542 L 657.53256,317.61367 L 699.5685,305.71761 C 722.68827,299.17478 741.74056,293.65852 741.90693,293.45926 C 742.0733,293.26 753.57218,260.69697 767.46001,221.09697 C 781.34783,181.49697 792.84807,148.94864 793.0161,148.76735 C 793.18413,148.58605 798.74553,149.91844 805.37477,151.72822 C 816.25645,154.6989 817.38096,155.21691 816.94455,157.05784 C 816.67869,158.17936 808.58341,195.75999 798.95506,240.57034 C 789.3267,285.38069 781.12197,322.33605 780.72232,322.69336 C 780.32267,323.05066 756.82069,332.26781 728.49569,343.17591 L 676.99569,363.00882 L 608.99569,404.43909 C 521.65524,457.65289 526.50202,454.53019 526.48886,457.59697 C 526.43179,470.89855 522.9779,502.10272 519.86375,517.45157 C 519.04304,521.4966 518.57315,525.00776 518.81953,525.25415 C 519.06592,525.50053 546.18152,512.76151 579.07643,496.94521 L 638.88535,468.18829 L 677.94052,481.51955 C 699.42086,488.85174 717.74959,494.9062 718.67102,494.97389 C 719.69282,495.04896 740.27028,473.25189 771.42145,439.09697 C 799.51275,408.29697 823.10455,382.69141 823.84766,382.19573 C 824.81038,381.55356 827.95795,383.51373 834.79706,389.01454 L 844.39534,396.73458 L 837.15019,406.91578 C 833.16535,412.51543 810.20447,444.88447 786.12602,478.84697 C 762.04757,512.80947 741.81797,540.59065 741.17135,540.58293 C 740.52474,540.57521 720.10391,534.56369 695.79174,527.224 L 651.58778,513.87911 L 577.93224,548.98804 L 504.27669,584.09697 L 498.02313,603.09697 C 491.61973,622.55223 484.92497,640.15546 478.90691,653.36124 C 475.61096,660.5937 475.57756,660.79333 477.75415,660.25017 C 487.83637,657.73419 608.38139,628.63862 609.70214,628.4023 C 610.71681,628.22075 629.92794,642.48852 657.09074,663.59697 L 702.77287,699.09697 L 733.13428,744.91787 C 749.83306,770.11936 763.49569,791.0736 763.49569,791.48286 C 763.49569,792.47387 745.82006,806.59697 744.57977,806.59697 C 744.04675,806.59697 724.60555,787.02011 701.3771,763.09284 L 659.14356,719.58871 L 626.10823,702.57745 L 593.07291,685.56618 L 521.63329,702.06592 C 482.3415,711.14078 450.01654,718.74279 449.80004,718.95929 C 449.58354,719.17578 450.53745,722.22033 451.91983,725.72494 C 461.72076,750.57227 476.51527,822.74686 483.46087,879.59697 C 486.96995,908.31897 488.52882,928.38628 489.1705,953.09697 C 490.40302,1000.5605 485.11801,1032.8155 473.16349,1050.7897 C 467.14772,1059.8346 441.93107,1082.9304 429.29373,1090.9697 L 423.59176,1094.597 L 349.79373,1094.5464 L 275.99569,1094.4957 L 270.49569,1090.8962 z M 424.16009,1063.347 C 436.84465,1053.161 450.888,1039.1295 453.85605,1033.6762 C 460.91404,1020.7084 464.0472,998.30017 463.86442,962.09697 C 463.63058,915.78207 456.56836,856.62071 443.98895,795.59697 C 440.49367,778.64112 435.02886,755.74522 434.33587,755.15355 C 434.14877,754.99381 415.03679,750.99909 391.86481,746.27641 L 349.73393,737.68972 L 307.86481,746.2492 C 284.83679,750.95692 265.82476,754.96948 265.61584,755.16601 C 263.94147,756.7411 252.17274,813.09892 247.53193,841.76584 C 233.29784,929.69178 232.06965,998.57537 244.18604,1029.4219 C 246.44488,1035.1726 248.27511,1037.5595 257.40184,1046.6573 C 263.22846,1052.4655 271.51267,1060.003 275.8112,1063.4073 L 283.62671,1069.597 L 350.00188,1069.597 L 416.37704,1069.597 L 424.16009,1063.347 z M 424.77969,725.48097 C 424.12503,724.82631 422.76773,724.71233 421.34635,725.19264 C 419.05443,725.96714 419.07066,726.00243 421.99569,726.60512 C 425.48443,727.32395 426.29526,726.99654 424.77969,725.48097 z M 278.99569,725.59697 C 278.65577,725.04697 277.75577,724.59697 276.99569,724.59697 C 276.23561,724.59697 275.33561,725.04697 274.99569,725.59697 C 274.64378,726.16637 275.50498,726.59697 276.99569,726.59697 C 278.4864,726.59697 279.3476,726.16637 278.99569,725.59697 z M 316.42622,718.68779 L 349.85674,711.84018 L 383.30099,718.71857 C 401.69533,722.50169 417.02792,725.59697 417.37342,725.59697 C 417.71892,725.59697 420.90836,718.50947 424.46106,709.84697 C 428.01377,701.18447 434.43577,687.12197 438.73219,678.59697 C 457.01068,642.32856 467.61863,616.44689 476.84949,585.59697 C 491.55856,536.43862 499.15426,498.19299 500.18535,468.09697 C 501.43032,431.75815 495.51546,407.51232 479.08634,381.60916 C 474.72161,374.72745 469.84204,366.73022 468.24286,363.83753 C 466.3988,360.50191 464.90736,358.83871 464.16547,359.29058 C 463.06466,359.96107 354.80894,446.32734 351.41453,449.24314 C 350.03106,450.43153 342.67797,444.84941 292.60682,404.59916 C 261.13223,379.29796 235.19281,358.59697 234.96367,358.59697 C 234.73453,358.59697 233.80435,360.05947 232.8966,361.84697 C 231.98886,363.63447 227.38023,371.17197 222.65521,378.59697 C 212.63352,394.34526 207.331,406.01981 204.05516,419.54866 C 194.40115,459.41864 200.02263,508.32234 223.14242,585.59697 C 232.38423,616.48642 243.05997,642.52395 261.27366,678.59697 C 265.57804,687.12197 271.95926,701.18447 275.45417,709.84697 C 278.94907,718.50947 282.07565,725.58312 282.40211,725.56618 C 282.72858,725.54925 298.03943,722.45397 316.42622,718.68779 z M 126.65742,664.21942 C 139.46127,667.18781 150.30932,669.49243 150.76419,669.3408 C 151.21907,669.18918 138.79745,665.99052 123.16061,662.23268 L 94.729983,655.40025 L 81.112843,666.05984 C 73.623413,671.92262 67.495693,676.8555 67.495693,677.0218 C 67.495693,677.1881 75.569143,673.16126 85.436703,668.07326 L 103.3777,658.82236 L 126.65742,664.21942 z M 632.49569,677.1582 C 632.49569,676.91688 626.37187,671.92567 618.8872,666.06662 L 605.27871,655.4138 L 583.27478,660.71791 C 571.17263,663.63518 561.6773,666.15751 562.17406,666.32309 C 562.67081,666.48868 570.605,664.87147 579.80558,662.72929 L 596.5339,658.83443 L 614.2648,668.10899 C 634.80777,678.85447 632.49569,677.70683 632.49569,677.1582 z M 159.22486,670.9928 C 158.89257,670.66051 158.03007,670.62499 157.30819,670.91386 C 156.51046,671.23308 156.74741,671.47004 157.91236,671.51802 C 158.96652,671.56144 159.55715,671.32509 159.22486,670.9928 z M 543.22486,670.9928 C 542.89257,670.66051 542.03006,670.62499 541.30819,670.91386 C 540.51046,671.23308 540.74741,671.47004 541.91236,671.51802 C 542.96652,671.56144 543.55715,671.32509 543.22486,670.9928 z M 155.22486,669.9928 C 154.89257,669.66051 154.03007,669.62499 153.30819,669.91386 C 152.51046,670.23308 152.74741,670.47004 153.91236,670.51802 C 154.96652,670.56144 155.55715,670.32509 155.22486,669.9928 z M 547.22486,669.9928 C 546.89257,669.66051 546.03006,669.62499 545.30819,669.91386 C 544.51046,670.23308 544.74741,670.47004 545.91236,670.51802 C 546.96652,670.56144 547.55715,670.32509 547.22486,669.9928 z M 555.99569,668.1671 C 558.74569,667.40189 560.32069,666.74425 559.49569,666.70568 C 558.67069,666.66711 555.74569,667.26163 552.99569,668.02684 C 550.24569,668.79205 548.67069,669.44969 549.49569,669.48826 C 550.32069,669.52683 553.24569,668.93231 555.99569,668.1671 z M 177.27843,420.04637 C 176.99441,419.76236 172.53961,418.37317 167.37886,416.95929 C 162.21812,415.54541 156.64569,413.70325 154.99569,412.86561 C 149.475,410.06296 153.23381,412.70813 164.66553,419.67054 L 175.99569,426.57108 L 176.89526,423.56692 C 177.39002,421.91464 177.56244,420.33039 177.27843,420.04637 z M 535.49569,419.57685 C 546.29968,413.07638 550.45557,410.12748 544.77121,412.99521 C 542.99775,413.88991 537.42716,415.7244 532.39213,417.07187 C 527.3571,418.41933 523.02779,419.73154 522.77145,419.98788 C 522.07039,420.68894 523.55514,426.67004 524.32706,426.25441 C 524.69481,426.05641 529.72069,423.0515 535.49569,419.57685 z M 408.27426,371.2444 C 461.93478,328.1529 466.39277,324.33621 471.63972,316.9944 C 480.18657,305.03519 480.90066,302.30968 480.91384,281.59697 C 480.9278,259.6444 478.6659,244.54348 470.35393,211.09697 C 464.26295,186.58746 452.6523,151.26876 443.2781,128.73435 L 440.21529,121.37173 L 438.93457,125.09709 C 436.61559,131.84254 428.0386,138.5158 421.61171,138.57501 C 414.09999,138.64421 406.00822,133.15272 402.99482,125.94064 C 401.05216,121.29122 401.07822,112.53212 403.04874,107.81485 C 407.10772,98.097947 416.19652,93.492687 426.38951,95.988167 L 429.78334,96.819057 L 420.27293,78.458007 C 402.88937,44.896863 390.63599,26.601148 375.07564,10.97325 C 355.11669,-9.0723567 345.93922,-9.4648777 326.78412,8.9078213 C 311.2055,23.850122 296.65206,45.446882 278.97108,79.860577 C 273.75961,90.003997 269.49569,98.579087 269.49569,98.916337 C 269.49569,99.253587 271.10431,98.580407 273.0704,97.420387 C 277.4044,94.863267 285.66536,94.592477 290.01909,96.864837 C 300.63367,102.40493 304.58607,116.00269 298.89902,127.41513 C 296.03928,133.15387 290.45623,137.24228 284.06234,138.27987 C 274.10573,139.8956 262.87829,129.42181 262.42718,118.09697 C 262.2312,113.17717 247.5175,150.97223 238.67975,179.09697 C 224.62867,223.81229 217.63213,261.8227 218.8003,287.09697 C 219.53019,302.88887 220.98389,307.19032 229.22089,317.93107 C 235.48543,326.09982 240.2511,330.18321 292.49569,372.14714 C 323.57069,397.10722 349.34605,417.54437 349.77426,417.56304 C 350.20248,417.5817 376.52748,396.73831 408.27426,371.2444 z"
       id="path6631" />
  </g>
</svg>
