<?xml version="1.0" encoding="UTF-8" standalone="no"?>
<!-- Created with Inkscape (http://www.inkscape.org/) -->
<svg
   xmlns:dc="http://purl.org/dc/elements/1.1/"
   xmlns:cc="http://creativecommons.org/ns#"
   xmlns:rdf="http://www.w3.org/1999/02/22-rdf-syntax-ns#"
   xmlns:svg="http://www.w3.org/2000/svg"
   xmlns="http://www.w3.org/2000/svg"
   xmlns:sodipodi="http://sodipodi.sourceforge.net/DTD/sodipodi-0.dtd"
   xmlns:inkscape="http://www.inkscape.org/namespaces/inkscape"
   width="988"
   height="233.02258"
   id="svg4739"
   sodipodi:version="0.32"
   inkscape:version="0.46"
   version="1.0"
   sodipodi:docname="graptoliten.svg"
   inkscape:output_extension="org.inkscape.output.svg.inkscape">
  <defs
     id="defs4741">
    <inkscape:perspective
       sodipodi:type="inkscape:persp3d"
       inkscape:vp_x="0 : 526.18109 : 1"
       inkscape:vp_y="0 : 1000 : 0"
       inkscape:vp_z="744.09448 : 526.18109 : 1"
       inkscape:persp3d-origin="372.04724 : 350.78739 : 1"
       id="perspective4747" />
  </defs>
  <sodipodi:namedview
     id="base"
     pagecolor="#ffffff"
     bordercolor="#666666"
     borderopacity="1.0"
     inkscape:pageopacity="0.0"
     inkscape:pageshadow="2"
     inkscape:zoom="0.35"
     inkscape:cx="350"
     inkscape:cy="520"
     inkscape:document-units="px"
     inkscape:current-layer="layer1"
     showgrid="false"
     inkscape:window-width="640"
     inkscape:window-height="713"
     inkscape:window-x="80"
     inkscape:window-y="82" />
  <metadata
     id="metadata4744">
    <rdf:RDF>
      <cc:Work
         rdf:about="">
        <dc:format>image/svg+xml</dc:format>
        <dc:type
           rdf:resource="http://purl.org/dc/dcmitype/StillImage" />
      </cc:Work>
    </rdf:RDF>
  </metadata>
  <g
     inkscape:label="Ebene 1"
     inkscape:groupmode="layer"
     id="layer1"
     transform="translate(144,-415.85089)">
    <path
       style="fill:#000000"
       d="M -144,638.37347 L -144,627.87347 L -46.70909,627.87347 L 50.58183,627.87347 L 141.54091,522.69482 C 191.56841,464.84656 232.95,416.92161 233.5,416.19494 C 234.27769,415.16743 236.16617,416.31517 241.99469,421.35765 C 246.11677,424.92383 249.62793,428.25727 249.79728,428.7653 C 249.96662,429.27333 211.83551,473.94301 165.06147,528.03123 C 118.28743,582.11946 80.013761,626.71097 80.008881,627.12347 C 80.004,627.53597 131.6978,627.87347 194.88401,627.87347 L 309.76802,627.87347 L 378.63401,540.67847 C 416.5103,492.72122 447.99164,452.83102 448.59252,452.03359 C 449.49996,450.82934 451.02469,451.63787 457.59252,456.8061 C 461.94164,460.22842 465.61311,463.33295 465.75136,463.70505 C 465.8896,464.07716 437.20661,500.82978 402.01138,545.37754 C 366.81614,589.9253 338.01553,626.71097 338.01002,627.12347 C 338.00451,627.53597 396.46987,627.87347 467.93305,627.87347 L 597.8661,627.87347 L 601.28978,623.62347 C 603.1728,621.28597 625.76557,590.57347 651.49594,555.37347 C 677.22631,520.17347 699.05604,490.54572 700.00645,489.53402 C 701.67299,487.76 702.02155,487.90229 709.80501,493.53402 C 714.24381,496.74572 717.90356,499.68506 717.93778,500.06589 C 717.972,500.44671 697.50623,528.69633 672.45828,562.84282 C 647.41033,596.9893 626.66219,625.59021 626.35129,626.4004 C 625.85555,627.69228 639.20643,627.87347 734.89301,627.87347 L 844,627.87347 L 844,638.37347 L 844,648.87347 L 350,648.87347 L -144,648.87347 L -144,638.37347 z"
       id="path4737" />
  </g>
</svg>
