<?xml version="1.0" encoding="UTF-8" standalone="no"?>
<!-- Created with Inkscape (http://www.inkscape.org/) -->
<svg
   xmlns:dc="http://purl.org/dc/elements/1.1/"
   xmlns:cc="http://creativecommons.org/ns#"
   xmlns:rdf="http://www.w3.org/1999/02/22-rdf-syntax-ns#"
   xmlns:svg="http://www.w3.org/2000/svg"
   xmlns="http://www.w3.org/2000/svg"
   xmlns:sodipodi="http://sodipodi.sourceforge.net/DTD/sodipodi-0.dtd"
   xmlns:inkscape="http://www.inkscape.org/namespaces/inkscape"
   width="975.53479"
   height="1035.781"
   id="svg2680"
   sodipodi:version="0.32"
   inkscape:version="0.46"
   version="1.0"
   sodipodi:docname="pilze.svg"
   inkscape:output_extension="org.inkscape.output.svg.inkscape">
  <defs
     id="defs2682">
    <inkscape:perspective
       sodipodi:type="inkscape:persp3d"
       inkscape:vp_x="0 : 526.18109 : 1"
       inkscape:vp_y="0 : 1000 : 0"
       inkscape:vp_z="744.09448 : 526.18109 : 1"
       inkscape:persp3d-origin="372.04724 : 350.78739 : 1"
       id="perspective2688" />
  </defs>
  <sodipodi:namedview
     id="base"
     pagecolor="#ffffff"
     bordercolor="#666666"
     borderopacity="1.0"
     inkscape:pageopacity="0.0"
     inkscape:pageshadow="2"
     inkscape:zoom="0.35"
     inkscape:cx="350"
     inkscape:cy="520"
     inkscape:document-units="px"
     inkscape:current-layer="layer1"
     showgrid="false"
     inkscape:window-width="640"
     inkscape:window-height="713"
     inkscape:window-x="100"
     inkscape:window-y="100" />
  <metadata
     id="metadata2685">
    <rdf:RDF>
      <cc:Work
         rdf:about="">
        <dc:format>image/svg+xml</dc:format>
        <dc:type
           rdf:resource="http://purl.org/dc/dcmitype/StillImage" />
      </cc:Work>
    </rdf:RDF>
  </metadata>
  <g
     inkscape:label="Ebene 1"
     inkscape:groupmode="layer"
     id="layer1"
     transform="translate(137.76738,-14.47171)">
    <path
       style="fill:#000000"
       d="M 95.810718,1038.5027 C 96.949688,1016.7788 102.9172,996.72708 118.45915,962.40086 C 121.28602,956.15738 138.70411,920.85471 157.16602,883.95049 C 175.62793,847.04627 192.30528,813.45458 194.2268,809.30229 C 220.6628,752.17573 233.29396,718.36318 240.5673,685.25266 C 251.7705,634.2522 257.64161,551.54759 254.84515,484.12477 L 254.19696,468.49689 L 233.09848,467.83177 C 35.136958,461.59115 -96.976121,444.38186 -127.85211,420.81368 C -130.46203,418.82149 -133.67378,417.25266 -135.14234,417.25266 L -137.76738,417.25266 L -137.08065,400.50266 C -135.50673,362.11335 -129.7353,330.45998 -118.52835,298.75266 C -105.40095,261.61189 -85.144299,225.62239 -59.147785,193.25266 C -39.607221,168.9216 -9.6463018,140.13793 16.999998,120.09696 C 160.50596,12.164541 371.31645,-15.873754 551,49.073689 C 569.83266,55.880841 584.26768,62.076721 605,72.251873 C 699.15232,118.46061 771.77881,190.35071 808.5648,273.75266 C 826.63664,314.72549 835.10758,352.37799 837.08064,400.50266 L 837.76738,417.25266 L 835.14234,417.25266 C 833.67378,417.25266 830.46203,418.82149 827.85211,420.81368 C 799.60231,442.37725 686.79159,458.63067 512.5,466.24865 C 500.125,466.78954 487.075,467.23671 483.5,467.24235 L 477,467.25262 L 476.95078,518.00264 C 476.91377,556.16271 476.4697,574.58249 475.16073,592.25266 C 470.41266,656.34844 463.21931,695.68435 448.83975,736.18555 C 434.81228,775.69504 420.65859,806.71084 376.47953,894.75266 C 326.42601,994.50134 319.87116,1010.718 317.97081,1039.5027 L 317.2611,1050.2527 L 206.22788,1050.2527 L 95.194668,1050.2527 L 95.810718,1038.5027 z M 299.02226,1014.7527 C 305.64353,988.1894 313.54606,970.31236 356.48859,884.75266 C 398.99366,800.0646 410.49607,775.1164 425.41586,735.25266 C 435.33799,708.74203 440.83972,687.25049 445.89549,655.25266 C 455.44354,594.82334 457.44008,508.45501 451.43191,415.75266 C 449.62352,387.85028 447.33065,363.75764 446.39061,362.78034 C 445.3241,361.67156 272.65172,361.32696 270.96267,362.43024 C 270.24886,362.8965 270.30077,367.41875 271.1291,376.93024 C 280.48611,484.37321 279.32755,587.90468 267.95862,660.25266 C 261.08203,704.01291 251.94662,733.60813 228.7564,787.25266 C 219.30905,809.10664 210.29558,827.74389 176.52474,895.25266 C 142.81181,962.64567 134.95611,979.17164 127.93494,997.47062 C 124.40191,1006.6786 119.50192,1023.5484 119.50071,1026.5081 C 119.50004,1028.1707 124.1627,1028.2501 207.64092,1028.0081 L 295.78183,1027.7527 L 299.02226,1014.7527 z M 253.49805,444.50266 C 253.4936,440.51511 249.38146,383.27781 248.49524,374.86802 C 247.96692,369.85457 247.52686,364.99277 247.51733,364.06401 C 247.4981,362.18999 252.18205,362.1682 195.5,364.30599 C 50.391408,369.77882 -64.734459,383.64436 -105.30328,400.53415 C -113.77422,404.06081 -113.65824,404.5769 -103.49851,408.56518 C -57.394713,426.66356 70.174438,440.59602 235.5,445.58887 C 240.175,445.73005 246.1375,445.93716 248.75,446.04911 C 252.68531,446.21775 253.49967,445.95251 253.49805,444.50266 z M 514.5,443.74943 C 660.26257,437.22355 762.06738,424.82928 803.49851,408.56518 C 813.4468,404.65991 813.67192,404.04623 806.2951,400.94201 C 770.70628,385.96597 682.44881,373.78703 559,366.81693 C 524.12631,364.84792 470.6476,362.77173 470.05546,363.36387 C 469.79329,363.62604 470.00111,367.92268 470.5173,372.91196 C 471.46028,382.02653 475.4944,438.79596 475.49805,443.00266 C 475.50041,445.72742 471.87152,445.65794 514.5,443.74943 z M -101,375.25054 C 4.9169482,341.67169 357.63608,328.42748 617,348.29044 C 704.09481,354.96046 769.11044,364.65371 803.97726,376.16709 C 808.91475,377.7975 813.0968,378.98919 813.2707,378.8153 C 813.88702,378.19898 811.37971,360.57591 808.92242,348.25266 C 796.31725,285.03801 764.35569,227.11255 714.53345,177.18699 C 637.09944,99.592403 529.41068,51.603443 405,39.250705 C 374.91511,36.263575 322.77445,36.501324 291.15945,39.76979 C 145.19766,54.859816 18.210348,122.6445 -54.500002,224.2797 C -86.892381,269.55806 -106.68996,320.11785 -112.98624,373.64404 C -113.62781,379.09819 -113.54272,379.4823 -111.83962,378.81962 C -110.82783,378.42593 -105.95,376.81984 -101,375.25054 z"
       id="path2678" />
  </g>
</svg>
