<?xml version="1.0" encoding="UTF-8" standalone="no"?>
<!-- Created with Inkscape (http://www.inkscape.org/) -->
<svg
   xmlns:dc="http://purl.org/dc/elements/1.1/"
   xmlns:cc="http://creativecommons.org/ns#"
   xmlns:rdf="http://www.w3.org/1999/02/22-rdf-syntax-ns#"
   xmlns:svg="http://www.w3.org/2000/svg"
   xmlns="http://www.w3.org/2000/svg"
   xmlns:sodipodi="http://sodipodi.sourceforge.net/DTD/sodipodi-0.dtd"
   xmlns:inkscape="http://www.inkscape.org/namespaces/inkscape"
   width="210mm"
   height="297mm"
   id="svg3232"
   sodipodi:version="0.32"
   inkscape:version="0.46"
   sodipodi:docname="saeugetiere.svg"
   inkscape:output_extension="org.inkscape.output.svg.inkscape">
  <defs
     id="defs3234">
    <inkscape:perspective
       sodipodi:type="inkscape:persp3d"
       inkscape:vp_x="0 : 526.18109 : 1"
       inkscape:vp_y="0 : 1000 : 0"
       inkscape:vp_z="744.09448 : 526.18109 : 1"
       inkscape:persp3d-origin="372.04724 : 350.78739 : 1"
       id="perspective3240" />
  </defs>
  <sodipodi:namedview
     id="base"
     pagecolor="#ffffff"
     bordercolor="#666666"
     borderopacity="1.0"
     inkscape:pageopacity="0.0"
     inkscape:pageshadow="2"
     inkscape:zoom="0.35"
     inkscape:cx="350"
     inkscape:cy="520"
     inkscape:document-units="px"
     inkscape:current-layer="layer1"
     showgrid="false"
     inkscape:window-width="640"
     inkscape:window-height="713"
     inkscape:window-x="140"
     inkscape:window-y="140" />
  <metadata
     id="metadata3237">
    <rdf:RDF>
      <cc:Work
         rdf:about="">
        <dc:format>image/svg+xml</dc:format>
        <dc:type
           rdf:resource="http://purl.org/dc/dcmitype/StillImage" />
      </cc:Work>
    </rdf:RDF>
  </metadata>
  <g
     inkscape:label="Ebene 1"
     inkscape:groupmode="layer"
     id="layer1">
    <path
       style="fill:#000000"
       d="M 407.52115,421.74611 C 381.07089,419.22562 362.59777,410.95954 359.61616,400.31029 C 355.65109,386.14843 370.45206,376.49028 411.77483,366.27494 L 425.83376,362.79945 L 418.11005,356.92961 C 402.42938,345.01265 390.06738,338.18384 375.84267,333.58096 C 369.92494,331.66608 366.89693,331.12043 361.78605,331.04793 C 353.72926,330.93364 352.65304,331.68617 351.35218,338.34363 C 349.5642,347.49407 342.40994,363.55726 334.15101,376.96474 C 323.97364,393.4866 311.28084,407.46206 302.68045,411.61552 L 298.15496,413.80106 L 272.51047,414.41216 C 237.80729,415.23912 227.10329,414.38641 220.98882,410.30779 C 218.43113,408.6017 216.31314,404.80579 216.32624,401.95144 C 216.33908,399.15494 219.74808,392.88345 222.63144,390.35182 C 227.77855,385.8326 232.38196,384.01842 247.23503,380.65566 C 258.02124,378.21365 261.09363,376.99896 263.39156,374.26802 C 268.90378,367.71712 265.55691,356.99688 248.20269,325.61701 C 234.88395,301.53409 230.9344,292.66321 228.75179,281.92929 C 225.85313,267.67396 217.79298,257.47042 173.23429,211.64836 C 164.26327,202.42298 156.18606,193.38548 154.15056,190.29578 C 152.20946,187.34938 149.53572,184.27643 148.20892,183.46699 C 146.8821,182.65755 139.85682,180.09791 132.59716,177.7789 C 125.33751,175.45988 115.66426,172.36053 111.10105,170.89143 C 87.797918,163.38915 56.369767,149.09169 40.955833,138.9806 C 31.390351,132.70592 22.906114,124.50999 20.056393,118.79134 C 18.972944,116.61714 17.306316,111.87396 16.352778,108.25094 C 14.640639,101.74558 14.547188,101.59511 8.8409348,96.155663 C 1.2087808,88.880373 -1.2622994,84.413853 -1.2563106,77.904773 C -1.2502616,71.333873 1.1870584,66.268023 7.7237553,59.240153 C 24.088521,41.645735 54.654547,24.716617 85.456561,16.187532 C 109.64706,9.4891769 140.05058,6.3829659 157.55003,8.8220209 C 183.37297,12.421202 202.03782,22.612525 228.76399,47.706053 C 252.35036,69.851583 265.60921,75.631143 292.84479,75.638993 C 306.13648,75.642813 318.5236,74.152373 340.07551,69.956123 C 366.34932,64.840483 373.51102,64.029013 392.43616,64.023253 C 411.16537,64.017553 419.92133,65.061723 436.18264,69.240113 C 460.92685,75.598223 484.35962,85.989633 520.28147,106.53427 C 543.54999,119.84214 551.61178,125.9042 561.07806,137.21124 C 582.60068,162.91907 593.68057,195.49413 595.4314,238.21072 L 595.94035,250.62793 L 608.53247,250.62793 L 621.12459,250.62793 L 624.11486,248.46179 C 632.08863,242.68561 638.16812,231.51786 655.18191,191.39284 C 666.02937,165.8104 671.96506,156.35493 686.21639,141.95528 C 702.13391,125.8721 718.63903,116.87329 729.81188,118.18644 C 734.66918,118.75733 737.08277,119.93179 740.28754,123.28395 C 747.10409,130.414 745.21375,137.58659 731.36119,157.15361 C 701.78773,198.92669 695.54802,209.97364 686.61156,236.37944 C 681.90804,250.27762 677.28389,259.48048 671.07638,267.29715 C 655.11983,287.3901 625.35199,302.52985 597.6087,304.66237 C 587.25454,305.45826 586.41384,306.40843 577.20851,327.719 C 572.44651,338.74319 568.80028,345.29439 564.60941,350.35589 C 553.79373,363.41847 516.46538,387.20945 468.2268,411.78473 C 459.86936,416.04245 454.58745,418.21595 449.74768,419.38885 C 437.42862,422.37434 422.7266,423.19506 407.52115,421.74611 z M 443.54866,407.48824 C 451.34759,405.90999 461.5386,401.13362 487.84874,386.7255 C 519.95171,369.14508 540.35512,355.73134 550.88127,345.28626 C 558.22989,337.99423 560.65977,334.02859 567.05667,318.88752 C 571.88664,307.45527 574.37532,302.86758 577.70872,299.25127 C 581.91673,294.68611 585.92523,292.94857 594.30816,292.05597 C 620.3238,289.28592 640.32691,280.29028 656.0464,264.29156 C 664.78725,255.39545 669.07889,248.14022 673.498,234.78869 C 683.28596,205.21624 690.53656,192.05873 719.01039,152.19836 C 727.00073,141.0127 730.71712,134.81131 730.71712,132.66376 C 730.71712,130.72548 727.77506,130.53209 722.57249,132.12841 C 707.27624,136.82179 685.04582,158.64082 674.91458,178.90439 C 673.58563,181.56242 668.59235,192.93274 663.81841,204.17175 C 647.024,243.70983 639.02766,256.1543 626.82122,261.7494 C 622.61099,263.67927 622.09082,263.73412 609.28293,263.59879 C 602.02327,263.52209 592.85914,263.2501 588.91819,262.99438 L 581.75282,262.52944 L 582.28406,252.61887 C 582.91249,240.89527 581.92321,224.15303 579.86553,211.68872 C 574.07443,176.6093 558.76528,148.61089 535.99278,131.4513 C 523.47637,122.01991 478.04817,97.699053 458.81013,90.130083 C 430.81944,79.117503 405.92069,74.999163 379.99104,77.093133 C 367.18685,78.127153 364.22473,78.570013 344.16418,82.449613 C 316.78614,87.744383 313.597,88.091913 292.87521,88.038853 C 275.00227,87.993073 273.63865,87.887983 266.72572,86.023503 C 248.38604,81.077123 240.16196,75.822783 216.10077,53.679423 C 196.0152,35.194826 181.25246,26.725727 162.0129,22.650282 C 156.42325,21.466239 152.11075,21.141014 142.40241,21.171335 C 100.08986,21.303494 57.077418,35.424352 27.394669,58.928013 C 20.491761,64.393943 13.920814,71.189643 12.361734,74.475163 C 10.458144,78.486693 11.447327,80.622183 18.14293,86.955763 C 24.704698,93.162753 26.87892,96.757143 28.806013,104.58381 C 30.529315,111.5828 32.297769,114.80697 36.983553,119.49276 C 47.811167,130.32037 77.869896,145.65944 109.96967,156.73781 C 129.37898,163.43641 152.7375,170.67747 154.93682,170.67747 C 158.27832,170.67747 164.68016,168.62647 170.68677,165.63156 C 178.88843,161.54218 187.18322,155.16335 195.10901,146.85045 C 206.03414,135.3917 212.07417,123.70849 213.05174,112.14385 L 213.52322,106.56625 L 219.9357,106.56625 L 226.34817,106.56625 L 225.9008,112.90565 C 225.00734,125.56603 218.81041,139.3389 208.38181,151.84214 C 198.16659,164.08955 182.95458,175.23679 169.29884,180.48183 L 164.11424,182.4732 L 167.94826,187.08024 C 170.05698,189.61413 180.50089,200.62144 191.15696,211.54094 C 201.81302,222.46043 213.4783,234.81886 217.0798,239.00411 L 223.62797,246.61366 L 223.27445,226.559 C 222.30638,171.64422 230.22056,137.35091 248.33862,117.95214 C 251.79629,114.25006 260.13808,108.07475 261.6813,108.07475 C 262.32703,108.07475 267.60785,118.05749 267.60785,119.27816 C 267.60785,119.65303 266.53163,120.40552 265.21626,120.95036 C 261.55974,122.46494 254.667,129.69861 251.04119,135.82655 C 239.07543,156.04978 234.18211,192.73052 236.64175,243.76621 C 237.63582,264.39241 237.78372,265.53905 241.10194,278.34426 C 244.29314,290.65932 247.58179,297.84907 261.41288,322.74864 C 268.21819,334.99997 273.64962,346.35935 276.08921,353.44296 C 278.10089,359.28411 278.46903,361.43643 278.43525,367.1595 C 278.38762,375.23183 276.81929,379.49513 272.27508,383.90515 C 267.88091,388.16954 263.54843,389.99793 250.02151,393.29658 C 238.4112,396.12784 231.40386,398.63308 231.40386,399.9527 C 231.40386,401.29784 238.27152,401.64544 263.08235,401.55607 C 290.22688,401.45829 294.56218,401.2025 297.91639,399.50077 C 307.90531,394.43302 326.47784,368.20671 334.82015,347.38888 C 337.90731,339.68505 338.22932,338.52281 340.04574,328.52809 C 342.44449,315.32919 343.04202,308.61799 343.08661,294.37441 C 343.1685,268.21618 338.04177,248.60889 328.56457,238.83455 C 325.0565,235.21649 325.1444,234.78567 330.44361,229.62492 C 334.45323,225.72007 335.19662,225.89815 339.98354,231.91028 C 346.8797,240.57148 352.35367,254.96452 354.75819,270.75811 C 356.09048,279.50901 356.52125,302.66094 355.52882,312.17619 L 354.97013,317.53284 L 362.76653,317.9551 C 375.27608,318.63263 392.49291,324.84074 408.84109,334.56883 L 414.68652,338.0472 L 414.68652,333.86559 C 414.68652,323.78813 419.62049,306.5304 426.50823,292.51627 C 442.68778,259.59662 471.99001,234.71222 497.74423,232.02037 L 502.00661,231.57486 L 502.63138,237.14159 C 502.975,240.20328 503.26846,243.01161 503.2835,243.38232 C 503.29855,243.75301 500.38793,244.64807 496.81547,245.37134 C 481.59042,248.45374 466.06639,258.87254 453.02051,274.76392 C 432.26379,300.04796 420.95198,339.74481 431.49859,350.29141 C 432.79322,351.58605 439.61584,356.49141 446.65996,361.19224 C 454.04548,366.12089 459.00901,369.88615 458.38454,370.08633 C 457.78894,370.27727 450.34367,371.6857 441.83951,373.21619 C 407.27802,379.43622 380.83106,387.65842 373.4839,394.46754 L 371.51755,396.28988 L 373.14498,398.02219 C 378.08017,403.27547 392.44409,407.29214 413.55515,409.32235 C 419.63672,409.9072 436.7737,408.85927 443.54866,407.48824 z M 97.92924,89.087203 C 92.179105,87.437403 88.096435,82.011433 88.096435,76.019143 C 88.096435,72.350203 90.620026,67.045073 93.259274,65.165773 C 100.31564,60.141193 110.43665,62.477683 113.81225,69.910533 C 115.5989,73.844633 115.5989,78.193663 113.81225,82.127763 C 112.19943,85.679083 109.38392,87.933043 105.06705,89.128713 C 101.59299,90.090943 101.42422,90.089963 97.92924,89.087203 z"
       id="path3230" />
  </g>
</svg>
