<?xml version="1.0" encoding="UTF-8" standalone="no"?>
<!-- Created with Inkscape (http://www.inkscape.org/) -->
<svg
   xmlns:dc="http://purl.org/dc/elements/1.1/"
   xmlns:cc="http://creativecommons.org/ns#"
   xmlns:rdf="http://www.w3.org/1999/02/22-rdf-syntax-ns#"
   xmlns:svg="http://www.w3.org/2000/svg"
   xmlns="http://www.w3.org/2000/svg"
   xmlns:sodipodi="http://sodipodi.sourceforge.net/DTD/sodipodi-0.dtd"
   xmlns:inkscape="http://www.inkscape.org/namespaces/inkscape"
   width="51.628525"
   height="27.003483"
   id="svg3216"
   sodipodi:version="0.32"
   inkscape:version="0.46"
   version="1.0"
   sodipodi:docname="konkretionen.svg"
   inkscape:output_extension="org.inkscape.output.svg.inkscape">
  <defs
     id="defs3218">
    <inkscape:perspective
       sodipodi:type="inkscape:persp3d"
       inkscape:vp_x="0 : 526.18109 : 1"
       inkscape:vp_y="0 : 1000 : 0"
       inkscape:vp_z="744.09448 : 526.18109 : 1"
       inkscape:persp3d-origin="372.04724 : 350.78739 : 1"
       id="perspective3224" />
  </defs>
  <sodipodi:namedview
     id="base"
     pagecolor="#ffffff"
     bordercolor="#666666"
     borderopacity="1.0"
     inkscape:pageopacity="0.0"
     inkscape:pageshadow="2"
     inkscape:zoom="19.886324"
     inkscape:cx="25.814262"
     inkscape:cy="13.501741"
     inkscape:document-units="px"
     inkscape:current-layer="layer1"
     showgrid="false"
     inkscape:window-width="1280"
     inkscape:window-height="752"
     inkscape:window-x="40"
     inkscape:window-y="48" />
  <metadata
     id="metadata3221">
    <rdf:RDF>
      <cc:Work
         rdf:about="">
        <dc:format>image/svg+xml</dc:format>
        <dc:type
           rdf:resource="http://purl.org/dc/dcmitype/StillImage" />
      </cc:Work>
    </rdf:RDF>
  </metadata>
  <g
     inkscape:label="Ebene 1"
     inkscape:groupmode="layer"
     id="layer1"
     transform="translate(-359.78291,-501.91359)">
    <path
       style="fill:none;fill-rule:evenodd;stroke:#000000;stroke-width:1px;stroke-linecap:butt;stroke-linejoin:miter;stroke-opacity:1"
       d="M 404.43671,524.64145 C 404.40332,524.62809 404.05751,524.90648 403.783,525.04373 C 400.63349,526.61849 396.70392,525.94888 393.37384,525.94888 C 391.43599,525.94888 390.96012,523.42459 390.96012,522.02658 C 390.96012,520.5796 391.13858,519.03212 392.21726,517.95343 C 394.06657,516.10412 395.79784,515.52457 398.35213,514.886 C 400.33433,514.39045 402.648,513.87311 404.58757,514.73514 C 405.73794,515.24642 406.14706,516.64726 406.64929,517.65172 C 407.21213,518.77739 408.66072,519.61912 408.66072,521.07115 C 408.66072,522.53835 407.87027,523.58817 406.54872,524.18887 C 405.90427,524.4818 404.95798,524.12018 404.43671,524.64145 z"
       id="path2603" />
    <path
       style="fill:none;fill-rule:evenodd;stroke:#000000;stroke-width:1px;stroke-linecap:butt;stroke-linejoin:miter;stroke-opacity:1"
       d="M 380.65152,510.41056 C 379.37454,510.99101 376.5095,511.40615 375.92466,509.50542 C 375.13256,506.93112 377.62889,504.68698 379.84695,504.17512 C 382.89796,503.47104 385.03329,503.19228 387.99325,504.37626 C 390.85054,505.51918 394.51064,504.42829 395.33498,508.54998 C 396.05505,512.15032 392.11512,513.89249 389.40125,514.93628 C 387.58844,515.63352 385.4094,515.23423 384.37267,513.67914 C 384.28496,513.54756 384.20505,513.41095 384.12125,513.27685 C 383.38237,512.09464 382.80728,511.95195 381.75781,511.16485 C 381.35549,510.8631 381.02532,510.56008 380.65152,510.41056 z"
       id="path2605" />
    <path
       style="fill:none;fill-rule:evenodd;stroke:#000000;stroke-width:1px;stroke-linecap:butt;stroke-linejoin:miter;stroke-opacity:1"
       d="M 365.46521,527.30659 C 364.53121,526.6061 363.15218,526.25078 362.34749,525.04373 C 361.13415,523.22372 361.49263,523.32838 361.49263,520.87001 C 361.49263,517.94011 362.44806,515.20321 362.44806,512.27113 C 362.44806,509.05692 366.66262,509.45021 368.83436,509.85741 C 370.00834,510.07754 375.20424,513.15473 376.52809,514.08142 C 377.92546,515.05958 379.91718,516.2715 380.04809,518.10429 C 380.236,520.73492 377.55773,522.88225 375.67323,524.13859 C 374.29184,525.05951 372.47358,524.72958 371.09722,525.64716 C 369.9405,526.41831 370.30421,526.16938 369.13607,526.75345 C 368.68293,526.98002 366.9079,527.24763 366.47092,527.35688 C 366.31751,527.39523 365.5993,527.22278 365.46521,527.30659 z"
       id="path2607"
       sodipodi:nodetypes="cssssssssssc" />
  </g>
</svg>
