<?xml version="1.0" encoding="UTF-8" standalone="no"?>
<!-- Created with Inkscape (http://www.inkscape.org/) -->
<svg
   xmlns:dc="http://purl.org/dc/elements/1.1/"
   xmlns:cc="http://creativecommons.org/ns#"
   xmlns:rdf="http://www.w3.org/1999/02/22-rdf-syntax-ns#"
   xmlns:svg="http://www.w3.org/2000/svg"
   xmlns="http://www.w3.org/2000/svg"
   xmlns:sodipodi="http://sodipodi.sourceforge.net/DTD/sodipodi-0.dtd"
   xmlns:inkscape="http://www.inkscape.org/namespaces/inkscape"
   width="145.12714"
   height="84.970192"
   id="svg18233"
   sodipodi:version="0.32"
   inkscape:version="0.46"
   version="1.0"
   sodipodi:docname="marl.svg"
   inkscape:output_extension="org.inkscape.output.svg.inkscape">
  <defs
     id="defs18235">
    <inkscape:perspective
       sodipodi:type="inkscape:persp3d"
       inkscape:vp_x="0 : 526.18109 : 1"
       inkscape:vp_y="0 : 1000 : 0"
       inkscape:vp_z="744.09448 : 526.18109 : 1"
       inkscape:persp3d-origin="372.04724 : 350.78739 : 1"
       id="perspective18241" />
  </defs>
  <sodipodi:namedview
     id="base"
     pagecolor="#ffffff"
     bordercolor="#666666"
     borderopacity="1.0"
     inkscape:pageopacity="0.0"
     inkscape:pageshadow="2"
     inkscape:zoom="5.2323883"
     inkscape:cx="70.645981"
     inkscape:cy="60.968227"
     inkscape:document-units="px"
     inkscape:current-layer="layer1"
     showgrid="true"
     units="cm"
     inkscape:window-width="1280"
     inkscape:window-height="752"
     inkscape:window-x="67"
     inkscape:window-y="25">
    <inkscape:grid
       type="xygrid"
       id="grid34292"
       visible="true"
       enabled="true" />
  </sodipodi:namedview>
  <metadata
     id="metadata18238">
    <rdf:RDF>
      <cc:Work
         rdf:about="">
        <dc:format>image/svg+xml</dc:format>
        <dc:type
           rdf:resource="http://purl.org/dc/dcmitype/StillImage" />
      </cc:Work>
    </rdf:RDF>
  </metadata>
  <g
     inkscape:label="Ebene 1"
     inkscape:groupmode="layer"
     id="layer1"
     transform="translate(0.82521,-5.9162035)">
    <g
       id="g17682"
       transform="translate(-299.43308,-594.93806)">
      <path
         sodipodi:nodetypes="cc"
         id="path17684"
         d="M 299.77679,604.99611 C 307.4443,600.56927 312.45536,604.4604 312.45536,604.4604"
         style="fill:none;fill-rule:evenodd;stroke:#000000;stroke-width:1px;stroke-linecap:butt;stroke-linejoin:miter;stroke-opacity:1" />
      <path
         sodipodi:nodetypes="csc"
         id="path17686"
         d="M 312.41071,604.42559 C 319.09544,608.28502 323.89678,605.34708 325.01778,604.53054 C 325.18259,604.41049 325.26785,604.3363 325.26785,604.3363"
         style="fill:none;fill-rule:evenodd;stroke:#000000;stroke-width:1px;stroke-linecap:butt;stroke-linejoin:miter;stroke-opacity:1" />
    </g>
    <g
       id="g55212"
       transform="translate(-265.22308,-595.88989)">
      <path
         sodipodi:nodetypes="cc"
         id="path55214"
         d="M 299.77679,604.99611 C 307.4443,600.56927 312.45536,604.4604 312.45536,604.4604"
         style="fill:none;fill-rule:evenodd;stroke:#000000;stroke-width:1px;stroke-linecap:butt;stroke-linejoin:miter;stroke-opacity:1" />
      <path
         sodipodi:nodetypes="csc"
         id="path55216"
         d="M 312.41071,604.42559 C 319.09544,608.28502 323.89678,605.34708 325.01778,604.53054 C 325.18259,604.41049 325.26785,604.3363 325.26785,604.3363"
         style="fill:none;fill-rule:evenodd;stroke:#000000;stroke-width:1px;stroke-linecap:butt;stroke-linejoin:miter;stroke-opacity:1" />
    </g>
    <g
       id="g55218"
       transform="translate(-228.52856,-596.08101)">
      <path
         sodipodi:nodetypes="cc"
         id="path55220"
         d="M 299.77679,604.99611 C 307.4443,600.56927 312.45536,604.4604 312.45536,604.4604"
         style="fill:none;fill-rule:evenodd;stroke:#000000;stroke-width:1px;stroke-linecap:butt;stroke-linejoin:miter;stroke-opacity:1" />
      <path
         sodipodi:nodetypes="csc"
         id="path55222"
         d="M 312.41071,604.42559 C 319.09544,608.28502 323.89678,605.34708 325.01778,604.53054 C 325.18259,604.41049 325.26785,604.3363 325.26785,604.3363"
         style="fill:none;fill-rule:evenodd;stroke:#000000;stroke-width:1px;stroke-linecap:butt;stroke-linejoin:miter;stroke-opacity:1" />
    </g>
    <g
       id="g55224"
       transform="translate(-192.78962,-596.46324)">
      <path
         sodipodi:nodetypes="cc"
         id="path55226"
         d="M 299.77679,604.99611 C 307.4443,600.56927 312.45536,604.4604 312.45536,604.4604"
         style="fill:none;fill-rule:evenodd;stroke:#000000;stroke-width:1px;stroke-linecap:butt;stroke-linejoin:miter;stroke-opacity:1" />
      <path
         sodipodi:nodetypes="csc"
         id="path55228"
         d="M 312.41071,604.42559 C 319.09544,608.28502 323.89678,605.34708 325.01778,604.53054 C 325.18259,604.41049 325.26785,604.3363 325.26785,604.3363"
         style="fill:none;fill-rule:evenodd;stroke:#000000;stroke-width:1px;stroke-linecap:butt;stroke-linejoin:miter;stroke-opacity:1" />
    </g>
    <g
       id="g55230"
       transform="translate(-288.15716,-583.98623)">
      <path
         sodipodi:nodetypes="cc"
         id="path55232"
         d="M 299.77679,604.99611 C 307.4443,600.56927 312.45536,604.4604 312.45536,604.4604"
         style="fill:none;fill-rule:evenodd;stroke:#000000;stroke-width:1px;stroke-linecap:butt;stroke-linejoin:miter;stroke-opacity:1" />
      <path
         sodipodi:nodetypes="csc"
         id="path55234"
         d="M 312.41071,604.42559 C 319.09544,608.28502 323.89678,605.34708 325.01778,604.53054 C 325.18259,604.41049 325.26785,604.3363 325.26785,604.3363"
         style="fill:none;fill-rule:evenodd;stroke:#000000;stroke-width:1px;stroke-linecap:butt;stroke-linejoin:miter;stroke-opacity:1" />
    </g>
    <g
       id="g55236"
       transform="translate(-253.94715,-584.93806)">
      <path
         sodipodi:nodetypes="cc"
         id="path55238"
         d="M 299.77679,604.99611 C 307.4443,600.56927 312.45536,604.4604 312.45536,604.4604"
         style="fill:none;fill-rule:evenodd;stroke:#000000;stroke-width:1px;stroke-linecap:butt;stroke-linejoin:miter;stroke-opacity:1" />
      <path
         sodipodi:nodetypes="csc"
         id="path55240"
         d="M 312.41071,604.42559 C 319.09544,608.28502 323.89678,605.34708 325.01778,604.53054 C 325.18259,604.41049 325.26785,604.3363 325.26785,604.3363"
         style="fill:none;fill-rule:evenodd;stroke:#000000;stroke-width:1px;stroke-linecap:butt;stroke-linejoin:miter;stroke-opacity:1" />
    </g>
    <g
       id="g55242"
       transform="translate(-217.25263,-585.12918)">
      <path
         sodipodi:nodetypes="cc"
         id="path55244"
         d="M 299.77679,604.99611 C 307.4443,600.56927 312.45536,604.4604 312.45536,604.4604"
         style="fill:none;fill-rule:evenodd;stroke:#000000;stroke-width:1px;stroke-linecap:butt;stroke-linejoin:miter;stroke-opacity:1" />
      <path
         sodipodi:nodetypes="csc"
         id="path55246"
         d="M 312.41071,604.42559 C 319.09544,608.28502 323.89678,605.34708 325.01778,604.53054 C 325.18259,604.41049 325.26785,604.3363 325.26785,604.3363"
         style="fill:none;fill-rule:evenodd;stroke:#000000;stroke-width:1px;stroke-linecap:butt;stroke-linejoin:miter;stroke-opacity:1" />
    </g>
    <g
       id="g55248"
       transform="translate(-181.5137,-585.51141)">
      <path
         sodipodi:nodetypes="cc"
         id="path55250"
         d="M 299.77679,604.99611 C 307.4443,600.56927 312.45536,604.4604 312.45536,604.4604"
         style="fill:none;fill-rule:evenodd;stroke:#000000;stroke-width:1px;stroke-linecap:butt;stroke-linejoin:miter;stroke-opacity:1" />
      <path
         sodipodi:nodetypes="csc"
         id="path55252"
         d="M 312.41071,604.42559 C 319.09544,608.28502 323.89678,605.34708 325.01778,604.53054 C 325.18259,604.41049 325.26785,604.3363 325.26785,604.3363"
         style="fill:none;fill-rule:evenodd;stroke:#000000;stroke-width:1px;stroke-linecap:butt;stroke-linejoin:miter;stroke-opacity:1" />
    </g>
    <g
       id="g55254"
       transform="translate(-300.102,-571.93562)">
      <path
         sodipodi:nodetypes="cc"
         id="path55256"
         d="M 299.77679,604.99611 C 307.4443,600.56927 312.45536,604.4604 312.45536,604.4604"
         style="fill:none;fill-rule:evenodd;stroke:#000000;stroke-width:1px;stroke-linecap:butt;stroke-linejoin:miter;stroke-opacity:1" />
      <path
         sodipodi:nodetypes="csc"
         id="path55258"
         d="M 312.41071,604.42559 C 319.09544,608.28502 323.89678,605.34708 325.01778,604.53054 C 325.18259,604.41049 325.26785,604.3363 325.26785,604.3363"
         style="fill:none;fill-rule:evenodd;stroke:#000000;stroke-width:1px;stroke-linecap:butt;stroke-linejoin:miter;stroke-opacity:1" />
    </g>
    <g
       id="g55260"
       transform="translate(-265.89199,-572.88745)">
      <path
         sodipodi:nodetypes="cc"
         id="path55262"
         d="M 299.77679,604.99611 C 307.4443,600.56927 312.45536,604.4604 312.45536,604.4604"
         style="fill:none;fill-rule:evenodd;stroke:#000000;stroke-width:1px;stroke-linecap:butt;stroke-linejoin:miter;stroke-opacity:1" />
      <path
         sodipodi:nodetypes="csc"
         id="path55264"
         d="M 312.41071,604.42559 C 319.09544,608.28502 323.89678,605.34708 325.01778,604.53054 C 325.18259,604.41049 325.26785,604.3363 325.26785,604.3363"
         style="fill:none;fill-rule:evenodd;stroke:#000000;stroke-width:1px;stroke-linecap:butt;stroke-linejoin:miter;stroke-opacity:1" />
    </g>
    <g
       id="g55266"
       transform="translate(-229.19747,-573.07857)">
      <path
         sodipodi:nodetypes="cc"
         id="path55268"
         d="M 299.77679,604.99611 C 307.4443,600.56927 312.45536,604.4604 312.45536,604.4604"
         style="fill:none;fill-rule:evenodd;stroke:#000000;stroke-width:1px;stroke-linecap:butt;stroke-linejoin:miter;stroke-opacity:1" />
      <path
         sodipodi:nodetypes="csc"
         id="path55270"
         d="M 312.41071,604.42559 C 319.09544,608.28502 323.89678,605.34708 325.01778,604.53054 C 325.18259,604.41049 325.26785,604.3363 325.26785,604.3363"
         style="fill:none;fill-rule:evenodd;stroke:#000000;stroke-width:1px;stroke-linecap:butt;stroke-linejoin:miter;stroke-opacity:1" />
    </g>
    <g
       id="g55272"
       transform="translate(-193.45854,-573.4608)">
      <path
         sodipodi:nodetypes="cc"
         id="path55274"
         d="M 299.77679,604.99611 C 307.4443,600.56927 312.45536,604.4604 312.45536,604.4604"
         style="fill:none;fill-rule:evenodd;stroke:#000000;stroke-width:1px;stroke-linecap:butt;stroke-linejoin:miter;stroke-opacity:1" />
      <path
         sodipodi:nodetypes="csc"
         id="path55276"
         d="M 312.41071,604.42559 C 319.09544,608.28502 323.89678,605.34708 325.01778,604.53054 C 325.18259,604.41049 325.26785,604.3363 325.26785,604.3363"
         style="fill:none;fill-rule:evenodd;stroke:#000000;stroke-width:1px;stroke-linecap:butt;stroke-linejoin:miter;stroke-opacity:1" />
    </g>
    <g
       id="g55278"
       transform="translate(-288.82607,-560.98379)">
      <path
         sodipodi:nodetypes="cc"
         id="path55280"
         d="M 299.77679,604.99611 C 307.4443,600.56927 312.45536,604.4604 312.45536,604.4604"
         style="fill:none;fill-rule:evenodd;stroke:#000000;stroke-width:1px;stroke-linecap:butt;stroke-linejoin:miter;stroke-opacity:1" />
      <path
         sodipodi:nodetypes="csc"
         id="path55282"
         d="M 312.41071,604.42559 C 319.09544,608.28502 323.89678,605.34708 325.01778,604.53054 C 325.18259,604.41049 325.26785,604.3363 325.26785,604.3363"
         style="fill:none;fill-rule:evenodd;stroke:#000000;stroke-width:1px;stroke-linecap:butt;stroke-linejoin:miter;stroke-opacity:1" />
    </g>
    <g
       id="g55284"
       transform="translate(-254.61606,-561.93562)">
      <path
         sodipodi:nodetypes="cc"
         id="path55286"
         d="M 299.77679,604.99611 C 307.4443,600.56927 312.45536,604.4604 312.45536,604.4604"
         style="fill:none;fill-rule:evenodd;stroke:#000000;stroke-width:1px;stroke-linecap:butt;stroke-linejoin:miter;stroke-opacity:1" />
      <path
         sodipodi:nodetypes="csc"
         id="path55288"
         d="M 312.41071,604.42559 C 319.09544,608.28502 323.89678,605.34708 325.01778,604.53054 C 325.18259,604.41049 325.26785,604.3363 325.26785,604.3363"
         style="fill:none;fill-rule:evenodd;stroke:#000000;stroke-width:1px;stroke-linecap:butt;stroke-linejoin:miter;stroke-opacity:1" />
    </g>
    <g
       id="g55290"
       transform="translate(-217.92154,-562.12674)">
      <path
         sodipodi:nodetypes="cc"
         id="path55292"
         d="M 299.77679,604.99611 C 307.4443,600.56927 312.45536,604.4604 312.45536,604.4604"
         style="fill:none;fill-rule:evenodd;stroke:#000000;stroke-width:1px;stroke-linecap:butt;stroke-linejoin:miter;stroke-opacity:1" />
      <path
         sodipodi:nodetypes="csc"
         id="path55294"
         d="M 312.41071,604.42559 C 319.09544,608.28502 323.89678,605.34708 325.01778,604.53054 C 325.18259,604.41049 325.26785,604.3363 325.26785,604.3363"
         style="fill:none;fill-rule:evenodd;stroke:#000000;stroke-width:1px;stroke-linecap:butt;stroke-linejoin:miter;stroke-opacity:1" />
    </g>
    <g
       id="g55296"
       transform="translate(-182.18261,-562.50897)">
      <path
         sodipodi:nodetypes="cc"
         id="path55298"
         d="M 299.77679,604.99611 C 307.4443,600.56927 312.45536,604.4604 312.45536,604.4604"
         style="fill:none;fill-rule:evenodd;stroke:#000000;stroke-width:1px;stroke-linecap:butt;stroke-linejoin:miter;stroke-opacity:1" />
      <path
         sodipodi:nodetypes="csc"
         id="path55300"
         d="M 312.41071,604.42559 C 319.09544,608.28502 323.89678,605.34708 325.01778,604.53054 C 325.18259,604.41049 325.26785,604.3363 325.26785,604.3363"
         style="fill:none;fill-rule:evenodd;stroke:#000000;stroke-width:1px;stroke-linecap:butt;stroke-linejoin:miter;stroke-opacity:1" />
    </g>
    <g
       id="g55302"
       transform="translate(-299.38531,-549.93806)">
      <path
         sodipodi:nodetypes="cc"
         id="path55304"
         d="M 299.77679,604.99611 C 307.4443,600.56927 312.45536,604.4604 312.45536,604.4604"
         style="fill:none;fill-rule:evenodd;stroke:#000000;stroke-width:1px;stroke-linecap:butt;stroke-linejoin:miter;stroke-opacity:1" />
      <path
         sodipodi:nodetypes="csc"
         id="path55306"
         d="M 312.41071,604.42559 C 319.09544,608.28502 323.89678,605.34708 325.01778,604.53054 C 325.18259,604.41049 325.26785,604.3363 325.26785,604.3363"
         style="fill:none;fill-rule:evenodd;stroke:#000000;stroke-width:1px;stroke-linecap:butt;stroke-linejoin:miter;stroke-opacity:1" />
    </g>
    <g
       id="g55308"
       transform="translate(-265.1753,-550.88989)">
      <path
         sodipodi:nodetypes="cc"
         id="path55310"
         d="M 299.77679,604.99611 C 307.4443,600.56927 312.45536,604.4604 312.45536,604.4604"
         style="fill:none;fill-rule:evenodd;stroke:#000000;stroke-width:1px;stroke-linecap:butt;stroke-linejoin:miter;stroke-opacity:1" />
      <path
         sodipodi:nodetypes="csc"
         id="path55312"
         d="M 312.41071,604.42559 C 319.09544,608.28502 323.89678,605.34708 325.01778,604.53054 C 325.18259,604.41049 325.26785,604.3363 325.26785,604.3363"
         style="fill:none;fill-rule:evenodd;stroke:#000000;stroke-width:1px;stroke-linecap:butt;stroke-linejoin:miter;stroke-opacity:1" />
    </g>
    <g
       id="g55314"
       transform="translate(-228.48078,-551.08101)">
      <path
         sodipodi:nodetypes="cc"
         id="path55316"
         d="M 299.77679,604.99611 C 307.4443,600.56927 312.45536,604.4604 312.45536,604.4604"
         style="fill:none;fill-rule:evenodd;stroke:#000000;stroke-width:1px;stroke-linecap:butt;stroke-linejoin:miter;stroke-opacity:1" />
      <path
         sodipodi:nodetypes="csc"
         id="path55318"
         d="M 312.41071,604.42559 C 319.09544,608.28502 323.89678,605.34708 325.01778,604.53054 C 325.18259,604.41049 325.26785,604.3363 325.26785,604.3363"
         style="fill:none;fill-rule:evenodd;stroke:#000000;stroke-width:1px;stroke-linecap:butt;stroke-linejoin:miter;stroke-opacity:1" />
    </g>
    <g
       id="g55320"
       transform="translate(-192.74185,-551.46324)">
      <path
         sodipodi:nodetypes="cc"
         id="path55322"
         d="M 299.77679,604.99611 C 307.4443,600.56927 312.45536,604.4604 312.45536,604.4604"
         style="fill:none;fill-rule:evenodd;stroke:#000000;stroke-width:1px;stroke-linecap:butt;stroke-linejoin:miter;stroke-opacity:1" />
      <path
         sodipodi:nodetypes="csc"
         id="path55324"
         d="M 312.41071,604.42559 C 319.09544,608.28502 323.89678,605.34708 325.01778,604.53054 C 325.18259,604.41049 325.26785,604.3363 325.26785,604.3363"
         style="fill:none;fill-rule:evenodd;stroke:#000000;stroke-width:1px;stroke-linecap:butt;stroke-linejoin:miter;stroke-opacity:1" />
    </g>
    <g
       id="g55326"
       transform="translate(-288.10938,-538.98623)">
      <path
         sodipodi:nodetypes="cc"
         id="path55328"
         d="M 299.77679,604.99611 C 307.4443,600.56927 312.45536,604.4604 312.45536,604.4604"
         style="fill:none;fill-rule:evenodd;stroke:#000000;stroke-width:1px;stroke-linecap:butt;stroke-linejoin:miter;stroke-opacity:1" />
      <path
         sodipodi:nodetypes="csc"
         id="path55330"
         d="M 312.41071,604.42559 C 319.09544,608.28502 323.89678,605.34708 325.01778,604.53054 C 325.18259,604.41049 325.26785,604.3363 325.26785,604.3363"
         style="fill:none;fill-rule:evenodd;stroke:#000000;stroke-width:1px;stroke-linecap:butt;stroke-linejoin:miter;stroke-opacity:1" />
    </g>
    <g
       id="g55332"
       transform="translate(-253.89937,-539.93806)">
      <path
         sodipodi:nodetypes="cc"
         id="path55334"
         d="M 299.77679,604.99611 C 307.4443,600.56927 312.45536,604.4604 312.45536,604.4604"
         style="fill:none;fill-rule:evenodd;stroke:#000000;stroke-width:1px;stroke-linecap:butt;stroke-linejoin:miter;stroke-opacity:1" />
      <path
         sodipodi:nodetypes="csc"
         id="path55336"
         d="M 312.41071,604.42559 C 319.09544,608.28502 323.89678,605.34708 325.01778,604.53054 C 325.18259,604.41049 325.26785,604.3363 325.26785,604.3363"
         style="fill:none;fill-rule:evenodd;stroke:#000000;stroke-width:1px;stroke-linecap:butt;stroke-linejoin:miter;stroke-opacity:1" />
    </g>
    <g
       id="g55338"
       transform="translate(-217.20485,-540.12918)">
      <path
         sodipodi:nodetypes="cc"
         id="path55340"
         d="M 299.77679,604.99611 C 307.4443,600.56927 312.45536,604.4604 312.45536,604.4604"
         style="fill:none;fill-rule:evenodd;stroke:#000000;stroke-width:1px;stroke-linecap:butt;stroke-linejoin:miter;stroke-opacity:1" />
      <path
         sodipodi:nodetypes="csc"
         id="path55342"
         d="M 312.41071,604.42559 C 319.09544,608.28502 323.89678,605.34708 325.01778,604.53054 C 325.18259,604.41049 325.26785,604.3363 325.26785,604.3363"
         style="fill:none;fill-rule:evenodd;stroke:#000000;stroke-width:1px;stroke-linecap:butt;stroke-linejoin:miter;stroke-opacity:1" />
    </g>
    <g
       id="g55344"
       transform="translate(-181.46592,-540.51141)">
      <path
         sodipodi:nodetypes="cc"
         id="path55346"
         d="M 299.77679,604.99611 C 307.4443,600.56927 312.45536,604.4604 312.45536,604.4604"
         style="fill:none;fill-rule:evenodd;stroke:#000000;stroke-width:1px;stroke-linecap:butt;stroke-linejoin:miter;stroke-opacity:1" />
      <path
         sodipodi:nodetypes="csc"
         id="path55348"
         d="M 312.41071,604.42559 C 319.09544,608.28502 323.89678,605.34708 325.01778,604.53054 C 325.18259,604.41049 325.26785,604.3363 325.26785,604.3363"
         style="fill:none;fill-rule:evenodd;stroke:#000000;stroke-width:1px;stroke-linecap:butt;stroke-linejoin:miter;stroke-opacity:1" />
    </g>
    <g
       id="g55350"
       transform="translate(-300.05422,-526.93562)">
      <path
         sodipodi:nodetypes="cc"
         id="path55352"
         d="M 299.77679,604.99611 C 307.4443,600.56927 312.45536,604.4604 312.45536,604.4604"
         style="fill:none;fill-rule:evenodd;stroke:#000000;stroke-width:1px;stroke-linecap:butt;stroke-linejoin:miter;stroke-opacity:1" />
      <path
         sodipodi:nodetypes="csc"
         id="path55354"
         d="M 312.41071,604.42559 C 319.09544,608.28502 323.89678,605.34708 325.01778,604.53054 C 325.18259,604.41049 325.26785,604.3363 325.26785,604.3363"
         style="fill:none;fill-rule:evenodd;stroke:#000000;stroke-width:1px;stroke-linecap:butt;stroke-linejoin:miter;stroke-opacity:1" />
    </g>
    <g
       id="g55356"
       transform="translate(-265.84422,-527.88745)">
      <path
         sodipodi:nodetypes="cc"
         id="path55358"
         d="M 299.77679,604.99611 C 307.4443,600.56927 312.45536,604.4604 312.45536,604.4604"
         style="fill:none;fill-rule:evenodd;stroke:#000000;stroke-width:1px;stroke-linecap:butt;stroke-linejoin:miter;stroke-opacity:1" />
      <path
         sodipodi:nodetypes="csc"
         id="path55360"
         d="M 312.41071,604.42559 C 319.09544,608.28502 323.89678,605.34708 325.01778,604.53054 C 325.18259,604.41049 325.26785,604.3363 325.26785,604.3363"
         style="fill:none;fill-rule:evenodd;stroke:#000000;stroke-width:1px;stroke-linecap:butt;stroke-linejoin:miter;stroke-opacity:1" />
    </g>
    <g
       id="g55362"
       transform="translate(-229.14969,-528.07857)">
      <path
         sodipodi:nodetypes="cc"
         id="path55364"
         d="M 299.77679,604.99611 C 307.4443,600.56927 312.45536,604.4604 312.45536,604.4604"
         style="fill:none;fill-rule:evenodd;stroke:#000000;stroke-width:1px;stroke-linecap:butt;stroke-linejoin:miter;stroke-opacity:1" />
      <path
         sodipodi:nodetypes="csc"
         id="path55366"
         d="M 312.41071,604.42559 C 319.09544,608.28502 323.89678,605.34708 325.01778,604.53054 C 325.18259,604.41049 325.26785,604.3363 325.26785,604.3363"
         style="fill:none;fill-rule:evenodd;stroke:#000000;stroke-width:1px;stroke-linecap:butt;stroke-linejoin:miter;stroke-opacity:1" />
    </g>
    <g
       id="g55368"
       transform="translate(-193.41076,-528.4608)">
      <path
         sodipodi:nodetypes="cc"
         id="path55370"
         d="M 299.77679,604.99611 C 307.4443,600.56927 312.45536,604.4604 312.45536,604.4604"
         style="fill:none;fill-rule:evenodd;stroke:#000000;stroke-width:1px;stroke-linecap:butt;stroke-linejoin:miter;stroke-opacity:1" />
      <path
         sodipodi:nodetypes="csc"
         id="path55372"
         d="M 312.41071,604.42559 C 319.09544,608.28502 323.89678,605.34708 325.01778,604.53054 C 325.18259,604.41049 325.26785,604.3363 325.26785,604.3363"
         style="fill:none;fill-rule:evenodd;stroke:#000000;stroke-width:1px;stroke-linecap:butt;stroke-linejoin:miter;stroke-opacity:1" />
    </g>
    <g
       id="g55374"
       transform="translate(-288.7783,-515.98379)">
      <path
         sodipodi:nodetypes="cc"
         id="path55376"
         d="M 299.77679,604.99611 C 307.4443,600.56927 312.45536,604.4604 312.45536,604.4604"
         style="fill:none;fill-rule:evenodd;stroke:#000000;stroke-width:1px;stroke-linecap:butt;stroke-linejoin:miter;stroke-opacity:1" />
      <path
         sodipodi:nodetypes="csc"
         id="path55378"
         d="M 312.41071,604.42559 C 319.09544,608.28502 323.89678,605.34708 325.01778,604.53054 C 325.18259,604.41049 325.26785,604.3363 325.26785,604.3363"
         style="fill:none;fill-rule:evenodd;stroke:#000000;stroke-width:1px;stroke-linecap:butt;stroke-linejoin:miter;stroke-opacity:1" />
    </g>
    <g
       id="g55380"
       transform="translate(-254.56828,-516.93562)">
      <path
         sodipodi:nodetypes="cc"
         id="path55382"
         d="M 299.77679,604.99611 C 307.4443,600.56927 312.45536,604.4604 312.45536,604.4604"
         style="fill:none;fill-rule:evenodd;stroke:#000000;stroke-width:1px;stroke-linecap:butt;stroke-linejoin:miter;stroke-opacity:1" />
      <path
         sodipodi:nodetypes="csc"
         id="path55384"
         d="M 312.41071,604.42559 C 319.09544,608.28502 323.89678,605.34708 325.01778,604.53054 C 325.18259,604.41049 325.26785,604.3363 325.26785,604.3363"
         style="fill:none;fill-rule:evenodd;stroke:#000000;stroke-width:1px;stroke-linecap:butt;stroke-linejoin:miter;stroke-opacity:1" />
    </g>
    <g
       id="g55386"
       transform="translate(-217.87376,-517.12674)">
      <path
         sodipodi:nodetypes="cc"
         id="path55388"
         d="M 299.77679,604.99611 C 307.4443,600.56927 312.45536,604.4604 312.45536,604.4604"
         style="fill:none;fill-rule:evenodd;stroke:#000000;stroke-width:1px;stroke-linecap:butt;stroke-linejoin:miter;stroke-opacity:1" />
      <path
         sodipodi:nodetypes="csc"
         id="path55390"
         d="M 312.41071,604.42559 C 319.09544,608.28502 323.89678,605.34708 325.01778,604.53054 C 325.18259,604.41049 325.26785,604.3363 325.26785,604.3363"
         style="fill:none;fill-rule:evenodd;stroke:#000000;stroke-width:1px;stroke-linecap:butt;stroke-linejoin:miter;stroke-opacity:1" />
    </g>
    <g
       id="g55392"
       transform="translate(-182.13483,-517.50897)">
      <path
         sodipodi:nodetypes="cc"
         id="path55394"
         d="M 299.77679,604.99611 C 307.4443,600.56927 312.45536,604.4604 312.45536,604.4604"
         style="fill:none;fill-rule:evenodd;stroke:#000000;stroke-width:1px;stroke-linecap:butt;stroke-linejoin:miter;stroke-opacity:1" />
      <path
         sodipodi:nodetypes="csc"
         id="path55396"
         d="M 312.41071,604.42559 C 319.09544,608.28502 323.89678,605.34708 325.01778,604.53054 C 325.18259,604.41049 325.26785,604.3363 325.26785,604.3363"
         style="fill:none;fill-rule:evenodd;stroke:#000000;stroke-width:1px;stroke-linecap:butt;stroke-linejoin:miter;stroke-opacity:1" />
    </g>
  </g>
</svg>
