<?xml version="1.0" encoding="UTF-8" standalone="no"?>
<!-- Created with Inkscape (http://www.inkscape.org/) -->
<svg
   xmlns:dc="http://purl.org/dc/elements/1.1/"
   xmlns:cc="http://creativecommons.org/ns#"
   xmlns:rdf="http://www.w3.org/1999/02/22-rdf-syntax-ns#"
   xmlns:svg="http://www.w3.org/2000/svg"
   xmlns="http://www.w3.org/2000/svg"
   xmlns:sodipodi="http://sodipodi.sourceforge.net/DTD/sodipodi-0.dtd"
   xmlns:inkscape="http://www.inkscape.org/namespaces/inkscape"
   width="636.17102"
   height="1518"
   id="svg6420"
   sodipodi:version="0.32"
   inkscape:version="0.46"
   version="1.0"
   sodipodi:docname="blaetter.svg"
   inkscape:output_extension="org.inkscape.output.svg.inkscape">
  <defs
     id="defs6422">
    <inkscape:perspective
       sodipodi:type="inkscape:persp3d"
       inkscape:vp_x="0 : 526.18109 : 1"
       inkscape:vp_y="0 : 1000 : 0"
       inkscape:vp_z="744.09448 : 526.18109 : 1"
       inkscape:persp3d-origin="372.04724 : 350.78739 : 1"
       id="perspective6428" />
  </defs>
  <sodipodi:namedview
     id="base"
     pagecolor="#ffffff"
     bordercolor="#666666"
     borderopacity="1.0"
     inkscape:pageopacity="0.0"
     inkscape:pageshadow="2"
     inkscape:zoom="0.35"
     inkscape:cx="350"
     inkscape:cy="520"
     inkscape:document-units="px"
     inkscape:current-layer="layer1"
     showgrid="false"
     inkscape:window-width="640"
     inkscape:window-height="713"
     inkscape:window-x="60"
     inkscape:window-y="62" />
  <metadata
     id="metadata6425">
    <rdf:RDF>
      <cc:Work
         rdf:about="">
        <dc:format>image/svg+xml</dc:format>
        <dc:type
           rdf:resource="http://purl.org/dc/dcmitype/StillImage" />
      </cc:Work>
    </rdf:RDF>
  </metadata>
  <g
     inkscape:label="Ebene 1"
     inkscape:groupmode="layer"
     id="layer1"
     transform="translate(-31.914481,226.63782)">
    <path
       style="fill:#000000"
       d="M 334.43655,1177.4331 L 334.43655,1063.504 L 328.68655,1062.3896 C 280.11533,1052.9761 229.62168,1012.4735 180.92128,943.86218 C 108.46095,841.77688 51.09726,687.2007 36.005548,553.36218 C 31.878366,516.7609 30.686517,469.96568 33.29305,446.86218 C 40.244876,385.24333 57.934887,320.53779 89.800945,240.17075 C 140.93433,111.21097 230.6558,-56.269357 331.70694,-211.38782 L 341.64148,-226.63782 L 349.93655,-226.63782 L 358.23162,-226.63782 L 368.16616,-211.38782 C 469.2173,-56.269357 558.93877,111.21097 610.07216,240.17075 C 641.23706,318.76945 659.70447,385.50929 665.88169,441.86218 C 670.01803,479.59677 668.32987,524.57298 660.83328,576.36218 C 642.20224,705.07241 587.05401,847.91678 518.95182,943.86218 C 470.25142,1012.4735 419.75777,1052.9761 371.18655,1062.3896 L 365.43655,1063.504 L 365.43655,1177.4331 L 365.43655,1291.3622 L 349.93655,1291.3622 L 334.43655,1291.3622 L 334.43655,1177.4331 z M 334.43655,969.39708 C 334.43655,914.22448 334.23773,905.83988 332.83,901.64708 C 322.95198,872.22638 245.37098,809.12048 138.77089,743.79558 L 122.60524,733.88921 L 125.06256,729.8757 C 126.41409,727.66826 129.86364,721.93281 132.72822,717.13024 C 136.4029,710.96952 138.37449,708.55779 139.42383,708.93991 C 141.66349,709.7555 171.67497,728.34203 191.0829,740.9331 C 248.1054,777.92698 293.31725,811.96068 321.47172,839.08488 L 334.43655,851.57518 L 334.43655,717.09443 C 334.43655,600.82918 334.23578,582.0446 332.95433,578.41258 C 322.3236,548.28187 232.62327,476.86359 110.67928,401.43996 C 100.63778,395.22919 92.191131,389.77409 91.908956,389.31752 C 91.626782,388.86096 94.874008,382.85559 99.125015,375.97226 L 106.85412,363.45713 L 110.39534,365.60423 C 128.20656,376.40348 155.16863,393.49834 175.43655,406.84256 C 246.37447,453.54745 294.29969,489.84454 327.18655,521.77333 L 334.43655,528.81212 L 334.42468,365.83715 C 334.41473,229.23456 334.18595,202.00997 333.01085,197.59572 C 325.9406,171.03636 279.83977,127.4536 216.63484,87.576273 C 211.13194,84.104383 208.57195,81.921113 209.04151,81.100363 C 213.34479,73.578743 223.997,57.362183 224.63447,57.362183 C 226.97545,57.362183 260.03684,79.505733 278.67627,93.557813 C 296.55059,107.03306 307.68969,116.52972 321.68655,130.22628 L 334.43655,142.70273 L 334.43655,28.506413 L 334.43655,-85.689907 L 349.68655,-85.413867 L 364.93655,-85.137817 L 365.43655,28.133233 L 365.93655,141.40429 L 374.93655,132.29008 C 386.63213,120.44608 404.31922,105.38587 422.43655,91.844743 C 437.89648,80.289803 472.09977,57.361083 473.87251,57.363833 C 474.79514,57.365263 480.26494,65.435243 488.24352,78.566353 L 490.55049,82.363163 L 483.74352,86.581403 C 461.89824,100.1188 431.98406,121.88982 413.93655,137.38571 C 401.82783,147.78245 384.05951,166.28529 377.98848,174.81982 C 375.26704,178.64556 371.32954,185.08188 369.23848,189.12276 L 365.43655,196.4698 L 365.43655,362.14096 L 365.43655,527.81212 L 372.68655,520.77333 C 411.23695,483.34599 481.62732,432.00612 568.87297,377.68296 C 581.488,369.82826 591.89558,363.5053 592.00092,363.63193 C 594.2523,366.3384 607.30749,388.76199 606.95957,389.32493 C 606.6904,389.76046 598.9251,394.76308 589.70336,400.44184 C 529.14965,437.73092 461.99449,484.33004 426.43655,513.73308 C 398.64877,536.71092 381.06674,554.25253 371.3653,568.67771 L 365.43655,577.49325 L 365.43655,714.1172 L 365.43655,850.74118 L 375.18655,841.13018 C 396.94942,819.67778 427.51881,795.51768 469.93655,766.246 C 511.31893,737.6888 559.19898,707.72461 560.8347,709.36033 C 561.89136,710.41699 576.34981,733.76533 576.08619,733.98931 C 576.00389,734.05923 568.959,738.3711 560.43089,743.57124 C 517.84959,769.5358 467.71209,803.72008 436.93655,827.77108 C 402.79127,854.45548 374.83311,882.58288 367.59723,897.53028 C 365.45069,901.96438 365.43655,902.42048 365.43655,967.22318 L 365.43655,1032.4528 L 369.18655,1031.7716 C 371.24905,1031.3969 376.08655,1029.9699 379.93655,1028.6006 C 415.93564,1015.7969 455.06946,981.06008 492.43655,928.74108 C 554.62779,841.66478 605.75087,715.21652 626.8402,596.30592 C 639.12615,527.03251 640.86316,472.92665 632.46039,421.24356 C 612.1818,296.51565 527.50965,106.37619 395.38242,-111.13782 C 377.36418,-140.80029 350.74224,-182.75075 349.93655,-182.75075 C 349.13086,-182.75075 322.50892,-140.80029 304.49068,-111.13782 C 172.36345,106.37619 87.691303,296.51565 67.412719,421.24356 C 62.298818,452.69774 60.907037,487.19429 63.393554,520.86218 C 70.913605,622.68506 102.61666,735.08039 151.96271,834.86218 C 201.85159,935.74158 261.78677,1005.8187 316.68833,1027.4617 C 322.04223,1029.5723 330.93328,1032.1778 333.18655,1032.2964 C 334.17401,1032.3484 334.43655,1019.1376 334.43655,969.39708 z"
       id="path6418" />
  </g>
</svg>
