<?xml version="1.0" encoding="UTF-8" standalone="no"?>
<!-- Created with Inkscape (http://www.inkscape.org/) -->
<svg
   xmlns:dc="http://purl.org/dc/elements/1.1/"
   xmlns:cc="http://creativecommons.org/ns#"
   xmlns:rdf="http://www.w3.org/1999/02/22-rdf-syntax-ns#"
   xmlns:svg="http://www.w3.org/2000/svg"
   xmlns="http://www.w3.org/2000/svg"
   xmlns:sodipodi="http://sodipodi.sourceforge.net/DTD/sodipodi-0.dtd"
   xmlns:inkscape="http://www.inkscape.org/namespaces/inkscape"
   width="979.81744"
   height="796.8551"
   id="svg5754"
   sodipodi:version="0.32"
   inkscape:version="0.46"
   version="1.0"
   sodipodi:docname="conodonten.svg"
   inkscape:output_extension="org.inkscape.output.svg.inkscape">
  <defs
     id="defs5756">
    <inkscape:perspective
       sodipodi:type="inkscape:persp3d"
       inkscape:vp_x="0 : 526.18109 : 1"
       inkscape:vp_y="0 : 1000 : 0"
       inkscape:vp_z="744.09448 : 526.18109 : 1"
       inkscape:persp3d-origin="372.04724 : 350.78739 : 1"
       id="perspective5762" />
  </defs>
  <sodipodi:namedview
     id="base"
     pagecolor="#ffffff"
     bordercolor="#666666"
     borderopacity="1.0"
     inkscape:pageopacity="0.0"
     inkscape:pageshadow="2"
     inkscape:zoom="0.35"
     inkscape:cx="350"
     inkscape:cy="520"
     inkscape:document-units="px"
     inkscape:current-layer="layer1"
     showgrid="false"
     inkscape:window-width="640"
     inkscape:window-height="713"
     inkscape:window-x="420"
     inkscape:window-y="422" />
  <metadata
     id="metadata5759">
    <rdf:RDF>
      <cc:Work
         rdf:about="">
        <dc:format>image/svg+xml</dc:format>
        <dc:type
           rdf:resource="http://purl.org/dc/dcmitype/StillImage" />
      </cc:Work>
    </rdf:RDF>
  </metadata>
  <g
     inkscape:label="Ebene 1"
     inkscape:groupmode="layer"
     id="layer1"
     transform="translate(139.90873,-133.93464)">
    <path
       style="fill:#000000"
       d="M -28.347653,864.53972 C -75.005049,773.36741 -109.53151,706.25188 -126.0157,674.68408 C -138.93962,649.93433 -139.90873,647.69669 -139.90873,642.60578 L -139.90873,637.13313 L -122.65873,632.84783 C -92.069864,625.24885 -68.428974,616.62105 -41.874708,603.36549 C 15.717687,574.61608 49.338647,537.35621 59.255427,491.28972 C 60.935407,483.48571 60.907447,458.28265 59.208847,449.28972 C 53.175757,417.34881 40.415797,384.11381 19.711417,346.41351 C -15.057363,283.10353 -65.300358,214.31984 -128.66018,143.28972 L -136.6883,134.28972 L -124.37022,134.01038 C -112.81763,133.7484 -111.05657,133.98134 -96.031367,137.75889 C -4.3836225,160.80043 73.923527,196.01296 125.40555,237.33286 C 157.46639,263.06515 197.37293,303.74125 245.0551,359.28972 C 273.18264,392.05756 306.66961,433.23218 324.59127,457.08513 C 327.34127,460.74526 329.87328,463.75112 330.21797,463.76481 C 331.43267,463.81309 355.99417,437.81182 366.85234,424.98297 C 384.96136,403.5873 400.36608,382.12526 406.84768,369.261 C 417.6476,347.82602 422.60294,307.58026 420.20219,260.79974 C 418.81234,233.71743 417.55242,220.85639 412.57353,182.92782 C 410.59804,167.87878 409.11888,155.44027 409.2865,155.28669 C 409.60954,154.99071 420.4245,169.01573 443.94763,200.23584 C 491.272,263.04514 524.87475,314.05716 540.1566,346.28972 C 556.31329,380.3675 569.12514,414.61707 589.26777,477.57727 C 591.0697,483.20959 591.50399,483.79483 593.43529,483.19323 C 597.62893,481.88693 628.9108,465.85518 642.15979,458.22225 C 683.66615,434.30986 705.11886,415.32978 733.07068,377.78972 C 758.80311,343.23035 783.54308,301.72493 813.08793,243.54747 L 829.71575,210.80522 L 832.90416,233.04747 C 837.44382,264.71603 837.81973,268.46356 839.2259,296.07072 C 843.35515,377.13939 828.61353,457.95347 798.88565,517.21751 C 773.82715,567.17289 720.01076,636.27079 641.11435,719.78899 C 595.19057,768.40301 505.00991,855.62793 459.7289,895.2294 L 452.93736,901.16909 L 232.76432,915.94769 C 111.66914,924.07591 11.008277,930.74056 9.0735175,930.758 L 5.5557675,930.78972 L -28.347653,864.53972 z M 233.03668,894.23624 C 344.38166,886.80903 435.68477,880.52956 435.93248,880.28185 C 436.89416,879.32016 428.33363,860.86766 421.90843,850.05256 C 406.35254,823.86844 390.1341,803.69711 362.15693,775.73794 C 317.84255,731.45208 271.24197,699.11367 231.00311,684.72391 C 205.23907,675.51047 189.32626,675.53644 170.59127,684.8225 C 154.08677,693.003 139.77777,705.46516 102.85704,743.81436 C 64.430237,783.72791 45.053497,800.49655 19.822727,815.67228 C 9.8538975,821.66831 -6.8617525,829.69715 -14.689933,832.24936 L -19.971133,833.97118 L -12.085803,849.13045 C -7.7488725,857.46805 0.92766747,874.32385 7.1953975,886.58779 L 18.591267,908.88586 L 24.591267,908.31306 C 27.891267,907.99802 121.69171,901.66345 233.03668,894.23624 z M 471.59127,855.25817 C 536.62135,795.91947 611.57429,721.20138 660.15054,667.28972 C 723.60925,596.86097 766.39132,538.21428 784.95161,496.20941 C 807.42119,445.35719 818.20606,388.10797 817.99797,320.78972 C 817.95292,306.21472 817.61798,292.07043 817.25366,289.35796 L 816.59127,284.4262 L 805.81619,303.60907 C 766.19262,374.15089 730.36648,421.78844 697.98823,446.9865 C 670.78713,468.15551 633.3212,489.56564 591.68231,507.73567 C 584.03239,511.07388 577.66725,513.68917 577.53756,513.54743 C 577.40787,513.40569 575.1883,506.08972 572.60518,497.28972 C 566.17787,475.39361 549.56987,425.52356 542.63288,407.28972 C 523.91353,358.08601 508.54275,329.24646 474.29754,279.07496 C 462.86383,262.32381 440.82566,231.722 440.45955,232.08811 C 440.3068,232.24086 440.60182,238.8737 441.11515,246.82777 C 442.35031,265.96667 442.33818,302.54843 441.09212,316.28972 C 437.14208,359.84991 429.35458,379.63118 401.72409,416.28972 C 382.22088,442.16544 330.32404,497.28768 327.25272,495.3895 C 326.75648,495.08281 320.57513,487.28489 313.5164,478.0608 C 232.62674,372.3572 153.02858,284.99082 103.59127,247.64845 C 72.015357,223.79765 26.858457,200.66065 -23.908733,182.3214 C -37.800543,177.30309 -68.702218,167.31258 -80.325332,164.08192 C -82.026338,163.60912 -81.970095,163.87992 -79.825332,166.48928 C 12.074167,278.29615 64.324797,367.89711 79.210737,439.20914 C 82.223077,453.63994 82.916247,479.1762 80.661617,492.65983 C 70.921497,550.91002 24.341327,599.4905 -53.595006,632.68189 C -66.818407,638.31345 -93.853722,647.70648 -107.22051,651.31329 L -113.03228,652.88151 L -105.08371,668.08561 C -98.139635,681.36831 -63.804326,748.00909 -38.181783,797.93435 L -29.639453,814.57899 L -23.014373,812.32565 C -3.8439825,805.80538 16.681627,793.62792 39.091267,775.47953 C 43.766267,771.6935 64.916267,751.1531 86.091267,729.83421 C 107.26627,708.51533 127.51627,688.60227 131.09127,685.58299 C 147.12927,672.038 163.66209,662.70127 178.80749,658.63576 C 190.01557,655.62716 207.28527,655.68502 220.07117,658.77402 C 298.1642,677.64081 410.51558,774.34352 449.75217,856.46427 C 452.68867,862.61027 455.09127,868.20121 455.09127,868.88858 C 455.09127,870.32289 454.9896,870.40687 471.59127,855.25817 z"
       id="path5752" />
  </g>
</svg>
