<?xml version="1.0" encoding="UTF-8" standalone="no"?>
<!-- Created with Inkscape (http://www.inkscape.org/) -->
<svg
   xmlns:dc="http://purl.org/dc/elements/1.1/"
   xmlns:cc="http://creativecommons.org/ns#"
   xmlns:rdf="http://www.w3.org/1999/02/22-rdf-syntax-ns#"
   xmlns:svg="http://www.w3.org/2000/svg"
   xmlns="http://www.w3.org/2000/svg"
   xmlns:sodipodi="http://sodipodi.sourceforge.net/DTD/sodipodi-0.dtd"
   xmlns:inkscape="http://www.inkscape.org/namespaces/inkscape"
   width="976.48328"
   height="976.33789"
   id="svg3605"
   sodipodi:version="0.32"
   inkscape:version="0.46"
   version="1.0"
   sodipodi:docname="krinoiden.svg"
   inkscape:output_extension="org.inkscape.output.svg.inkscape">
  <defs
     id="defs3607">
    <inkscape:perspective
       sodipodi:type="inkscape:persp3d"
       inkscape:vp_x="0 : 526.18109 : 1"
       inkscape:vp_y="0 : 1000 : 0"
       inkscape:vp_z="744.09448 : 526.18109 : 1"
       inkscape:persp3d-origin="372.04724 : 350.78739 : 1"
       id="perspective3613" />
  </defs>
  <sodipodi:namedview
     id="base"
     pagecolor="#ffffff"
     bordercolor="#666666"
     borderopacity="1.0"
     inkscape:pageopacity="0.0"
     inkscape:pageshadow="2"
     inkscape:zoom="0.35"
     inkscape:cx="350"
     inkscape:cy="520"
     inkscape:document-units="px"
     inkscape:current-layer="layer1"
     showgrid="false"
     inkscape:window-width="640"
     inkscape:window-height="713"
     inkscape:window-x="100"
     inkscape:window-y="100" />
  <metadata
     id="metadata3610">
    <rdf:RDF>
      <cc:Work
         rdf:about="">
        <dc:format>image/svg+xml</dc:format>
        <dc:type
           rdf:resource="http://purl.org/dc/dcmitype/StillImage" />
      </cc:Work>
    </rdf:RDF>
  </metadata>
  <g
     inkscape:label="Ebene 1"
     inkscape:groupmode="layer"
     id="layer1"
     transform="translate(138.24164,-44.193256)">
    <path
       style="fill:#000000"
       d="M 321.00385,1019.709 C 168.29869,1010.9665 28.035813,930.15034 -57.191041,801.80211 C -130.43517,691.49938 -155.53132,554.71129 -126.35824,424.80211 C -83.565593,234.24429 70.450103,86.557402 262.55495,51.870127 C 319.25363,41.63237 380.88652,41.634353 437.45275,51.875754 C 629.62218,86.668315 783.58668,234.30388 826.36595,424.80211 C 851.80228,538.07135 836.04634,657.62504 782.28231,759.30211 C 758.36437,804.53508 731.46239,840.94217 695.05315,877.35141 C 658.75427,913.65029 623.03823,940.10837 578.00385,964.06035 C 499.75814,1005.6761 411.12322,1024.8684 321.00385,1019.709 z M 368.97334,998.77801 C 410.01525,996.8597 443.56712,991.44523 480.50385,980.77966 C 594.97015,947.72723 693.79914,870.17906 754.46983,765.8067 C 825.45507,643.69013 836.64109,491.45006 784.26477,360.30211 C 760.20685,300.06216 726.17652,248.48106 680.01164,202.28156 C 566.11441,88.298925 405.06076,41.713943 246.50385,76.888863 C 139.77056,100.56702 42.693453,163.7643 -24.483897,253.30211 C -105.8622,361.76777 -135.31706,500.98823 -105.40939,635.80211 C -81.737963,742.50508 -18.508517,839.6316 71.003853,906.78986 C 144.95222,962.27094 235.18025,994.49869 328.44074,998.74144 C 337.55045,999.15587 345.67885,999.55417 346.50385,999.62654 C 347.32885,999.69891 357.44012,999.31707 368.97334,998.77801 z M 315.50385,715.81305 C 274.5422,708.95437 239.89912,691.22064 210.99222,662.31374 C 136.93161,588.25313 136.93161,468.35109 210.99222,394.29048 C 240.9768,364.30591 277.6995,346.26697 321.00385,340.25055 C 335.12138,338.28915 362.65511,338.73395 376.50385,341.14713 C 444.4724,352.99082 499.79519,398.78066 523.48609,462.80211 C 531.41247,484.2221 534.7408,503.59224 534.7408,528.30211 C 534.7408,564.24327 526.14943,595.92686 508.35164,625.62107 C 479.04994,674.50866 429.38252,707.49678 371.88452,716.25986 C 358.0165,718.37343 329.44268,718.14699 315.50385,715.81305 z"
       id="path3603" />
  </g>
</svg>
