<?xml version="1.0" encoding="UTF-8" standalone="no"?>
<!-- Created with Inkscape (http://www.inkscape.org/) -->
<svg
   xmlns:dc="http://purl.org/dc/elements/1.1/"
   xmlns:cc="http://creativecommons.org/ns#"
   xmlns:rdf="http://www.w3.org/1999/02/22-rdf-syntax-ns#"
   xmlns:svg="http://www.w3.org/2000/svg"
   xmlns="http://www.w3.org/2000/svg"
   xmlns:sodipodi="http://sodipodi.sourceforge.net/DTD/sodipodi-0.dtd"
   xmlns:inkscape="http://www.inkscape.org/namespaces/inkscape"
   width="210mm"
   height="297mm"
   id="svg2453"
   sodipodi:version="0.32"
   inkscape:version="0.46"
   sodipodi:docname="radiolarien.svg"
   inkscape:output_extension="org.inkscape.output.svg.inkscape">
  <defs
     id="defs2455">
    <inkscape:perspective
       sodipodi:type="inkscape:persp3d"
       inkscape:vp_x="0 : 526.18109 : 1"
       inkscape:vp_y="0 : 1000 : 0"
       inkscape:vp_z="744.09448 : 526.18109 : 1"
       inkscape:persp3d-origin="372.04724 : 350.78739 : 1"
       id="perspective2461" />
  </defs>
  <sodipodi:namedview
     id="base"
     pagecolor="#ffffff"
     bordercolor="#666666"
     borderopacity="1.0"
     inkscape:pageopacity="0.0"
     inkscape:pageshadow="2"
     inkscape:zoom="0.35"
     inkscape:cx="350"
     inkscape:cy="520"
     inkscape:document-units="px"
     inkscape:current-layer="layer1"
     showgrid="false"
     inkscape:window-width="640"
     inkscape:window-height="713"
     inkscape:window-x="20"
     inkscape:window-y="20" />
  <metadata
     id="metadata2458">
    <rdf:RDF>
      <cc:Work
         rdf:about="">
        <dc:format>image/svg+xml</dc:format>
        <dc:type
           rdf:resource="http://purl.org/dc/dcmitype/StillImage" />
      </cc:Work>
    </rdf:RDF>
  </metadata>
  <g
     inkscape:label="Ebene 1"
     inkscape:groupmode="layer"
     id="layer1">
    <path
       style="fill:#000000"
       d="M 362.0252,844.9667 C 362.03223,842.41546 338.60966,639.88438 338.12831,638.33431 C 337.62864,636.72525 336.65718,636.35356 328.84177,634.7812 C 282.93755,625.54583 238.66773,599.04266 208.96214,563.01244 C 205.72101,559.08126 202.98216,555.76071 202.87578,555.63346 C 202.7694,555.5062 160.42922,574.05138 108.78648,596.84497 C 33.888931,629.90255 14.711955,638.09377 14.007653,637.32866 C 12.138381,635.29795 5.3465821,622.90859 5.6578942,622.09731 C 5.838202,621.62745 42.503027,593.53764 87.135293,559.67553 C 131.76756,525.8134 168.86814,497.56029 169.58104,496.89083 C 170.80655,495.74 170.79362,495.40702 169.34383,490.78358 C 159.46526,459.28034 157.08786,423.37932 162.72122,390.77591 C 164.6036,379.88155 166.44427,372.57499 170.29438,360.71426 C 173.22384,351.68967 173.27445,351.361 171.9297,350.09457 C 171.16647,349.37579 135.83849,323.28211 93.423088,292.10863 C 51.007684,260.93513 13.192645,233.12492 9.3896671,230.30813 L 2.4751629,225.18672 L 7.0452597,217.22194 C 10.917592,210.47323 11.858435,209.30891 13.207392,209.59619 C 14.083004,209.78267 58.033087,228.44218 110.87425,251.06177 L 206.94907,292.1883 L 220.72166,278.40341 C 239.51594,259.59234 254.25018,248.75328 276.58601,237.30746 C 291.69327,229.56587 312.39025,222.45545 329.85838,219.00583 C 334.30682,218.12734 337.94646,217.19711 337.94646,216.93865 C 337.94646,216.68018 343.36359,169.10161 349.98453,111.20848 C 356.60547,53.315351 362.0226,5.6677984 362.0226,5.3250256 C 362.0226,4.9822534 366.32844,4.7965616 371.59111,4.9123769 L 381.15963,5.1229507 L 393.59822,111.20848 L 406.03681,217.29401 L 410.55109,218.29488 C 435.47172,223.82014 452.07675,229.63032 470.21902,239.17298 C 491.94375,250.59999 513.81774,267.69749 529.71458,285.67686 C 533.59699,290.06789 537.05753,293.66054 537.40466,293.66054 C 537.7518,293.66054 581.12878,274.84462 633.79794,251.84739 C 686.4671,228.85017 729.85883,209.97485 730.22402,209.90223 C 730.58921,209.82962 733.02414,213.39678 735.63499,217.82925 L 740.38198,225.88828 L 655.59496,289.22089 C 608.96211,324.05382 570.72404,352.61897 570.62147,352.699 C 570.51892,352.77902 571.2653,355.28568 572.28012,358.26935 C 584.18927,393.28372 586.66765,434.40844 579.0445,470.51358 C 577.08523,479.79315 573.2045,493.44985 570.51693,500.52294 L 569.09854,504.25584 L 653.58354,564.29361 L 738.06853,624.33138 L 734.62085,630.72661 C 732.72463,634.24398 730.64093,638.00014 729.99042,639.07362 L 728.80767,641.0254 L 660.34112,613.32548 C 622.68452,598.09052 579.13198,580.48013 563.5577,574.19128 L 535.24082,562.75699 L 523.30539,574.84187 C 502.24898,596.16195 481.70583,610.46595 456.44625,621.39523 C 441.04564,628.05874 420.88003,634.20793 409.63143,635.67066 C 406.94437,636.02008 405.59629,636.56807 405.36708,637.4041 C 405.18274,638.07647 399.67262,685.26473 393.12238,742.26689 L 381.21284,845.90718 L 371.61772,845.90718 C 364.44183,845.90718 362.02326,845.67003 362.0252,844.9667 z M 383.45154,660.4456 C 389.58149,607.06427 394.6316,563.34909 394.67401,563.30077 C 394.89894,563.04447 412.77319,565.35994 413.10111,565.68785 C 413.31463,565.90138 412.2083,577.26575 410.64259,590.94199 C 409.07689,604.61824 407.99957,616.01161 408.24855,616.2606 C 408.99202,617.00408 427.68059,612.01289 437.51246,608.44506 C 455.4226,601.94574 474.77114,591.21211 490.59321,578.99845 C 498.92677,572.56544 516.82185,554.69203 523.171,546.46009 C 544.98783,518.17363 558.06775,487.06505 563.03056,451.66026 C 564.56929,440.68286 564.33575,410.63413 562.62415,399.36987 C 561.29564,390.62678 556.07253,368.49017 554.80277,366.22123 C 554.3101,365.34088 549.99709,368.21456 534.43505,379.7919 C 523.57657,387.87002 514.57857,394.47941 514.4395,394.47941 C 513.81133,394.47941 503.40057,380.0222 503.61028,379.44111 C 503.74002,379.08163 539.05753,352.4893 582.09364,320.34703 C 625.12976,288.20476 660.6797,261.5811 661.0935,261.18335 C 662.01715,260.29553 671.39628,256.24153 568.55081,301.18365 C 520.9628,321.97899 481.51456,339.13847 480.88805,339.31584 C 480.05288,339.55229 478.78942,337.41423 476.15263,331.30246 C 474.17466,326.71773 472.71176,322.72093 472.90175,322.42068 C 473.09173,322.12043 483.42578,317.47335 495.8663,312.09384 C 508.30682,306.71432 518.49266,302.08876 518.5015,301.81481 C 518.54073,300.59857 499.33176,281.99682 492.18428,276.32951 C 463.93634,253.93143 430.20098,239.69404 395.14977,235.37787 C 384.34975,234.04797 361.69242,233.85272 350.89535,234.99652 C 306.67136,239.68143 266.01359,259.49632 233.76772,292.07961 C 228.97565,296.92183 226.53197,299.915 226.99631,300.37364 C 227.3959,300.76832 237.37211,305.21518 249.16566,310.25556 C 260.95921,315.29592 270.73546,319.53491 270.89066,319.67553 C 271.48671,320.21559 263.79738,337.26956 263.08468,336.98821 C 262.67088,336.82484 221.90416,319.38859 172.492,298.24096 C 123.07983,277.09334 82.557349,259.88509 82.442039,260.0004 C 82.278419,260.16402 237.23302,374.51308 240.37048,376.544 C 240.97099,376.93272 234.19908,387.13127 230.26719,391.75961 C 229.95606,392.12586 220.89054,385.94694 210.1216,378.02868 C 199.35265,370.11042 190.24298,363.63184 189.87788,363.63184 C 189.15472,363.63184 185.31523,375.90018 183.40262,384.32228 C 176.69571,413.85588 177.19083,445.57875 184.82348,475.35937 C 188.27052,488.8088 191.6881,497.87673 198.71831,512.22682 C 218.66566,552.94338 251.64208,584.72212 293.55606,603.62013 C 305.93109,609.19973 333.95025,617.66888 335.36248,616.25665 C 335.70693,615.91219 331.06418,572.86083 330.09709,567.43162 L 329.7451,565.45557 L 338.92434,564.38629 C 343.97292,563.79817 348.31174,563.5024 348.56614,563.72901 C 348.82055,563.95561 354.05849,607.89427 360.20601,661.37047 C 366.35353,714.84668 371.59096,758.35306 371.84475,758.05128 C 372.09853,757.7495 377.32159,713.82694 383.45154,660.4456 z M 659.21256,592.07296 C 659.21256,591.75173 562.43143,522.85936 561.58077,522.57507 C 561.2762,522.47329 559.92379,524.52363 558.57541,527.13139 C 557.22702,529.73914 554.05826,535.17437 551.53372,539.20965 C 549.00918,543.24493 547.07761,546.6805 547.24135,546.84424 C 547.46403,547.06691 658.03575,592.03392 659.02446,592.30389 C 659.12791,592.33213 659.21256,592.22822 659.21256,592.07296 z M 137.77612,563.23272 C 166.55638,550.56346 190.40723,539.93215 190.77802,539.6076 C 191.15635,539.27644 190.1231,536.77119 188.42332,533.89834 C 186.75746,531.0828 183.82677,525.64739 181.91069,521.81966 C 179.9946,517.99193 178.25479,514.86015 178.04444,514.86015 C 177.66688,514.86015 93.562835,578.52904 86.275481,584.33158 C 84.206437,585.97905 83.173909,587.08865 83.980979,586.79737 C 84.788042,586.50608 108.99586,575.90199 137.77612,563.23272 z M 386.45599,213.53211 C 386.27457,212.70449 383.04326,185.28025 379.2753,152.58936 C 375.50735,119.89846 372.23744,92.643512 372.00884,92.022799 C 371.66617,91.092354 357.66536,208.72526 357.54665,213.53211 C 357.51073,214.98658 357.99869,215.03687 372.14767,215.03687 C 386.39422,215.03687 386.77702,214.99661 386.45599,213.53211 z"
       id="path2451" />
  </g>
</svg>
