<?xml version="1.0" encoding="UTF-8" standalone="no"?>
<!-- Created with Inkscape (http://www.inkscape.org/) -->
<svg
   xmlns:dc="http://purl.org/dc/elements/1.1/"
   xmlns:cc="http://creativecommons.org/ns#"
   xmlns:rdf="http://www.w3.org/1999/02/22-rdf-syntax-ns#"
   xmlns:svg="http://www.w3.org/2000/svg"
   xmlns="http://www.w3.org/2000/svg"
   xmlns:sodipodi="http://sodipodi.sourceforge.net/DTD/sodipodi-0.dtd"
   xmlns:inkscape="http://www.inkscape.org/namespaces/inkscape"
   width="210mm"
   height="297mm"
   id="svg2534"
   sodipodi:version="0.32"
   inkscape:version="0.46"
   sodipodi:docname="sporen_pollen.svg"
   inkscape:output_extension="org.inkscape.output.svg.inkscape">
  <defs
     id="defs2536">
    <inkscape:perspective
       sodipodi:type="inkscape:persp3d"
       inkscape:vp_x="0 : 526.18109 : 1"
       inkscape:vp_y="0 : 1000 : 0"
       inkscape:vp_z="744.09448 : 526.18109 : 1"
       inkscape:persp3d-origin="372.04724 : 350.78739 : 1"
       id="perspective2542" />
  </defs>
  <sodipodi:namedview
     id="base"
     pagecolor="#ffffff"
     bordercolor="#666666"
     borderopacity="1.0"
     inkscape:pageopacity="0.0"
     inkscape:pageshadow="2"
     inkscape:zoom="0.35"
     inkscape:cx="350"
     inkscape:cy="520"
     inkscape:document-units="px"
     inkscape:current-layer="layer1"
     showgrid="false"
     inkscape:window-width="640"
     inkscape:window-height="713"
     inkscape:window-x="60"
     inkscape:window-y="60" />
  <metadata
     id="metadata2539">
    <rdf:RDF>
      <cc:Work
         rdf:about="">
        <dc:format>image/svg+xml</dc:format>
        <dc:type
           rdf:resource="http://purl.org/dc/dcmitype/StillImage" />
      </cc:Work>
    </rdf:RDF>
  </metadata>
  <g
     inkscape:label="Ebene 1"
     inkscape:groupmode="layer"
     id="layer1">
    <path
       style="fill:#000000"
       d="M 383.17824,703.70431 C 371.81553,702.78947 358.51743,699.28326 349.83185,694.91211 C 323.09741,681.45762 303.34646,653.17989 295.38472,616.95931 C 292.81924,605.28812 292.15478,599.35238 290.3468,571.95444 C 282.93655,459.66057 273.44661,386.55167 261.58728,350.39585 C 254.15949,327.75057 236.61553,307.55233 205.6168,285.9574 C 186.53527,272.66446 169.38705,262.98278 123.15016,239.39768 C 85.566967,220.22677 74.550678,214.11762 64.113931,206.65884 C 15.33366,171.79725 -7.630239,129.54836 2.743686,93.750114 C 5.1020487,85.611883 8.4977569,78.832509 14.203498,70.871122 C 33.114191,44.484459 56.220644,28.044378 82.302871,22.418898 C 90.744479,20.598191 104.60299,20.247703 113.05944,21.641053 C 127.95762,24.095789 139.77544,29.122717 156.57437,40.150936 C 177.58871,53.946489 204.40204,65.368066 239.94034,75.662036 C 304.72505,94.427455 374.47205,102.72393 407.46291,95.589009 C 431.08482,90.480312 448.95079,81.832123 489.28038,55.984529 C 499.70113,49.305778 511.63762,41.737467 515.80592,39.166051 C 567.35597,7.3649971 607.53934,-0.68869681 649.57041,12.356498 C 659.17057,15.336102 676.38052,23.973385 684.81148,30.043191 C 708.28613,46.943588 727.78963,72.634805 736.42698,98.034299 C 749.63873,136.88558 741.26717,177.74216 713.73142,208.79778 C 706.63386,216.80261 683.33468,238.22815 643.1285,273.72307 C 577.02655,332.07935 556.45158,350.93127 535.88954,371.98131 C 508.27506,400.25119 503.414,408.75907 499.79267,435.15846 C 498.82665,442.20077 498.50547,449.68855 498.54109,464.33655 C 498.59331,485.80735 499.65505,502.14472 503.71648,543.97273 C 507.59603,583.92769 508.41043,596.91363 507.76106,608.46513 C 505.46184,649.36524 478.2761,682.77964 435.77598,696.94304 C 419.47426,702.37568 399.14075,704.98949 383.17824,703.70431 z M 416.57362,685.32363 C 454.87373,677.51845 481.70812,654.00304 489.72929,621.21615 C 492.83731,608.51199 492.56857,597.03931 488.07832,550.73401 C 481.31906,481.02964 480.52348,450.70281 484.79788,425.68505 C 488.84234,402.01307 495.86884,390.03434 520.82195,364.27147 C 543.77734,340.57113 565.59348,320.49076 633.27615,260.76451 C 697.59202,204.00927 707.86406,193.58456 716.45926,176.34501 C 727.40165,154.39768 729.27669,127.76065 721.51753,104.48663 C 712.00319,75.947837 688.82066,48.971602 661.94678,35.167432 C 652.11888,30.119183 647.89164,28.49964 637.44445,25.780078 C 629.98534,23.838356 626.85778,23.450947 615.74919,23.092698 C 601.10346,22.620378 594.61774,23.304157 581.42723,26.711207 C 559.25796,32.437432 543.06756,40.794097 496.85911,70.361006 C 460.28713,93.761922 443.81912,102.20081 422.20867,108.61494 C 407.55706,112.96364 397.94213,114.15902 377.87313,114.12698 C 358.25063,114.09566 347.03032,113.29081 325.308,110.35644 C 270.15082,102.90551 207.70619,85.412441 171.35289,67.227863 C 160.68951,61.89385 157.53173,60.074092 146.67832,53.008432 C 131.5697,43.172589 120.51156,38.789987 106.97097,37.271491 C 79.561942,34.197727 51.021906,48.907023 29.811844,77.038651 C 20.299627,89.655026 16.736679,98.963587 16.76006,111.13774 C 16.788806,126.10292 22.240289,140.19835 34.39152,156.72585 C 40.244067,164.6862 57.733806,181.68531 67.903293,189.29756 C 81.236378,199.27788 89.862005,204.19811 128.91203,224.0982 C 148.29462,233.97566 167.56352,243.94876 171.73182,246.26063 C 207.10599,265.88028 228.70153,281.0764 246.83085,299.10553 C 269.98299,322.12971 276.91455,336.70993 285.75014,380.97058 C 294.15875,423.09229 300.801,484.22061 306.62613,573.09125 C 308.5736,602.80267 310.10366,612.71068 314.93363,626.887 C 327.54312,663.8968 351.49309,685.00814 383.55718,687.37701 C 393.23543,688.09203 407.27307,687.219 416.57362,685.32363 z M 404.34538,581.62574 L 398.98697,581.36693 L 398.05685,558.47175 C 395.0941,485.54367 386.09263,356.92909 380.0914,301.77846 C 377.63705,279.22317 376.44112,272.32775 374.69098,270.64106 C 365.64206,261.92015 270.67989,219.15702 157.71118,172.93124 C 142.08006,166.53513 128.9821,161.03556 128.6046,160.70997 C 128.10345,160.27773 132.37746,148.18645 133.86599,145.82536 C 134.03916,145.5507 197.4254,171.65494 228.19332,184.67201 C 314.99386,221.39497 374.22439,249.03512 384.34677,257.54159 C 385.3425,258.37837 401.81683,248.93488 495.75403,193.68018 C 556.38532,158.0163 606.38535,128.67447 606.86521,128.47609 C 607.6154,128.16595 615.49527,140.34385 615.45011,141.74359 C 615.44129,142.01703 565.32238,171.68484 504.07477,207.67206 L 392.71547,273.10337 L 393.11242,275.50165 C 393.33074,276.8207 393.65633,278.63701 393.83594,279.53788 C 394.57419,283.24069 398.12685,318.23179 400.21014,342.31908 C 406.6065,416.27484 414.60807,544.69038 414.62498,573.65965 L 414.62995,582.18572 L 412.16686,582.03513 C 410.81216,581.95231 407.2925,581.76808 404.34538,581.62574 z"
       id="path2532" />
  </g>
</svg>
