<?xml version="1.0" encoding="UTF-8" standalone="no"?>
<!-- Created with Inkscape (http://www.inkscape.org/) -->
<svg
   xmlns:dc="http://purl.org/dc/elements/1.1/"
   xmlns:cc="http://creativecommons.org/ns#"
   xmlns:rdf="http://www.w3.org/1999/02/22-rdf-syntax-ns#"
   xmlns:svg="http://www.w3.org/2000/svg"
   xmlns="http://www.w3.org/2000/svg"
   xmlns:sodipodi="http://sodipodi.sourceforge.net/DTD/sodipodi-0.dtd"
   xmlns:inkscape="http://www.inkscape.org/namespaces/inkscape"
   width="990.13141"
   height="1138.3789"
   id="svg6099"
   sodipodi:version="0.32"
   inkscape:version="0.46"
   version="1.0"
   sodipodi:docname="cephalopoda.svg"
   inkscape:output_extension="org.inkscape.output.svg.inkscape">
  <defs
     id="defs6101">
    <inkscape:perspective
       sodipodi:type="inkscape:persp3d"
       inkscape:vp_x="0 : 526.18109 : 1"
       inkscape:vp_y="0 : 1000 : 0"
       inkscape:vp_z="744.09448 : 526.18109 : 1"
       inkscape:persp3d-origin="372.04724 : 350.78739 : 1"
       id="perspective6107" />
  </defs>
  <sodipodi:namedview
     id="base"
     pagecolor="#ffffff"
     bordercolor="#666666"
     borderopacity="1.0"
     inkscape:pageopacity="0.0"
     inkscape:pageshadow="2"
     inkscape:zoom="0.35"
     inkscape:cx="350"
     inkscape:cy="520"
     inkscape:document-units="px"
     inkscape:current-layer="layer1"
     showgrid="false"
     inkscape:window-width="640"
     inkscape:window-height="713"
     inkscape:window-x="60"
     inkscape:window-y="62" />
  <metadata
     id="metadata6104">
    <rdf:RDF>
      <cc:Work
         rdf:about="">
        <dc:format>image/svg+xml</dc:format>
        <dc:type
           rdf:resource="http://purl.org/dc/dcmitype/StillImage" />
      </cc:Work>
    </rdf:RDF>
  </metadata>
  <g
     inkscape:label="Ebene 1"
     inkscape:groupmode="layer"
     id="layer1"
     transform="translate(145.0657,36.827261)">
    <path
       style="fill:#000000"
       d="M 239.09736,1101.3806 C 149.45917,1097.1056 71.431145,1076.5843 -5.4807952,1037.0566 C -52.23452,1013.0283 -90.404563,986.44474 -133.23417,948.08248 L -145.0657,937.48504 L -144.56454,918.98504 C -143.29262,872.03313 -128.0864,816.57826 -101.92506,763.48504 C -77.788752,714.50153 -46.173251,670.60171 -4.4493352,628.13477 C 19.203445,604.06078 43.622265,583.00672 66.890395,566.6252 L 75.183415,560.78664 L 72.797565,557.63584 C 33.232965,505.38619 8.2122448,441.63072 0.52792476,373.48504 C -1.4888852,355.59968 -1.7372652,318.5527 0.035144763,299.98504 C 10.617645,189.12359 69.506205,89.66107 161.59736,27.107147 C 168.74736,22.250432 179.32236,15.5677 185.09736,12.256632 C 269.04736,-35.875697 369.62588,-49.326289 463.03305,-24.912336 C 509.01059,-12.895126 546.04048,4.5711409 591.59736,35.728915 C 650.71161,76.15899 704.0047,129.63233 744.33688,188.98504 C 801.6363,273.30668 834.63447,366.22373 843.59733,468.48504 C 845.54274,490.6811 845.55793,542.58029 843.62586,565.98504 C 828.6466,747.44152 730.24022,910.91672 576.59736,1009.5796 C 495.90343,1061.3978 404.78555,1092.0087 307.59736,1099.9497 C 294.33651,1101.0333 250.85743,1101.9415 239.09736,1101.3806 z M 305.62018,1074.5072 C 339.99161,1071.6817 366.97766,1067.2311 399.33436,1059.0515 C 475.0678,1039.9065 548.00368,1003.8018 608.59736,955.46234 C 742.73004,848.45598 820.09736,688.7373 820.09736,518.83741 C 820.09736,396.09659 782.19493,281.44322 709.29382,183.66099 C 656.59434,112.9752 578.54856,48.327061 509.09736,17.83104 C 475.22202,2.9563779 437.64642,-6.6712851 400.21718,-10.066367 C 383.35035,-11.5963 339.95763,-10.741156 324.59736,-8.5761191 C 223.64431,5.6532519 137.35756,59.6625 81.660015,143.48504 C 51.470835,188.91853 34.528965,234.46893 26.557615,291.63495 C 24.411345,307.02674 23.579185,344.41632 25.002995,361.48504 C 29.124075,410.88892 42.949415,457.75281 65.684075,499.38211 C 76.791975,519.72171 94.234345,545.35677 96.575485,544.78325 C 97.245015,544.61924 147.74648,503.79647 208.80097,454.066 L 319.80912,363.64696 L 313.59993,357.83857 C 309.28541,353.80254 306.50685,350.11617 304.49405,345.75761 C 301.88064,340.09846 301.59736,338.45821 301.59736,328.98504 C 301.59736,319.58635 301.88224,317.90497 304.31348,312.95462 C 317.96791,285.15217 354.81341,281.86138 372.2943,306.88304 C 377.41765,314.21646 379.37472,321.48569 378.9111,331.46014 C 378.42735,341.86758 374.96373,349.73359 367.77606,356.74821 C 364.92777,359.52791 306.34736,407.56829 237.59736,463.50459 C 168.84736,519.4409 112.45865,565.79682 112.28911,566.51775 C 112.11957,567.23868 107.16957,570.81207 101.28911,574.45861 C 46.411885,608.48863 -9.2233152,663.28612 -48.730018,722.21884 C -88.809775,782.00641 -113.35417,848.042 -119.08662,911.51012 L -120.33257,925.30491 L -114.3676,930.72394 C -22.359825,1014.3107 91.354005,1063.8458 215.59736,1074.4606 C 236.85598,1076.2768 283.79753,1076.3011 305.62018,1074.5072 z"
       id="path6097" />
  </g>
</svg>
