<?xml version="1.0" encoding="UTF-8" standalone="no"?>
<!-- Created with Inkscape (http://www.inkscape.org/) -->
<svg
   xmlns:dc="http://purl.org/dc/elements/1.1/"
   xmlns:cc="http://creativecommons.org/ns#"
   xmlns:rdf="http://www.w3.org/1999/02/22-rdf-syntax-ns#"
   xmlns:svg="http://www.w3.org/2000/svg"
   xmlns="http://www.w3.org/2000/svg"
   xmlns:sodipodi="http://sodipodi.sourceforge.net/DTD/sodipodi-0.dtd"
   xmlns:inkscape="http://www.inkscape.org/namespaces/inkscape"
   width="982.24152"
   height="1224.2617"
   id="svg5869"
   sodipodi:version="0.32"
   inkscape:version="0.46"
   version="1.0"
   sodipodi:docname="cnidaria.svg"
   inkscape:output_extension="org.inkscape.output.svg.inkscape">
  <defs
     id="defs5871">
    <inkscape:perspective
       sodipodi:type="inkscape:persp3d"
       inkscape:vp_x="0 : 526.18109 : 1"
       inkscape:vp_y="0 : 1000 : 0"
       inkscape:vp_z="744.09448 : 526.18109 : 1"
       inkscape:persp3d-origin="372.04724 : 350.78739 : 1"
       id="perspective5877" />
  </defs>
  <sodipodi:namedview
     id="base"
     pagecolor="#ffffff"
     bordercolor="#666666"
     borderopacity="1.0"
     inkscape:pageopacity="0.0"
     inkscape:pageshadow="2"
     inkscape:zoom="0.35"
     inkscape:cx="350"
     inkscape:cy="520"
     inkscape:document-units="px"
     inkscape:current-layer="layer1"
     showgrid="false"
     inkscape:window-width="640"
     inkscape:window-height="713"
     inkscape:window-x="60"
     inkscape:window-y="62" />
  <metadata
     id="metadata5874">
    <rdf:RDF>
      <cc:Work
         rdf:about="">
        <dc:format>image/svg+xml</dc:format>
        <dc:type
           rdf:resource="http://purl.org/dc/dcmitype/StillImage" />
      </cc:Work>
    </rdf:RDF>
  </metadata>
  <g
     inkscape:label="Ebene 1"
     inkscape:groupmode="layer"
     id="layer1"
     transform="translate(141.12076,79.768651)">
    <path
       style="fill:#000000"
       d="M 325.52393,1143.7815 C 214.55009,1137.8064 168.6554,1113.4979 160.00561,1056.1133 C 155.62572,1027.0563 160.51838,996.6688 184.97487,901.03362 C 205.92424,819.11272 215.66232,775.58236 225.95185,717.8618 C 230.03872,694.93591 234.44945,660.45343 236.69648,633.8618 C 238.31412,614.71844 238.31823,558.97435 236.70323,542.3618 C 230.93341,483.01118 217.26033,438.92004 193.47879,402.97734 C 180.85629,383.90007 160.79225,364.12999 145.26068,355.46568 C 137.45807,351.11299 113.3437,342.39653 81.523933,332.4272 C 15.358263,311.6971 -5.6349869,303.80397 -24.844117,292.43452 C -36.177327,285.72664 -46.098326,277.56618 -52.016966,270.08363 C -61.263275,258.39413 -90.567114,203.98348 -108.68609,164.8618 C -136.50675,104.79265 -145.84038,70.636159 -138.94431,54.131549 C -134.12717,42.602509 -120.62767,38.161909 -108.76298,44.203519 C -95.195378,51.112279 -85.153753,65.116549 -59.364773,113.09535 C -29.136347,169.33347 -21.611587,182.23357 -10.591177,196.71058 C -2.9734969,206.71759 1.3583831,210.52564 12.678313,217.16623 C 60.660813,245.31413 133.85334,280.96368 166.42037,292.04869 C 184.47156,298.19287 202.69746,302.00808 203.99197,299.91352 C 204.90584,298.43484 198.37313,279.83342 191.52919,264.42668 C 188.33718,257.241 174.82605,229.0868 161.50444,201.8618 C 118.00077,112.95453 104.67818,82.397469 95.610493,50.725619 C 89.303533,28.696499 87.604873,9.0410595 90.990213,-2.7365965 C 96.436473,-21.684292 114.24343,-32.39996 132.5081,-27.720767 C 153.911,-22.237599 172.28293,-0.62083454 194.62042,45.361799 C 212.64632,82.468829 224.82726,114.47554 257.03466,209.3618 C 284.45045,290.13152 291.58291,309.85601 301.27021,331.69316 C 305.12249,340.37701 306.01864,341.73249 306.88979,340.19316 C 308.49576,337.35541 308.91632,282.24304 307.6147,245.19576 C 306.98022,227.13708 305.74337,194.1368 304.86613,171.8618 C 302.02986,99.842709 302.74352,26.522569 306.60356,-6.6382005 C 311.25673,-46.612646 320.92504,-68.91966 337.15485,-77.127028 C 344.13019,-80.654437 355.92895,-80.648359 362.92098,-77.113754 C 382.1147,-67.410962 391.28629,-40.683391 395.68348,18.361799 C 397.65295,44.807729 397.09351,121.82423 394.46314,186.3618 C 391.89697,249.32433 391.12664,336.84767 393.10922,340.19316 C 394.0334,341.75268 394.87483,340.49093 398.77765,331.69316 C 408.47267,309.83861 415.59033,290.15075 443.00354,209.3618 C 462.98914,150.46266 468.77962,133.98582 477.92497,109.99271 C 507.7063,31.860519 531.88358,-9.3264895 556.09999,-23.18172 C 577.70992,-35.545667 602.18498,-26.292643 608.93567,-3.2066995 C 612.30163,8.3041675 610.52868,29.651219 604.45639,50.725619 C 595.23549,82.727519 582.20291,112.57972 538.03826,202.8618 C 524.98925,229.5368 511.70329,257.241 508.5139,264.42668 C 501.66868,279.84898 495.14324,298.43681 496.05589,299.91352 C 497.35073,302.00861 515.63214,298.18161 533.52393,292.07001 C 566.56003,280.78531 638.6645,245.67457 687.36955,217.15602 C 698.6831,210.53153 703.01632,206.7242 710.63904,196.71058 C 721.65945,182.23357 729.18421,169.33347 759.41264,113.09535 C 785.25969,65.008509 795.97309,50.147249 809.38781,43.771559 C 818.08166,39.639569 829.16583,41.463099 835.17808,48.014479 C 848.09969,62.094809 840.24165,96.816129 808.73025,164.87607 C 791.03048,203.10495 761.06671,258.74897 752.07699,270.08363 C 746.23402,277.45072 736.36956,285.55965 724.97471,292.36267 C 706.05273,303.65957 685.06425,311.56434 618.81743,332.3441 C 586.85483,342.36987 562.47413,351.17309 554.78718,355.4637 C 545.84224,360.45649 535.44246,369.05168 524.52393,380.4756 C 481.6039,425.38232 459.13494,504.47495 461.92014,600.84621 C 464.14654,677.88242 478.22107,757.15494 515.53698,902.83454 C 539.40185,996.0019 544.3952,1027.235 540.04225,1056.1133 C 532.08107,1108.9295 492.24652,1133.5823 401.52393,1141.8396 C 371.14923,1144.6042 350.56934,1145.13 325.52393,1143.7815 z M 376.81258,1116.8298 C 455.65952,1112.1023 494.73991,1098.5635 507.89744,1071.4177 C 513.22611,1060.4239 514.03578,1055.5829 513.92793,1035.3618 C 513.77984,1007.594 510.95049,993.493 484.63328,889.3618 C 451.31931,757.54597 438.19307,682.15179 435.54699,607.42104 C 432.7299,527.86077 444.42095,463.25769 471.14857,410.69168 C 488.80478,375.96668 514.97856,347.07581 543.05774,331.31767 C 552.65626,325.93094 582.56302,315.4837 636.02393,298.84205 C 690.43146,281.90574 716.38846,269.81011 729.21933,255.41419 C 741.56793,241.55937 782.99864,160.8265 800.86306,115.80751 C 807.19995,99.838319 814.25085,77.255379 813.22133,76.225869 C 812.53761,75.542139 804.86659,86.547779 798.83792,96.861799 C 796.10532,101.5368 788.08721,116.1618 781.01989,129.3618 C 773.95258,142.5618 763.94061,161.0118 758.77107,170.3618 C 742.01396,200.66995 725.70816,223.15861 714.26854,231.73885 C 702.83077,240.3177 640.982,273.65263 603.02393,291.69689 C 553.44875,315.26361 519.04135,326.83098 498.45207,326.85274 C 487.91484,326.86388 482.13127,325.02878 476.17231,319.78349 C 466.4012,311.18262 466.23714,299.20408 475.55094,274.41462 C 481.72153,257.99104 489.98507,240.12732 516.05178,186.8618 C 561.30719,94.385509 573.09737,66.684849 581.17292,33.861799 C 584.25158,21.348579 584.85233,7.0826035 582.49942,2.3617995 C 580.17859,-2.2946255 574.98339,-3.1835465 569.35788,0.11322346 C 551.02673,10.855993 528.6603,51.344599 501.94093,122.15409 C 491.68252,149.34008 485.17102,167.90907 464.52224,228.8618 C 454.74034,257.7368 444.48644,287.6618 441.7358,295.3618 C 423.40575,346.6739 410.11986,371.50659 398.06832,376.98078 C 389.62835,380.81449 379.83612,378.10994 374.65039,370.51291 C 363.82027,354.64693 362.4953,321.05303 367.64368,192.8618 C 370.22643,128.5531 370.76074,40.399749 368.71954,15.361799 C 365.70501,-21.615268 360.16487,-44.736318 352.70368,-51.478334 C 349.64261,-54.244347 347.15843,-52.805849 343.6595,-46.241181 C 337.68915,-35.039652 333.78025,-15.36253 331.32262,15.861799 C 329.28131,41.796859 329.81348,129.80174 332.39598,193.3618 C 338.25775,337.63111 335.8955,368.21032 318.2282,376.76291 C 305.21946,383.06034 293.68348,375.22828 281.63567,351.91935 C 270.94903,331.24389 263.2336,310.71776 236.508,231.8618 C 203.69554,135.0461 191.55124,102.35536 174.28334,64.361799 C 155.50976,23.055369 134.60083,-3.8760175 122.99533,-1.6988135 C 117.49132,-0.66625454 116.00906,2.5631045 116.10245,13.318566 C 116.22557,27.497449 120.39489,43.993919 130.45844,70.119859 C 141.90691,99.841209 149.47165,116.34723 183.50317,185.8618 C 210.01287,240.01189 218.28483,257.8806 224.49692,274.41462 C 233.81072,299.20408 233.64666,311.18262 223.87555,319.78349 C 217.91659,325.02878 212.13302,326.86388 201.59579,326.85274 C 178.2785,326.8281 139.5022,312.85315 78.023933,282.31756 C 46.380463,266.60058 1.4227131,242.21192 -10.739227,234.16535 C -22.086977,226.65746 -35.221497,210.43664 -49.852165,185.8618 C -53.945206,178.9868 -66.26762,156.70191 -77.235308,136.33981 C -99.963187,94.144309 -111.62323,74.675629 -113.21403,76.266429 C -114.20546,77.257859 -107.04521,100.10881 -100.82398,115.80751 C -82.874153,161.10223 -41.659452,241.40299 -29.168617,255.4174 C -16.340777,269.8099 9.6205631,281.90703 64.023933,298.84205 C 137.0946,321.58794 153.07234,327.72029 170.38443,339.66384 C 180.25129,346.47094 202.99234,369.68632 211.23044,381.3618 C 240.99501,423.54576 257.84343,475.9591 263.62726,544.3618 C 265.10993,561.89667 265.09347,611.63463 263.59864,630.8618 C 258.06498,702.03786 245.15782,771.65276 216.36316,885.62675 C 188.92841,994.218 186.26914,1007.3841 186.11993,1035.3618 C 186.01208,1055.5829 186.82175,1060.4239 192.15042,1071.4177 C 202.19805,1092.1473 227.23589,1104.7076 272.52393,1111.7371 C 306.57365,1117.0222 343.51657,1118.8262 376.81258,1116.8298 z"
       id="path5867" />
  </g>
</svg>
