<?xml version="1.0" encoding="UTF-8" standalone="no"?>
<!-- Created with Inkscape (http://www.inkscape.org/) -->
<svg
   xmlns:dc="http://purl.org/dc/elements/1.1/"
   xmlns:cc="http://creativecommons.org/ns#"
   xmlns:rdf="http://www.w3.org/1999/02/22-rdf-syntax-ns#"
   xmlns:svg="http://www.w3.org/2000/svg"
   xmlns="http://www.w3.org/2000/svg"
   xmlns:sodipodi="http://sodipodi.sourceforge.net/DTD/sodipodi-0.dtd"
   xmlns:inkscape="http://www.inkscape.org/namespaces/inkscape"
   width="973.99231"
   height="526.9917"
   id="svg5538"
   sodipodi:version="0.32"
   inkscape:version="0.46"
   version="1.0"
   sodipodi:docname="diatomeen.svg"
   inkscape:output_extension="org.inkscape.output.svg.inkscape">
  <defs
     id="defs5540">
    <inkscape:perspective
       sodipodi:type="inkscape:persp3d"
       inkscape:vp_x="0 : 526.18109 : 1"
       inkscape:vp_y="0 : 1000 : 0"
       inkscape:vp_z="744.09448 : 526.18109 : 1"
       inkscape:persp3d-origin="372.04724 : 350.78739 : 1"
       id="perspective5546" />
  </defs>
  <sodipodi:namedview
     id="base"
     pagecolor="#ffffff"
     bordercolor="#666666"
     borderopacity="1.0"
     inkscape:pageopacity="0.0"
     inkscape:pageshadow="2"
     inkscape:zoom="0.35"
     inkscape:cx="350"
     inkscape:cy="520"
     inkscape:document-units="px"
     inkscape:current-layer="layer1"
     showgrid="false"
     inkscape:window-width="640"
     inkscape:window-height="713"
     inkscape:window-x="340"
     inkscape:window-y="342" />
  <metadata
     id="metadata5543">
    <rdf:RDF>
      <cc:Work
         rdf:about="">
        <dc:format>image/svg+xml</dc:format>
        <dc:type
           rdf:resource="http://purl.org/dc/dcmitype/StillImage" />
      </cc:Work>
    </rdf:RDF>
  </metadata>
  <g
     inkscape:label="Ebene 1"
     inkscape:groupmode="layer"
     id="layer1"
     transform="translate(136.99615,-268.86634)">
    <path
       style="fill:#000000"
       d="M 331.99615,795.64159 C 269.9925,791.5102 209.01301,777.45059 146.99615,752.98745 C 31.664817,707.49391 -77.6562,629.95161 -121.86836,562.27964 C -129.01371,551.34284 -136.9863,535.4466 -136.99614,532.11696 C -137.0067,528.5436 -127.74056,510.59776 -120.25667,499.69741 C -91.060416,457.17285 -38.485434,411.31318 26.996147,371.25295 C 90.961407,332.12036 158.78488,303.03679 226.49615,285.70479 C 273.25635,273.73562 309.39551,268.84787 350.99615,268.86639 C 392.39359,268.88482 430.11286,274.74723 473.49615,287.90562 C 481.74615,290.40789 490.03902,292.89724 491.92476,293.43751 C 493.8105,293.97778 503.7105,297.5543 513.92476,301.38533 C 605.88192,335.87539 704.82421,396.56868 779.49615,464.29242 C 810.24829,492.18309 836.99615,523.80729 836.99615,532.27513 C 836.99615,537.62697 820.36951,559.70934 802.14117,578.56714 C 785.51498,595.76747 750.53238,625.85887 724.49615,645.35599 C 613.30338,728.6222 492.78256,782.17383 390.49615,793.76389 C 377.61686,795.22324 342.59042,796.3475 331.99615,795.64159 z M 378.49615,773.2251 C 461.87012,765.64251 555.66378,730.03703 651.13212,669.72837 C 717.92502,627.53437 782.19311,573.56891 810.41793,535.97718 L 813.23353,532.22718 L 810.42695,528.47718 C 798.05619,511.94804 769.15212,482.95348 744.90113,462.74622 C 667.67444,398.39667 574.55559,344.60992 490.99615,316.08714 C 418.89723,291.47638 360.45348,285.06029 292.99615,294.35022 C 210.22849,305.74864 120.09752,339.5878 36.748947,390.55679 C -31.871263,432.51915 -90.166296,485.94688 -110.91578,525.89237 L -114.11826,532.05757 L -111.13723,537.96297 C -94.05976,571.79324 -47.489159,617.33805 9.9961473,656.42819 C 104.96785,721.00916 217.21923,763.73583 315.49615,772.7118 C 332.88391,774.29989 363.89976,774.55259 378.49615,773.2251 z M 110.99615,539.19764 C 50.771147,536.56869 1.3836473,534.37485 1.2461473,534.32245 C 0.59703733,534.07508 1.0902073,513.22122 1.7461473,513.17963 C 2.1586473,513.15347 54.358647,515.27756 117.74615,517.89981 L 232.99615,522.66755 L 232.98904,526.69736 C 232.98513,528.91376 232.69506,533.76468 232.34444,537.47718 L 231.70694,544.22718 L 226.10155,544.10237 C 223.01858,544.03372 171.22115,541.82659 110.99615,539.19764 z M 461.21232,533.47718 L 461.49615,522.72718 L 572.24615,522.47281 L 682.99615,522.21845 L 682.99615,533.22281 L 682.99615,544.22718 L 571.96232,544.22718 L 460.92849,544.22718 L 461.21232,533.47718 z"
       id="path5536" />
  </g>
</svg>
