<?xml version="1.0" encoding="UTF-8" standalone="no"?>
<!-- Created with Inkscape (http://www.inkscape.org/) -->
<svg
   xmlns:dc="http://purl.org/dc/elements/1.1/"
   xmlns:cc="http://creativecommons.org/ns#"
   xmlns:rdf="http://www.w3.org/1999/02/22-rdf-syntax-ns#"
   xmlns:svg="http://www.w3.org/2000/svg"
   xmlns="http://www.w3.org/2000/svg"
   xmlns:sodipodi="http://sodipodi.sourceforge.net/DTD/sodipodi-0.dtd"
   xmlns:inkscape="http://www.inkscape.org/namespaces/inkscape"
   width="986.229"
   height="680.65509"
   id="svg2795"
   sodipodi:version="0.32"
   inkscape:version="0.46"
   version="1.0"
   sodipodi:docname="pelecypoden.svg"
   inkscape:output_extension="org.inkscape.output.svg.inkscape">
  <defs
     id="defs2797">
    <inkscape:perspective
       sodipodi:type="inkscape:persp3d"
       inkscape:vp_x="0 : 526.18109 : 1"
       inkscape:vp_y="0 : 1000 : 0"
       inkscape:vp_z="744.09448 : 526.18109 : 1"
       inkscape:persp3d-origin="372.04724 : 350.78739 : 1"
       id="perspective2803" />
  </defs>
  <sodipodi:namedview
     id="base"
     pagecolor="#ffffff"
     bordercolor="#666666"
     borderopacity="1.0"
     inkscape:pageopacity="0.0"
     inkscape:pageshadow="2"
     inkscape:zoom="0.35"
     inkscape:cx="350"
     inkscape:cy="520"
     inkscape:document-units="px"
     inkscape:current-layer="layer1"
     showgrid="false"
     inkscape:window-width="640"
     inkscape:window-height="713"
     inkscape:window-x="82"
     inkscape:window-y="90" />
  <metadata
     id="metadata2800">
    <rdf:RDF>
      <cc:Work
         rdf:about="">
        <dc:format>image/svg+xml</dc:format>
        <dc:type
           rdf:resource="http://purl.org/dc/dcmitype/StillImage" />
      </cc:Work>
    </rdf:RDF>
  </metadata>
  <g
     inkscape:label="Ebene 1"
     inkscape:groupmode="layer"
     id="layer1"
     transform="translate(143.11449,-192.03465)">
    <path
       style="fill:#000000"
       d="M 219.28554,872.2569 C 167.37745,870.26254 111.77858,859.32762 62.785543,841.47721 C -3.5183365,817.31967 -65.456398,777.69734 -103.99935,734.78342 C -125.44473,710.90603 -137.71264,690.21157 -141.76993,671.06909 C -144.5346,658.02523 -143.45852,652.49 -134.53736,633.86539 C -119.09013,601.61643 -97.205657,571.63054 -43.712131,509.41757 C -29.524687,492.91757 -12.929407,473.37934 -6.8337365,465.99928 C 8.5711435,447.34851 20.018633,437.94781 51.854273,417.80461 C 121.9404,373.45935 285.8012,292.09376 451.78554,219.21749 C 498.26131,198.81207 513.18678,192.98719 520.8134,192.27837 C 539.58407,190.53382 580.59083,198.30487 618.45466,210.78203 C 714.09011,242.29652 784.16243,294.84891 818.64239,360.91757 C 835.68034,393.56479 843.09805,425.8459 843.11445,467.41757 C 843.12412,491.91442 841.27039,507.66245 835.87519,528.91757 C 818.29965,598.15867 771.89741,661.9971 699.48566,716.55706 C 631.12824,768.06222 540.71275,810.57182 434.09529,841.33257 C 348.85481,865.92573 286.84586,874.85263 219.28554,872.2569 z M 300.28554,848.06126 C 351.8669,841.96933 405.03026,829.22372 471.78554,806.94512 C 568.00702,774.8326 641.69548,736.41926 703.78554,686.00494 C 718.08423,674.39505 750.54198,641.85833 761.23314,628.41757 C 795.15461,585.77201 815.66442,538.98494 820.7239,492.70698 C 821.80245,482.84173 822.06192,467.1796 821.10145,469.91757 C 820.81204,470.74257 818.31135,476.59257 815.54436,482.91757 C 790.10466,541.06958 733.61062,602.79791 644.28554,670.04389 C 617.50712,690.20329 602.39636,699.34714 575.33054,711.77005 C 513.76024,740.03012 433.99279,758.22154 339.78554,765.48743 C 311.34636,767.68084 247.94069,768.47432 218.78554,767.00166 C 165.49485,764.30987 118.52773,758.74694 90.597713,751.81868 C 12.021993,732.32737 -31.180027,675.33901 -31.211037,591.13913 C -31.217267,574.2212 -27.020967,541.53693 -22.703467,524.87516 C -21.827477,521.49459 -21.255337,518.29493 -21.432047,517.7648 C -21.722947,516.89209 -36.558387,533.75265 -56.322137,557.41757 C -85.428889,592.26971 -104.27041,619.90121 -116.25787,645.3146 C -123.10648,659.83366 -122.94404,666.23207 -115.32179,682.18601 C -105.24369,703.2802 -79.116739,732.75129 -50.714457,755.06281 C 11.190263,803.69227 93.862173,836.95345 178.78554,847.39694 C 203.55397,850.44285 210.83302,850.7665 246.78554,850.42039 C 275.25843,850.14629 287.0242,849.62747 300.28554,848.06126 z M 302.78554,745.90939 C 419.29261,741.1788 514.22535,720.11005 584.67585,683.34851 C 599.92196,675.39298 613.0082,666.87706 631.25935,653.03409 C 708.4687,594.47308 759.13644,542.3636 786.45967,493.41757 C 802.33425,464.98031 810.94668,435.884 811.17542,409.91757 C 811.27694,398.39418 811.06005,396.83161 808.3994,389.91757 C 803.93442,378.31474 796.35178,364.04809 787.70049,350.97278 C 783.3628,344.41693 779.41134,338.80434 778.91946,338.50034 C 778.42759,338.19634 777.04048,342.20875 775.83701,347.4168 C 768.37807,379.69556 748.27846,410.54173 710.64347,447.46705 C 682.96897,474.61972 652.92174,498.39994 606.28554,530.05888 C 574.12244,551.89276 547.46169,566.22097 515.39223,578.90738 C 447.84064,605.63024 367.50796,615.01897 293.85225,604.79943 C 244.3508,597.93123 195.46415,581.15735 173.81155,563.61132 C 150.35259,544.60151 138.35087,514.38383 140.1733,478.91757 C 141.6595,449.99475 150.82511,417.08055 165.90283,386.52143 C 168.58832,381.07856 170.78554,376.42974 170.78554,376.19072 C 170.78554,375.67824 150.01698,386.53704 126.78554,399.19604 C 76.363423,426.67146 38.264063,450.70822 24.112563,463.97207 C 12.098163,475.23288 -3.9238065,526.49179 -8.2731365,567.58329 C -9.8165465,582.16507 -8.9882865,614.43243 -6.7629265,626.41757 C 3.9888035,684.32349 42.897483,720.86707 107.60341,733.83206 C 112.92858,734.89905 126.06054,736.91062 136.78554,738.3022 C 191.7368,745.43223 249.42662,748.07595 302.78554,745.90939 z M 397.28554,585.31754 C 448.0813,580.09214 495.72674,566.44434 539.78554,544.49912 C 559.49538,534.68186 571.27825,527.67474 595.28554,511.49401 C 663.05333,465.81903 709.0478,424.78824 733.96494,387.78076 C 749.84642,364.19326 756.7181,345.21656 757.06086,323.99954 L 757.21302,314.58151 L 749.24928,307.14022 C 744.86922,303.04751 735.93481,295.66137 729.39504,290.72657 C 716.6387,281.10087 715.83061,280.94473 715.80085,288.09999 C 715.78091,292.89558 710.63397,312.6321 707.25855,320.85642 C 691.94616,358.16553 664.28358,392.40637 622.78554,425.41741 C 565.24937,471.18653 497.53618,494.94249 424.78554,494.88214 C 381.33204,494.8461 350.13532,488.54045 319.78554,473.65896 C 308.94958,468.34573 306.27454,466.5194 299.69109,459.93983 C 290.86203,451.11601 284.82409,440.15905 282.04488,427.91757 C 279.46229,416.54216 279.75612,394.51297 282.67631,380.57632 C 286.88428,360.49377 293.87896,340.83884 304.40962,319.5061 C 307.37209,313.50479 309.64288,308.44158 309.45581,308.25451 C 309.02312,307.82181 275.87853,323.47714 237.57213,342.20765 L 207.85872,356.73648 L 202.43104,365.07702 C 177.38214,403.56889 161.80147,449.24686 161.78956,484.22602 C 161.77712,520.74616 173.81859,541.86548 203.016,556.53239 C 252.6176,581.44905 327.30867,592.51612 397.28554,585.31754 z M 461.28554,471.4389 C 531.99058,462.0572 591.50092,431.41992 643.37218,377.69653 C 677.17724,342.68442 695.85483,305.40531 694.61602,275.41757 L 694.28554,267.41757 L 684.78554,262.17097 C 679.56054,259.28534 674.94804,256.92284 674.53554,256.92097 C 674.12304,256.9191 673.77773,257.93007 673.76818,259.16757 C 673.72856,264.30103 670.6173,275.59727 666.96094,283.88299 C 649.09596,324.36709 596.86664,357.31278 534.28554,367.5732 C 518.08162,370.22989 492.10753,370.00344 481.21603,367.11052 C 450.84837,359.04448 432.62409,339.41787 426.25247,307.91757 C 424.02259,296.89338 424.74416,273.39221 427.67986,261.42827 C 428.75808,257.03415 429.48396,253.28266 429.29292,253.09162 C 428.93065,252.72935 361.51533,283.03942 351.61592,288.01537 C 346.72544,290.47358 345.20097,292.00254 340.52262,299.14139 C 322.48713,326.66233 308.33794,360.01561 303.34524,386.77804 C 301.5674,396.30779 301.29591,414.06278 302.80625,422.02675 C 304.34855,430.15928 308.92209,438.95888 314.51189,444.54868 C 327.71312,457.74991 361.98353,469.15841 399.78554,472.93597 C 412.01693,474.15826 447.256,473.30045 461.28554,471.4389 z M 530.6572,346.37216 C 582.28266,338.86559 629.68087,310.56717 646.70639,277.08665 C 649.73669,271.1276 652.78554,258.68539 652.78554,252.27794 C 652.78554,247.13498 652.66094,246.89512 649.03554,245.05921 C 643.74238,242.37873 617.18416,232.56351 605.28554,228.89036 C 592.16695,224.8406 566.72375,218.57509 554.78554,216.45448 C 549.56054,215.52635 539.43554,214.5347 532.28554,214.2508 L 519.28554,213.73463 L 501.28554,221.23323 C 491.38554,225.35746 477.88554,231.13613 471.28554,234.07471 L 459.28554,239.41757 L 455.49255,247.10997 C 449.23212,259.80649 446.52617,272.01186 446.44544,287.91757 C 446.39586,297.68813 446.85239,303.21323 448.09802,307.91757 C 453.51877,328.39007 466.64211,341.54373 486.42401,346.33211 C 494.42939,348.26988 517.46244,348.29074 530.6572,346.37216 z"
       id="path2793" />
  </g>
</svg>
