<?xml version="1.0" encoding="UTF-8" standalone="no"?>
<!-- Created with Inkscape (http://www.inkscape.org/) -->
<svg
   xmlns:dc="http://purl.org/dc/elements/1.1/"
   xmlns:cc="http://creativecommons.org/ns#"
   xmlns:rdf="http://www.w3.org/1999/02/22-rdf-syntax-ns#"
   xmlns:svg="http://www.w3.org/2000/svg"
   xmlns="http://www.w3.org/2000/svg"
   xmlns:sodipodi="http://sodipodi.sourceforge.net/DTD/sodipodi-0.dtd"
   xmlns:inkscape="http://www.inkscape.org/namespaces/inkscape"
   width="54.166943"
   height="12.509347"
   id="svg8467"
   sodipodi:version="0.32"
   inkscape:version="0.46"
   sodipodi:docname="gipslagen.svg"
   inkscape:output_extension="org.inkscape.output.svg.inkscape"
   version="1.0">
  <defs
     id="defs8469">
    <inkscape:perspective
       sodipodi:type="inkscape:persp3d"
       inkscape:vp_x="0 : 526.18109 : 1"
       inkscape:vp_y="0 : 1000 : 0"
       inkscape:vp_z="744.09448 : 526.18109 : 1"
       inkscape:persp3d-origin="372.04724 : 350.78739 : 1"
       id="perspective8475" />
  </defs>
  <sodipodi:namedview
     id="base"
     pagecolor="#ffffff"
     bordercolor="#666666"
     borderopacity="1.0"
     inkscape:pageopacity="0.0"
     inkscape:pageshadow="2"
     inkscape:zoom="0.51028059"
     inkscape:cx="372.04724"
     inkscape:cy="526.18109"
     inkscape:document-units="px"
     inkscape:current-layer="layer1"
     showgrid="false"
     inkscape:window-width="1280"
     inkscape:window-height="752"
     inkscape:window-x="20"
     inkscape:window-y="42" />
  <metadata
     id="metadata8472">
    <rdf:RDF>
      <cc:Work
         rdf:about="">
        <dc:format>image/svg+xml</dc:format>
        <dc:type
           rdf:resource="http://purl.org/dc/dcmitype/StillImage" />
      </cc:Work>
    </rdf:RDF>
  </metadata>
  <g
     inkscape:label="Ebene 1"
     inkscape:groupmode="layer"
     id="layer1"
     transform="translate(-285.3307,-400.93215)">
    <path
       style="fill:none;fill-rule:evenodd;stroke:#000000;stroke-width:1px;stroke-linecap:butt;stroke-linejoin:miter;stroke-opacity:1"
       d="M 323.6564,411.17707 L 325.97153,407.833 L 327.77218,411.17707"
       id="path24492" />
    <path
       style="fill:none;fill-rule:evenodd;stroke:#000000;stroke-width:1px;stroke-linecap:butt;stroke-linejoin:miter;stroke-opacity:1"
       d="M 295.92086,406.29272 C 297.43741,406.14598 305.12171,397.518 317.29219,403.60132 C 318.49333,404.2017 320.52321,403.94774 321.90221,403.94774 C 323.84524,403.94774 324.51858,404.46998 326.45894,404.74717 C 327.93843,404.95853 330.67813,405.68161 332.13486,405.97295 C 333.45335,406.23665 334.81473,406.43356 336.18528,406.58585 C 337.51026,406.73307 336.40689,407.65175 337.73084,407.65175 C 338.12729,407.65175 338.00245,407.73136 338.2105,408.07811 C 338.40852,408.40813 339.10589,408.25385 338.98328,408.7443 C 338.87131,409.19217 336.24105,410.01641 335.75893,410.07667 C 334.84503,410.19091 334.20009,410.54965 333.3873,410.95604 C 332.33578,411.4818 331.01604,411.28092 330.00306,411.88871 C 329.02979,412.47267 327.37035,412.73742 326.27241,412.87466 C 324.14487,413.14061 322.00669,412.56103 319.95694,412.04859 C 318.63366,411.71777 318.06284,410.90317 316.73259,411.16922 C 316.64165,411.18741 316.55494,411.22252 316.46611,411.24916 C 315.26319,411.61004 312.29757,410.43654 309.32458,411.70217 C 307.29708,412.56529 303.24703,412.79663 303.51541,412.52824 C 303.57724,412.46642 294.70782,410.59398 294.80167,410.60962 C 294.95292,410.63483 289.3323,409.19218 289.17904,409.19731 C 278.8219,409.54213 295.78651,406.23898 295.92086,406.29272 z"
       id="path8478"
       sodipodi:nodetypes="csssssssssssssssssssc" />
    <path
       style="fill:none;fill-rule:evenodd;stroke:#000000;stroke-width:1px;stroke-linecap:butt;stroke-linejoin:miter;stroke-opacity:1"
       d="M 314.30163,409.1639 L 316.61676,405.81983 L 318.41741,409.1639"
       id="path8480" />
    <path
       style="fill:none;fill-rule:evenodd;stroke:#000000;stroke-width:1px;stroke-linecap:butt;stroke-linejoin:miter;stroke-opacity:1"
       d="M 304.06897,409.00402 L 306.3841,405.65995 L 308.18475,409.00402"
       id="path8482" />
    <path
       style="fill:none;fill-rule:evenodd;stroke:#000000;stroke-width:1px;stroke-linecap:butt;stroke-linejoin:miter;stroke-opacity:1"
       d="M 296.98074,409.96332 L 299.29587,406.61925 L 301.09652,409.96332"
       id="path8484" />
  </g>
</svg>
