<?xml version="1.0" encoding="UTF-8" standalone="no"?>
<!-- Created with Inkscape (http://www.inkscape.org/) -->
<svg
   xmlns:dc="http://purl.org/dc/elements/1.1/"
   xmlns:cc="http://creativecommons.org/ns#"
   xmlns:rdf="http://www.w3.org/1999/02/22-rdf-syntax-ns#"
   xmlns:svg="http://www.w3.org/2000/svg"
   xmlns="http://www.w3.org/2000/svg"
   xmlns:sodipodi="http://sodipodi.sourceforge.net/DTD/sodipodi-0.dtd"
   xmlns:inkscape="http://www.inkscape.org/namespaces/inkscape"
   width="482.5"
   height="8.7903557"
   id="svg18233"
   sodipodi:version="0.32"
   inkscape:version="0.46"
   version="1.0"
   sodipodi:docname="erosiv.svg"
   inkscape:output_extension="org.inkscape.output.svg.inkscape">
  <defs
     id="defs18235">
    <inkscape:perspective
       sodipodi:type="inkscape:persp3d"
       inkscape:vp_x="0 : 526.18109 : 1"
       inkscape:vp_y="0 : 1000 : 0"
       inkscape:vp_z="744.09448 : 526.18109 : 1"
       inkscape:persp3d-origin="372.04724 : 350.78739 : 1"
       id="perspective18241" />
  </defs>
  <sodipodi:namedview
     id="base"
     pagecolor="#ffffff"
     bordercolor="#666666"
     borderopacity="1.0"
     inkscape:pageopacity="0.0"
     inkscape:pageshadow="2"
     inkscape:zoom="11.107151"
     inkscape:cx="-434.10775"
     inkscape:cy="10.886518"
     inkscape:document-units="px"
     inkscape:current-layer="layer1"
     showgrid="false"
     units="cm"
     inkscape:window-width="1280"
     inkscape:window-height="752"
     inkscape:window-x="40"
     inkscape:window-y="48"
     showguides="true"
     inkscape:guide-bbox="true">
    <sodipodi:guide
       orientation="1,0"
       position="-20.982713,145.29539"
       id="guide5680" />
  </sodipodi:namedview>
  <metadata
     id="metadata18238">
    <rdf:RDF>
      <cc:Work
         rdf:about="">
        <dc:format>image/svg+xml</dc:format>
        <dc:type
           rdf:resource="http://purl.org/dc/dcmitype/StillImage" />
      </cc:Work>
    </rdf:RDF>
  </metadata>
  <g
     inkscape:label="Ebene 1"
     inkscape:groupmode="layer"
     id="layer1"
     transform="translate(-62.543664,-9.1691145)">
    <path
       style="fill:none;fill-rule:evenodd;stroke:#000000;stroke-width:2.5;stroke-linecap:butt;stroke-linejoin:miter;stroke-miterlimit:4;stroke-dasharray:none;stroke-opacity:1"
       d="M 63.793664,11.045706 C 63.793664,11.045706 67.883071,13.664591 69.879885,14.088817 C 72.859573,14.721856 77.103497,14.499728 80.023588,13.632351 C 80.971658,13.350738 81.917555,12.246248 82.863824,11.95864 C 87.413467,10.575827 94.004352,10.224205 98.688,11.045706 C 99.601088,11.20586 100.67755,11.894577 101.52824,12.262951 C 102.99132,12.896508 104.83078,14.095989 106.39721,14.393128 C 108.79073,14.847159 112.38616,15.278413 114.51218,14.088817 C 114.89518,13.874511 114.92041,13.044787 115.32367,12.871573 C 116.79925,12.237754 119.01793,13.49958 120.5984,13.784506 C 121.57345,13.960287 122.85383,14.41366 123.84438,14.393128 C 125.46804,14.359473 127.5148,13.428059 129.11911,13.175884 C 131.77415,12.758548 135.74207,11.030421 138.04556,12.415106 C 139.10892,13.054319 142.64049,15.649857 143.74295,16.218995 C 147.17453,17.99053 148.51333,14.467932 152.24675,13.480195 C 154.46593,12.893076 157.26199,11.380899 159.55021,11.197862 C 162.73761,10.942898 167.01898,11.862724 170.09966,12.719417 C 171.11793,13.002582 172.29672,13.959135 173.34564,14.088817 C 177.50168,14.602645 182.97175,12.350201 187.14108,11.95864 C 188.47496,11.83337 190.28218,11.589935 191.60431,11.806484 C 192.11748,11.890535 192.73312,12.253273 193.2273,12.415106 C 194.66931,12.88733 192.4158,12.415106 198.09628,13.784506 C 203.77676,15.153906 209.21294,15.540773 213.92046,14.849595 C 214.94944,14.698516 216.22978,14.084342 217.16644,13.632351 C 217.80567,13.323884 217.97794,13.175884 219.19518,12.415106 C 220.41243,11.654329 222.49261,10.563556 224.06416,10.437084 C 226.30475,10.25677 229.21073,11.4779 231.36763,12.110795 C 234.47108,13.021433 238.2933,15.438441 241.51132,15.762528 C 245.91747,16.206272 251.96091,15.157945 256.11826,13.632351 C 256.9268,13.335647 257.72126,12.335269 258.55275,12.110795 C 261.37454,11.349009 265.73559,10.995875 268.2907,12.415106 C 268.86621,12.73477 268.92752,13.930337 269.50795,14.240973 C 273.2642,16.251251 279.50507,14.93128 283.70913,14.240973 C 284.97685,14.032812 286.69541,13.580795 287.76661,12.871573 C 287.91938,12.770426 288.01021,12.500404 288.17236,12.415106 C 288.82376,12.07245 285.73787,12.415106 290.60684,12.110795 C 295.47583,11.806484 296.77586,10.800459 299.12756,11.806484 C 299.63292,12.02267 299.84702,12.942777 300.3448,13.175884 C 306.852,16.223163 317.95657,17.341634 324.28394,13.936662 C 324.89751,13.606482 324.807,12.018551 325.50118,11.95864 C 335.8101,11.068942 354.24692,17.323844 366.88749,10.741395 C 368.42194,9.9423466 369.70356,13.864106 371.35072,14.393128 C 375.41537,15.698583 381.96351,15.793005 385.5519,13.480195 C 385.76932,13.340063 385.74911,12.872454 385.95765,12.719417 C 387.15579,11.840151 389.34515,11.924189 390.82663,11.806484 C 392.52603,11.671466 394.81193,11.778167 396.5071,11.95864 C 398.4775,12.168415 401.02342,13.02335 402.99907,13.175884 C 404.45614,13.28838 406.41949,13.217156 407.86804,13.023728 C 409.2325,12.841528 410.95471,11.95938 412.33128,11.95864 C 416.08459,11.956623 420.75754,14.618294 424.50372,14.849595 C 426.58163,14.977892 429.73866,15.341539 431.40144,14.088817 C 431.91373,13.702865 431.73775,12.54161 432.21293,12.110795 C 432.68368,11.683997 433.61215,11.588547 434.24168,11.502173 C 436.654,11.171191 439.94779,11.29899 442.35664,11.654329 C 442.85701,11.728141 443.53661,11.866759 443.97963,12.110795 C 444.69683,12.505863 445.24503,13.640386 446.00837,13.936662 C 451.56889,16.094882 459.93551,14.436665 465.89003,14.088817 C 468.09436,13.960046 471.06445,13.761408 473.19349,13.175884 C 473.96214,12.964493 474.86614,12.345525 475.62798,12.110795 C 476.33811,11.891998 477.3208,11.699973 478.06247,11.654329 C 479.52325,11.56443 481.49645,11.67099 482.93144,11.95864 C 484.57332,12.28776 486.54853,13.547213 488.20617,13.784506 C 490.98089,14.18171 494.76557,13.738395 497.53838,13.328039 C 498.65545,13.162721 500.06106,12.435495 501.19011,12.415106 C 504.0515,12.363433 507.66583,14.217889 510.52232,14.393128 C 513.69302,14.587643 518.92454,15.821263 521.07176,13.480195 C 521.13347,13.412916 521.07176,14.088817 521.07176,13.175884 C 521.07176,12.262951 521.54133,12.321627 521.88326,12.110795 C 522.7266,11.590796 524.14463,11.612331 525.12925,11.502173 C 526.3398,11.366739 527.96884,11.372844 529.18673,11.350017 C 529.30843,11.347736 529.47585,11.315165 529.59248,11.350017 C 530.70848,11.683505 530.80972,13.480195 532.83846,13.480195 C 534.8672,13.480195 539.15983,13.802928 541.76492,13.175884 C 542.28773,13.050045 542.86305,12.532019 543.38792,12.415106 C 543.50673,12.388642 543.79366,12.415106 543.79366,12.415106"
       id="path10742"
       sodipodi:nodetypes="cssssssssssssssssssssssssssssssssssssssssssssssssssssssssssssssssssssssssss" />
  </g>
</svg>
