<?xml version="1.0" encoding="UTF-8" standalone="no"?>
<!-- Created with Inkscape (http://www.inkscape.org/) -->
<svg
   xmlns:dc="http://purl.org/dc/elements/1.1/"
   xmlns:cc="http://creativecommons.org/ns#"
   xmlns:rdf="http://www.w3.org/1999/02/22-rdf-syntax-ns#"
   xmlns:svg="http://www.w3.org/2000/svg"
   xmlns="http://www.w3.org/2000/svg"
   xmlns:sodipodi="http://sodipodi.sourceforge.net/DTD/sodipodi-0.dtd"
   xmlns:inkscape="http://www.inkscape.org/namespaces/inkscape"
   width="930.62781"
   height="1529.9"
   id="svg5984"
   sodipodi:version="0.32"
   inkscape:version="0.46"
   version="1.0"
   sodipodi:docname="chitinozoa.svg"
   inkscape:output_extension="org.inkscape.output.svg.inkscape">
  <defs
     id="defs5986">
    <inkscape:perspective
       sodipodi:type="inkscape:persp3d"
       inkscape:vp_x="0 : 526.18109 : 1"
       inkscape:vp_y="0 : 1000 : 0"
       inkscape:vp_z="744.09448 : 526.18109 : 1"
       inkscape:persp3d-origin="372.04724 : 350.78739 : 1"
       id="perspective5992" />
  </defs>
  <sodipodi:namedview
     id="base"
     pagecolor="#ffffff"
     bordercolor="#666666"
     borderopacity="1.0"
     inkscape:pageopacity="0.0"
     inkscape:pageshadow="2"
     inkscape:zoom="0.35"
     inkscape:cx="350"
     inkscape:cy="520"
     inkscape:document-units="px"
     inkscape:current-layer="layer1"
     showgrid="false"
     inkscape:window-width="640"
     inkscape:window-height="713"
     inkscape:window-x="60"
     inkscape:window-y="62" />
  <metadata
     id="metadata5989">
    <rdf:RDF>
      <cc:Work
         rdf:about="">
        <dc:format>image/svg+xml</dc:format>
        <dc:type
           rdf:resource="http://purl.org/dc/dcmitype/StillImage" />
      </cc:Work>
    </rdf:RDF>
  </metadata>
  <g
     inkscape:label="Ebene 1"
     inkscape:groupmode="layer"
     id="layer1"
     transform="translate(115.31389,232.58785)">
    <path
       style="fill:#000000"
       d="M 307.99955,1296.3411 C 197.2898,1291.2159 94.449505,1265.6672 15.793225,1223.748 C -56.691803,1185.1177 -102.41177,1135.6978 -113.57345,1083.9121 C -115.8867,1073.1796 -115.89542,1052.6559 -113.59123,1042.0778 C -108.3159,1017.8598 -95.19089,992.57035 -71.207553,960.41215 C -53.232225,936.30985 -39.497315,920.27205 22.997515,850.41215 C 98.213145,766.33229 135.08162,716.98902 163.09444,662.91215 C 184.1593,622.24786 190.36657,602.09115 195.42923,557.91215 C 200.61321,512.67452 200.06076,438.68129 194.00108,366.63321 C 181.45037,217.40828 141.60056,-10.576512 93.048955,-210.92413 C 90.271785,-222.38408 87.999555,-231.94658 87.999555,-232.17413 C 87.999555,-232.40168 205.89955,-232.58785 349.99955,-232.58785 C 494.09955,-232.58785 611.99955,-232.40168 611.99955,-232.17413 C 611.99955,-231.94658 609.7263,-222.38408 606.94788,-210.92413 C 570.14685,-59.133362 535.95363,121.40448 518.05729,258.41215 C 506.67599,345.54308 502.28173,400.01822 501.31921,465.91215 C 500.26157,538.31696 505.31898,585.47033 518.06617,622.0547 C 524.69651,641.08373 546.51393,682.42517 564.41406,709.87848 C 591.7277,751.76924 623.68683,791.17865 692.97707,868.41215 C 740.23712,921.08995 753.74885,936.97855 771.21414,960.41215 C 795.09211,992.44975 808.34272,1017.9744 813.57784,1042.0173 C 815.89474,1052.658 815.89216,1073.1501 813.57256,1083.9121 C 808.99348,1105.1572 798.66421,1126.2458 783.25445,1145.8106 C 775.1344,1156.1201 754.10501,1176.8423 742.22365,1186.2419 C 645.83706,1262.4959 480.80327,1304.3409 307.99955,1296.3411 z M 413.99955,1260.9351 C 519.76269,1252.5065 607.36257,1228.3646 679.11991,1187.8697 C 703.0942,1174.3403 724.79124,1157.9509 742.49955,1139.9944 C 766.35452,1115.805 779.4355,1091.7516 781.57493,1068.1422 C 783.61475,1045.632 771.72127,1017.9067 744.242,981.11405 C 726.30095,957.09235 714.31483,943.14145 649.99044,871.41215 C 588.50535,802.84905 550.74585,754.04626 521.55356,705.41215 C 511.19881,688.16124 491.63488,648.84497 486.62121,635.21106 C 465.40165,577.50768 461.33521,477.63222 474.55737,338.91215 C 485.39359,225.2242 510.21655,72.970768 543.52207,-84.087852 C 549.28459,-111.26213 567.38921,-192.57441 568.62647,-196.83785 C 569.10905,-198.50074 558.22614,-198.58785 349.99955,-198.58785 C 141.77216,-198.58785 130.89016,-198.50075 131.37472,-196.83785 C 131.6552,-195.87535 135.94127,-177.08785 140.89933,-155.08785 C 189.60188,61.016128 220.4548,251.70854 230.53328,398.91215 C 232.69438,430.47648 233.59494,503.83195 232.11083,527.41215 C 229.07354,575.67036 222.51992,611.8798 211.90906,639.02909 C 206.18453,653.67607 189.10519,687.59812 178.486,705.41215 C 149.69277,753.71371 114.44967,799.19225 49.458775,871.91215 C -0.77901549,928.12435 -8.5288255,936.91255 -21.089081,951.91215 C -65.823086,1005.334 -84.087068,1040.4297 -81.575824,1068.1422 C -78.070802,1106.8215 -43.649095,1148.8119 12.499555,1182.9032 C 27.144545,1191.7951 61.237555,1208.6696 77.999555,1215.3228 C 148.08092,1243.1396 225.69959,1258.5643 316.99955,1262.8178 C 333.68449,1263.5951 395.73369,1262.3908 413.99955,1260.9351 z"
       id="path5982" />
  </g>
</svg>
