<?xml version="1.0" encoding="UTF-8" standalone="no"?>
<!-- Created with Inkscape (http://www.inkscape.org/) -->
<svg
   xmlns:dc="http://purl.org/dc/elements/1.1/"
   xmlns:cc="http://creativecommons.org/ns#"
   xmlns:rdf="http://www.w3.org/1999/02/22-rdf-syntax-ns#"
   xmlns:svg="http://www.w3.org/2000/svg"
   xmlns="http://www.w3.org/2000/svg"
   xmlns:sodipodi="http://sodipodi.sourceforge.net/DTD/sodipodi-0.dtd"
   xmlns:inkscape="http://www.inkscape.org/namespaces/inkscape"
   width="983.18585"
   height="469.31726"
   id="svg4840"
   sodipodi:version="0.32"
   inkscape:version="0.46"
   version="1.0"
   sodipodi:docname="grabbauten.svg"
   inkscape:output_extension="org.inkscape.output.svg.inkscape">
  <defs
     id="defs4842">
    <inkscape:perspective
       sodipodi:type="inkscape:persp3d"
       inkscape:vp_x="0 : 526.18109 : 1"
       inkscape:vp_y="0 : 1000 : 0"
       inkscape:vp_z="744.09448 : 526.18109 : 1"
       inkscape:persp3d-origin="372.04724 : 350.78739 : 1"
       id="perspective4848" />
  </defs>
  <sodipodi:namedview
     id="base"
     pagecolor="#ffffff"
     bordercolor="#666666"
     borderopacity="1.0"
     inkscape:pageopacity="0.0"
     inkscape:pageshadow="2"
     inkscape:zoom="0.35"
     inkscape:cx="350"
     inkscape:cy="520"
     inkscape:document-units="px"
     inkscape:current-layer="layer1"
     showgrid="false"
     inkscape:window-width="640"
     inkscape:window-height="713"
     inkscape:window-x="80"
     inkscape:window-y="82" />
  <metadata
     id="metadata4845">
    <rdf:RDF>
      <cc:Work
         rdf:about="">
        <dc:format>image/svg+xml</dc:format>
        <dc:type
           rdf:resource="http://purl.org/dc/dcmitype/StillImage" />
      </cc:Work>
    </rdf:RDF>
  </metadata>
  <g
     inkscape:label="Ebene 1"
     inkscape:groupmode="layer"
     id="layer1"
     transform="translate(141.59292,-297.70356)">
    <path
       style="fill:#000000"
       d="M -3.3361637,766.75744 C -31.692774,763.9107 -58.543166,753.4797 -81.336164,736.45552 C -109.42232,715.47787 -129.45015,687.27394 -137.71815,657.05635 C -141.02721,644.96255 -142.40914,630.51304 -141.10875,621.60444 C -137.54494,597.19001 -112.03486,566.13194 -64.210707,527.98248 C -29.863884,500.58392 18.279616,467.93978 33.037186,462.04264 C 39.362466,459.51505 59.672366,456.71337 82.663836,455.1968 C 111.12988,453.31912 241.46508,453.62992 352.66384,455.84064 C 441.51704,457.60711 486.23312,457.47195 493.27282,455.41562 C 502.768,452.64205 524.08592,435.46408 549.16384,410.37869 C 562.49017,397.04839 613.33365,343.48016 630.157,325.04503 C 637.92547,316.53229 650.95419,305.35379 656.8431,302.14865 C 667.59486,296.2968 699.13773,296.21055 724.89864,301.96254 C 778.25006,313.87505 822.25567,350.93712 836.46098,395.92174 C 840.4217,408.46433 841.51444,415.80442 841.59051,430.37756 C 841.68101,447.71746 839.22364,461.23525 834.57866,468.94899 C 829.47131,477.4306 821.02947,486.35989 801.66384,503.76441 C 751.45629,548.88758 663.54104,617.5464 612.61482,651.40526 C 593.24285,664.28493 588.95959,666.45289 574.8459,670.52188 C 540.35743,680.46494 498.00149,684.43457 448.16384,682.3946 C 418.44478,681.17813 401.65159,679.838 353.16384,674.81342 C 334.73884,672.90411 313.13884,670.6718 305.16384,669.85272 C 262.77314,665.49894 214.33009,664.09964 187.83593,666.46364 C 169.99183,668.05582 155.02177,670.80878 149.66784,673.48266 C 143.521,676.55254 131.82471,685.99532 109.64595,705.79358 C 67.740356,743.20132 48.395926,756.76322 26.987616,763.74327 C 19.301086,766.24942 5.3835563,767.63281 -3.3361637,766.75744 z M 19.808496,744.26277 C 38.881996,738.37882 54.643896,727.05919 100.16384,686.55444 C 136.42468,654.28866 141.6329,651.42129 171.16384,647.46547 C 190.01718,644.93996 209.52075,644.09973 235.16384,644.70829 C 265.79844,645.4353 282.46478,646.71562 341.66384,652.88968 C 421.2372,661.18865 447.99041,662.92062 483.16384,662.05023 C 518.83432,661.16754 544.77144,657.78234 568.41797,650.92322 C 580.77979,647.33745 584.49305,645.39445 603.66384,632.48057 C 662.33013,592.96159 773.90607,504.35791 802.61679,474.48985 L 806.56974,470.37756 L 800.04168,470.37756 C 796.45125,470.37756 788.50496,469.47567 782.38326,468.37336 C 737.89455,460.36247 698.31309,433.48556 674.88282,395.37756 C 664.84115,379.04537 656.79573,355.44578 655.33147,338.02777 L 654.66384,330.08591 L 642.06737,342.98174 C 635.13931,350.07444 615.97637,370.27756 599.48305,387.87756 C 539.45388,451.93459 513.61462,473.44239 493.12956,476.40291 C 483.2538,477.83017 405.83587,477.56536 313.66384,475.78904 C 258.50658,474.72606 206.84656,474.35537 159.66384,474.684 C 90.362036,475.16668 73.894186,475.81777 52.163836,478.93424 C 42.725656,480.28781 40.757446,480.95526 32.700846,485.53441 C 13.203986,496.61587 -17.086034,517.46335 -43.627609,538.0684 C -81.186944,567.22688 -107.79012,594.48604 -117.12449,613.37756 C -120.15917,619.51934 -120.3347,620.48378 -120.30963,630.87756 C -120.28031,643.03334 -118.42055,652.22914 -113.64585,663.8274 C -102.07722,691.92883 -78.116548,717.31158 -49.141649,732.15997 C -24.749294,744.66 2.8288663,749.50079 19.808496,744.26277 z M 820.04079,448.83424 C 820.38347,448.49172 820.63731,440.71135 820.60489,431.54452 C 820.55542,417.55737 820.19082,413.59127 818.33727,406.87756 C 815.49849,396.59524 807.64472,380.70221 801.23017,372.25933 C 794.36464,363.22286 779.84549,349.60488 770.44237,343.38246 C 745.72132,327.02356 713.70706,317.64791 685.66384,318.55434 L 675.66384,318.87756 L 675.7779,328.87756 C 675.96476,345.26076 679.7993,359.77013 688.41126,376.68039 C 709.17098,417.44373 751.52431,445.64538 798.16384,449.76091 C 804.03291,450.27881 819.23999,449.63466 820.04079,448.83424 z"
       id="path4838" />
  </g>
</svg>
