<?xml version="1.0" encoding="UTF-8" standalone="no"?>
<!-- Created with Inkscape (http://www.inkscape.org/) -->
<svg
   xmlns:dc="http://purl.org/dc/elements/1.1/"
   xmlns:cc="http://creativecommons.org/ns#"
   xmlns:rdf="http://www.w3.org/1999/02/22-rdf-syntax-ns#"
   xmlns:svg="http://www.w3.org/2000/svg"
   xmlns="http://www.w3.org/2000/svg"
   xmlns:sodipodi="http://sodipodi.sourceforge.net/DTD/sodipodi-0.dtd"
   xmlns:inkscape="http://www.inkscape.org/namespaces/inkscape"
   width="727.51434"
   height="1012.2454"
   id="svg91734"
   sodipodi:version="0.32"
   inkscape:version="0.46"
   sodipodi:docname="pflanzen.svg"
   inkscape:output_extension="org.inkscape.output.svg.inkscape"
   version="1.0">
  <defs
     id="defs91736">
    <inkscape:perspective
       sodipodi:type="inkscape:persp3d"
       inkscape:vp_x="0 : 526.18109 : 1"
       inkscape:vp_y="0 : 1000 : 0"
       inkscape:vp_z="744.09448 : 526.18109 : 1"
       inkscape:persp3d-origin="372.04724 : 350.78739 : 1"
       id="perspective91742" />
  </defs>
  <sodipodi:namedview
     id="base"
     pagecolor="#ffffff"
     bordercolor="#666666"
     borderopacity="1.0"
     inkscape:pageopacity="0.0"
     inkscape:pageshadow="2"
     inkscape:zoom="0.35"
     inkscape:cx="350"
     inkscape:cy="520"
     inkscape:document-units="px"
     inkscape:current-layer="layer1"
     showgrid="false"
     inkscape:window-width="640"
     inkscape:window-height="713"
     inkscape:window-x="42"
     inkscape:window-y="50" />
  <metadata
     id="metadata91739">
    <rdf:RDF>
      <cc:Work
         rdf:about="">
        <dc:format>image/svg+xml</dc:format>
        <dc:type
           rdf:resource="http://purl.org/dc/dcmitype/StillImage" />
      </cc:Work>
    </rdf:RDF>
  </metadata>
  <g
     inkscape:label="Ebene 1"
     inkscape:groupmode="layer"
     id="layer1"
     transform="translate(-9.0573564,-6.4289503)">
    <path
       style="fill:#000000"
       d="M 234.79369,1013.5442 C 229.18861,1003.888 226.88017,999.60461 227.16215,999.38338 C 227.31728,999.2617 229.49629,998.02506 232.00435,996.6353 C 246.9073,988.37729 264.03798,974.97009 279.52583,959.44295 C 325.13469,913.71838 354.69391,852.21303 362.82979,786.10821 C 364.36071,773.66927 364.5939,742.97151 363.24258,731.76676 C 362.21115,723.21443 360.07136,710.00054 359.58793,709.19804 C 359.41294,708.90755 350.47157,713.01964 339.71822,718.33601 C 267.89681,753.84395 221.3159,767.85155 174.76184,767.94077 C 148.96081,767.99024 128.3985,763.81479 108.12106,754.4084 C 93.778152,747.75493 82.50602,739.95673 69.884962,727.9562 C 32.623972,692.52716 11.467939,644.94996 9.2264799,591.54304 C 6.7654663,532.90478 31.353582,463.28156 70.544396,417.91648 C 74.173678,413.71543 91.087589,396.08485 108.1309,378.73739 C 125.17421,361.38993 143.87918,342.10082 149.69749,335.87268 C 193.49523,288.99013 216.69657,253.61287 222.92649,224.21359 C 225.22461,213.36869 223.95367,191.06112 219.8175,169.64456 C 214.37542,141.46624 205.05258,113.61181 192.5011,88.029663 C 182.87131,68.402499 172.88657,53.888902 163.07475,45.256185 C 157.47162,40.326405 155.25826,39.180063 144.36064,35.563813 C 139.62975,33.993922 133.81559,31.448731 131.44029,29.907817 C 127.3554,27.25787 127.04529,26.834686 125.71292,22.091595 C 124.20009,16.706109 124.21271,16.650862 128.03018,11.93434 C 133.16134,5.5947492 143.72605,4.8810048 171.20273,9.0176449 C 238.20502,19.104888 326.95094,49.910196 398.82879,88.030758 C 508.04348,145.953 591.93628,222.05292 649.76324,315.6557 C 676.02213,358.16019 703.72429,421.61384 718.77858,473.73991 C 731.17469,516.66192 736.51113,550.6267 736.57099,586.98292 C 736.61158,611.64018 734.96048,627.00129 730.19883,646.26664 C 720.59418,685.12649 700.36117,715.79075 675.33687,729.41303 C 669.10061,732.80779 653.1207,738.93056 641.62513,742.32979 C 614.5278,750.34245 592.78257,753.51865 565.18637,753.49479 C 523.65352,753.45885 489.39519,745.78548 430.74963,723.38286 C 404.73589,713.44561 383.29375,706.25861 382.50908,707.21352 C 382.40395,707.34145 382.93554,711.03722 383.6904,715.42633 C 386.08417,729.34517 386.87599,743 386.47285,763.40931 C 386.05319,784.65467 384.98122,794.56556 380.93508,814.60897 C 365.07386,893.18082 318.36821,966.0355 257.46503,1007.206 C 249.36108,1012.6843 239.31699,1018.6744 238.235,1018.6744 C 237.98011,1018.6744 236.43152,1016.3658 234.79369,1013.5442 z M 189.44321,745.04761 C 216.03496,742.57216 241.41857,736.04943 274.18547,723.27176 C 290.36392,716.96286 302.10611,711.64597 329.66694,698.14967 C 360.10183,683.24597 361.39852,682.74546 369.57522,682.74546 C 382.79003,682.74546 397.64742,686.865 434.54727,700.76034 C 447.29796,705.56186 463.2025,711.35207 469.89066,713.62748 C 529.87838,734.03615 579.75049,736.58013 631.36559,721.86436 C 642.65315,718.6462 660.14788,712.20852 664.83585,709.54801 C 688.46259,696.1394 706.38042,662.35217 712.39101,619.87443 C 714.0534,608.12608 714.63294,581.10566 713.53203,566.67579 C 709.43972,513.03725 692.99607,455.54953 662.38331,387.85762 C 627.52889,310.7865 576.77563,244.76216 508.94851,188.25612 C 433.27911,125.21676 335.7444,74.870213 233.14437,45.888464 C 216.22674,41.109677 186.17142,34.046605 185.52114,34.696887 C 185.2993,34.918738 186.92328,37.2621 189.12997,39.904378 C 203.00101,56.513437 219.38564,88.630725 229.96549,119.95051 C 244.17057,162.00216 250.09648,206.72684 244.63051,230.63192 C 239.68729,252.25083 226.56775,277.44636 206.32267,304.20059 C 187.67351,328.84576 172.95693,344.98122 119.97075,398.87792 C 86.582661,432.83977 80.025853,440.44552 69.192658,457.77949 C 52.915946,483.82347 40.647998,515.40982 35.246137,545.18181 C 28.701775,581.25045 31.322066,616.52273 42.832139,647.29927 C 53.810717,676.65461 76.097108,706.67649 99.223258,723.26345 C 123.20917,740.46706 155.33127,748.22314 189.44321,745.04761 z"
       id="path91732" />
  </g>
</svg>
