<?xml version="1.0" encoding="UTF-8" standalone="no"?>
<!-- Created with Inkscape (http://www.inkscape.org/) -->
<svg
   xmlns:dc="http://purl.org/dc/elements/1.1/"
   xmlns:cc="http://creativecommons.org/ns#"
   xmlns:rdf="http://www.w3.org/1999/02/22-rdf-syntax-ns#"
   xmlns:svg="http://www.w3.org/2000/svg"
   xmlns="http://www.w3.org/2000/svg"
   xmlns:sodipodi="http://sodipodi.sourceforge.net/DTD/sodipodi-0.dtd"
   xmlns:inkscape="http://www.inkscape.org/namespaces/inkscape"
   width="982.55731"
   height="1129.2065"
   id="svg7011"
   sodipodi:version="0.32"
   inkscape:version="0.46"
   version="1.0"
   sodipodi:docname="ammoniten.svg"
   inkscape:output_extension="org.inkscape.output.svg.inkscape">
  <defs
     id="defs7013">
    <inkscape:perspective
       sodipodi:type="inkscape:persp3d"
       inkscape:vp_x="0 : 526.18109 : 1"
       inkscape:vp_y="0 : 1000 : 0"
       inkscape:vp_z="744.09448 : 526.18109 : 1"
       inkscape:persp3d-origin="372.04724 : 350.78739 : 1"
       id="perspective7019" />
  </defs>
  <sodipodi:namedview
     id="base"
     pagecolor="#ffffff"
     bordercolor="#666666"
     borderopacity="1.0"
     inkscape:pageopacity="0.0"
     inkscape:pageshadow="2"
     inkscape:zoom="0.35"
     inkscape:cx="350"
     inkscape:cy="520"
     inkscape:document-units="px"
     inkscape:current-layer="layer1"
     showgrid="false"
     inkscape:window-width="640"
     inkscape:window-height="713"
     inkscape:window-x="140"
     inkscape:window-y="142" />
  <metadata
     id="metadata7016">
    <rdf:RDF>
      <cc:Work
         rdf:about="">
        <dc:format>image/svg+xml</dc:format>
        <dc:type
           rdf:resource="http://purl.org/dc/dcmitype/StillImage" />
      </cc:Work>
    </rdf:RDF>
  </metadata>
  <g
     inkscape:label="Ebene 1"
     inkscape:groupmode="layer"
     id="layer1"
     transform="translate(141.27866,32.241082)">
    <path
       style="fill:#000000"
       d="M 231.72134,1096.4696 C 95.270563,1088.8799 -30.211427,1035.7811 -130.52866,943.18033 L -141.27866,933.25723 L -141.27524,926.11866 C -141.26223,898.94538 -133.11474,853.89479 -122.17028,820.4801 C -90.833083,724.80401 -21.143257,631.77343 66.912893,568.06852 L 77.604443,560.33364 L 71.777833,552.4753 C 45.313793,516.78325 23.380333,469.44962 12.235733,423.9801 C 4.5998229,392.82587 2.2440629,372.22193 2.2314229,336.4801 C 2.2212029,307.58891 2.8786029,298.7318 6.8332329,274.4801 C 23.049593,175.03364 82.429873,84.097948 167.79493,27.981393 C 287.57833,-50.760796 444.29976,-52.415627 565.22134,23.784944 C 647.56762,75.676708 710.05139,138.83244 759.07413,219.72249 C 771.27296,239.85118 792.37344,282.48449 801.02317,304.4801 C 821.34815,356.165 833.56429,407.76167 839.37865,466.4801 C 842.61165,499.12978 841.62952,552.42096 837.11181,589.4801 C 821.58477,716.84982 763.34708,835.88204 671.73518,927.49394 C 624.72132,974.5078 574.1409,1010.5154 514.50491,1039.4242 C 449.14348,1071.1084 381.77179,1089.4342 308.72134,1095.3995 C 290.42139,1096.8938 249.558,1097.4617 231.72134,1096.4696 z M 303.22134,1070.4029 C 466.2882,1059.4043 619.18969,972.8928 714.89175,837.4801 C 722.87244,826.1879 737.33494,803.63281 742.68193,794.13973 L 745.97153,788.29936 L 742.59643,790.02426 C 740.74013,790.97295 728.87134,797.39125 716.22134,804.28714 C 675.76484,826.34118 663.35304,831.09546 648.38007,830.27337 C 638.96515,829.75645 634.17835,827.71138 628.58152,821.81483 C 622.13311,815.02109 621.21938,812.30443 621.2376,799.9801 C 621.25153,790.55551 621.65263,787.83434 624.0382,780.9801 C 627.46455,771.13546 635.09466,755.49505 650.02251,727.71674 C 663.40686,702.81063 667.77937,692.39872 668.4837,683.75659 C 668.97565,677.72033 668.90969,677.50221 666.29142,676.50674 C 662.74608,675.15881 652.3542,677.29755 642.66149,681.36999 C 638.69735,683.03555 623.92663,690.43206 609.83765,697.80668 C 569.41996,718.96261 559.5817,722.71605 544.22134,722.84028 C 533.38444,722.92792 527.26169,720.65017 520.92036,714.17199 C 514.26875,707.37683 512.23075,701.71871 512.38676,690.4801 C 512.58841,675.9539 516.36846,665.93251 536.99787,625.23288 C 554.70382,590.3009 557.44547,583.85736 558.41637,574.89414 C 559.22043,567.47118 557.83191,565.4801 551.85131,565.4801 C 542.48225,565.4801 533.28427,569.31548 496.72134,588.46822 C 482.14634,596.10303 466.32754,603.91362 461.56845,605.82508 C 436.95624,615.71044 419.88795,614.4287 408.82859,601.8646 C 403.24182,595.5177 401.34966,588.83857 401.94843,577.57838 C 402.58835,565.54447 406.90181,553.47699 418.88749,530.18913 C 440.14142,488.89332 444.68936,479.151 446.90155,470.17916 C 448.50914,463.65933 448.82292,460.67865 448.11215,458.67916 C 447.20396,456.1243 446.80726,455.9801 440.68702,455.9801 C 431.67557,455.9801 422.33592,459.81046 391.54349,476.13475 C 354.08643,495.99222 342.91896,500.71284 329.27909,502.45461 C 317.42951,503.96778 308.63144,501.49649 301.38661,494.61992 C 291.06632,484.82421 289.47846,470.35365 296.40512,449.22241 C 297.89109,444.68914 304.20926,430.93334 310.44551,418.65398 L 321.78413,396.32786 L 305.98685,409.15398 C 185.694,506.82214 114.72134,565.03338 114.72134,566.02849 C 114.72134,566.70244 109.99439,570.09924 104.217,573.57694 C 60.418053,599.94176 7.6848629,649.15724 -29.070927,697.97354 C -59.418687,738.27918 -82.903738,782.39012 -97.75515,826.9801 C -106.16245,852.22223 -113.2523,886.26044 -115.14744,910.4801 L -116.04729,921.9801 L -110.41297,927.27819 C -93.164605,943.49725 -67.321871,963.77062 -44.278657,979.1599 C -1.2634971,1007.8874 47.981963,1031.5782 95.221343,1046.27 C 164.28851,1067.7504 229.82059,1075.3536 303.22134,1070.4029 z M 660.366,803.39686 C 667.96016,801.0891 686.7562,791.88071 705.39482,781.33674 C 723.97805,770.82411 745.3074,760.78751 754.44241,758.25723 L 762.66348,755.9801 L 768.13965,743.9801 C 785.52643,705.88027 800.13662,658.46674 807.69595,615.61056 C 817.74596,558.63394 818.79697,495.55386 810.64721,438.4801 C 803.95604,391.62108 790.02229,342.07535 771.33437,298.69117 C 764.0648,281.81481 755.37797,264.4801 754.1904,264.4801 C 753.51711,264.4801 752.45474,265.0964 751.82959,265.84966 C 749.31388,268.88091 741.77811,270.74036 733.86543,270.2823 C 718.1704,269.37373 703.65941,258.69941 668.4523,222.16427 C 646.18876,199.06092 635.41976,189.62281 626.81415,185.67199 C 621.6823,183.31597 621.34067,183.28021 620.10517,184.96985 C 618.12328,187.68026 617.39005,194.78687 618.13942,204.02242 C 618.81564,212.3564 621.01337,223.7342 628.65844,258.4801 C 634.61134,285.53529 636.37872,300.68508 634.83703,311.44225 C 632.27457,329.32184 623.75648,339.49147 609.43921,341.76437 C 599.85657,343.28563 584.17723,337.25177 571.62396,327.21198 C 567.99541,324.30995 553.14541,310.38612 538.62396,296.27014 C 510.05195,268.4959 504.95884,264.07629 496.23694,259.48831 C 489.22053,255.79746 488.23289,255.76871 485.99439,259.19009 C 484.54549,261.40465 484.24305,263.91839 484.3401,272.94009 C 484.46259,284.32601 485.01457,287.42257 495.93394,337.9801 C 499.81648,355.95653 500.0425,357.92286 500.12944,374.4801 C 500.21789,391.32296 500.12408,392.18663 497.63118,397.4801 C 494.1278,404.91924 490.87454,408.53459 484.62123,411.93807 C 473.02334,418.25043 458.98718,415.99407 442.33657,405.14065 C 433.18471,399.17517 426.55487,393.52443 401.84086,370.62537 C 392.8316,362.27774 383.2901,353.63079 380.63753,351.40993 L 375.81467,347.372 L 373.366,351.25094 C 372.01923,353.38436 369.26211,356.88493 367.23906,359.02999 C 364.44615,361.99134 362.71957,365.46347 360.06594,373.4551 C 357.89424,379.99533 351.59108,393.63441 343.41737,409.4801 C 321.62723,451.72276 317.93146,460.3521 317.57318,469.82421 C 317.35011,475.72161 318.86733,477.4801 324.17863,477.4801 C 332.87363,477.4801 344.7938,472.42997 378.72134,454.37239 C 411.66556,436.83817 422.45074,432.33213 435.97787,430.45068 C 459.33586,427.20188 475.08416,441.7147 473.40848,464.94482 C 472.36252,479.44527 468.55756,488.95933 447.83845,528.88108 C 419.97665,582.56542 419.76222,593.59356 446.75831,584.43128 C 453.7683,582.05215 471.3551,573.45601 495.59398,560.56123 C 520.49256,547.3155 533.66467,542.15712 546.72134,540.53906 C 563.14457,538.5038 576.68023,545.79175 581.82086,559.43755 C 583.55695,564.04602 583.83721,566.58112 583.48384,574.4801 C 582.7717,590.39856 580.22875,596.63964 552.47036,650.59552 C 542.41904,670.13295 537.86016,682.29363 537.5021,690.52291 C 537.22917,696.79546 538.42968,697.97124 544.82303,697.69306 C 552.84412,697.34405 563.73689,693.1272 584.72134,682.24746 C 638.88801,654.16382 646.41898,651.13077 662.22134,651.03477 C 669.88101,650.98824 672.04134,651.36478 676.72743,653.56311 C 696.28428,662.7376 699.25193,683.39198 685.39876,713.91419 C 683.13565,718.90044 675.28026,734.1378 667.94235,747.775 C 650.137,780.86548 644.29051,795.64309 646.12013,802.93289 C 646.93887,806.195 650.74972,806.31912 660.366,803.39686 z M 210.04938,454.68287 C 270.36896,405.5694 319.72134,365.20737 319.72134,364.98949 C 319.72134,364.7716 317.19966,362.20843 314.11761,359.29356 C 305.43356,351.08054 301.6107,342.26376 301.62441,330.4801 C 301.62921,326.3551 302.31078,321.05977 303.13901,318.71271 C 304.46341,314.95961 304.48039,312.32419 303.27996,296.84526 C 301.49343,273.80904 301.21584,273.46975 291.9702,283.02174 C 288.25833,286.8566 279.59634,298.08224 272.72134,307.9676 C 258.69841,328.13076 247.12112,340.76579 239.22134,344.52831 C 231.58119,348.16716 223.08866,348.38377 216.3982,345.11043 C 201.6903,337.91453 197.72389,323.21809 197.72218,275.9116 C 197.72153,258.00673 197.37501,251.67687 196.1741,247.63297 L 194.62686,242.42284 L 191.59247,244.20147 C 187.36483,246.67953 182.03411,253.17015 167.15877,273.95161 C 151.37717,295.99916 143.0462,305.01565 134.50028,309.29747 C 126.20997,313.45122 121.39178,314.10763 114.30812,312.04835 C 104.15841,309.09775 97.332033,299.74492 94.856883,285.39819 C 94.183203,281.49336 93.721343,266.76929 93.721343,249.19741 C 93.721343,231.34485 93.282233,217.53106 92.616003,214.4245 L 91.510653,209.27046 L 87.060543,213.62528 C 84.612983,216.02043 76.165113,227.69264 68.287493,239.56352 C 52.836653,262.84658 44.210013,273.05848 36.149083,277.60779 L 31.028703,280.49755 L 29.874813,290.23883 C 25.498473,327.18433 25.732783,353.09654 30.754083,387.4801 C 37.107363,430.98438 52.609993,474.24673 75.388273,512.03828 C 86.567453,530.58573 97.528333,545.70121 99.107103,544.74749 C 99.805783,544.32542 149.7298,503.79635 210.04938,454.68287 z M 473.782,388.90701 C 475.64825,386.65831 476.18574,372.09763 474.7648,362.28224 C 474.10378,357.71606 470.92964,341.8301 467.71118,326.9801 C 460.0922,291.82619 458.33256,279.71061 458.99689,266.9801 C 459.69715,253.56097 462.28559,246.63714 469.09869,239.95873 C 481.94649,227.36493 499.04744,228.97751 520.2801,244.78503 C 524.09778,247.62726 539.15139,261.65888 553.73256,275.96641 C 585.84598,307.47717 597.29087,316.4801 605.23519,316.4801 C 608.70386,316.4801 609.72226,313.34112 609.71732,302.665 C 609.71226,291.74318 608.16553,282.30907 601.24351,250.9801 C 593.98382,218.12286 592.34392,206.7038 592.98588,193.4801 C 593.78261,177.0682 598.43738,167.67385 608.48107,162.20739 C 622.03986,154.82777 638.16978,159.45502 657.72134,176.33314 C 661.29634,179.4193 675.92134,193.719 690.22134,208.11025 C 715.53071,233.58111 724.08766,241.0639 731.39878,244.11869 C 736.21846,246.13248 737.46216,245.39124 738.26682,240.02541 C 738.91098,235.72979 738.61932,234.89736 733.42881,226.21716 C 700.39003,170.96573 646.20911,112.3698 589.72134,70.799458 C 542.65724,36.16416 502.634,16.105772 456.72134,4.1440422 C 432.92457,-2.0557848 403.32287,-6.5199018 386.0084,-6.5199018 C 379.25386,-6.5199018 378.57982,-6.3457428 379.23543,-4.7699018 C 382.73071,3.6313882 379.56208,15.000148 371.12749,24.320671 C 363.82017,32.395522 355.8005,38.098315 332.22134,51.986851 C 321.22134,58.466043 309.1845,65.994709 305.47281,68.717218 C 299.47633,73.115608 294.72134,78.079348 294.72134,79.940698 C 294.72134,81.142788 303.1615,84.314488 309.22134,85.389598 C 312.52134,85.975078 327.16985,87.347418 341.77359,88.439258 C 356.37733,89.531088 371.62527,91.118468 375.6579,91.966758 C 397.2766,96.514388 408.13385,106.4112 408.03537,121.4801 C 407.98594,129.04367 406.21347,133.7316 400.54383,141.29411 C 395.35183,148.21951 384.63993,156.06795 361.79249,169.68659 C 339.40056,183.03371 329.68158,189.62242 325.7059,194.15047 C 321.99516,198.37676 321.99277,199.05198 325.68176,200.95963 C 331.32319,203.87693 341.34981,205.39396 368.26352,207.40227 C 408.26136,210.38693 420.10572,213.52188 429.13197,223.51285 C 434.06934,228.97793 435.92738,233.62774 435.89491,240.43732 C 435.81187,257.85081 426.03917,267.24549 377.31043,296.75564 L 367.77355,302.53119 L 371.17708,306.99006 C 373.04902,309.44244 375.1612,313.05452 375.87081,315.0169 C 376.8168,317.63301 378.50295,319.35845 382.19117,321.48459 C 389.85796,325.90424 399.13382,333.67587 422.31808,355.10429 C 445.27477,376.32238 455.43989,384.51665 463.22134,388.0771 C 469.18649,390.8065 472.02072,391.02923 473.782,388.90701 z M 235.35668,315.20141 C 238.58224,311.74813 247.04145,300.61063 254.15492,290.45141 C 274.04254,262.04857 284.66248,252.61831 297.83384,251.66558 C 302.41363,251.33431 304.6326,251.7769 309.62522,254.01745 C 320.58879,258.93761 326.05064,267.83952 327.662,283.41445 C 328.19131,288.53056 328.77391,292.866 328.95666,293.04875 C 329.13942,293.23151 331.97373,292.82073 335.25514,292.1359 C 339.63656,291.2215 342.8151,289.67703 347.22134,286.32146 C 350.52134,283.80834 362.15552,276.29713 373.07507,269.62988 C 397.0798,254.9731 404.80173,249.55233 408.40472,244.82857 L 411.14231,241.2394 L 408.91542,239.43617 C 405.13453,236.37459 393.87125,234.55254 366.00862,232.49515 C 351.27562,231.40726 336.52134,230.03567 333.22134,229.44718 C 319.66255,227.02922 309.90823,222.64313 304.31071,216.44735 C 293.47942,204.4584 295.29473,188.85224 309.12579,175.05235 C 316.0692,168.12459 322.60123,163.66484 347.45472,148.88326 C 372.96524,133.71092 382.72134,126.26712 382.72134,121.97522 C 382.72134,119.93039 373.31158,116.84686 363.22134,115.58518 C 358.27134,114.96624 344.54634,113.78007 332.72134,112.94926 C 300.70833,110.70007 287.36885,107.37757 278.26725,99.386268 C 267.76485,90.165038 266.86472,74.212928 276.15308,61.919002 C 283.16073,52.643788 290.98882,46.966656 322.72134,28.146505 C 346.37037,14.120566 356.66128,6.0169382 354.08707,3.4473982 C 351.13551,0.50119218 323.90445,-3.1723798 312.72134,-2.1329938 C 304.57842,-1.3761708 280.42073,4.2697172 267.22134,8.5007992 C 232.21615,19.721758 198.79411,36.383683 170.22134,56.858307 C 114.60876,96.709068 71.978353,152.85576 47.589583,218.37136 C 45.462053,224.08656 43.724403,229.26156 43.728143,229.87136 C 43.731883,230.48117 47.725963,224.9051 52.603883,217.4801 C 71.587663,188.58364 84.482323,179.77198 100.03145,185.0701 C 106.56429,187.29606 112.70717,194.35967 115.75811,203.15397 C 118.02455,209.68696 118.15212,211.52606 118.72874,245.9801 C 119.36182,283.80759 119.91335,288.51807 123.48554,286.6063 C 127.17351,284.63255 135.70522,274.43586 147.45577,257.9582 C 170.11154,226.18829 178.53536,218.73216 192.941,217.69807 C 198.74605,217.28136 200.3891,217.5721 205.01259,219.83417 C 210.71368,222.62345 215.80618,228.0931 218.42532,234.24022 C 222.0869,242.83397 222.82471,249.77951 223.60287,282.9801 C 224.37514,315.92894 225.02095,321.4801 228.08193,321.4801 C 228.85749,321.4801 232.13112,318.65469 235.35668,315.20141 z"
       id="path7009" />
  </g>
</svg>
