<?xml version="1.0" encoding="UTF-8" standalone="no"?>
<!-- Created with Inkscape (http://www.inkscape.org/) -->
<svg
   xmlns:dc="http://purl.org/dc/elements/1.1/"
   xmlns:cc="http://creativecommons.org/ns#"
   xmlns:rdf="http://www.w3.org/1999/02/22-rdf-syntax-ns#"
   xmlns:svg="http://www.w3.org/2000/svg"
   xmlns="http://www.w3.org/2000/svg"
   xmlns:sodipodi="http://sodipodi.sourceforge.net/DTD/sodipodi-0.dtd"
   xmlns:inkscape="http://www.inkscape.org/namespaces/inkscape"
   width="954"
   height="296"
   id="svg6535"
   sodipodi:version="0.32"
   inkscape:version="0.46"
   version="1.0"
   sodipodi:docname="belemniten.svg"
   inkscape:output_extension="org.inkscape.output.svg.inkscape">
  <defs
     id="defs6537">
    <inkscape:perspective
       sodipodi:type="inkscape:persp3d"
       inkscape:vp_x="0 : 526.18109 : 1"
       inkscape:vp_y="0 : 1000 : 0"
       inkscape:vp_z="744.09448 : 526.18109 : 1"
       inkscape:persp3d-origin="372.04724 : 350.78739 : 1"
       id="perspective6543" />
  </defs>
  <sodipodi:namedview
     id="base"
     pagecolor="#ffffff"
     bordercolor="#666666"
     borderopacity="1.0"
     inkscape:pageopacity="0.0"
     inkscape:pageshadow="2"
     inkscape:zoom="0.35"
     inkscape:cx="350"
     inkscape:cy="520"
     inkscape:document-units="px"
     inkscape:current-layer="layer1"
     showgrid="false"
     inkscape:window-width="640"
     inkscape:window-height="713"
     inkscape:window-x="100"
     inkscape:window-y="102" />
  <metadata
     id="metadata6540">
    <rdf:RDF>
      <cc:Work
         rdf:about="">
        <dc:format>image/svg+xml</dc:format>
        <dc:type
           rdf:resource="http://purl.org/dc/dcmitype/StillImage" />
      </cc:Work>
    </rdf:RDF>
  </metadata>
  <g
     inkscape:label="Ebene 1"
     inkscape:groupmode="layer"
     id="layer1"
     transform="translate(127,-384.36218)">
    <path
       style="fill:#000000"
       d="M 636,645.83784 L 458.5,611.5299 L 167,577.44124 C 6.675,558.69248 -125.0625,543.35474 -125.75,543.35738 C -126.67301,543.36093 -127,540.54153 -127,532.57948 L -127,521.79678 L 165.75,487.49748 L 458.5,453.19819 L 637.13309,418.78019 C 740.60896,398.84305 818.12941,384.36218 821.38309,384.36218 L 827,384.36218 L 827,532.36218 L 827,680.36218 L 820.25,680.25399 C 815.88332,680.18399 750.82747,668.03218 636,645.83784 z M 805,532.28272 L 805,408.20327 L 802.25,408.77568 C 800.7375,409.09051 753.825,418.12371 698,428.84948 C 642.175,439.57524 595.57504,448.56502 594.44454,448.82675 C 592.6613,449.23961 590.83741,454.81267 580.6734,490.9057 L 568.95773,532.50876 L 580.55187,573.67514 C 586.92865,596.31665 592.3202,615.01571 592.53309,615.2286 C 592.91206,615.60757 801.28898,656.10142 803.75,656.27435 C 804.74376,656.34417 805,630.92647 805,532.28272 z M 557.69434,571.44857 L 546.72107,532.53496 L 557.66044,493.69857 C 566.64509,461.80173 568.32287,454.814 567.04991,454.59252 C 564.90296,454.21899 493.87134,468.08756 492.90764,469.06844 C 492.47872,469.505 487.20291,483.97462 481.18362,501.22315 L 470.23945,532.58412 L 481.18306,563.72315 C 487.20205,580.84962 492.4804,595.22191 492.91273,595.66157 C 493.75946,596.52267 561.79677,610.10029 566.08381,610.26369 L 568.66762,610.36218 L 557.69434,571.44857 z M 468,590.92706 C 468,590.68774 463.5,577.76643 458,562.21304 C 452.5,546.65965 448,533.37945 448,532.70148 C 448,532.02351 452.5,518.57353 458,502.81262 C 463.5,487.05171 468,473.92764 468,473.64801 C 468,473.36839 466.5375,473.40985 464.75,473.74015 C 462.9625,474.07046 446.22275,476.1517 427.55055,478.36514 C 405.59327,480.968 393.32545,482.82628 392.82074,483.62588 C 391.42806,485.83227 372,531.4868 372,532.5531 C 372,533.59463 391.39546,578.79518 392.83072,581.09848 C 393.32997,581.89967 405.54958,583.74653 427.55055,586.346 C 446.22275,588.55216 462.175,590.53113 463,590.74369 C 465.23858,591.32048 468,591.42175 468,590.92706 z M 368,578.78251 C 368,578.46369 363.55738,567.94591 358.12751,555.40965 L 348.25503,532.61647 L 358.19934,509.39448 C 363.66871,496.62239 367.9758,486.00465 367.77066,485.7995 C 367.39724,485.42609 299.42942,493.02677 295.31836,493.90168 C 293.6678,494.25295 290.67251,498.98389 283.01396,513.33603 L 272.89119,532.30609 L 283.03702,551.33413 C 288.61722,561.79956 293.25421,570.39699 293.34142,570.43954 C 293.71399,570.62128 363.70893,579.1276 365.75,579.23918 C 366.9875,579.30683 368,579.10133 368,578.78251 z M 267,567.02346 C 267,566.83716 262.95,559.13936 258,549.91724 C 253.05,540.69512 249,532.7687 249,532.30299 C 249,531.83728 253.03415,523.91923 257.96479,514.70733 C 262.89542,505.49543 266.77442,497.80326 266.58478,497.61362 C 266.22133,497.25017 196.29124,505.20314 194.40166,505.82282 C 193.79758,506.02093 189.16777,512.08944 184.11321,519.30841 L 174.92309,532.43381 L 184.07876,545.47436 C 189.11438,552.64666 193.74418,558.69286 194.36721,558.91036 C 195.72303,559.38366 260.30416,567.09159 264.25,567.25105 C 265.7625,567.31217 267,567.20975 267,567.02346 z M 164,554.73013 C 164,554.3825 160.92881,549.77 157.17513,544.48013 C 153.42145,539.19026 150.01449,534.29094 149.6041,533.59275 C 149.14047,532.80396 151.89768,527.97641 156.88614,520.84275 C 161.30165,514.52844 164.46038,509.36218 163.90555,509.36218 C 163.35073,509.36218 147.2825,511.19114 128.19839,513.42655 L 93.5,517.49091 L 86.00806,524.92655 L 78.51613,532.36218 L 86.00806,539.84446 L 93.5,547.32674 L 126,551.21902 C 161.07558,555.41976 164,555.68997 164,554.73013 z M 53,537.86218 L 47.56832,532.36218 L 53.03416,526.79663 C 57.66349,522.08285 58.11739,521.31405 56,521.7732 C 54.625,522.07137 35.275,524.39064 13,526.92713 C -9.275,529.46363 -28.175,531.79197 -29,532.10123 C -30.069084,532.502 35.18409,540.92384 57.46584,543.26088 C 57.99705,543.31659 55.98742,540.88718 53,537.86218 z"
       id="path6533" />
  </g>
</svg>
