<?xml version="1.0" encoding="UTF-8" standalone="no"?>
<!-- Created with Inkscape (http://www.inkscape.org/) -->
<svg
   xmlns:dc="http://purl.org/dc/elements/1.1/"
   xmlns:cc="http://creativecommons.org/ns#"
   xmlns:rdf="http://www.w3.org/1999/02/22-rdf-syntax-ns#"
   xmlns:svg="http://www.w3.org/2000/svg"
   xmlns="http://www.w3.org/2000/svg"
   xmlns:sodipodi="http://sodipodi.sourceforge.net/DTD/sodipodi-0.dtd"
   xmlns:inkscape="http://www.inkscape.org/namespaces/inkscape"
   width="987.36951"
   height="937.49353"
   id="svg6322"
   sodipodi:version="0.32"
   inkscape:version="0.46"
   version="1.0"
   sodipodi:docname="bluetenpflanzen.svg"
   inkscape:output_extension="org.inkscape.output.svg.inkscape">
  <defs
     id="defs6324">
    <inkscape:perspective
       sodipodi:type="inkscape:persp3d"
       inkscape:vp_x="0 : 526.18109 : 1"
       inkscape:vp_y="0 : 1000 : 0"
       inkscape:vp_z="744.09448 : 526.18109 : 1"
       inkscape:persp3d-origin="372.04724 : 350.78739 : 1"
       id="perspective6330" />
  </defs>
  <sodipodi:namedview
     id="base"
     pagecolor="#ffffff"
     bordercolor="#666666"
     borderopacity="1.0"
     inkscape:pageopacity="0.0"
     inkscape:pageshadow="2"
     inkscape:zoom="0.35"
     inkscape:cx="350"
     inkscape:cy="520"
     inkscape:document-units="px"
     inkscape:current-layer="layer1"
     showgrid="false"
     inkscape:window-width="640"
     inkscape:window-height="713"
     inkscape:window-x="60"
     inkscape:window-y="62" />
  <metadata
     id="metadata6327">
    <rdf:RDF>
      <cc:Work
         rdf:about="">
        <dc:format>image/svg+xml</dc:format>
        <dc:type
           rdf:resource="http://purl.org/dc/dcmitype/StillImage" />
      </cc:Work>
    </rdf:RDF>
  </metadata>
  <g
     inkscape:label="Ebene 1"
     inkscape:groupmode="layer"
     id="layer1"
     transform="translate(143.68475,-63.615423)">
    <path
       style="fill:#000000"
       d="M 207.03991,1000.8054 C 194.59667,999.3118 182.15632,996.74301 173.26129,993.8305 C 116.64157,975.29145 82.880447,923.7196 79.355007,850.3838 C 78.367017,829.83191 81.689467,816.46088 93.834657,792.11121 C 113.16798,753.35017 150.44112,707.11676 211.70551,645.90483 C 231.67187,625.95556 232.22743,625.29687 225.03991,630.09498 C 169.46684,667.1934 107.83925,699.32831 66.539907,712.74275 C 42.608487,720.51591 29.375287,722.88782 10.539907,722.78014 C -2.2355128,722.7071 -5.9027828,722.31119 -14.187893,720.11061 C -91.62036,699.54399 -150.61838,622.05884 -143.02636,550.90037 C -139.92778,521.85799 -128.38869,497.15892 -106.60697,472.94577 C -92.619638,457.39708 -64.98164,436.96941 -47.28866,429.1027 C -22.845363,418.23464 13.536147,417.57178 66.539907,427.02877 C 77.539907,428.9914 86.877407,430.80446 87.289907,431.0578 C 87.702407,431.31113 88.039907,431.32365 88.039907,431.08562 C 88.039907,430.84758 82.527407,427.13565 75.789907,422.83688 C 43.313457,402.11572 18.462227,380.70854 3.3084272,360.40037 C -26.951603,319.84779 -27.613033,246.38107 1.7936072,192.14683 C 21.884867,155.0928 52.271697,130.56269 89.644187,121.22845 C 97.394177,119.29279 101.24461,119.00258 119.53991,118.97516 C 137.74892,118.94787 141.9354,119.24702 151.03991,121.22604 C 167.60391,124.82651 184.21361,130.79176 201.70604,139.42242 C 216.00069,146.47531 218.82608,148.29596 226.11224,155.14953 C 239.29343,167.54812 248.04376,179.47779 259.82753,201.11487 C 277.67632,233.88844 296.08388,283.57135 312.61565,343.59266 C 315.29581,353.32342 317.59871,361.1749 317.73321,361.04041 C 317.86771,360.90591 317.23361,352.71938 316.32411,342.84812 C 313.87974,316.31818 313.88433,233.42822 316.33123,214.40037 C 323.11796,161.62453 333.74797,136.09365 358.86082,112.25388 C 393.91001,78.981481 448.09179,59.924897 495.44918,64.213595 C 531.47825,67.476398 559.45195,80.360579 582.19329,104.16636 C 607.8456,131.01936 623.41715,175.00718 623.33977,220.40037 C 623.31373,235.67431 621.9686,242.07886 615.11399,259.56572 C 601.56933,294.11963 564.67562,343.30047 509.53991,400.30035 C 502.38991,407.6921 497.21491,413.35159 498.03991,412.87699 C 498.86491,412.4024 501.94781,410.48314 504.89081,408.61196 C 528.53376,393.57962 575.6244,368.373 599.53991,357.94833 C 640.74147,339.98873 676.69832,331.9885 701.53991,335.25382 C 744.57643,340.91079 792.00536,373.10591 818.83415,414.87403 C 844.06991,454.16206 850.36751,497.79607 836.43357,536.8146 C 828.38284,559.35865 813.05918,580.65676 791.66298,599.04049 C 771.75561,616.14502 749.32631,629.46224 733.88701,633.34452 C 698.87421,642.14865 640.61009,635.81968 565.08618,615.00845 C 556.03663,612.51477 548.49831,610.60864 548.33436,610.77259 C 548.17041,610.93654 552.64959,613.46435 558.28809,616.38994 C 617.84232,647.29026 663.05556,680.24768 684.47306,708.37032 C 701.73284,731.0336 709.31947,756.53875 709.31947,791.90037 C 709.31947,852.77446 680.41308,908.88396 635.28123,935.61423 C 594.21212,959.93826 544.12099,958.9786 489.16678,932.81494 C 474.9985,926.06943 467.65215,920.86353 457.91727,910.67038 C 434.45605,886.10472 415.09511,846.84694 390.71233,774.40037 C 389.25519,770.07088 389.19409,770.65819 389.09976,789.90037 C 388.75607,860.01344 380.10936,904.4949 361.35859,932.60988 C 358.70832,936.58371 352.48991,943.95359 347.53991,948.98739 C 323.07496,973.86649 288.37623,991.59003 250.74609,998.42808 C 240.02075,1000.3771 214.86899,1001.7451 207.03991,1000.8054 z M 251.53991,977.41498 C 296.68619,967.80084 337.01577,940.09944 351.01524,909.08782 C 364.23969,879.79303 369.37375,838.07778 367.89943,771.90037 C 366.74903,720.26296 361.91724,670.62316 354.4933,634.1715 C 353.14393,627.54611 352.03991,622.03002 352.03991,621.91352 C 352.03991,621.79703 347.42741,621.42648 341.78991,621.09008 C 325.48873,620.11736 311.07221,615.22903 297.08881,605.93288 C 293.33899,603.44 289.98743,601.40037 289.64091,601.40037 C 286.64063,601.40037 213.91547,671.89781 189.57571,698.40037 C 133.87769,759.04764 103.58562,805.75424 100.17417,836.24643 C 97.694767,858.40778 105.39952,897.41564 116.63606,919.59018 C 123.73937,933.6081 136.24679,948.81969 148.29667,958.09597 C 160.6521,967.60748 179.80397,975.73896 196.03991,978.36673 C 200.16491,979.03435 204.21491,979.74217 205.03991,979.93965 C 205.86491,980.13713 214.41491,980.12902 224.03991,979.92162 C 236.92201,979.64404 244.17871,978.98259 251.53991,977.41498 z M 589.15892,930.9326 C 637.04628,922.54602 673.6173,882.26333 685.71753,824.57404 C 688.02901,813.55377 688.38652,809.42164 688.45786,792.90037 C 688.50962,780.91513 688.03975,771.13138 687.1852,766.40037 C 685.14781,755.12086 679.55643,738.69566 675.31287,731.52426 C 656.28037,699.36029 606.89248,663.33954 528.53991,624.47629 C 498.30245,609.47837 453.70666,589.70627 428.63202,580.18089 L 424.72413,578.69635 L 418.83533,586.51138 C 408.09212,600.7687 393.15215,611.13736 373.91063,617.69009 C 372.4402,618.19085 372.55584,619.59305 375.09681,632.07266 C 394.65787,728.14425 425.8047,823.47203 452.37087,868.57707 C 469.53039,897.71114 482.495,908.82605 513.42197,920.91782 C 540.11776,931.3553 566.68556,934.86839 589.15892,930.9326 z M 27.348357,701.31883 C 62.698717,696.00245 112.13484,674.65995 172.53991,638.6369 C 198.638,623.07309 253.84168,586.50284 265.4877,577.06267 L 268.43548,574.67322 L 265.82587,568.78679 C 264.39058,565.54926 262.23722,559.75037 261.04062,555.90037 C 257.4326,544.29174 257.20136,520.44191 260.57524,507.90037 C 261.20774,505.54919 257.28465,503.96694 213.03991,488.72858 C 139.84042,463.5179 80.896827,448.39878 34.220847,442.86123 C 8.1598972,439.76941 -21.544063,441.2796 -35.205393,446.39096 C -46.612385,450.65886 -66.0704,463.57972 -80.917784,476.74571 C -124.3414,515.25184 -134.77717,566.91241 -109.37053,617.59638 C -89.092732,658.04877 -46.984533,692.06873 -6.4600928,700.73956 C 1.9486172,702.53873 17.468607,702.80465 27.348357,701.31883 z M 728.18344,613.60973 C 738.02125,610.94152 745.07206,607.33635 759.69426,597.49782 C 772.16614,589.10613 786.39384,576.79581 794.78597,567.1352 C 826.46523,530.66761 831.77196,484.73397 809.45035,440.20436 C 788.83562,399.07982 747.13892,365.56703 705.72453,356.83703 C 683.3943,352.1299 652.45982,358.08053 613.03991,374.66608 C 566.31518,394.32507 499.21166,433.92785 439.34965,477.17365 L 426.15938,486.70263 L 428.461,491.3015 C 435.01479,504.39669 438.6379,522.11323 437.58165,535.90037 C 437.20243,540.85037 436.8129,546.22475 436.71603,547.84345 C 436.54272,550.73962 436.76299,550.87112 450.53991,556.0958 C 484.52978,568.98591 540.9799,587.28462 574.53991,596.29127 C 606.02614,604.74138 639.95686,611.69452 665.15842,614.86096 C 682.56981,617.04861 718.10528,616.34313 728.18344,613.60973 z M 365.99484,598.25647 C 380.17706,594.52317 392.57051,586.29712 402.32527,574.14246 C 411.76315,562.38263 415.96912,550.94058 416.75757,534.88035 C 417.77592,514.13713 411.60588,497.99103 397.05287,483.31606 C 387.80951,473.99523 381.17571,469.71876 369.84946,465.77943 C 360.8092,462.63517 344.37043,461.49251 334.83705,463.34572 C 309.64926,468.24202 289.51943,486.13887 281.34902,510.90037 C 279.06432,517.82447 278.70901,520.58146 278.70706,531.40037 C 278.70449,545.71252 280.77675,553.82521 287.56214,566.06702 C 292.04092,574.14737 304.03896,586.37309 312.24785,591.22116 C 328.18305,600.63229 347.40919,603.14893 365.99484,598.25647 z M 273.06098,481.21825 C 281.07483,468.85078 297.42404,455.06492 310.83779,449.36437 C 315.91831,447.20526 316.11005,446.98544 315.51096,444.00663 C 310.14332,417.31738 299.14861,371.78627 291.57908,344.90037 C 266.1083,254.43175 240.10579,196.76535 213.30278,171.30512 C 207.16061,165.47066 203.74755,163.27085 191.77173,157.42784 C 175.65823,149.56604 161.36549,144.52768 146.03991,141.30683 C 132.4554,138.45189 108.3742,138.15926 97.254337,140.714 C 62.349477,148.73324 35.112197,171.28764 17.644087,206.63692 C 11.435297,219.20132 7.0916772,231.75671 3.9489272,246.22326 C 0.89503724,260.2808 0.16757724,289.49487 2.5202672,303.59763 C 4.4749072,315.3144 8.1029772,327.57182 11.785557,334.90037 C 28.142947,367.45259 75.699107,403.70308 154.08486,443.37043 C 173.76173,453.32797 178.704,455.31832 211.08486,466.32542 C 230.58514,472.95407 251.03991,480.15921 256.53991,482.33683 C 262.03991,484.51446 267.25162,486.3196 268.1215,486.34826 C 268.99137,486.37692 271.21413,484.06842 273.06098,481.21825 z M 418.92528,458.68208 C 511.20823,376.00101 578.78018,296.84738 596.51707,250.65146 C 602.36076,235.43153 603.34504,229.73142 602.69054,214.90037 C 600.85448,173.29535 587.80557,139.11609 565.07082,116.36233 C 550.54772,101.82709 534.66507,93.03651 513.15196,87.626758 C 503.48094,85.194855 500.81074,84.956393 483.03991,84.937597 C 461.67133,84.914996 453.50684,86.040257 435.90791,91.433506 C 403.72532,101.29597 373.96395,121.20902 359.0848,142.83512 C 331.47797,182.96028 326.65601,283.23206 345.66272,421.94463 L 348.27221,440.98889 L 357.97159,442.14881 C 375.17983,444.20669 393.61326,452.03258 404.73288,462.00127 C 407.37675,464.37148 409.71333,466.33091 409.92528,466.35556 C 410.13723,466.3802 414.18723,462.92714 418.92528,458.68208 z"
       id="path6320" />
  </g>
</svg>
