<?xml version="1.0" encoding="UTF-8" standalone="no"?>
<!-- Created with Inkscape (http://www.inkscape.org/) -->
<svg
   xmlns:dc="http://purl.org/dc/elements/1.1/"
   xmlns:cc="http://creativecommons.org/ns#"
   xmlns:rdf="http://www.w3.org/1999/02/22-rdf-syntax-ns#"
   xmlns:svg="http://www.w3.org/2000/svg"
   xmlns="http://www.w3.org/2000/svg"
   xmlns:sodipodi="http://sodipodi.sourceforge.net/DTD/sodipodi-0.dtd"
   xmlns:inkscape="http://www.inkscape.org/namespaces/inkscape"
   width="958.24121"
   height="755.30945"
   id="svg5656"
   sodipodi:version="0.32"
   inkscape:version="0.46"
   version="1.0"
   sodipodi:docname="crustacea.svg"
   inkscape:output_extension="org.inkscape.output.svg.inkscape">
  <defs
     id="defs5658">
    <inkscape:perspective
       sodipodi:type="inkscape:persp3d"
       inkscape:vp_x="0 : 526.18109 : 1"
       inkscape:vp_y="0 : 1000 : 0"
       inkscape:vp_z="744.09448 : 526.18109 : 1"
       inkscape:persp3d-origin="372.04724 : 350.78739 : 1"
       id="perspective5664" />
  </defs>
  <sodipodi:namedview
     id="base"
     pagecolor="#ffffff"
     bordercolor="#666666"
     borderopacity="1.0"
     inkscape:pageopacity="0.0"
     inkscape:pageshadow="2"
     inkscape:zoom="0.35"
     inkscape:cx="350"
     inkscape:cy="520"
     inkscape:document-units="px"
     inkscape:current-layer="layer1"
     showgrid="false"
     inkscape:window-width="640"
     inkscape:window-height="713"
     inkscape:window-x="380"
     inkscape:window-y="382" />
  <metadata
     id="metadata5661">
    <rdf:RDF>
      <cc:Work
         rdf:about="">
        <dc:format>image/svg+xml</dc:format>
        <dc:type
           rdf:resource="http://purl.org/dc/dcmitype/StillImage" />
      </cc:Work>
    </rdf:RDF>
  </metadata>
  <g
     inkscape:label="Ebene 1"
     inkscape:groupmode="layer"
     id="layer1"
     transform="translate(129.1206,-154.70745)">
    <path
       style="fill:#000000"
       d="M 53.100515,885.90056 C 31.925515,872.74836 14.486675,861.65259 14.347545,861.24329 C 14.208405,860.83398 21.408405,847.58135 30.347545,831.793 L 46.600515,803.0869 L 79.704825,773.30191 L 112.80915,743.51692 L 160.45048,722.586 C 187.45151,710.72327 209.01503,700.67237 210.22274,699.38682 L 212.35366,697.11856 L 209.97709,696.63327 C 208.66998,696.36636 184.20052,694.75736 155.60052,693.05771 L 103.60052,689.96744 L 67.100515,702.69593 L 30.600515,715.42442 L 0.84831537,734.84708 L -28.903888,754.26973 L -49.071127,795.14333 C -60.163109,817.6238 -69.749464,836.01692 -70.374139,836.01692 C -72.704684,836.01692 -85.394393,831.21672 -85.266705,830.38344 C -84.162891,823.17996 -62.310479,728.13237 -61.530492,727.1422 C -60.93489,726.38611 -45.569727,713.49627 -27.385685,698.49812 L 5.6762054,671.22876 L 47.138365,658.06464 L 88.600515,644.90052 L 110.10052,646.46417 C 121.92552,647.32418 133.62552,648.29246 136.10052,648.61591 C 138.57552,648.93936 140.36534,648.96423 140.07789,648.67117 C 139.79044,648.37811 117.74044,641.08945 91.077885,632.47415 L 42.600515,616.80997 L 6.1005154,612.45309 L -30.399485,608.09622 L -33.899485,610.54784 C -35.824485,611.89623 -49.545547,621.89169 -64.390735,632.75998 L -91.381984,652.52052 L -101.41569,684.01872 C -106.93423,701.34273 -111.66491,716.08464 -111.92831,716.77853 C -112.30655,717.77494 -114.16383,717.68781 -120.76391,716.36403 L -129.1206,714.68792 L -128.54909,709.10242 C -128.23476,706.0304 -126.99508,686.64192 -125.79425,666.01692 C -124.59342,645.39192 -123.16768,627.95071 -122.62593,627.25869 C -122.08418,626.56666 -103.5866,612.56937 -81.520206,596.1536 L -41.399485,566.30675 L 5.6005154,571.06751 C 31.450515,573.68593 53.500515,576.17997 54.600515,576.60983 C 57.239425,577.64105 60.630075,581.66907 11.415185,525.30667 C -28.308815,479.81354 -30.743417,476.80577 -30.312047,473.75583 C -29.929744,471.05282 -13.899485,285.31151 -13.899485,283.58481 C -13.899485,283.27247 -10.119795,283.01692 -5.5001746,283.01692 L 2.8991254,283.01692 L 3.5001254,295.26692 C 3.8306754,302.00442 5.0302854,343.9208 6.1659354,388.41444 L 8.2307454,469.31195 L 42.884035,504.64126 C 61.943335,524.07237 78.226535,540.24749 79.068915,540.58597 C 82.512315,541.96955 127.24063,558.01692 127.65365,558.01692 C 127.89943,558.01692 128.10052,555.80125 128.10052,553.09321 C 128.10052,550.38517 128.62002,545.91889 129.25497,543.16815 L 130.40942,538.1668 L 100.17937,484.34186 L 69.949315,430.51692 L 78.306595,392.51692 L 86.663885,354.51692 L 121.96155,292.47557 L 157.25921,230.43422 L 214.28407,192.97557 C 245.64775,172.37331 271.84826,155.20674 272.50743,154.82764 C 273.23559,154.40886 275.89983,156.59124 279.29645,160.38876 L 284.88699,166.63916 L 265.08581,193.57804 C 254.19516,208.39442 245.43991,220.67613 245.6297,220.87071 C 245.81949,221.0653 257.35317,213.25027 271.2601,203.50397 C 285.16702,193.75767 297.01445,185.60344 297.58773,185.38345 C 298.161,185.16347 301.23217,187.61305 304.41255,190.82696 L 310.19505,196.67044 L 269.31849,255.19269 C 233.54232,306.41282 225.14529,317.73274 202.02123,345.91528 C 184.03249,367.83914 175.39497,379.13709 174.95646,381.31628 C 174.60223,383.07663 173.49651,394.15701 172.49931,405.93935 L 170.68622,427.36178 L 179.53179,444.68935 C 184.39686,454.21951 188.81734,462.01692 189.3551,462.01692 C 189.89285,462.01692 193.09306,459.85423 196.46667,457.21093 C 229.08411,431.65453 270.8067,414.21403 315.79533,407.33022 C 330.79109,405.03569 369.40995,405.03569 384.40571,407.33022 C 429.39434,414.21403 471.11693,431.65453 503.73437,457.21093 C 507.10798,459.85423 510.30819,462.01692 510.84594,462.01692 C 511.3837,462.01692 515.80418,454.21951 520.66925,444.68935 L 529.51482,427.36178 L 527.70173,405.93935 C 526.70453,394.15701 525.59881,383.07663 525.24458,381.31628 C 524.80581,379.13583 516.15373,367.82625 498.10052,345.83488 C 474.76165,317.40483 466.73593,306.58066 430.82028,255.09507 L 390.04005,196.63603 L 395.80552,190.80975 C 398.97654,187.6053 402.02764,185.15935 402.58576,185.3743 C 403.14388,185.58925 414.99966,193.73513 428.93195,203.47626 C 442.86423,213.21738 454.4077,221.03654 454.58411,220.85216 C 454.76051,220.66778 445.98516,208.39474 435.08332,193.57875 L 415.2618,166.64059 L 420.7923,160.34126 C 424.39773,156.23462 426.76591,154.29864 427.59579,154.77943 C 428.29594,155.18505 454.53133,172.36855 485.89668,192.96499 L 542.92458,230.41307 L 578.23561,292.465 L 613.54664,354.51692 L 621.89586,392.51692 L 630.24508,430.51692 L 600.13627,484.01692 C 574.39845,529.75017 570.1077,537.95244 570.58016,540.51692 C 570.88414,542.16692 571.41048,546.79073 571.74981,550.79206 C 572.32921,557.62442 572.4956,558.02694 574.48364,557.40575 C 575.64792,557.04195 586.90975,553.01837 599.50993,548.46444 L 622.41934,540.18459 L 631.0808,531.35075 C 635.8446,526.49214 651.48361,510.59192 665.83416,496.01692 L 691.92606,469.51692 L 694.0083,388.51692 C 695.15353,343.96692 696.3631,302.00442 696.69622,295.26692 L 697.30191,283.01692 L 705.70121,283.01692 C 710.32083,283.01692 714.10052,283.31484 714.10052,283.67897 C 714.10052,284.52338 729.92473,469.38374 730.37973,473.85463 C 730.6979,476.98105 728.05681,480.24407 688.65996,525.39858 C 639.67039,581.54776 642.95311,577.64332 645.60052,576.6131 C 646.70052,576.18504 667.17552,573.87574 691.10052,571.48131 C 715.02552,569.08688 736.27753,566.92208 738.3272,566.67064 C 741.89943,566.23244 743.74374,567.48385 782.8272,596.8652 L 823.60052,627.51692 L 825.72907,662.01692 C 826.89977,680.99192 828.14179,700.61447 828.48911,705.62258 L 829.1206,714.72824 L 820.94028,716.36897 C 816.44111,717.27137 812.60626,717.856 812.4184,717.66813 C 812.23054,717.48027 807.56708,703.01452 802.05516,685.52202 C 796.54324,668.02952 791.8063,653.34988 791.52863,652.9006 C 791.0979,652.20366 734.57276,610.63242 731.52683,608.77245 C 730.93629,608.41185 714.06129,610.07463 694.02683,612.46751 L 657.60052,616.81821 L 609.16616,632.43526 C 582.52726,641.02464 560.47726,648.31144 560.16616,648.62816 C 559.85506,648.94488 561.62552,648.93936 564.10052,648.61591 C 566.57552,648.29246 578.27552,647.32418 590.10052,646.46417 L 611.60052,644.90052 L 653.06267,658.06464 L 694.52483,671.22876 L 727.58672,698.49812 C 745.77076,713.49627 761.13593,726.38611 761.73153,727.1422 C 762.51151,728.13237 784.36393,823.17996 785.46774,830.38344 C 785.59543,831.21672 772.90572,836.01692 770.57517,836.01692 C 769.9505,836.01692 760.36414,817.6238 749.27216,795.14333 L 729.10492,754.26973 L 699.35272,734.84708 L 669.60052,715.42442 L 633.10052,702.69593 L 596.60052,689.96744 L 544.60052,693.05771 C 516.00052,694.75736 491.53106,696.36636 490.22395,696.63327 L 487.84738,697.11856 L 489.9783,699.38682 C 491.18638,700.67276 512.74571,710.71963 539.76084,722.586 L 587.41246,743.51692 L 620.50649,773.3292 L 653.60052,803.14147 L 669.84502,831.8292 C 678.7795,847.60744 685.9795,860.83885 685.84502,861.23231 C 685.71055,861.62577 668.10723,872.76327 646.72654,885.98231 L 607.85255,910.01692 L 601.40915,910.01692 C 595.74159,910.01692 595.02822,909.80621 595.48459,908.26692 C 595.76995,907.30442 598.94653,890.09192 602.54364,870.01692 C 606.14076,849.94192 609.3032,832.57603 609.5713,831.42605 C 610.00835,829.55135 607.55382,828.21828 585.82963,818.5319 C 572.50362,812.5901 559.35052,806.61452 556.60052,805.25284 C 553.85052,803.89116 534.10979,791.29472 512.73222,777.26075 L 473.86392,751.74443 L 411.98222,748.67454 L 350.10052,745.60464 L 288.18147,748.67639 L 226.26242,751.74814 L 187.06219,777.54214 C 145.88329,804.63812 145.91093,804.62293 104.33325,823.01985 C 93.343005,827.88272 90.174385,829.6984 90.538005,830.92482 C 90.797625,831.80047 93.977325,849.16692 97.604015,869.51692 C 101.23071,889.86692 104.43139,907.30442 104.71664,908.26692 C 105.17683,909.81966 104.46686,910.00546 98.417905,909.91528 L 91.600515,909.81363 L 53.100515,885.90056 z M 82.100515,881.2243 C 82.100515,880.23837 79.644185,865.96969 76.642005,849.51614 C 73.639835,833.06259 71.346095,819.43801 71.544805,819.23929 C 71.743525,819.04058 87.137355,812.00652 105.75332,803.60805 L 139.60052,788.3381 L 179.60052,761.98569 C 226.04698,731.38628 216.31197,734.92615 259.39617,732.97014 C 274.68378,732.27609 286.83378,731.41847 286.39617,731.06433 C 285.95856,730.71018 283.12552,729.61122 280.10052,728.6222 C 269.81432,725.25911 250.65457,715.18187 241.81527,708.48574 C 231.81266,700.90835 233.38255,700.74986 223.4388,710.34096 C 217.3737,716.19096 216.5348,716.61011 169.9388,737.07186 L 122.60052,757.85957 L 91.071645,786.27204 L 59.542775,814.68451 L 48.195745,834.89148 C 41.954875,846.00531 37.165785,855.41552 37.553315,855.80306 C 38.645955,856.89569 80.503955,882.81312 81.350515,882.92118 C 81.763015,882.97384 82.100515,882.21024 82.100515,881.2243 z M 640.33188,869.86991 C 652.02963,862.63906 661.99413,856.37295 662.4752,855.94523 C 662.95627,855.51751 658.2593,846.08894 652.03747,834.99284 L 640.72506,814.81812 L 609.709,786.75876 C 581.54789,761.28219 577.95231,758.35877 570.64673,754.99882 C 566.22132,752.96351 544.82552,743.51867 523.10052,734.01029 C 484.38758,717.06681 483.471,716.59954 477.10052,710.55933 C 466.71656,700.71373 468.39919,700.90016 458.38577,708.48574 C 449.54647,715.18187 430.38672,725.25911 420.10052,728.6222 C 417.07552,729.61122 414.24248,730.71018 413.80487,731.06433 C 413.36726,731.41847 425.51726,732.27609 440.80487,732.97014 C 483.84379,734.9241 474.14887,731.39819 520.60052,761.99072 L 560.60052,788.33427 L 594.44772,803.60613 C 613.06368,812.00565 628.45343,819.0365 628.64716,819.23022 C 628.84088,819.42395 626.55519,833.06771 623.56783,849.54969 C 618.21699,879.07155 617.62921,883.01692 618.58188,883.01692 C 618.84663,883.01692 628.63413,877.10077 640.33188,869.86991 z M -47.000257,752.21773 L -42.082794,742.41854 L -9.7411346,721.28904 L 22.600515,700.15954 L 61.600515,686.49642 L 100.60052,672.83331 L 156.85052,676.18433 C 187.78802,678.02739 213.10052,679.21942 213.10052,678.83329 C 213.10052,676.92046 208.69624,671.01341 207.25174,670.98887 C 206.34357,670.97344 179.95052,668.96482 148.60052,666.52527 L 91.600515,662.08972 L 52.876755,674.27087 L 14.153005,686.45201 L -13.194775,708.98447 C -28.236055,721.37732 -41.949888,732.70603 -43.669955,734.15939 C -46.445904,736.50491 -47.121612,738.21864 -49.682863,749.40939 C -51.269896,756.34353 -52.421979,762.01692 -52.243048,762.01692 C -52.064118,762.01692 -49.704861,757.60729 -47.000257,752.21773 z M 749.8839,749.40939 C 747.32265,738.21864 746.64694,736.50491 743.87099,734.15939 C 742.15092,732.70603 728.43709,721.37732 713.39581,708.98447 L 686.04803,686.45201 L 647.32428,674.27087 L 608.60052,662.08972 L 551.60052,666.52527 C 520.25052,668.96482 493.85747,670.97344 492.9493,670.98887 C 491.5048,671.01341 487.10052,676.92046 487.10052,678.83329 C 487.10052,679.21942 512.41302,678.02739 543.35052,676.18433 L 599.60052,672.83331 L 638.60052,686.49642 L 677.60052,700.15954 L 709.94217,721.28904 L 742.28383,742.41854 L 747.20129,752.21773 C 749.9059,757.60729 752.26515,762.01692 752.44408,762.01692 C 752.62301,762.01692 751.47093,756.34353 749.8839,749.40939 z M 389.10052,718.53287 C 419.87541,713.05262 438.98036,703.9318 457.21016,686.01692 C 469.25459,674.18056 476.77921,663.40954 487.59921,642.51692 C 512.23189,594.95303 525.4819,577.21972 547.67434,562.11459 C 553.94436,557.84695 554.63021,557.04577 554.91393,553.65758 C 555.56341,545.90134 547.55362,528.48051 536.45795,513.51692 C 528.41891,502.6755 506.65746,480.76969 495.56086,472.34853 C 467.76524,451.25458 437.99098,436.88495 405.6589,428.96015 C 385.83754,424.1018 372.88385,422.62465 350.10052,422.62465 C 327.31719,422.62465 314.3635,424.1018 294.54214,428.96015 C 262.21006,436.88495 232.4358,451.25458 204.64018,472.34853 C 193.54358,480.76969 171.78213,502.6755 163.74309,513.51692 C 152.64742,528.48051 144.63763,545.90134 145.28711,553.65758 C 145.57083,557.04577 146.25668,557.84695 152.5267,562.11459 C 174.62376,577.1548 188.26901,595.35262 212.13521,641.61079 C 223.30616,663.26264 230.7763,674.01335 242.99088,686.01692 C 255.03642,697.85438 264.66224,704.11433 280.05425,710.12035 C 290.73397,714.28761 308.40535,718.50599 321.15456,719.93152 C 334.53601,721.42774 377.85112,720.53611 389.10052,718.53287 z M 193.76231,644.35985 C 192.37166,641.69875 187.58592,639.9366 118.93858,616.80894 L 45.600515,592.10095 L 4.3537154,588.04946 L -36.893094,583.99797 L -71.646289,610.06322 C -105.5915,635.52248 -106.40595,636.21437 -106.67774,639.8227 C -106.83079,641.85452 -106.60579,643.04901 -106.17774,642.47712 C -105.7497,641.90522 -89.63695,629.93846 -70.37163,615.88431 L -35.343775,590.3313 L 5.1283754,595.1041 L 45.600515,599.87689 L 120.10052,623.85721 C 161.07552,637.04639 194.7462,647.69471 194.92426,647.52016 C 195.10231,647.3456 194.57944,645.92346 193.76231,644.35985 z M 581.10052,623.47647 L 654.60052,599.87466 L 695.07266,595.10298 L 735.54481,590.3313 L 770.57266,615.88431 C 789.83799,629.93846 805.95074,641.90522 806.37878,642.47712 C 806.80682,643.04901 807.03182,641.85452 806.87878,639.8227 C 806.60699,636.21437 805.79253,635.52248 771.84732,610.06322 L 737.09413,583.99797 L 695.84732,588.04774 L 654.60052,592.09751 L 581.25905,616.80722 C 514.06934,639.44431 507.79943,641.74342 506.50905,644.21726 C 504.77803,647.53585 504.75207,648.07623 506.35052,647.51622 C 507.03802,647.27535 540.67552,636.45747 581.10052,623.47647 z M 166.30335,598.31303 C 157.18613,586.92169 158.33086,587.50062 111.60052,570.64783 L 68.600515,555.14035 L 34.165205,520.32863 C 15.225785,501.18219 0.66552537,486.64192 1.8090554,488.01692 C 2.9525954,489.39192 18.793555,507.61692 37.011195,528.51692 L 70.134175,566.51692 L 119.36735,584.6638 C 146.44559,594.64459 168.76727,602.65284 168.97107,602.45992 C 169.17488,602.267 167.9744,600.4009 166.30335,598.31303 z M 588.12985,582.06986 L 629.65918,566.8648 L 658.12985,534.22309 C 673.78872,516.27016 689.6944,497.96688 693.4758,493.54915 C 697.25721,489.13143 684.88221,501.18048 665.9758,520.32483 L 631.60052,555.13273 L 588.60052,570.59389 L 545.60052,586.05505 L 538.35052,593.61168 C 534.36302,597.76782 531.10052,601.57293 531.10052,602.06746 C 531.10052,602.562 534.58802,601.68598 538.85052,600.12076 C 543.11302,598.55555 565.28872,590.43264 588.12985,582.06986 z M 144.61217,510.76692 C 150.47306,501.9239 158.45158,492.05443 168.03065,481.79815 L 175.23975,474.07938 L 164.19401,452.29815 L 153.14828,430.51692 L 155.60986,403.51692 C 156.96373,388.66692 158.07799,375.60276 158.08598,374.48545 C 158.09431,373.32141 169.58286,358.43891 184.99116,339.6319 L 211.88179,306.80984 L 209.63874,299.66338 C 198.76653,265.02412 199.14713,265.97856 195.28819,263.67615 C 183.34744,256.55177 167.48295,248.38088 166.79531,249.0011 C 166.35244,249.40053 151.79003,274.655 134.43441,305.12213 L 102.87872,360.51692 L 95.470875,394.10174 L 88.063035,427.68656 L 113.33178,472.82604 C 127.22959,497.65276 138.872,517.97709 139.2038,517.99122 C 139.53561,518.00536 141.96937,514.75442 144.61217,510.76692 z M 586.8683,472.81902 L 612.13607,427.6778 L 604.73927,394.09736 L 597.34247,360.51692 L 566.08143,305.51692 C 548.88785,275.26692 534.32091,249.98998 533.71045,249.34595 C 532.87256,248.46199 529.29174,250.00948 519.10052,255.6598 C 511.67552,259.77644 504.6353,263.77028 503.45558,264.53498 C 501.49594,265.80523 497.73142,276.11844 489.53981,302.65832 L 488.26155,306.79972 L 515.18104,339.61507 C 529.98675,357.66352 542.10052,373.20869 542.10052,374.1599 C 542.10052,375.11111 543.22549,388.36608 544.60046,403.61539 L 547.10041,431.3414 L 544.73136,435.42916 C 543.42839,437.67743 538.44058,447.30232 533.64736,456.81781 L 524.9324,474.11871 L 532.39315,481.92779 C 541.29016,491.24018 549.98277,502.06589 555.96798,511.28769 C 558.37008,514.98877 560.62008,518.00417 560.96798,517.98858 C 561.31588,517.973 572.97102,497.6467 586.8683,472.81902 z M -9.5149646,449.01692 L -10.265125,441.51692 L -11.566475,456.45567 C -12.773475,470.31126 -12.742095,471.53371 -11.133655,473.31556 C -9.4729046,475.15537 -9.3860446,474.84041 -9.0821546,465.87681 C -8.9076146,460.72887 -9.1023846,453.14192 -9.5149646,449.01692 z M 711.84664,457.01205 C 710.42566,439.96235 709.39514,441.91418 709.21883,461.98914 C 709.10098,475.40933 709.10816,475.45373 711.07761,473.48427 C 712.98177,471.58011 713.01014,470.97247 711.84664,457.01205 z M 243.63881,262.01692 C 253.3938,247.99192 262.99419,234.28745 264.97303,231.56254 C 266.95186,228.83764 267.90257,227.01484 267.08571,227.51188 C 262.94608,230.03078 217.03981,262.30613 216.61186,262.99858 C 215.81257,264.29185 224.16862,289.35385 225.07791,288.39051 C 225.53142,287.91003 233.88383,276.04192 243.63881,262.01692 z M 480.03197,276.36644 C 482.23229,269.40867 483.82014,263.37227 483.56052,262.9522 C 483.12017,262.2397 436.39453,229.40048 433.10052,227.48844 C 432.27552,227.00956 432.75687,228.17006 434.17018,230.06733 C 435.58349,231.96461 445.43146,246.00442 456.05456,261.26692 C 466.67766,276.52942 475.51827,289.01692 475.70034,289.01692 C 475.88242,289.01692 477.83165,283.3242 480.03197,276.36644 z M 223.03231,221.99068 C 233.35822,207.98011 241.67417,196.35578 241.5122,196.15884 C 240.91046,195.42719 181.15583,235.2974 181.65169,236.09971 C 182.40752,237.32267 202.45451,248.01882 203.42922,247.71919 C 203.88501,247.57908 212.7064,236.00126 223.03231,221.99068 z M 507.70742,242.48285 C 513.38187,239.43912 518.26155,236.56538 518.55116,236.09678 C 519.0072,235.3589 460.29469,196.01692 458.73747,196.01692 C 458.41763,196.01692 466.75823,207.71692 477.27214,222.01692 C 487.78604,236.31692 496.61376,248.01692 496.88929,248.01692 C 497.16482,248.01692 502.03298,245.52659 507.70742,242.48285 z"
       id="path5654" />
  </g>
</svg>
