<?xml version="1.0" encoding="UTF-8" standalone="no"?>
<!-- Created with Inkscape (http://www.inkscape.org/) -->
<svg
   xmlns:dc="http://purl.org/dc/elements/1.1/"
   xmlns:cc="http://creativecommons.org/ns#"
   xmlns:rdf="http://www.w3.org/1999/02/22-rdf-syntax-ns#"
   xmlns:svg="http://www.w3.org/2000/svg"
   xmlns="http://www.w3.org/2000/svg"
   xmlns:sodipodi="http://sodipodi.sourceforge.net/DTD/sodipodi-0.dtd"
   xmlns:inkscape="http://www.inkscape.org/namespaces/inkscape"
   width="682.38245"
   height="1520.9816"
   id="svg4549"
   sodipodi:version="0.32"
   inkscape:version="0.46"
   version="1.0"
   sodipodi:docname="grossforams_fussuliniden.svg"
   inkscape:output_extension="org.inkscape.output.svg.inkscape">
  <defs
     id="defs4551">
    <inkscape:perspective
       sodipodi:type="inkscape:persp3d"
       inkscape:vp_x="0 : 526.18109 : 1"
       inkscape:vp_y="0 : 1000 : 0"
       inkscape:vp_z="744.09448 : 526.18109 : 1"
       inkscape:persp3d-origin="372.04724 : 350.78739 : 1"
       id="perspective4557" />
  </defs>
  <sodipodi:namedview
     id="base"
     pagecolor="#ffffff"
     bordercolor="#666666"
     borderopacity="1.0"
     inkscape:pageopacity="0.0"
     inkscape:pageshadow="2"
     inkscape:zoom="0.35"
     inkscape:cx="350"
     inkscape:cy="520"
     inkscape:document-units="px"
     inkscape:current-layer="layer1"
     showgrid="false"
     inkscape:window-width="640"
     inkscape:window-height="713"
     inkscape:window-x="60"
     inkscape:window-y="62" />
  <metadata
     id="metadata4554">
    <rdf:RDF>
      <cc:Work
         rdf:about="">
        <dc:format>image/svg+xml</dc:format>
        <dc:type
           rdf:resource="http://purl.org/dc/dcmitype/StillImage" />
      </cc:Work>
    </rdf:RDF>
  </metadata>
  <g
     inkscape:label="Ebene 1"
     inkscape:groupmode="layer"
     id="layer1"
     transform="translate(-8.8087988,228.12861)">
    <path
       style="fill:#000000"
       d="M 323.42312,1285.2103 C 302.27742,1269.8563 286.12745,1255.8322 261.03655,1231.0361 C 148.08513,1119.4117 67.735863,964.58879 31.55176,788.84789 C 11.179489,689.90281 4.1051665,578.46171 11.906074,479.37139 C 26.024716,300.03062 84.309565,125.88747 184.77606,-37.128613 C 223.70943,-100.30156 278.04734,-171.82548 319.79961,-214.85746 L 332.6761,-228.12861 L 339.41751,-228.12861 L 346.15893,-228.12861 L 355.1437,-218.87861 C 393.24571,-179.65185 444.08365,-113.61331 483.12666,-52.628613 C 598.22684,127.15642 668.47057,330.5254 686.39481,535.87139 C 693.64433,618.92431 692.7018,689.98857 683.39073,762.37139 C 669.27767,872.08409 636.33394,970.12329 584.09501,1057.8714 C 530.68959,1147.5789 453.81182,1226.9172 371.92312,1276.8339 C 351.26354,1289.4273 344.13145,1292.8734 338.76919,1292.8529 C 334.32853,1292.836 333.04472,1292.1967 323.42312,1285.2103 z M 371.3287,1237.7004 C 403.56774,1215.9515 426.57144,1196.8109 456.99616,1166.4193 C 492.11478,1131.3389 512.81909,1106.2293 539.0791,1066.8714 C 565.36715,1027.4714 589.34046,980.49659 607.72036,932.37139 C 632.26283,868.11029 648.62639,793.19109 654.89823,716.37139 C 659.4344,660.81082 658.95123,605.72295 653.35017,539.87139 C 641.87695,404.98105 607.28212,271.81246 549.82696,141.37139 C 538.5918,115.86409 510.74726,60.113577 496.63563,34.871387 C 463.74797,-23.956423 427.50348,-78.777463 388.53889,-128.62861 C 375.59729,-145.18604 357.52059,-167.12861 356.82188,-167.12861 C 356.60256,-167.12861 356.42312,151.02139 356.42312,539.87139 C 356.42312,928.72139 356.71813,1246.8714 357.0787,1246.8714 C 357.43926,1246.8714 363.85176,1242.7445 371.3287,1237.7004 z M 322.17452,184.37075 L 321.92312,-168.12989 L 312.28603,-156.77754 C 215.09882,-42.292443 134.74694,104.35273 89.841905,249.19123 C 57.570799,353.27977 42.125672,455.07336 42.323127,562.37139 C 42.648389,739.12094 81.048223,898.92769 156.01187,1035.5043 C 177.79288,1075.1872 208.1633,1120.535 234.28039,1152.3714 C 256.25117,1179.1535 291.24098,1215.6333 312.42312,1233.8418 L 321.92312,1242.0081 L 322.17452,889.43969 C 322.31279,695.52715 322.31279,378.2461 322.17452,184.37075 z"
       id="path4547" />
  </g>
</svg>
