<?xml version="1.0" encoding="UTF-8" standalone="no"?>
<!-- Created with Inkscape (http://www.inkscape.org/) -->
<svg
   xmlns:dc="http://purl.org/dc/elements/1.1/"
   xmlns:cc="http://creativecommons.org/ns#"
   xmlns:rdf="http://www.w3.org/1999/02/22-rdf-syntax-ns#"
   xmlns:svg="http://www.w3.org/2000/svg"
   xmlns="http://www.w3.org/2000/svg"
   xmlns:sodipodi="http://sodipodi.sourceforge.net/DTD/sodipodi-0.dtd"
   xmlns:inkscape="http://www.inkscape.org/namespaces/inkscape"
   width="961.53418"
   height="380.38635"
   id="svg4434"
   sodipodi:version="0.32"
   inkscape:version="0.46"
   version="1.0"
   sodipodi:docname="holz.svg"
   inkscape:output_extension="org.inkscape.output.svg.inkscape">
  <defs
     id="defs4436">
    <inkscape:perspective
       sodipodi:type="inkscape:persp3d"
       inkscape:vp_x="0 : 526.18109 : 1"
       inkscape:vp_y="0 : 1000 : 0"
       inkscape:vp_z="744.09448 : 526.18109 : 1"
       inkscape:persp3d-origin="372.04724 : 350.78739 : 1"
       id="perspective4442" />
  </defs>
  <sodipodi:namedview
     id="base"
     pagecolor="#ffffff"
     bordercolor="#666666"
     borderopacity="1.0"
     inkscape:pageopacity="0.0"
     inkscape:pageshadow="2"
     inkscape:zoom="0.35"
     inkscape:cx="350"
     inkscape:cy="520"
     inkscape:document-units="px"
     inkscape:current-layer="layer1"
     showgrid="false"
     inkscape:window-width="640"
     inkscape:window-height="713"
     inkscape:window-x="336"
     inkscape:window-y="128" />
  <metadata
     id="metadata4439">
    <rdf:RDF>
      <cc:Work
         rdf:about="">
        <dc:format>image/svg+xml</dc:format>
        <dc:type
           rdf:resource="http://purl.org/dc/dcmitype/StillImage" />
      </cc:Work>
    </rdf:RDF>
  </metadata>
  <g
     inkscape:label="Ebene 1"
     inkscape:groupmode="layer"
     id="layer1"
     transform="translate(130.76709,-342.16901)">
    <path
       style="fill:#000000"
       d="M 115.4135,721.85523 C -11.411538,721.34689 -24.418598,721.14424 -33.086498,719.54158 C -63.789381,713.86475 -81.495567,705.93196 -97.699834,690.59327 C -117.71124,671.65081 -127.16694,649.50913 -130.18116,614.53423 C -132.29323,590.02734 -128.67714,567.29465 -119.6281,548.19194 C -107.2454,522.0518 -84.988806,502.93141 -55.425771,493.03642 C -37.405928,487.00504 -32.142811,486.46448 3.9135022,486.94194 C 87.696652,488.0514 112.15115,486.31047 127.10437,478.17191 C 132.46567,475.25392 133.09129,474.35361 146.42226,450.37231 C 168.87075,409.98937 183.08486,388.98244 198.24713,373.78077 C 223.37315,348.58946 248.79118,339.74697 287.5266,342.722 C 313.17752,344.69208 332.64581,348.75103 357.82884,357.37931 C 397.88949,371.10501 430.15736,391.70492 439.71314,409.6545 C 444.92561,419.4456 446.27851,429.25499 445.60215,452.35351 C 445.22266,465.31358 444.29911,476.60357 442.98293,484.37231 C 441.86476,490.97231 440.94171,496.93481 440.9317,497.62231 C 440.91728,498.61259 458.73032,498.87621 526.6635,498.89107 C 640.29233,498.91594 725.49281,500.32917 737.47165,502.38777 C 760.01217,506.26143 778.98232,515.93689 794.78124,531.61773 C 820.96195,557.60276 834.26907,595.86491 829.97141,632.80051 C 824.5787,679.14746 802.01786,709.25776 765.4135,718.96124 C 758.50721,720.79203 753.10703,721.19478 725.9135,721.9072 C 692.04442,722.79449 342.32221,722.76472 115.4135,721.85523 z M 757.4135,699.57191 C 774.14736,695.59504 788.22641,685.37818 796.7548,671.02278 C 807.51367,652.91292 812.3681,624.15008 808.44573,601.7533 C 804.50661,579.26093 794.13027,559.7684 778.12481,544.79375 C 762.08129,529.78349 747.01817,523.5624 722.4135,521.7849 C 715.2635,521.26836 643.376,520.565 562.6635,520.22187 C 443.38729,519.7148 415.9135,519.35509 415.9135,518.30053 C 415.9135,517.58692 416.60919,513.71114 417.45948,509.68769 C 420.52816,495.16715 424.02039,470.2347 424.84756,456.94115 C 425.31193,449.47829 425.53404,443.20212 425.34115,442.9941 C 425.14825,442.78609 422.83561,443.6311 420.20196,444.87191 C 400.28882,454.25368 374.47399,457.45122 302.9135,459.39977 C 280.27863,460.01611 278.94594,459.94479 266.71283,457.46254 C 233.54342,450.73204 202.4777,435.61924 192.9135,421.56075 C 191.5385,419.53963 190.17937,417.8829 189.89322,417.87915 C 189.16674,417.86961 175.18731,441.59265 161.97145,465.26229 C 149.452,487.68464 147.51657,490.31777 140.2481,494.81669 C 122.13337,506.02906 89.710612,509.39765 16.335202,507.69073 C -3.3228878,507.23342 -19.570688,507.02316 -19.771008,507.22348 C -19.971328,507.4238 -18.303768,510.60233 -16.065328,514.28688 C -0.88592777,539.27268 6.4353122,578.97022 4.0377222,623.2904 C 2.2151522,656.98087 -1.6123678,678.02436 -8.5901578,692.71759 C -10.513148,696.76686 -12.086498,700.25579 -12.086498,700.47078 C -12.086498,701.13315 155.30166,701.44016 459.4135,701.33557 C 727.11123,701.2435 750.97404,701.10227 757.4135,699.57191 z M 272.9135,651.37231 L 272.9135,640.87231 L 364.4135,640.87231 L 455.9135,640.87231 L 455.9135,651.37231 L 455.9135,661.87231 L 364.4135,661.87231 L 272.9135,661.87231 L 272.9135,651.37231 z M 525.9135,577.9519 L 525.9135,568.0315 L 532.1635,567.4832 C 535.601,567.18163 568.001,566.74988 604.1635,566.52375 L 669.9135,566.1126 L 669.9135,576.33042 L 669.9135,586.54824 L 634.6635,587.20874 C 615.276,587.57201 582.876,587.86993 562.6635,587.87077 L 525.9135,587.87231 L 525.9135,577.9519 z M 63.913502,551.37231 L 63.913502,540.87231 L 135.9135,540.87231 L 207.9135,540.87231 L 207.9135,551.37231 L 207.9135,561.87231 L 135.9135,561.87231 L 63.913502,561.87231 L 63.913502,551.37231 z M -33.661686,692.80418 C -22.899858,683.35517 -16.765908,652.61404 -16.714768,607.87231 C -16.685448,582.21985 -17.532918,574.11936 -22.257588,554.89175 C -26.574008,537.32558 -34.424544,521.53461 -41.357406,516.47343 C -48.229619,511.45652 -62.288425,516.05925 -77.971731,528.46063 C -97.521339,543.91925 -108.40183,566.62845 -109.79108,594.87231 C -111.30219,625.59368 -103.25777,653.92271 -88.156352,671.0606 C -78.472071,682.05083 -59.481357,692.93921 -46.086498,695.18146 C -39.440264,696.29401 -37.133754,695.8527 -33.661686,692.80418 z M 324.5164,437.86052 C 369.26751,436.23746 390.45267,433.73014 405.72281,428.24953 C 412.69179,425.74829 419.9135,420.53588 419.9135,418.00712 C 419.9135,413.48656 401.73666,400.04522 382.5239,390.35838 C 358.8693,378.43203 331.88811,369.76204 304.4135,365.2588 C 288.9516,362.72451 260.0097,362.71641 250.9135,365.24382 C 238.25401,368.7613 226.15202,375.90927 214.92512,386.50016 C 209.78674,391.34745 207.88051,393.91848 206.94339,397.26557 C 205.42807,402.67774 206.10549,404.97218 210.72995,410.09091 C 218.50571,418.69774 232.47219,426.18596 252.09969,432.27156 C 274.462,439.2051 278.61219,439.52541 324.5164,437.86052 z"
       id="path4432" />
  </g>
</svg>
