<?xml version="1.0" encoding="UTF-8" standalone="no"?>
<!-- Created with Inkscape (http://www.inkscape.org/) -->
<svg
   xmlns:dc="http://purl.org/dc/elements/1.1/"
   xmlns:cc="http://creativecommons.org/ns#"
   xmlns:rdf="http://www.w3.org/1999/02/22-rdf-syntax-ns#"
   xmlns:svg="http://www.w3.org/2000/svg"
   xmlns="http://www.w3.org/2000/svg"
   xmlns:sodipodi="http://sodipodi.sourceforge.net/DTD/sodipodi-0.dtd"
   xmlns:inkscape="http://www.inkscape.org/namespaces/inkscape"
   width="677.15326"
   height="1049.757"
   id="svg91957"
   sodipodi:version="0.32"
   inkscape:version="0.46"
   sodipodi:docname="koniferen.svg"
   inkscape:output_extension="org.inkscape.output.svg.inkscape"
   version="1.0">
  <defs
     id="defs91959">
    <inkscape:perspective
       sodipodi:type="inkscape:persp3d"
       inkscape:vp_x="0 : 526.18109 : 1"
       inkscape:vp_y="0 : 1000 : 0"
       inkscape:vp_z="744.09448 : 526.18109 : 1"
       inkscape:persp3d-origin="372.04724 : 350.78739 : 1"
       id="perspective91965" />
  </defs>
  <sodipodi:namedview
     id="base"
     pagecolor="#ffffff"
     bordercolor="#666666"
     borderopacity="1.0"
     inkscape:pageopacity="0.0"
     inkscape:pageshadow="2"
     inkscape:zoom="0.35"
     inkscape:cx="452.4"
     inkscape:cy="442.42"
     inkscape:document-units="px"
     inkscape:current-layer="layer1"
     showgrid="false"
     inkscape:window-width="640"
     inkscape:window-height="713"
     inkscape:window-x="42"
     inkscape:window-y="50" />
  <metadata
     id="metadata91962">
    <rdf:RDF>
      <cc:Work
         rdf:about="">
        <dc:format>image/svg+xml</dc:format>
        <dc:type
           rdf:resource="http://purl.org/dc/dcmitype/StillImage" />
      </cc:Work>
    </rdf:RDF>
  </metadata>
  <g
     inkscape:label="Ebene 1"
     inkscape:groupmode="layer"
     id="layer1"
     transform="translate(-13.823366,-5.0636768)">
    <path
       style="fill:#000000"
       d="M 339.36522,1054.697 C 291.66812,1050.8556 249.88952,1034.5868 208.94088,1003.9092 C 195.17909,993.59912 187.71108,987.13231 174.70406,974.26227 C 116.85232,917.0198 71.638046,834.34945 43.600238,734.55028 C 6.7359849,603.33394 3.9645979,449.64649 36.044736,315.55979 C 59.640555,216.93534 98.580806,134.8998 152.23815,70.774799 C 161.06918,60.220985 180.77956,40.463689 188.00435,34.923472 C 207.5683,19.921158 228.50076,11.387689 255.79236,7.2885486 C 270.51366,5.0774425 287.4622,4.6041443 320.80815,5.47295 C 345.50689,6.1164574 359.44913,6.1153409 384.2312,5.4678639 C 427.89166,4.3271681 446.53314,5.5568606 467.42743,10.955948 C 492.27974,17.377779 510.48571,27.788738 530.21822,46.862426 C 571.78434,87.040755 610.32757,147.83409 637.59659,216.2278 C 686.50253,338.88935 702.62088,487.90502 682.5608,631.92694 C 665.74955,752.62387 622.34384,862.75991 561.36138,939.4538 C 502.52137,1013.4533 431.51751,1053.3448 356.18309,1054.7278 C 348.82098,1054.8628 341.25293,1054.849 339.36522,1054.697 z M 374.68784,1030.7046 C 423.6699,1024.5841 469.68552,1001.1008 510.62145,961.3334 L 518.50405,953.6758 L 512.68078,953.28783 C 452.02032,949.2453 414.44986,943.54254 364.73478,930.83153 C 351.82526,927.53084 351.62138,927.50228 348.26013,928.52165 C 337.46416,931.79585 309.56116,938.17431 290.28448,941.7747 C 259.06808,947.60502 236.4542,950.25756 192.123,953.28824 L 186.28824,953.68717 L 194.52555,961.60869 C 230.46252,996.16771 271.43349,1019.2164 312.02526,1027.7096 C 331.46024,1031.776 356.52614,1032.9741 374.68784,1030.7046 z M 193.93457,930.18257 C 226.55367,928.34489 257.38674,924.68052 286.16581,919.22129 C 303.34945,915.96165 308.13202,914.91798 308.13202,914.42786 C 308.13202,914.17387 306.04694,913.24395 303.49852,912.36139 C 260.04701,897.31357 213.35552,875.90023 174.7733,853.32632 L 164.63126,847.39236 L 153.83676,848.89032 C 147.89979,849.71425 136.64192,850.95314 128.81926,851.64344 L 114.59627,852.8986 L 117.77024,858.76501 C 129.64007,880.7039 143.70719,902.28315 159.51693,922.80542 L 165.69492,930.82495 L 173.68449,930.84911 C 178.07875,930.86242 187.19129,930.56244 193.93457,930.18257 z M 545.08072,923.12098 C 553.5034,912.25026 561.38097,901.13295 568.28538,890.37308 C 577.77953,875.5774 589.57401,855.10338 589.57401,853.41817 C 589.57401,852.91233 588.25017,852.61564 585.97018,852.61057 C 580.83597,852.59897 562.36278,850.85478 548.94473,849.11478 L 537.48931,847.62925 L 528.69464,852.77442 C 512.59279,862.19456 510.22531,863.50533 495.45372,871.17873 C 480.24901,879.0771 466.38246,885.73471 451.59878,892.23437 C 435.7913,899.18421 398.09574,913.71217 395.87055,913.71217 C 395.34671,913.71217 395.27869,913.94886 395.68793,914.34762 C 396.46489,915.10477 416.2129,919.04289 433.43885,921.87598 C 454.4297,925.32818 478.93389,928.14266 499.64986,929.48082 C 515.36752,930.49614 517.8551,930.6 529.16695,930.71367 L 539.12038,930.81369 L 545.08072,923.12098 z M 367.66793,898.98569 C 394.2972,890.7115 417.68477,881.97801 444.28698,870.37429 C 456.40603,865.08799 485.86708,850.67445 496.21764,844.96771 L 502.73886,841.37225 L 498.62019,840.42166 C 448.55476,828.86626 404.91991,814.69106 356.89195,794.37977 C 350.57252,791.70725 350.32622,791.66029 347.96818,792.67869 C 303.83477,811.73998 250.82427,829.43678 211.66391,838.182 C 206.3908,839.35959 201.47693,840.56424 200.74418,840.85899 C 199.71177,841.27436 204.80998,844.09427 223.39683,853.38879 C 255.64765,869.51603 282.54637,880.89666 313.96679,891.70821 C 329.65451,897.10627 349.88614,903.335 351.87972,903.3805 C 352.72199,903.39979 359.82668,901.42208 367.66793,898.98569 z M 602.58845,827.96153 C 606.08725,821.10334 620.72522,786.06598 620.27835,785.6191 C 620.1908,785.53159 616.10384,789.03128 611.1962,793.3963 C 600.27754,803.10767 587.18508,813.6058 576.05713,821.57239 C 571.45443,824.86746 567.67042,827.75333 567.64819,827.98535 C 567.61068,828.37718 585.56715,829.79729 595.752,830.20799 C 598.20604,830.30698 600.43928,830.44742 600.71477,830.52018 C 600.99025,830.59295 601.83341,829.44157 602.58845,827.96153 z M 122.6076,829.24649 C 136.1604,828.1339 136.09388,828.9934 123.34553,819.7122 C 112.87419,812.08876 99.522407,801.423 89.980446,793.05926 L 85.857102,789.44506 L 88.77282,796.8347 C 91.642691,804.10816 99.483644,822.35611 101.90291,827.39186 L 103.13958,829.96602 L 108.49103,829.96602 C 111.43433,829.96602 117.78679,829.64223 122.6076,829.24649 z M 545.43765,815.11804 C 590.54724,784.81953 626.74279,750.12666 639.16352,725.2833 C 642.41661,718.77663 642.41388,718.76311 637.84295,718.75501 C 632.04601,718.74472 605.38245,716.28792 593.00623,714.62378 C 573.2605,711.96876 551.73257,707.8619 529.71374,702.54964 L 519.62066,700.11462 L 505.68821,708.98217 C 473.19145,729.66528 439.83983,748.53322 403.89094,766.57159 C 390.6769,773.20209 379.77953,778.7062 379.67457,778.80292 C 379.39196,779.06336 397.3931,786.07085 410.75537,790.90205 C 424.53335,795.88357 444.97729,802.53572 459.83611,806.87212 C 487.6074,814.9769 530.63442,824.40218 533.42489,822.99216 C 534.06779,822.66727 539.47354,819.12391 545.43765,815.11804 z M 181.91089,821.10383 C 219.48989,813.99137 259.56052,802.47758 300.91996,786.90804 C 308.46843,784.06651 316.19092,781.06235 318.08106,780.23216 L 321.51767,778.72274 L 304.35657,770.3353 C 266.21519,751.69381 225.23107,728.53395 189.10727,705.20866 C 182.30997,700.8196 181.43562,700.43642 179.49705,700.99691 C 174.59771,702.41332 146.30361,708.54731 135.49139,710.53704 C 118.44853,713.6734 97.180405,716.40785 79.202996,717.77408 C 70.519481,718.43396 63.340738,719.02601 63.250235,719.08971 C 63.159731,719.15349 64.093409,722.74414 65.325074,727.06901 C 67.395736,734.33996 67.934885,735.42235 72.480697,741.43422 C 85.518664,758.67701 107.11739,778.94473 133.39578,798.59547 C 146.94687,808.72882 168.49445,823.10159 170.13526,823.10159 C 170.80642,823.10159 176.10545,822.20261 181.91089,821.10383 z M 356.41126,763.97361 C 374.362,756.11822 409.17855,738.60154 433.75124,725.06288 C 453.7155,714.06323 489.3532,692.79206 489.3532,691.87558 C 489.3532,691.62139 488.34928,691.19964 487.12226,690.93831 C 485.89524,690.67699 479.17667,688.61085 472.1921,686.34682 C 437.58193,675.12823 399.81783,660.38232 361.83745,643.25617 L 350.67394,638.22231 L 341.93058,642.19164 C 297.47276,662.37471 249.65318,680.79685 216.25989,690.60531 L 211.22291,692.08481 L 214.22791,693.99052 C 229.44313,703.63972 256.76585,719.53144 276.62861,730.28466 C 301.45955,743.72756 347.35966,766.06754 350.23326,766.10872 C 350.92507,766.11861 353.70517,765.15778 356.41126,763.97361 z M 80.575884,694.66749 C 99.831897,693.27304 131.25449,688.58202 149.54004,684.37186 L 155.76642,682.93828 L 145.62891,675.69009 C 107.50238,648.43016 78.812774,624.67575 52.371069,598.47455 C 41.787106,587.98684 39.986077,586.45743 40.168664,588.11237 C 40.286478,589.1802 40.864272,594.68737 41.45265,600.35053 C 43.173078,616.90965 45.753723,635.58133 48.663111,652.52026 C 51.280515,667.7592 56.672034,694.50919 57.345794,695.59933 C 57.680129,696.14032 63.413724,695.91029 80.575884,694.66749 z M 647.48668,695.57153 C 648.05844,694.64648 653.94573,665.45055 656.09869,652.86348 C 659.6037,632.37168 663.08645,605.83761 664.77919,586.72918 L 665.25614,581.34515 L 653.32834,593.51377 C 626.93504,620.43991 593.835,648.09642 553.90725,676.58432 L 545.35503,682.68622 L 550.47503,683.86773 C 569.29924,688.21169 603.49084,693.33702 622.86653,694.71931 C 628.5297,695.12328 634.24434,695.5519 635.56575,695.67175 C 640.70702,696.13812 647.1701,696.08383 647.48668,695.57153 z M 199.438,671.72002 C 233.8891,661.60952 272.34987,647.58428 308.47524,631.9581 C 316.02613,628.69194 322.47566,625.74895 322.80756,625.41813 C 323.15359,625.07322 318.90772,622.56145 312.85413,619.5299 C 278.02168,602.08628 235.98059,577.88018 198.05926,553.43418 C 190.94174,548.84587 184.6925,545.09179 184.17206,545.09179 C 183.65161,545.09179 176.6557,546.61334 168.62558,548.47301 C 131.37201,557.10044 100.23188,562.03558 66.309351,564.68828 C 59.101739,565.25189 53.078765,565.83889 52.924967,565.99268 C 52.365111,566.55253 81.546061,595.17318 91.902208,604.22151 C 116.46678,625.68395 141.95579,645.38446 172.51228,666.5252 C 179.65973,671.47021 185.73157,675.51613 186.00526,675.51613 C 186.27896,675.51613 192.32369,673.80788 199.438,671.72002 z M 532.65827,663.43447 C 574.3158,634.24499 606.70688,607.71145 633.82018,580.56648 C 646.01841,568.35399 648.00175,566.08999 646.86261,565.67836 C 646.12373,565.41136 641.65793,564.97799 636.93864,564.71531 C 609.20212,563.17148 565.80628,556.54281 530.61209,548.47406 L 515.9258,545.10702 L 502.81111,553.59359 C 466.58244,577.03731 421.46134,603.02933 387.15649,620.21643 C 381.79498,622.9026 378.22703,625.07159 378.58348,625.42806 C 380.42353,627.26809 428.29468,646.71667 450.2259,654.53417 C 481.57942,665.71029 514.32775,675.76694 516.18361,674.78906 C 516.78243,674.47353 524.19602,669.36396 532.65827,663.43447 z M 370.05682,603.08634 C 399.50063,588.27461 425.95697,573.77052 452.28523,558.00646 C 465.51902,550.08273 484.56808,538.32425 485.46017,537.52846 C 485.77304,537.24936 483.76519,536.35275 480.99829,535.53601 C 440.87435,523.692 398.81983,508.22436 360.07143,491.05914 L 348.5148,485.93965 L 338.44845,490.41713 C 316.03887,500.38487 294.65438,509.01614 271.29908,517.52016 C 256.12044,523.04693 222.90369,534.1115 217.11349,535.56948 L 213.95967,536.36363 L 221.26513,541.07814 C 239.30526,552.7202 275.58097,573.86616 300.58113,587.31328 C 316.43064,595.83844 349.39889,612.36329 350.55769,612.36329 C 351.13946,612.36329 359.91406,608.18867 370.05682,603.08634 z M 62.728342,541.98367 C 79.863549,540.68707 96.744994,538.72315 113.18197,536.11409 C 127.94894,533.77011 157.21117,528.00362 157.99362,527.28341 C 158.28843,527.01205 152.72823,522.57197 145.63762,517.41659 C 102.93315,486.36732 65.850281,453.81914 45.163045,429.22857 C 42.720691,426.32539 41.38001,425.20182 41.067582,425.79635 C 40.561351,426.75969 40.23332,430.32533 38.649673,452.07866 C 37.417712,469.00117 36.561758,504.46659 36.839699,527.07265 L 37.035926,543.03246 L 43.017694,543.02749 C 46.307669,543.02475 55.17746,542.55504 62.728342,541.98367 z M 666.82646,539.96694 C 667.89397,537.17171 667.96432,533.73701 667.62433,501.01126 C 667.38919,478.3782 666.85287,459.92313 666.17236,451.04899 C 665.05973,436.53993 663.75469,422.72072 663.47026,422.43628 C 663.38128,422.3473 661.28163,424.65585 658.80435,427.56637 C 644.4894,444.38478 621.74708,465.67263 593.84578,488.37055 C 583.86814,496.48743 554.14849,518.8974 546.84397,523.81203 C 544.31886,525.51098 542.24307,527.09007 542.23112,527.3211 C 542.20716,527.78405 544.32101,528.24608 562.45947,531.74255 C 594.1578,537.85288 635.4068,542.67283 658.33323,542.9454 L 665.65573,543.03246 L 666.82646,539.96694 z M 525.28283,510.97813 C 571.08073,478.97561 611.77935,445.12159 634.88846,419.80576 C 645.29015,408.41079 645.58745,408.01046 643.98002,407.56316 C 643.31639,407.37849 638.91217,407.02694 634.19286,406.78193 C 608.10935,405.42776 569.45994,399.58865 536.0683,391.95737 L 521.34668,388.59291 L 507.58088,397.75575 C 470.80405,422.23523 424.75328,448.87792 386.21501,467.97198 C 381.02378,470.54402 376.77641,472.82757 376.77641,473.04653 C 376.77641,473.52601 397.58246,482.23366 412.81471,488.12911 C 437.4778,497.67463 465.36903,507.10936 488.66676,513.78747 C 498.29413,516.5471 507.25223,519.12717 508.57363,519.52098 C 509.89504,519.9148 511.39063,520.11352 511.89718,519.96259 C 512.40372,519.81165 518.42727,515.76864 525.28283,510.97813 z M 195.76401,517.92962 C 216.49816,512.13629 242.13252,503.85379 264.19961,495.818 C 282.43806,489.17642 320.488,473.77366 320.488,473.03224 C 320.488,472.82347 315.31394,470.08084 308.99008,466.93748 C 270.0613,447.58748 230.08407,424.37832 193.15266,399.68696 L 177.36446,389.13139 L 163.97881,391.96088 C 130.91275,398.95049 100.26534,403.22796 69.592782,405.1344 C 62.419443,405.58026 56.43068,406.04515 56.284418,406.1675 C 55.853102,406.5283 63.251187,415.31135 71.161978,423.83024 C 89.138544,443.18862 117.52511,467.82873 149.0598,491.4471 C 162.91922,501.82732 188.06949,519.64712 188.89957,519.6749 C 189.20318,519.68506 192.29218,518.89968 195.76401,517.92962 z M 374.38737,448.01173 C 414.88171,427.8363 449.37709,408.25696 484.8434,385.31766 L 492.34638,380.4648 L 489.30529,379.65424 C 483.44985,378.09357 455.27038,368.77128 444.04791,364.68228 C 415.50095,354.28094 384.80974,341.31393 361.12939,329.64928 L 352.69003,325.49214 L 347.74373,327.7939 C 345.02327,329.05988 337.39169,332.62648 330.78467,335.71969 C 295.83738,352.081 254.08745,367.77875 216.21989,378.79543 L 207.02426,381.47068 L 215.19022,386.84264 C 248.66799,408.86589 294.57578,434.80402 332.08077,452.88639 C 340.94773,457.16143 348.3825,460.6592 348.60249,460.6592 C 348.82249,460.6592 360.42568,454.96784 374.38737,448.01173 z M 658.59353,382.91943 C 658.38809,381.69241 657.58262,376.82724 656.80361,372.10794 C 654.66281,359.13904 650.93865,340.21863 647.88603,326.80264 C 644.9443,313.87401 638.54252,289.3391 637.73378,287.89395 C 637.40186,287.30085 635.44416,289.20581 631.77458,293.69262 C 616.10251,312.85486 587.36506,339.28047 556.41563,362.98917 C 551.2038,366.98168 547.1881,370.49619 547.49186,370.7992 C 548.44918,371.75417 573.25488,376.43172 592.31978,379.2523 C 611.80471,382.13502 640.1655,384.80665 653.95922,385.05883 L 658.96705,385.15038 L 658.59353,382.91943 z M 71.308891,382.07934 C 95.059904,380.39124 115.40088,377.80677 140.18733,373.32784 L 152.43416,371.11483 L 150.76953,369.72366 C 149.85399,368.95852 145.42407,365.5013 140.92526,362.04094 C 123.43376,348.58696 105.98241,333.3351 91.187647,318.57205 C 82.230983,309.63457 70.847086,297.00431 67.708117,292.52186 C 67.063101,291.60079 66.385453,290.99708 66.202232,291.1803 C 65.672765,291.70977 60.608692,310.95389 57.641114,323.71365 C 53.377554,342.04575 46.596909,377.54191 46.596909,381.5292 C 46.596909,383.02017 46.83831,383.09078 51.916849,383.08528 C 54.842819,383.0821 63.569236,382.62943 71.308891,382.07934 z M 192.06615,361.76045 C 219.85303,354.38585 250.19025,344.38185 277.92848,333.44648 C 297.53456,325.71708 325.97956,313.24049 325.97956,312.37025 C 325.97956,312.107 320.49658,308.87005 313.79518,305.17705 C 267.36879,279.59239 217.75034,245.82004 184.42742,217.12403 L 177.76149,211.38368 L 160.7451,216.63064 C 142.21479,222.34442 127.90447,226.13421 114.55486,228.86314 C 104.58284,230.90162 92.409847,232.75984 89.027923,232.75984 C 87.732748,232.75984 86.182874,233.14596 85.583759,233.61789 C 84.365994,234.57714 76.138584,257.15389 75.640154,260.90403 C 75.36683,262.9605 75.914073,264.19651 79.439217,269.48458 C 94.051786,291.40491 122.66093,319.17555 160.88981,348.54795 C 174.87239,359.29118 181.37299,363.832 182.79916,363.85208 C 183.52297,363.86227 187.69312,362.92103 192.06615,361.76045 z M 524.95926,357.87417 C 564.96486,328.76096 597.82039,299.5251 615.38877,277.4072 C 622.55235,268.38852 628.01486,259.8456 628.01486,257.66099 C 628.01486,256.80918 626.14492,250.90837 623.85944,244.54807 L 619.70401,232.98392 L 611.60839,232.1917 C 590.96775,230.17189 561.04293,223.27429 529.59627,213.28812 L 524.2587,211.59313 L 518.30388,216.88098 C 484.59469,246.81461 434.85126,281.14401 387.93112,306.85507 C 382.92865,309.5963 378.83574,312.06632 378.83574,312.34401 C 378.83574,313.26426 409.74862,326.86239 429.9758,334.83975 C 446.0062,341.16196 467.53817,348.85668 482.14554,353.48325 C 498.14083,358.54941 514.16429,363.12254 516.0355,363.15551 C 517.00964,363.17266 520.59067,361.05331 524.95926,357.87417 z M 365.34993,293.04919 C 412.61603,267.76621 455.94655,239.05521 492.4422,208.83728 C 498.62506,203.71794 499.71679,202.5563 498.34514,202.5563 C 497.06316,202.5563 464.17965,189.85399 448.50979,183.30579 C 423.60973,172.90043 398.40892,161.25455 373.16302,148.48629 L 349.29956,136.4172 L 343.30272,139.65028 C 310.86462,157.13868 260.69267,180.01722 220.95364,195.44178 C 211.70382,199.03207 203.89528,202.20306 203.60137,202.48845 C 202.56939,203.49042 231.81883,226.0141 254.24618,241.48769 C 276.14089,256.59382 305.35473,274.51406 328.72361,287.17334 C 335.70913,290.95751 343.58685,295.23675 346.22965,296.6828 C 348.87246,298.12884 351.60749,299.31937 352.3075,299.32843 C 353.0075,299.33748 358.87659,296.51183 365.34993,293.04919 z M 108.56687,206.68294 C 119.88445,204.46124 137.04333,200.03615 149.88352,196.0278 L 157.95726,193.50741 L 155.60843,190.99581 C 154.31656,189.61442 150.2196,185.24076 146.50406,181.27654 C 139.15972,173.44067 130.96939,163.51104 126.25532,156.72778 L 123.26795,152.42913 L 122.06771,154.40276 C 119.43588,158.73044 108.64089,179.29826 105.44109,186.08165 C 101.42967,194.58561 95.334427,208.0861 95.334427,208.46712 C 95.334427,209.07548 98.669989,208.62574 108.56687,206.68294 z M 609.2911,207.85696 C 605.98919,199.25232 592.68455,172.24764 584.62163,157.78489 L 579.75297,149.05178 L 575.44087,155.38233 C 569.61388,163.9369 561.17183,174.35114 551.57022,184.82957 L 543.59698,193.53092 L 545.82057,194.22501 C 561.98502,199.2707 579.2569,203.66644 593.34372,206.31978 C 607.81359,209.04527 609.82135,209.2388 609.2911,207.85696 z M 522.74984,181.80381 C 528.09997,176.74388 542.17728,161.16424 548.19882,153.63893 C 554.00726,146.37994 559.38007,138.42364 563.18891,131.44094 L 565.8239,126.61026 L 560.41987,118.76316 C 541.30935,91.013063 515.0494,61.613495 499.63576,50.711747 C 493.65175,46.479375 479.9401,38.722873 479.43672,39.285406 C 479.31836,39.417676 477.5959,41.688192 475.60903,44.330998 C 469.73349,52.146249 464.78314,57.504627 456.2601,65.274764 C 438.31345,81.636034 410.68635,101.26271 382.78279,117.47409 C 377.9691,120.27074 374.03063,122.78387 374.03063,123.05882 C 374.03063,124.3977 428.51424,150.03181 455.031,161.16886 C 476.73772,170.28568 515.48784,185.06887 518.39655,185.34284 C 518.7023,185.37164 520.66129,183.77908 522.74984,181.80381 z M 191.83609,182.02487 C 212.15984,174.74672 248.27903,159.91041 272.29163,148.97697 C 287.27183,142.15618 325.30052,123.48615 325.27294,122.96602 C 325.26184,122.75678 320.73868,119.95994 315.22148,116.75082 C 295.92093,105.52451 270.06758,87.731526 255.96351,75.967847 C 242.75025,64.947144 232.21072,54.266735 225.60251,45.200993 L 222.23375,40.57944 L 218.79532,42.321827 C 208.25297,47.664037 198.81534,54.992251 186.63146,67.296682 C 172.31968,81.750058 158.50017,98.500146 145.82977,116.75082 C 136.19624,130.62712 136.5671,129.78236 138.54419,133.34625 C 141.40153,138.49688 146.69103,146.06357 152.5088,153.32282 C 159.55988,162.12092 181.63832,184.70876 183.18692,184.70876 C 183.82194,184.70876 187.71407,183.50101 191.83609,182.02487 z M 364.03354,101.88652 C 405.13133,78.014595 433.56622,57.157727 450.77757,38.26013 L 456.47756,32.001695 L 454.57052,31.491668 C 453.52166,31.211166 449.25772,30.446254 445.0951,29.791881 C 438.21544,28.710379 429.78054,28.601792 352.40765,28.59865 C 287.12535,28.595993 266.00881,28.797494 261.79705,29.463289 C 251.94488,31.020716 244.97918,32.495648 244.97918,33.024346 C 244.97918,34.090817 261.26338,50.489116 267.58506,55.788611 C 277.94628,64.474477 290.90284,73.991498 305.18878,83.409765 C 319.43689,92.803097 347.67105,109.71863 349.275,109.82251 C 349.81731,109.85764 356.45865,106.28644 364.03354,101.88652 z"
       id="path91955" />
  </g>
</svg>
