<?xml version="1.0" encoding="UTF-8" standalone="no"?>
<!-- Created with Inkscape (http://www.inkscape.org/) -->
<svg
   xmlns:dc="http://purl.org/dc/elements/1.1/"
   xmlns:cc="http://creativecommons.org/ns#"
   xmlns:rdf="http://www.w3.org/1999/02/22-rdf-syntax-ns#"
   xmlns:svg="http://www.w3.org/2000/svg"
   xmlns="http://www.w3.org/2000/svg"
   xmlns:sodipodi="http://sodipodi.sourceforge.net/DTD/sodipodi-0.dtd"
   xmlns:inkscape="http://www.inkscape.org/namespaces/inkscape"
   width="841.12781"
   height="1528.889"
   id="svg3507"
   sodipodi:version="0.32"
   inkscape:version="0.46"
   sodipodi:docname="makrofossilien.svg"
   inkscape:output_extension="org.inkscape.output.svg.inkscape"
   version="1.0">
  <defs
     id="defs3509">
    <inkscape:perspective
       sodipodi:type="inkscape:persp3d"
       inkscape:vp_x="0 : 526.18109 : 1"
       inkscape:vp_y="0 : 1000 : 0"
       inkscape:vp_z="744.09448 : 526.18109 : 1"
       inkscape:persp3d-origin="372.04724 : 350.78739 : 1"
       id="perspective3515" />
  </defs>
  <sodipodi:namedview
     id="base"
     pagecolor="#ffffff"
     bordercolor="#666666"
     borderopacity="1.0"
     inkscape:pageopacity="0.0"
     inkscape:pageshadow="2"
     inkscape:zoom="0.35"
     inkscape:cx="350"
     inkscape:cy="520"
     inkscape:document-units="px"
     inkscape:current-layer="layer1"
     showgrid="false"
     inkscape:window-width="640"
     inkscape:window-height="713"
     inkscape:window-x="322"
     inkscape:window-y="330" />
  <metadata
     id="metadata3512">
    <rdf:RDF>
      <cc:Work
         rdf:about="">
        <dc:format>image/svg+xml</dc:format>
        <dc:type
           rdf:resource="http://purl.org/dc/dcmitype/StillImage" />
      </cc:Work>
    </rdf:RDF>
  </metadata>
  <g
     inkscape:label="Ebene 1"
     inkscape:groupmode="layer"
     id="layer1"
     transform="translate(70.563903,232.08233)">
    <path
       style="fill:#000000"
       d="M 345.85631,1295.8179 C 191.56412,1286.6003 68.303993,1217.303 -3.341297,1099.4975 C -40.64555,1038.1586 -62.651445,965.19827 -69.268119,880.91767 C -71.177005,856.60307 -70.937712,811.32157 -68.808362,793.91767 C -52.089296,657.26716 34.683783,502.33184 200.30046,313.41767 C 233.25316,275.82948 247.45371,260.34761 309.45169,194.41767 C 360.15989,140.49352 366.0685,133.58028 372.69795,120.41767 C 387.38577,91.255365 394.9624,46.059355 391.95256,5.5603046 C 388.80483,-36.794195 379.04372,-72.837655 360.97411,-108.82942 C 344.24474,-142.15164 325.16311,-168.26906 294.62855,-199.63796 L 286.78718,-207.69359 L 297.96361,-219.88796 C 304.11064,-226.59486 309.50023,-232.08233 309.94047,-232.08233 C 311.36696,-232.08233 333.95359,-211.1183 349.73508,-195.14653 C 415.57878,-128.50891 465.94986,-56.767075 495.97798,13.142315 C 518.28206,65.069095 534.7436,141.82 539.89822,217.91767 C 541.60301,243.0855 541.34556,297.75134 539.40843,321.91767 C 532.65977,406.10936 513.52088,477.37324 484.91113,524.83895 C 477.44632,537.22363 472.60644,543.20024 460.35791,555.15892 C 452.33333,562.9936 449.89751,565.90868 451.35631,565.93161 C 459.54603,566.06034 479.20909,568.19352 488.17515,569.92597 C 525.78111,577.19229 570.80835,600.33356 609.86783,632.46862 C 674.06218,685.28267 727.06715,761.36674 752.82897,837.67707 C 771.04505,891.63567 774.97705,939.36907 765.78156,994.91767 C 749.60335,1092.6478 694.87555,1177.5703 613.35631,1231.4399 C 540.32781,1279.6986 447.99572,1301.9198 345.85631,1295.8179 z M 403.85631,1261.433 C 476.38974,1258.926 549.4242,1235.4099 602.35631,1197.5186 C 677.17508,1143.9599 723.74249,1064.0454 734.40019,970.91767 C 736.45207,952.98827 735.97898,916.75557 733.49519,901.60547 C 725.47951,852.71287 705.13207,802.65027 674.17266,755.64914 C 641.96814,706.75769 597.9334,662.23138 554.35631,634.49523 C 540.43245,625.63291 515.4598,613.64413 501.24913,608.99971 C 481.61037,602.58126 467.87741,600.56317 448.35631,601.22698 C 429.05204,601.88342 425.70877,602.48858 381.85631,613.26404 C 362.88131,617.92659 347.25769,621.64494 347.13716,621.52705 C 347.01662,621.40916 369.53356,598.38632 397.1748,570.36518 C 452.47628,514.30364 452.91968,513.7729 464.8012,489.41767 C 484.92996,448.1569 498.3888,393.48395 504.4346,328.41767 C 506.54445,305.71094 507.39111,248.66158 505.95579,225.91767 C 502.90907,177.63981 496.05316,132.88991 484.8119,87.907315 C 473.46256,42.492275 456.15084,2.9815646 427.0815,-43.851275 C 421.86888,-52.249195 417.2573,-59.334495 416.83356,-59.596385 C 416.40981,-59.858275 416.93604,-56.665005 418.00296,-52.500235 C 419.06987,-48.335455 421.0103,-38.550155 422.31502,-30.755115 C 432.3639,29.281955 425.09411,92.665275 403.14103,136.41767 C 394.4266,153.78549 390.65216,158.19926 321.8531,231.47446 C 276.84637,279.40936 251.2145,307.47913 223.74148,338.91767 C 66.424533,518.94206 -17.298827,666.63365 -34.188771,793.91767 C -38.216496,824.27097 -36.414856,879.55767 -30.017607,921.91767 C -13.953607,1028.287 34.236123,1116.6326 108.32338,1175.5363 C 166.73641,1221.978 238.94004,1250.2284 322.85631,1259.4745 C 337.9398,1261.1364 373.30844,1262.7819 382.85631,1262.2659 C 385.88131,1262.1025 395.33131,1261.7276 403.85631,1261.433 z"
       id="path3505" />
  </g>
</svg>
