<?xml version="1.0" encoding="UTF-8" standalone="no"?>
<!-- Created with Inkscape (http://www.inkscape.org/) -->
<svg
   xmlns:dc="http://purl.org/dc/elements/1.1/"
   xmlns:cc="http://creativecommons.org/ns#"
   xmlns:rdf="http://www.w3.org/1999/02/22-rdf-syntax-ns#"
   xmlns:svg="http://www.w3.org/2000/svg"
   xmlns="http://www.w3.org/2000/svg"
   xmlns:sodipodi="http://sodipodi.sourceforge.net/DTD/sodipodi-0.dtd"
   xmlns:inkscape="http://www.inkscape.org/namespaces/inkscape"
   width="973.72394"
   height="1112"
   id="svg3392"
   sodipodi:version="0.32"
   inkscape:version="0.46"
   version="1.0"
   sodipodi:docname="mikrofossilien.svg"
   inkscape:output_extension="org.inkscape.output.svg.inkscape">
  <defs
     id="defs3394">
    <inkscape:perspective
       sodipodi:type="inkscape:persp3d"
       inkscape:vp_x="0 : 526.18109 : 1"
       inkscape:vp_y="0 : 1000 : 0"
       inkscape:vp_z="744.09448 : 526.18109 : 1"
       inkscape:persp3d-origin="372.04724 : 350.78739 : 1"
       id="perspective3400" />
  </defs>
  <sodipodi:namedview
     id="base"
     pagecolor="#ffffff"
     bordercolor="#666666"
     borderopacity="1.0"
     inkscape:pageopacity="0.0"
     inkscape:pageshadow="2"
     inkscape:zoom="0.35"
     inkscape:cx="350"
     inkscape:cy="520"
     inkscape:document-units="px"
     inkscape:current-layer="layer1"
     showgrid="false"
     inkscape:window-width="640"
     inkscape:window-height="713"
     inkscape:window-x="282"
     inkscape:window-y="290" />
  <metadata
     id="metadata3397">
    <rdf:RDF>
      <cc:Work
         rdf:about="">
        <dc:format>image/svg+xml</dc:format>
        <dc:type
           rdf:resource="http://purl.org/dc/dcmitype/StillImage" />
      </cc:Work>
    </rdf:RDF>
  </metadata>
  <g
     inkscape:label="Ebene 1"
     inkscape:groupmode="layer"
     id="layer1"
     transform="translate(136.86196,23.637817)">
    <path
       style="fill:#000000"
       d="M 337.1145,821.75519 C 337.1145,608.87638 336.86259,555.2464 335.8645,555.63549 C 335.177,555.9035 231.61522,615.59724 105.72721,688.28825 C -20.160802,760.97925 -123.6155,820.54561 -124.17213,820.65794 C -125.19405,820.86417 -136.81831,801.76346 -136.86196,799.80632 C -136.87491,799.2256 -32.931982,738.72662 94.122328,665.36415 C 221.17663,592.00168 324.78913,531.65671 324.37233,531.26422 C 323.95552,530.87173 223.0395,465.90898 100.1145,386.90256 C -22.810502,307.89615 -123.3855,242.65876 -123.3855,241.9306 C -123.3855,240.3045 -111.67872,221.4521 -110.63647,221.39978 C -110.22451,221.3791 -9.4245118,285.94476 113.36353,364.87903 L 336.6145,508.39588 L 336.86635,242.37903 L 337.1182,-23.637817 L 350.11635,-23.637817 L 363.1145,-23.637817 L 363.1145,242.96917 C 363.1145,455.8459 363.36642,509.47874 364.3645,509.09277 C 365.052,508.82691 468.61434,449.13298 594.50304,376.4396 C 720.39173,303.74622 823.84643,244.1781 824.40238,244.066 C 825.6258,243.81931 837.19467,263.35132 836.85461,265.08944 C 836.72255,265.76443 734.0145,325.54003 608.6145,397.9241 C 483.2145,470.30817 379.34431,530.32467 377.79186,531.2941 L 374.96921,533.0567 L 599.54186,677.42233 C 723.05681,756.82343 824.1145,822.15527 824.1145,822.6042 C 824.1145,823.66904 811.33602,843.36218 810.64507,843.36218 C 810.35432,843.36218 709.65351,778.7796 586.86547,699.84533 L 363.6145,556.32848 L 363.36265,822.34533 L 363.1108,1088.3622 L 350.11265,1088.3622 L 337.1145,1088.3622 L 337.1145,821.75519 z"
       id="path3390" />
  </g>
</svg>
