<?xml version="1.0" encoding="UTF-8" standalone="no"?>
<!-- Created with Inkscape (http://www.inkscape.org/) -->
<svg
   xmlns:dc="http://purl.org/dc/elements/1.1/"
   xmlns:cc="http://creativecommons.org/ns#"
   xmlns:rdf="http://www.w3.org/1999/02/22-rdf-syntax-ns#"
   xmlns:svg="http://www.w3.org/2000/svg"
   xmlns="http://www.w3.org/2000/svg"
   xmlns:sodipodi="http://sodipodi.sourceforge.net/DTD/sodipodi-0.dtd"
   xmlns:inkscape="http://www.inkscape.org/namespaces/inkscape"
   width="990.23291"
   height="1138.3356"
   id="svg3038"
   sodipodi:version="0.32"
   inkscape:version="0.46"
   version="1.0"
   sodipodi:docname="nautiloiden.svg"
   inkscape:output_extension="org.inkscape.output.svg.inkscape">
  <defs
     id="defs3040">
    <inkscape:perspective
       sodipodi:type="inkscape:persp3d"
       inkscape:vp_x="0 : 526.18109 : 1"
       inkscape:vp_y="0 : 1000 : 0"
       inkscape:vp_z="744.09448 : 526.18109 : 1"
       inkscape:persp3d-origin="372.04724 : 350.78739 : 1"
       id="perspective3046" />
  </defs>
  <sodipodi:namedview
     id="base"
     pagecolor="#ffffff"
     bordercolor="#666666"
     borderopacity="1.0"
     inkscape:pageopacity="0.0"
     inkscape:pageshadow="2"
     inkscape:zoom="0.35"
     inkscape:cx="350"
     inkscape:cy="520"
     inkscape:document-units="px"
     inkscape:current-layer="layer1"
     showgrid="false"
     inkscape:window-width="640"
     inkscape:window-height="713"
     inkscape:window-x="162"
     inkscape:window-y="170" />
  <metadata
     id="metadata3043">
    <rdf:RDF>
      <cc:Work
         rdf:about="">
        <dc:format>image/svg+xml</dc:format>
        <dc:type
           rdf:resource="http://purl.org/dc/dcmitype/StillImage" />
      </cc:Work>
    </rdf:RDF>
  </metadata>
  <g
     inkscape:label="Ebene 1"
     inkscape:groupmode="layer"
     id="layer1"
     transform="translate(145.11645,36.805574)">
    <path
       style="fill:#000000"
       d="M 239.6074,1101.3645 C 149.39044,1096.8881 73.998054,1077.2844 -3.1562864,1038.2406 C -50.143064,1014.463 -89.836009,987.02037 -132.25452,948.9855 L -145.11645,937.45277 L -144.58596,918.45277 C -142.74551,852.5364 -114.26221,773.44595 -67.519134,704.45901 C -49.201134,677.42393 -30.100506,654.28161 -4.9160464,628.60911 C 18.869704,604.36241 43.656274,582.95755 66.886824,566.60252 L 75.166254,560.77354 L 71.426794,555.61316 C 19.390074,483.80343 -6.0714564,399.26282 -0.96345645,315.25389 C 0.82316355,285.87027 3.5854536,267.75423 10.213334,241.95277 C 33.072114,152.96651 87.494674,76.436598 164.1074,25.544365 C 188.8045,9.1385962 207.02995,-0.45674582 233.53335,-11.007048 C 324.43628,-47.193096 428.90673,-45.230103 519.40112,-5.6356118 C 568.18908,15.71084 626.70891,56.975875 672.33321,102.20386 C 771.61207,200.62035 830.72744,326.25532 843.6035,466.19612 C 845.61047,488.00857 845.62338,545.55274 843.62631,567.95277 C 834.19792,673.70611 798.57663,770.6376 737.55712,856.58475 C 701.34179,907.59474 651.86387,957.07042 600.73938,993.39627 C 513.82737,1055.1505 414.71845,1091.1657 307.6074,1099.9175 C 294.49375,1100.989 250.78498,1101.9191 239.6074,1101.3645 z M 305.63022,1074.475 C 417.43733,1065.284 518.68552,1025.8742 606.1074,957.51747 C 625.61084,942.26737 667.1074,904.38823 667.1074,901.83507 C 667.1074,901.35597 669.85608,897.25683 673.21558,892.72587 C 689.73295,870.4489 701.0232,836.03508 706.76863,790.45277 C 708.96009,773.06651 709.2362,721.40694 707.24432,701.45277 C 695.51671,583.96827 650.79034,481.05182 582.93554,415.41526 C 568.63072,401.57809 559.28116,393.95927 543.84725,383.56281 C 510.43454,361.0556 474.91169,347.46819 433.6074,341.39629 C 427.5574,340.50692 412.61885,339.53202 400.41063,339.22985 L 378.21385,338.68045 L 377.52124,341.44005 C 376.682,344.78382 372.89969,351.49876 369.8453,355.06756 C 368.61445,356.50569 310.2324,404.38523 240.1074,461.46653 C 169.9824,518.54783 112.6074,565.74618 112.6074,566.35174 C 112.6074,566.95731 109.11372,569.5777 104.84368,572.17483 C 76.012864,589.71033 49.652354,610.59838 21.263504,638.4037 C -44.320076,702.63922 -88.870283,776.52458 -109.37005,855.05606 C -113.82366,872.11715 -118.64536,900.46665 -119.50733,914.65878 L -120.16503,925.48764 L -111.27881,933.50017 C -47.758474,990.77527 30.140744,1033.4105 113.1074,1056.3097 C 136.5791,1062.788 165.26821,1068.4997 192.1074,1072.0377 C 222.10729,1075.9924 273.69747,1077.1 305.63022,1074.475 z M 733.38632,817.20277 C 777.72868,747.15278 805.9862,668.57366 816.00579,587.45277 C 819.54805,558.77389 820.40535,540.71793 819.81809,507.16124 C 818.96146,458.2133 813.82654,419.95122 802.14577,375.47867 C 788.8944,325.02631 764.03623,265.46887 749.36707,249.02668 C 724.20501,220.82335 677.11789,201.81214 617.74741,195.88586 C 600.35825,194.1501 558.44211,195.21259 540.88254,197.83424 C 464.90248,209.17807 407.08674,241.7727 373.68795,292.09309 L 367.95317,300.73341 L 371.45655,305.32309 C 373.38341,307.84741 375.26891,310.8863 375.64657,312.07617 C 376.30509,314.15101 376.71507,314.2145 385.6599,313.62694 C 397.76921,312.83151 425.09154,314.48423 441.77902,317.02158 C 527.6021,330.07106 599.95912,379.55658 653.60446,461.89065 C 696.99744,528.48954 724.95184,613.55647 732.69247,702.56025 C 733.96781,717.22443 734.21848,728.5028 733.81249,752.95277 C 733.30002,783.81488 732.10558,798.33466 728.55124,816.90924 C 727.01452,824.93992 726.89426,825.95277 727.47744,825.95277 C 727.68096,825.95277 730.33995,822.01527 733.38632,817.20277 z M 208.83007,454.03148 L 319.85138,363.61019 L 313.92179,358.12045 C 310.66052,355.10108 307.36882,351.42519 306.6069,349.9518 L 305.22159,347.27291 L 283.91449,346.63642 C 232.56432,345.10248 194.12925,335.99998 153.79664,315.82085 C 105.95078,291.88271 68.484134,253.06789 52.577174,210.95921 L 49.746414,203.46565 L 47.940844,207.45921 C 42.578044,219.3206 33.135324,252.20864 29.668174,271.10106 C 24.732754,297.99404 22.769584,336.30518 25.012674,361.95277 C 30.193674,421.19257 48.235644,474.17848 79.833984,522.95277 C 88.375594,536.13734 95.247984,545.07857 96.588484,544.75098 C 97.259644,544.58697 147.76836,503.76319 208.83007,454.03148 z M 302.64838,317.70277 C 303.03332,315.91527 303.9912,313.19483 304.777,311.65736 C 306.13882,308.99285 305.96895,308.44818 301.1495,300.02635 C 285.20941,272.17152 275.00075,242.22619 269.59025,207.45277 C 267.38467,193.27746 266.57048,160.37978 268.02074,144.03596 C 273.19585,85.714378 294.24418,34.875274 327.6074,0.11322318 L 337.6074,-10.30605 L 333.6074,-9.7034048 C 331.4074,-9.3719508 327.3574,-8.8222248 324.6074,-8.4817928 C 268.1085,-1.4875888 208.87369,22.640476 162.6074,57.50554 C 134.28938,78.845258 104.68986,109.51942 85.943534,136.95277 C 72.439084,156.71515 70.568844,161.97564 71.381564,177.91174 C 73.480274,219.06452 112.25807,266.5432 165.6074,293.2798 C 192.1429,306.57836 217.76646,314.41825 247.6074,318.36888 C 264.49685,320.60486 264.64976,320.61497 284.27794,320.79273 L 301.94849,320.95277 L 302.64838,317.70277 z M 338.27239,290.04317 L 344.93737,289.45277 L 351.15182,279.95277 C 373.12928,246.35591 402.83439,220.58127 441.4774,201.57875 C 479.76502,182.75099 519.79339,172.74051 568.65758,169.77293 C 617.19085,166.82546 670.43764,175.17532 708.92773,191.7693 L 718.22169,195.77615 L 716.50082,193.11446 C 712.22342,186.49855 695.88799,165.75861 684.69758,152.73613 C 635.58493,95.582888 566.22554,42.350154 508.1074,17.204688 C 463.03798,-2.2951038 408.95177,-13.286672 386.53806,-7.5010128 C 360.01023,-0.65337482 333.61173,25.163817 316.08462,61.400996 C 291.72493,111.76451 285.78101,175.10336 300.20125,230.65546 C 304.51391,247.26942 309.02785,259.1029 317.80233,276.79736 L 325.41154,292.14194 L 328.50947,291.38775 C 330.21333,290.97295 334.60664,290.36788 338.27239,290.04317 z"
       id="path3036" />
  </g>
</svg>
