<?xml version="1.0" encoding="UTF-8" standalone="no"?>
<!-- Created with Inkscape (http://www.inkscape.org/) -->
<svg
   xmlns:dc="http://purl.org/dc/elements/1.1/"
   xmlns:cc="http://creativecommons.org/ns#"
   xmlns:rdf="http://www.w3.org/1999/02/22-rdf-syntax-ns#"
   xmlns:svg="http://www.w3.org/2000/svg"
   xmlns="http://www.w3.org/2000/svg"
   xmlns:sodipodi="http://sodipodi.sourceforge.net/DTD/sodipodi-0.dtd"
   xmlns:inkscape="http://www.inkscape.org/namespaces/inkscape"
   width="981.55701"
   height="381.76959"
   id="svg2876"
   sodipodi:version="0.32"
   inkscape:version="0.46"
   version="1.0"
   sodipodi:docname="palynomorphe.svg"
   inkscape:output_extension="org.inkscape.output.svg.inkscape">
  <defs
     id="defs2878">
    <inkscape:perspective
       sodipodi:type="inkscape:persp3d"
       inkscape:vp_x="0 : 526.18109 : 1"
       inkscape:vp_y="0 : 1000 : 0"
       inkscape:vp_z="744.09448 : 526.18109 : 1"
       inkscape:persp3d-origin="372.04724 : 350.78739 : 1"
       id="perspective2884" />
  </defs>
  <sodipodi:namedview
     id="base"
     pagecolor="#ffffff"
     bordercolor="#666666"
     borderopacity="1.0"
     inkscape:pageopacity="0.0"
     inkscape:pageshadow="2"
     inkscape:zoom="0.35"
     inkscape:cx="350"
     inkscape:cy="520"
     inkscape:document-units="px"
     inkscape:current-layer="layer1"
     showgrid="false"
     inkscape:window-width="640"
     inkscape:window-height="713"
     inkscape:window-x="122"
     inkscape:window-y="130" />
  <metadata
     id="metadata2881">
    <rdf:RDF>
      <cc:Work
         rdf:about="">
        <dc:format>image/svg+xml</dc:format>
        <dc:type
           rdf:resource="http://purl.org/dc/dcmitype/StillImage" />
      </cc:Work>
    </rdf:RDF>
  </metadata>
  <g
     inkscape:label="Ebene 1"
     inkscape:groupmode="layer"
     id="layer1"
     transform="translate(50.778509,-235.7631)">
    <path
       style="fill:#000000"
       d="M 123.54417,617.06993 C 87.762537,614.02442 53.102347,600.66365 24.065157,578.72289 C 13.692247,570.88502 -4.4355529,552.73256 -12.066163,542.5424 C -38.195703,507.6482 -50.740473,470.0582 -50.778423,426.5424 C -50.810813,389.3904 -41.701003,356.98528 -22.324903,325.32848 C -8.4187029,302.60844 16.106877,278.08157 38.821937,264.17841 C 70.641057,244.70297 102.2587,235.79245 139.54417,235.79275 C 177.3462,235.79305 207.13077,243.99763 239.54417,263.33914 C 263.65702,277.7276 287.85996,301.62099 302.57458,325.56339 C 307.8252,334.10677 315.95799,350.37938 318.75661,357.94146 C 319.89667,361.02198 321.23543,364.63723 321.73162,365.97536 C 322.5741,368.24735 322.96451,367.85816 327.63226,360.09317 C 347.32265,327.33737 377.7559,305.64316 414.81049,297.94853 C 426.9795,295.42155 448.60627,294.96148 461.04417,296.96499 C 499.67673,303.18796 533.60766,326.24099 553.57082,359.82856 L 557.90143,367.11471 L 561.09036,358.82856 C 571.06372,332.91361 583.78127,313.07427 603.44296,292.75863 C 631.95697,263.29624 668.40966,244.56735 711.08712,237.45255 C 724.57453,235.20405 754.26534,235.19907 768.54417,237.44292 C 830.63896,247.20082 883.37192,285.71576 911.38969,341.774 C 924.92614,368.85787 930.77851,394.44456 930.77851,426.5424 C 930.77851,452.08991 927.89791,469.26039 919.87383,491.5424 C 910.53264,517.48188 895.19758,541.45679 875.07807,561.5763 C 845.91135,590.74302 809.54505,609.19878 768.54417,615.64188 C 754.26534,617.88573 724.57453,617.88075 711.08712,615.63225 C 668.5568,608.54198 634.608,591.26354 604.96551,561.62106 C 584.58384,541.23938 571.3775,520.95564 561.07664,494.21174 L 557.86794,485.88108 L 553.5401,493.21174 C 534.74614,525.04563 503.24136,547.40964 466.27784,555.15577 C 451.89017,558.17087 429.19817,558.17087 414.81049,555.15577 C 377.6733,547.37324 347.31474,525.73428 327.65884,493.03585 L 322.68695,484.76491 L 321.2734,488.15366 C 320.49594,490.01747 319.27317,493.3424 318.55612,495.5424 C 316.74971,501.08471 307.73656,519.11896 302.57366,527.5214 C 291.88205,544.92165 272.45663,566.26315 256.04417,578.64047 C 230.45499,597.93833 199.83744,610.8874 169.0061,615.45145 C 156.10264,617.36159 135.5623,618.09284 123.54417,617.06993 z M 168.06187,593.68911 C 206.02776,586.72087 236.79286,570.33563 262.54417,543.36862 C 307.64853,496.13492 321.51856,429.5592 299.13633,367.72733 C 284.25983,326.63034 250.94686,290.75329 210.97023,272.7751 C 188.2466,262.5559 170.86181,258.43101 146.04417,257.37012 C 85.388657,254.77724 28.055187,285.52709 -4.5884029,338.1594 C -15.706843,356.08601 -23.937393,378.42349 -27.574263,400.5424 C -29.295973,411.01361 -29.310173,442.30044 -27.597623,452.0424 C -20.622373,491.72176 -4.4194529,522.65093 23.217937,549.0424 C 49.242477,573.89373 81.405667,589.55986 116.54417,594.50002 C 129.26663,596.28868 156.20892,595.8646 168.06187,593.68911 z M 768.04417,593.68949 C 803.29069,587.2077 832.34849,572.47585 857.7717,548.19904 C 916.10265,492.4984 926.30198,401.07581 881.71932,333.5424 C 858.94562,299.045 821.91597,272.52042 782.56187,262.51527 C 755.44811,255.62204 724.23183,255.49321 698.04417,262.16647 C 644.67786,275.76553 600.25073,315.69551 581.0989,367.27393 C 566.97198,405.3196 566.92063,446.59519 580.95201,485.35747 C 585.52582,497.99284 590.45124,507.54035 599.10336,520.5424 C 626.15052,561.18771 668.10031,587.57764 716.66261,594.49701 C 729.24874,596.29034 756.20505,595.86669 768.04417,593.68949 z M 457.83412,534.55107 C 475.23989,531.51576 486.87157,526.90007 501.52662,517.21302 C 523.82323,502.47485 540.23134,479.01559 547.06019,452.11205 C 549.61679,442.03985 549.31477,409.89378 546.56226,399.11323 C 540.04688,373.59503 523.10936,350.02476 500.70187,335.29389 C 489.92666,328.21018 480.16345,323.90518 466.61794,320.26488 C 458.15974,317.99178 455.12153,317.69197 440.54417,317.69197 C 425.9668,317.69197 422.92859,317.99178 414.47039,320.26488 C 401.0063,323.8833 391.16383,328.20678 380.70515,335.09688 C 358.56701,349.6813 342.12146,372.35961 334.98173,398.14916 C 331.43495,410.96058 330.53561,432.41781 332.99534,445.5424 C 337.28337,468.42247 347.44391,487.82093 363.60478,503.98179 C 388.38149,528.7585 424.27588,540.40313 457.83412,534.55107 z"
       id="path2874" />
  </g>
</svg>
