<?xml version="1.0" encoding="UTF-8" standalone="no"?>
<!-- Created with Inkscape (http://www.inkscape.org/) -->
<svg
   xmlns:dc="http://purl.org/dc/elements/1.1/"
   xmlns:cc="http://creativecommons.org/ns#"
   xmlns:rdf="http://www.w3.org/1999/02/22-rdf-syntax-ns#"
   xmlns:svg="http://www.w3.org/2000/svg"
   xmlns="http://www.w3.org/2000/svg"
   xmlns:sodipodi="http://sodipodi.sourceforge.net/DTD/sodipodi-0.dtd"
   xmlns:inkscape="http://www.inkscape.org/namespaces/inkscape"
   width="210mm"
   height="297mm"
   id="svg3151"
   sodipodi:version="0.32"
   inkscape:version="0.46"
   sodipodi:docname="schwaemme.svg"
   inkscape:output_extension="org.inkscape.output.svg.inkscape">
  <defs
     id="defs3153">
    <inkscape:perspective
       sodipodi:type="inkscape:persp3d"
       inkscape:vp_x="0 : 526.18109 : 1"
       inkscape:vp_y="0 : 1000 : 0"
       inkscape:vp_z="744.09448 : 526.18109 : 1"
       inkscape:persp3d-origin="372.04724 : 350.78739 : 1"
       id="perspective3159" />
  </defs>
  <sodipodi:namedview
     id="base"
     pagecolor="#ffffff"
     bordercolor="#666666"
     borderopacity="1.0"
     inkscape:pageopacity="0.0"
     inkscape:pageshadow="2"
     inkscape:zoom="0.35"
     inkscape:cx="350"
     inkscape:cy="520"
     inkscape:document-units="px"
     inkscape:current-layer="layer1"
     showgrid="false"
     inkscape:window-width="640"
     inkscape:window-height="713"
     inkscape:window-x="120"
     inkscape:window-y="120" />
  <metadata
     id="metadata3156">
    <rdf:RDF>
      <cc:Work
         rdf:about="">
        <dc:format>image/svg+xml</dc:format>
        <dc:type
           rdf:resource="http://purl.org/dc/dcmitype/StillImage" />
      </cc:Work>
    </rdf:RDF>
  </metadata>
  <g
     inkscape:label="Ebene 1"
     inkscape:groupmode="layer"
     id="layer1">
    <path
       style="fill:#000000"
       d="M 353.26177,688.94973 C 338.07742,686.56563 318.9921,679.85582 305.45763,672.14326 C 292.97511,665.03015 290.55755,664.78067 226.98196,664.04488 C 177.34678,663.47044 170.97586,663.13944 168.89965,661.02721 C 165.65106,657.72227 185.45739,650.34092 220.58753,641.76435 L 235.34903,638.16051 L 227.38765,634.10742 C 211.3534,625.94448 199.21676,615.02816 188.1701,598.83312 C 179.93995,586.76724 174.85726,580.75149 156.71981,561.60936 C 126.58155,529.80166 116.42121,515.61394 107.19324,492.45129 C 100.29021,475.12433 93.805568,464.74838 84.14431,455.57114 C 72.942251,444.93027 61.198311,438.63413 41.108484,432.49882 C 36.123643,430.97649 29.835096,429.0522 27.133937,428.22265 C 18.355582,425.52672 12.310673,420.45888 6.932752,411.28668 C -4.0590013,392.53994 -5.4681693,364.97726 3.5781821,345.67286 C 8.9216671,334.27016 16.808921,325.94342 26.277398,321.70881 C 31.21697,319.49968 39.166572,319.01683 45.267595,320.55538 C 47.968754,321.23655 56.468902,324.83767 64.156818,328.55787 C 82.602685,337.48384 89.728744,339.20121 97.779647,336.66091 C 112.26816,332.08935 118.64224,321.78644 118.67804,302.88129 C 118.69864,292.00334 117.96005,286.61388 112.77635,259.81711 C 107.05194,230.22518 105.71857,220.70167 105.21221,205.79067 C 104.53934,185.97628 107.10424,174.81172 113.89024,168.01675 C 117.59463,164.30748 121.02662,162.91342 126.49127,162.89829 C 137.55169,162.86766 148.80115,171.28106 154.03944,183.50138 C 155.63371,187.22063 155.88377,189.31884 156.42071,203.48266 C 157.26797,225.83205 158.73093,240.78328 164.33542,284.36985 C 173.48896,355.55756 175.78274,369.30648 181.1748,385.3049 C 188.69575,407.6198 197.92204,425.6866 221.07644,463.43972 C 236.35645,488.35371 242.42056,498.95714 247.01101,508.78772 C 254.44553,524.70899 261.83273,532.65607 271.14214,534.74776 C 283.47364,537.51846 286.78709,524.14263 278.0242,506.96596 C 277.21852,505.3867 273.7487,499.70731 270.31348,494.34511 C 259.48114,477.43637 258.21858,471.86131 262.88671,461.5508 C 265.20468,456.4311 265.45,455.22755 265.42781,449.08391 C 265.39024,438.67957 261.84613,430.20671 248.51926,408.66096 C 245.30625,403.46643 241.31472,396.4963 239.64919,393.1718 C 231.23097,376.3684 228.19155,358.17978 230.67076,339.4426 C 232.30896,327.06154 234.50632,318.98784 242.88342,294.57003 C 246.80406,283.14205 250.72973,271.07184 251.60713,267.74733 C 253.5251,260.48009 254.21208,248.93967 253.24883,240.16906 C 251.52296,224.45467 255.69682,207.66962 267.52798,182.74581 C 269.9938,177.55127 278.59448,160.55097 286.64062,144.96736 C 306.38876,106.71951 312.64852,92.7124 321.51745,66.925476 C 330.9923,39.376816 343.51366,25.228044 361.85104,21.349693 C 376.11552,18.332759 394.19116,23.446133 411.73276,35.460603 C 425.41768,44.833581 432.365,52.900724 435.57148,63.141798 C 444.05903,90.24991 438.63694,140.78454 421.88849,190.66931 C 417.80518,202.83132 415.64586,208.24989 406.97609,228.09026 C 390.87229,264.9431 380.35359,319.93567 372.07613,410.54989 C 369.01957,444.0105 369.10863,447.61144 373.20005,455.99162 C 380.40247,470.74381 394.29901,470.97628 404.25134,456.51107 C 409.99953,448.15635 413.62877,438.6875 418.53704,419.23893 C 425.61445,391.19539 429.60128,384.43938 443.74211,376.52703 C 451.52473,372.17234 454.77281,368.78723 458.22077,361.43752 C 462.44056,352.44252 464.94286,340.58309 467.62661,316.85932 C 469.47832,300.49054 469.51877,300.22834 471.88171,289.28105 C 478.94783,256.54433 490.82192,234.11465 522.97471,192.76844 C 539.94736,170.9428 543.15565,166.61644 549.77263,156.6315 C 561.38018,139.11588 565.72875,130.50088 574.53892,107.56669 C 588.22012,71.952481 599.85386,51.811458 617.22955,33.658133 C 636.07264,13.971727 654.69943,4.4279601 672.38941,5.3960027 C 687.35067,6.2147222 701.54884,13.82764 717.01292,29.3227 C 728.39909,40.73168 735.77185,52.155106 738.53603,62.670738 C 740.21022,69.040095 739.64928,88.419151 737.40381,101.78044 C 732.96756,128.17854 722.47869,167.22956 709.26446,206.54624 C 701.13604,230.73097 695.67803,242.52111 683.38109,262.45835 C 664.35505,293.3056 643.93718,319.1254 608.09715,357.66005 C 597.90739,368.61592 591.48014,377.71388 583.26633,392.80874 C 580.21803,398.41074 575.68485,406.73426 573.19259,411.30546 C 565.81316,424.84052 560.76065,432.07025 553.85636,438.97403 C 546.56211,446.26776 540.63795,450.34925 528.45402,456.47516 C 518.08099,461.69056 511.28558,466.46282 502.75349,474.524 C 488.34173,488.14036 474.24612,505.842 453.82129,535.97435 C 431.56203,568.81299 425.33439,577.54687 418.90085,584.9481 C 415.35464,589.02769 411.77791,593.68923 410.95255,595.30707 C 406.76917,603.50717 411.28081,609.05385 425.19109,612.81215 C 429.86532,614.07503 433.61502,614.41338 444.58585,614.56219 C 456.89123,614.7291 458.76674,614.93437 464.28478,616.71822 C 478.43269,621.29188 495.28196,629.3674 519.97894,643.4113 C 547.26183,658.92568 556.95669,665.83352 555.77381,668.91607 C 555.08265,670.71721 551.29272,670.39478 532.98743,666.97748 C 514.30685,663.49013 501.43052,662.44979 499.0643,664.23668 C 496.79035,665.95389 497.95232,668.3352 504.96052,676.32025 C 513.55705,686.11502 514.71508,688.51241 511.26482,689.37169 C 509.15921,689.89609 504.48582,688.88507 481.98652,683.03775 C 458.04537,676.81571 447.03344,675.14194 432.87453,675.57295 C 421.02273,675.93373 418.76861,676.5043 402.57712,683.24198 C 391.14826,687.99781 385.69617,689.05237 370.91787,689.3656 C 363.64551,689.51974 355.70027,689.3326 353.26177,688.94973 z M 386.02925,687.49392 C 392.45761,686.11568 399.28683,683.80857 407.76737,680.15017 C 417.92839,675.76684 423.56046,674.6398 435.51902,674.59677 C 450.68373,674.54219 461.62331,676.56188 496.9877,685.94526 C 505.75819,688.27237 512.20928,688.88624 512.20928,687.3937 C 512.20928,686.10874 509.31044,682.31726 503.65938,676.21105 C 500.81501,673.13758 498.15621,669.75079 497.75095,668.68486 C 496.74123,666.02908 497.51683,663.50413 499.55525,662.81096 C 502.97983,661.64644 513.74223,662.60914 529.96516,665.53116 C 551.34854,669.38267 554.18399,669.73352 554.87614,668.61361 C 555.7235,667.24256 553.34669,665.10171 544.32097,659.10633 C 526.99875,647.59995 494.85257,630.11317 476.7764,622.36364 C 463.24622,616.56306 458.53505,615.5301 446.0581,615.62845 C 423.3256,615.80764 408.66605,610.11085 408.71291,601.11589 C 408.73649,596.59094 410.78184,592.71693 416.57763,586.2197 C 424.03187,577.86328 427.97834,572.44081 445.72248,546.17454 C 485.26897,487.63465 503.28118,467.93923 529.11685,454.98712 C 540.67051,449.19496 544.47814,446.63231 551.5038,439.92004 C 561.14493,430.70895 565.51303,424.082 580.57443,395.81629 C 591.51477,375.28458 596.65375,368.19865 613.72642,350.10436 C 642.33974,319.77883 663.48422,292.71174 682.65131,261.87348 C 696.9039,238.94222 703.76619,222.57888 716.48033,181.207 C 734.48346,122.62487 741.7481,82.687449 737.79428,64.034359 C 735.30204,52.276571 725.37873,37.579204 711.46936,25.044577 C 694.17773,9.4619844 675.90387,3.2268772 659.60541,7.3484083 C 637.47053,12.945853 614.58298,32.79599 597.19425,61.476969 C 588.60412,75.645529 583.41772,86.772063 574.47781,110.21118 C 563.66101,138.57122 554.26521,154.1187 526.09756,190.2673 C 500.60206,222.98662 491.03531,237.92551 482.47505,258.38571 C 475.38696,275.32718 471.48971,291.52208 468.73088,315.499 C 466.43159,335.48205 465.15376,343.12512 462.66283,351.79364 C 458.61966,365.86395 454.36013,371.75795 444.23038,377.29899 C 430.76747,384.66328 426.2566,392.06566 420.05426,416.97222 C 414.54654,439.08943 411.02329,448.26332 404.50825,457.45117 C 397.50705,467.32465 388.7919,470.62566 380.73102,466.45722 C 375.15609,463.57431 370.01818,453.64713 369.0019,443.79493 C 367.97013,433.79247 375.83553,358.90057 381.89666,321.01495 C 389.02799,276.43997 395.92541,250.63232 407.95482,223.51483 C 418.17477,200.47633 424.40922,182.31984 429.86676,159.70095 C 435.87114,134.81572 438.33821,116.42407 438.43105,95.855363 C 438.51842,76.502042 436.7805,66.541421 431.48657,56.054205 C 427.26028,47.681993 413.90754,36.605638 399.25171,29.314789 C 388.06761,23.75102 380.45529,21.659212 371.29565,21.632661 C 359.32174,21.597943 350.98551,24.732595 342.69747,32.386351 C 333.37611,40.994346 328.54966,49.67971 320.65365,72.054937 C 317.86734,79.950633 313.55535,91.170835 311.07146,96.988717 C 307.08489,106.32628 287.08846,147.14321 285.53061,149.12299 C 283.82796,151.28679 264.84893,190.38504 261.87411,197.85719 C 254.94005,215.27415 252.81277,228.11741 254.34206,243.3314 C 255.71533,256.99323 254.07602,265.03259 243.9924,294.08739 C 233.44846,324.46851 231.83157,331.43206 231.33642,348.59322 C 230.67164,371.63355 234.36055,383.99591 248.92235,407.52761 C 266.81251,436.43792 269.86739,447.80748 263.62293,462.2398 C 259.30853,472.21133 260.89109,478.50984 271.89789,495.17362 C 278.53992,505.22934 280.34857,508.71378 282.43024,515.46469 C 284.96098,523.67191 284.43076,529.44281 280.79255,533.28927 C 274.90331,539.51561 262.49087,534.84626 254.31269,523.32799 C 252.4649,520.72554 248.38245,513.45102 245.24059,507.16239 C 239.8812,496.43528 235.21867,488.42366 213.63921,452.86176 C 196.28448,424.26201 187.19605,405.96994 180.60353,386.37168 C 175.8263,372.16995 173.90636,362.52778 169.62073,331.21513 C 159.35642,256.21958 155.58617,221.75902 155.5763,202.84756 C 155.56817,187.24915 153.30923,180.38674 145.65677,172.71307 C 134.90397,161.93048 120.58201,160.66747 113.30157,169.85977 C 107.80578,176.79877 106.11916,184.27867 106.13665,201.63504 C 106.1527,217.56249 107.25537,226.16096 113.30685,257.54715 C 118.05346,282.16553 120.08504,295.79362 120.04257,302.7311 C 120.00302,309.19102 118.22183,317.95485 115.98929,322.67406 C 112.01097,331.08353 102.30783,337.6484 92.945277,338.26498 C 85.620451,338.74736 80.928374,337.34684 65.667956,330.12308 C 47.245811,321.40266 44.880111,320.62526 36.956335,320.68808 C 31.375714,320.73234 29.890332,321.04835 25.622799,323.09929 C 12.573185,329.37084 2.6110076,344.03842 -0.42546726,361.45086 C -4.0623114,382.30607 1.6169303,405.67847 13.473718,418.65168 C 18.3275,423.96249 22.443369,426.09355 34.267366,429.41794 C 59.510415,436.51519 74.105094,444.12163 86.446106,456.6124 C 95.672708,465.95097 101.4492,475.38137 107.97265,491.75553 C 117.14586,514.78075 126.71087,528.47247 153.02162,556.24034 C 172.7726,577.08517 180.66902,586.32364 188.25432,597.46111 C 200.62106,615.61916 216.07113,628.87324 233.39902,636.18916 C 236.23769,637.38766 237.82959,638.41628 237.17687,638.63024 C 236.55642,638.83361 227.54863,641.07969 217.15956,643.62153 C 196.71518,648.62356 180.05939,653.83687 174.14357,657.08568 C 170.01133,659.35498 169.19364,660.55982 171.22681,661.38338 C 174.09898,662.5468 195.20562,663.20741 231.13759,663.25849 C 278.24508,663.32546 292.04994,664.31151 299.89437,668.16964 C 301.76441,669.08938 306.55085,671.59256 310.5309,673.73225 C 323.02066,680.44681 340.75993,686.28816 354.54715,688.22631 C 360.68754,689.0895 380.76582,688.62241 386.02925,687.49392 z M 374.38509,626.20688 C 367.51638,618.04389 379.65348,592.72518 388.35557,597.06364 C 395.91094,600.8304 390.96836,621.78467 381.24497,627.20932 C 377.92327,629.06249 376.62874,628.87332 374.38509,626.20688 z M 323.77113,621.2789 C 319.28775,616.66251 317.04896,611.05304 316.71442,603.59779 C 316.46855,598.11835 316.65312,596.81493 317.9716,594.71985 C 319.26077,592.67134 319.97976,592.26425 322.30864,592.26425 C 324.64573,592.26425 325.61744,592.81955 328.27591,595.6743 C 332.58263,600.299 335.01032,606.86959 335.02051,613.92873 C 335.03023,620.66042 333.36208,623.49123 329.17387,623.85032 C 326.92138,624.04345 326.05603,623.63159 323.77113,621.2789 z M 288.93862,620.34581 C 281.41881,616.73487 273.51559,607.01176 273.46605,601.31031 C 273.4426,598.61196 275.3331,596.2463 277.97695,595.66561 C 283.07821,594.54518 294.45775,602.70333 298.30057,610.23586 C 300.26743,614.09123 300.39247,618.78165 298.57213,620.42212 C 296.09067,622.65838 293.71539,622.63956 288.93862,620.34581 z M 245.19356,620.11194 C 241.03775,617.92035 235.38542,612.03072 233.08927,607.49949 C 228.09169,597.63723 233.29375,592.53902 243.22669,597.56445 C 247.19189,599.57059 253.7852,606.50235 255.79286,610.77569 C 257.8683,615.19327 258.03577,617.7258 256.40631,620.05218 C 254.85007,622.27402 249.34899,622.30333 245.19356,620.11194 z M 349.16056,609.21196 C 346.70142,607.48951 343.92726,601.52673 342.93555,595.83193 C 341.4735,587.4362 344.22744,578.70278 348.69014,577.58272 C 357.35504,575.40796 363.47466,599.54942 356.50465,608.41035 C 354.70188,610.7022 351.74842,611.02457 349.16056,609.21196 z M 234.15497,580.24002 C 228.16244,578.36887 221.12602,572.15572 217.98935,565.9658 C 213.16223,556.43994 217.60912,551.23093 226.92676,555.49669 C 234.43095,558.93222 242.4415,568.98327 242.46374,574.99135 C 242.47841,578.95424 238.36299,581.55396 234.15497,580.24002 z M 273.87788,573.25265 C 269.92133,571.16666 263.43195,564.59101 261.40089,560.60982 C 259.07982,556.06015 259.03063,551.68694 261.28003,549.86548 C 263.61635,547.97365 266.23534,548.07974 270.80496,550.25131 C 281.17067,555.17731 289.91167,570.98143 284.01568,574.13688 C 281.75451,575.34701 277.07638,574.93898 273.87788,573.25265 z M 378.72027,573.78982 C 373.463,570.02806 374.37026,553.70346 380.2662,545.97337 C 383.476,541.76503 386.08717,540.82836 388.86415,542.88914 C 391.81675,545.08025 393.01958,549.24613 392.64883,555.99693 C 392.30855,562.19292 389.51063,569.70377 386.4834,572.54771 C 384.19414,574.69836 380.7583,575.2481 378.72027,573.78982 z M 315.29221,567.0006 C 307.22055,563.4876 301.90883,543.22958 307.4889,537.24008 C 310.00629,534.53799 313.16593,535.06531 316.88201,538.80774 C 324.49366,546.47334 326.61198,563.94958 320.33659,567.30808 C 318.51774,568.28149 318.18922,568.26147 315.29221,567.0006 z M 186.9368,553.05195 C 179.50438,548.77248 172.95877,540.02398 172.95877,534.36971 C 172.95877,531.62466 175.79933,528.79117 178.53854,528.80383 C 183.715,528.82774 194.44257,537.14532 197.80988,543.74578 C 199.80718,547.66082 199.90297,552.2886 198.02195,553.99091 C 195.87238,555.93624 191.26888,555.54631 186.9368,553.05195 z M 341.4843,549.23282 C 335.92512,543.28169 335.99842,525.91106 341.60791,519.94002 C 345.07406,516.25047 349.59748,518.31641 351.9768,524.67569 C 355.0292,532.83397 353.70285,544.68906 349.21343,549.375 C 346.61893,552.08308 344.10363,552.03681 341.4843,549.23282 z M 411.49313,539.35924 C 405.66328,534.77347 407.99761,516.19255 415.20954,509.77719 C 419.8187,505.67713 424.77603,508.69975 425.71062,516.17999 C 427.08753,527.2003 420.96992,540.86811 414.65388,540.88273 C 413.98268,540.88428 412.56035,540.19871 411.49313,539.35924 z M 222.82633,534.07543 C 215.61778,530.17362 208.49816,520.71212 208.4779,515.00731 C 208.46756,512.09776 210.90911,509.90722 214.1624,509.90722 C 222.29297,509.90722 234.91543,522.52968 234.91543,530.66025 C 234.91543,536.48899 229.90198,537.9053 222.82633,534.07543 z M 365.81445,524.82971 C 362.14609,520.90499 361.60704,507.86148 364.8177,500.7111 C 366.46509,497.04221 370.19257,493.2847 372.18475,493.2847 C 372.81777,493.2847 374.45889,494.40791 375.8317,495.78072 C 377.85994,497.80896 378.43088,499.10242 378.87819,502.68252 C 380.39525,514.82465 375.93174,526.52974 369.78451,526.52974 C 368.28977,526.52974 366.81195,525.89692 365.81445,524.82971 z M 151.73504,520.11929 C 145.01783,516.61976 138.75824,508.62773 137.71909,502.22423 C 137.15139,498.7259 139.65906,495.54858 142.97974,495.55879 C 146.77918,495.57047 153.03332,498.94039 157.20602,503.22435 C 162.09928,508.24807 164.31536,513.20072 163.97557,518.3534 C 163.71758,522.26577 157.56019,523.15406 151.73504,520.11929 z M 302.0909,507.28823 C 297.09443,504.52689 293.10612,496.29328 292.56275,487.61793 C 292.22011,482.14761 292.3553,481.32215 293.98585,478.92889 C 295.14316,477.23023 296.50332,476.20069 297.78881,476.05035 C 300.73386,475.70593 305.44152,480.31512 308.3333,486.3743 C 310.37437,490.65097 310.72547,492.25288 310.78298,497.55103 C 310.83905,502.71534 310.58852,504.08882 309.26426,505.87694 C 307.43938,508.34104 304.89993,508.84065 302.0909,507.28823 z M 197.39686,499.32276 C 189.0585,495.47844 182.56616,477.20366 187.36942,471.09731 C 192.06713,465.12515 201.11347,472.61167 204.98711,485.67725 C 206.58667,491.07249 206.52019,494.6455 204.76678,497.52098 C 202.93447,500.52583 201.021,500.99363 197.39686,499.32276 z M 332.79152,497.40118 C 327.02519,491.17921 329.23966,472.43814 336.34906,467.29383 C 342.56409,462.79667 348.28557,473.46762 346.07932,485.4414 C 343.90158,497.26044 337.77311,502.77641 332.79152,497.40118 z M 165.74866,490.366 C 159.81533,486.74774 155.47662,478.48615 154.98851,469.87701 C 154.70612,464.89623 154.86936,463.93896 156.31172,462.11748 C 159.27314,458.37767 163.5599,459.71995 168.62501,465.97305 C 172.46971,470.71949 174.61154,476.62328 174.74192,482.83388 C 174.83374,487.20753 174.60604,488.12957 173.01596,489.82289 C 170.84869,492.13088 168.88358,492.27773 165.74866,490.366 z M 419.92467,487.30535 C 418.29307,485.98273 418.14128,485.28999 418.14497,479.18298 C 418.1484,473.49842 418.45529,471.85147 420.21069,468.09713 C 425.63613,456.49356 433.18835,452.91449 436.33856,460.45399 C 437.68992,463.68826 437.68781,467.75272 436.33245,472.21832 C 434.02439,479.82281 429.75501,485.97092 425.56728,487.72067 C 422.37952,489.0526 422.0502,489.02836 419.92467,487.30535 z M 461.33772,469.67229 C 455.3103,465.26494 462.83567,449.70266 473.66617,444.17735 C 481.37456,440.24482 486.08394,444.54384 483.14509,452.83031 C 480.6092,459.98056 475.00563,466.37682 468.81346,469.18929 C 465.19156,470.83435 463.11079,470.96879 461.33772,469.67229 z M 122.04414,466.36019 C 111.54319,460.89753 104.20633,447.54445 109.3966,443.34163 C 111.74412,441.44072 114.35436,441.54082 118.93558,443.70745 C 124.08032,446.14059 129.62868,451.89287 132.33462,457.59893 C 136.73894,466.88639 131.5493,471.30483 122.04414,466.36019 z M 300.21481,446.5277 C 297.16197,444.66607 293.32988,438.79347 291.85311,433.71356 C 290.24961,428.19771 290.68186,419.22044 292.65598,417.03905 C 299.47172,409.50775 312.1173,428.74992 308.97106,441.86491 C 307.58095,447.65954 304.63951,449.22588 300.21481,446.5277 z M 136.28987,435.91567 C 135.44565,435.56425 133.45157,433.83406 131.85858,432.07081 C 124.82024,424.28021 122.14435,411.19755 126.58549,406.29015 C 131.96322,400.34782 144.0928,414.86356 144.44766,427.66619 C 144.635,434.42544 141.15758,437.94196 136.28987,435.91567 z M 441.98555,430.9973 C 438.75122,427.5545 439.10732,420.45911 442.95488,411.68324 C 446.99914,402.45872 454.0389,398.37378 457.75347,403.09609 C 459.65914,405.51876 459.87977,412.42744 458.22554,417.87854 C 455.91361,425.49687 449.57028,432.82863 445.28423,432.83635 C 444.42166,432.83791 442.93725,432.01033 441.98555,430.9973 z M 160.73409,429.98291 C 151.31331,423.76982 146.24786,404.30105 153.15285,400.84479 C 157.55924,398.63918 163.09549,402.64702 167.16302,410.98714 C 170.74798,418.33779 170.93817,428.51371 167.53096,430.67426 C 165.89636,431.71078 162.89042,431.40502 160.73409,429.98291 z M 338.41476,427.30714 C 332.42103,424.31894 331.49448,408.40585 336.78057,399.24079 C 338.6257,396.04168 342.54142,394.14601 344.99508,395.26397 C 349.09845,397.13359 351.22389,405.28921 349.80127,413.70606 C 348.14684,423.49452 343.02908,429.60763 338.41476,427.30714 z M 520.68866,424.10729 C 517.05163,421.55981 519.43688,412.09156 525.50017,405.00797 C 528.87677,401.06317 535.16062,397.34406 538.46531,397.33452 C 539.96603,397.33019 541.54286,397.94938 542.52036,398.92688 C 547.10739,403.51391 539.04364,418.54079 529.42226,423.33533 C 524.91046,425.58366 523.03335,425.74957 520.68866,424.10729 z M 88.486611,414.86216 C 78.140113,409.57639 70.81558,396.71323 75.490355,392.03844 C 81.668598,385.8602 100.42414,400.53032 100.42414,411.54102 C 100.42414,417.2116 95.672889,418.53345 88.486611,414.86216 z M 47.156517,414.09326 C 36.264141,408.84713 28.388673,394.86575 33.839684,390.4518 C 36.227284,388.51843 38.937175,388.64506 43.465384,390.90156 C 50.995545,394.65399 58.225147,404.06725 58.389446,410.33334 C 58.537016,415.96114 54.110832,417.44269 47.156517,414.09326 z M 486.00704,414.56292 C 479.10198,411.2246 483.99597,390.01187 492.94761,384.47946 C 496.0895,382.53766 498.17701,382.57107 500.06103,384.59333 C 505.68328,390.62811 499.26185,410.78884 490.55931,414.425 C 489.19547,414.99485 487.98368,415.43807 487.86645,415.40995 C 487.74921,415.38183 486.91248,415.00066 486.00704,414.56292 z M 8.2744671,398.11275 C 0.17939374,390.01768 1.4751274,371.64037 11.608661,350.82411 C 17.338078,339.05477 24.554265,331.4279 28.71192,332.74749 C 29.538272,333.00976 31.043616,334.47741 32.057128,336.00893 C 40.070402,348.1178 30.711944,392.23749 18.558235,399.64836 C 14.685521,402.0098 11.73021,401.5685 8.2744671,398.11275 z M 274.90679,399.98832 C 268.2645,396.37624 262.9149,379.03849 266.40985,372.45023 C 267.16491,371.02688 268.32507,369.53179 268.98799,369.1278 C 272.31429,367.10073 278.33602,371.90157 281.60807,379.18919 C 283.55107,383.51671 284.66309,392.42516 283.72623,396.15791 C 282.62581,400.54233 278.90069,402.1602 274.90679,399.98832 z M 309.94786,387.88408 C 307.00352,385.82178 305.71476,380.80939 306.11831,372.98975 C 306.68003,362.10509 310.50271,355.38994 315.84342,355.90598 C 324.41791,356.73449 324.80209,380.03977 316.35837,387.14468 C 313.79876,389.29846 312.22614,389.47985 309.94786,387.88408 z M 115.51475,386.19982 C 108.11281,381.02838 102.47399,366.65839 105.2446,360.02738 C 108.30753,352.69674 116.10531,355.94103 121.6426,366.84981 C 123.76345,371.02803 124.27085,372.95554 124.48374,377.64291 C 124.7082,382.58507 124.52375,383.62771 123.10665,385.42722 C 121.19072,387.86018 118.31072,388.15327 115.51475,386.19982 z M 60.756757,370.59945 C 55.180997,367.97316 50.234974,363.20366 47.582297,357.89519 C 44.909847,352.54715 44.685302,349.85752 46.70322,347.3655 C 47.790996,346.02215 48.848632,345.61118 51.068231,345.66938 C 62.073072,345.95794 76.333691,364.75019 70.20137,370.88251 C 68.217662,372.86622 65.389272,372.78145 60.756757,370.59945 z M 526.27541,368.39481 C 522.55008,364.66947 522.97639,356.03924 527.30694,347.51298 C 531.88605,338.49732 539.19756,335.1355 542.08452,340.71826 C 543.47199,343.40132 543.50802,350.68848 542.15604,355.18077 C 540.91325,359.31024 536.25948,366.51968 533.79376,368.13528 C 530.3982,370.36014 528.31273,370.43212 526.27541,368.39481 z M 139.71373,366.88601 C 137.25093,365.64485 134.06791,359.69933 132.88694,354.13432 C 131.72293,348.64926 132.33752,343.00106 134.59256,338.45935 C 135.96705,335.69108 136.75683,334.94245 138.51416,334.74206 C 141.97792,334.3471 144.10554,336.03105 146.63531,341.16973 C 150.68512,349.39606 150.35699,361.54432 145.9664,365.93491 C 143.81835,368.08297 142.48981,368.28505 139.71373,366.88601 z M 489.19225,362.28998 C 486.84591,359.94364 485.77377,355.87482 485.76858,349.29704 C 485.76021,338.68733 490.24063,330.44365 495.72577,330.97645 C 504.24709,331.80417 504.58927,355.13818 496.18381,362.2109 C 493.39567,364.55698 491.4809,364.57863 489.19225,362.28998 z M 342.52373,360.19533 C 339.15592,358.56115 338.05061,355.22752 338.05061,346.7043 C 338.05061,339.95872 338.32088,338.17273 339.85561,334.77635 C 343.05743,327.69074 347.89012,325.7502 351.53793,330.08537 C 355.18467,334.41928 355.29704,347.82016 351.74541,354.82896 C 348.899,360.44609 346.23518,361.99625 342.52373,360.19533 z M 260.59914,345.45026 C 257.61679,342.94077 256.59925,338.7413 256.96688,330.45957 C 257.2218,324.71664 257.61049,323.03351 259.46696,319.63329 C 263.31099,312.59278 268.68389,311.81962 271.69641,317.87349 C 273.83099,322.16307 273.59731,334.43963 271.28208,339.64095 C 268.21259,346.53676 264.37224,348.62512 260.59914,345.45026 z M 576.10884,339.47242 C 572.8899,336.25349 575.31975,327.8748 581.44929,321.05728 C 590.30517,311.20741 600.92523,310.7436 599.64848,320.26248 C 598.75135,326.95106 593.25242,334.68214 586.73213,338.42184 C 582.40049,340.90624 577.97984,341.34342 576.10884,339.47242 z M 307.01198,330.72813 C 304.00187,329.26752 302.61943,325.64016 302.30232,318.37046 C 302.06229,312.86799 302.30728,310.7148 303.58611,307.08705 C 305.7189,301.0368 308.47476,298.20637 311.94534,298.5016 C 315.37502,298.79335 317.74002,302.20195 318.4488,307.87487 C 319.56753,316.82885 317.21128,325.82491 312.76811,329.5636 C 310.16734,331.752 309.42962,331.90125 307.01198,330.72813 z M 537.38574,323.13906 C 530.21201,319.67085 536.01943,297.0353 545.20208,292.67335 C 548.54149,291.08706 551.22958,292.22982 552.75681,295.88501 C 555.91812,303.4511 549.90984,318.98567 542.28068,322.97133 C 539.9252,324.20189 539.60669,324.2128 537.38574,323.13906 z M 138.04023,311.38145 C 132.141,305.11554 132.28985,288.39696 138.30186,281.99749 C 145.19729,274.65762 152.82996,290.30522 149.22102,304.38267 C 147.06295,312.8007 142.22663,315.82806 138.04023,311.38145 z M 345.39232,300.94651 C 342.08301,298.62857 341.10039,295.51874 341.10953,287.39213 C 341.11655,281.15063 341.42042,279.15942 342.85655,275.94404 C 345.08476,270.95527 347.55665,268.62883 350.62909,268.62883 C 355.42435,268.62883 357.6927,274.4025 357.13805,285.19616 C 356.8443,290.91263 356.42329,292.73157 354.63218,296.02243 C 352.76211,299.45836 349.73287,302.12572 347.70087,302.12572 C 347.35713,302.12572 346.31828,301.59507 345.39232,300.94651 z M 500.68684,299.04292 C 496.60937,296.66802 495.47712,285.13882 498.53326,277.11428 C 500.4463,272.09124 504.22436,267.59692 507.09017,266.93513 C 510.25157,266.20509 513.38198,269.71766 514.07763,274.77564 C 515.91747,288.1529 507.66542,303.10756 500.68684,299.04292 z M 621.98505,297.23161 C 616.76662,293.49898 619.80601,277.07868 627.05997,269.8144 C 634.01046,262.85402 640.08267,267.54115 638.37832,278.55102 C 636.44229,291.05744 627.53834,301.20374 621.98505,297.23161 z M 274.54313,285.15442 C 272.58948,283.20078 272.52674,282.88285 272.84905,276.56984 C 273.12682,271.12914 273.58019,269.24294 275.51448,265.48062 C 279.47397,257.77917 283.73074,254.47325 288.23284,255.60321 C 294.90441,257.27767 292.78347,274.08657 284.82682,282.59663 C 280.40655,287.32432 277.44871,288.06001 274.54313,285.15442 z M 580.54958,277.14918 C 578.59042,274.98432 578.18435,267.39549 579.74626,262.13598 C 582.29193,253.56378 587.91831,246.96918 592.68626,246.96918 C 601.65759,246.96918 599.28352,266.92872 589.23207,276.00959 C 585.7843,279.12446 582.70316,279.52885 580.54958,277.14918 z M 541.16358,274.02707 C 535.00365,271.04899 537.98374,253.52866 545.88978,246.24112 C 550.27594,242.1981 552.5907,241.67301 555.07517,244.15749 C 561.12053,250.20284 554.63655,270.82223 545.61113,274.25369 C 543.49511,275.0582 543.27298,275.04688 541.16358,274.02707 z M 313.51384,262.09979 C 310.21311,258.79906 310.52203,250.63814 314.2542,242.54109 C 317.9863,234.4442 323.26258,230.18346 327.15447,232.12378 C 330.03182,233.55828 330.9864,236.1895 330.62145,241.6802 C 330.04009,250.42687 325.50656,259.27653 320.07392,262.26946 C 316.96802,263.98054 315.35282,263.93877 313.51384,262.09979 z M 133.29139,244.74376 C 131.10548,243.84908 129.42745,241.75807 127.47589,237.49696 C 125.11548,232.34317 124.94221,219.191 127.18588,215.48338 C 130.57918,209.87601 135.52114,210.59674 139.08856,217.21925 C 144.20856,226.72394 143.29662,241.29975 137.39089,244.35372 C 136.21634,244.9611 135.15347,245.4365 135.02894,245.41015 C 134.90442,245.38381 134.12252,245.08393 133.29139,244.74376 z M 660.01726,244.05102 C 656.90327,240.61009 657.23142,232.11898 660.78436,224.20198 C 664.37287,216.2057 671.53588,211.4669 674.91957,214.85059 C 680.50415,220.43516 675.41358,238.77107 666.82453,244.00841 C 663.83301,245.83255 661.64193,245.84626 660.01726,244.05102 z M 365.42972,244.17967 C 362.08328,243.30692 360.73477,234.29588 362.88261,227.15918 C 364.26369,222.57019 369.0823,215.44185 371.72817,214.07362 C 372.90348,213.46584 374.89416,212.96857 376.15191,212.96857 C 383.85987,212.96857 382.63043,230.15242 374.20616,240.16409 C 372.52212,242.16546 367.9151,245.00121 366.9754,244.61483 C 366.85816,244.56662 366.1626,244.3708 365.42972,244.17967 z M 277.78352,228.64663 C 274.9423,226.4891 274.19872,220.44376 276.03175,214.40459 C 279.63896,202.52009 287.42917,195.24091 292.31058,199.19364 C 293.75806,200.36574 294.17992,201.55329 294.44355,205.19804 C 295.21284,215.83338 287.90757,229.59109 281.49097,229.59109 C 280.13593,229.59109 278.46757,229.16609 277.78352,228.64663 z M 619.20476,226.92111 C 614.39683,222.11319 617.91351,205.83821 625.12929,199.50267 C 628.5987,196.45649 631.06599,195.82943 633.44614,197.38897 C 636.0588,199.10086 636.90748,202.89008 636.04394,208.98778 C 635.12705,215.46222 632.64862,220.80951 628.68323,224.86879 C 626.19816,227.41268 625.00785,228.07996 622.95496,228.07996 C 621.52971,228.07996 619.84212,227.55848 619.20476,226.92111 z M 555.33587,218.14698 C 549.61854,212.01015 557.06243,190.45696 565.64305,188.30336 C 570.74046,187.02399 573.67409,191.99998 572.56071,200.03704 C 570.72798,213.26693 560.65552,223.85696 555.33587,218.14698 z M 334.59094,211.94703 C 330.92181,210.11777 329.88686,204.26863 331.89732,196.72384 C 333.28057,191.53288 335.08377,188.17331 338.32275,184.7525 C 341.79072,181.08986 344.0912,180.13765 346.78057,181.25162 C 349.40551,182.33891 350.51949,184.88391 350.50933,189.77037 C 350.48433,201.78254 340.92245,215.10364 334.59094,211.94703 z M 126.66843,194.01282 C 122.78364,193.09758 118.54064,190.83499 116.39247,188.53315 C 112.17819,184.01741 114.11684,174.84832 119.98298,171.55137 C 127.64749,167.24367 143.01771,172.04435 146.75117,179.91204 C 150.88053,188.61402 145.29152,194.95529 133.66918,194.7548 C 131.38358,194.71538 128.23324,194.38148 126.66843,194.01282 z M 655.82655,190.19092 C 652.53066,186.65321 653.15332,178.1588 657.31384,169.90114 C 659.58855,165.38636 663.31043,161.17997 665.70215,160.42087 C 675.87238,157.19296 675.4239,179.29671 665.12657,188.78846 C 661.31804,192.29904 658.22511,192.76547 655.82655,190.19092 z M 378.45072,188.97926 C 376.98784,187.12994 376.84027,186.19517 377.10889,180.4791 C 377.35487,175.24448 377.82336,173.23975 379.64215,169.6389 C 382.47095,164.03843 387.42987,159.32317 390.49094,159.32317 C 395.02764,159.32317 397.39073,165.13187 395.85788,172.51561 C 392.9631,186.45967 383.52152,195.3895 378.45072,188.97926 z M 600.60258,178.77907 C 598.67145,175.61178 598.6941,171.3922 600.6772,164.88064 C 602.76925,158.01131 605.34259,153.71176 608.74614,151.399 C 612.2638,149.00868 614.53113,148.99653 616.88994,151.35535 C 618.46862,152.93402 618.74331,153.91757 618.73635,157.96658 C 618.71682,169.32147 611.54515,181.23467 604.7291,181.23467 C 602.57353,181.23467 601.83003,180.79223 600.60258,178.77907 z M 309.5637,175.90886 C 307.31419,173.65934 307.26815,173.46751 307.60036,167.72863 C 308.23527,156.76091 314.95085,146.4785 321.47911,146.4785 C 325.44322,146.4785 326.72569,148.69382 326.66579,155.4379 C 326.58264,164.79871 321.98815,173.85903 315.66673,177.12796 C 312.74663,178.638 312.17956,178.52473 309.5637,175.90886 z M 685.4863,156.62128 C 683.64467,154.77965 683.55752,154.34095 683.86595,148.46462 C 684.45822,137.18042 691.10058,126.8337 697.75251,126.8337 C 700.97043,126.8337 702.75651,129.04421 703.19084,133.56435 C 704.00381,142.02507 699.21502,153.0202 692.87905,157.24038 C 690.1072,159.08661 687.75462,158.8896 685.4863,156.62128 z M 356.60625,151.43674 C 353.42001,148.04514 353.71824,141.09434 357.42745,132.29706 C 362.88785,119.34643 373.94014,117.68896 373.94014,129.82074 C 373.94014,140.46027 366.31289,153.27862 359.98208,153.27862 C 359.07707,153.27862 357.55795,152.44977 356.60625,151.43674 z M 404.72459,136.2281 C 398.98056,129.65686 399.09664,112.8945 404.92654,107.0646 C 407.62954,104.36159 410.13996,104.34049 412.61043,107.00001 C 418.27871,113.102 418.42284,130.19582 412.85664,136.20185 C 410.42407,138.82664 407.00565,138.83767 404.72459,136.2281 z M 597.64773,133.52324 C 595.57533,131.29877 594.88627,125.90759 596.07935,121.25239 C 599.59738,107.52577 608.62107,99.350716 613.47926,105.48887 C 614.93373,107.32655 615.08765,108.26925 614.81102,113.64554 C 614.2502,124.54482 607.55306,135.14496 601.22775,135.14496 C 600.08456,135.14496 598.48247,134.41923 597.64773,133.52324 z M 647.68209,120.40902 C 643.64915,117.58424 643.54821,108.88555 647.45143,100.53209 C 651.03857,92.855081 656.05491,88.39467 659.99068,89.382486 C 664.84662,90.601249 665.48836,101.50022 661.22205,110.29541 C 658.49744,115.91231 656.96467,117.8151 653.42763,119.97142 C 650.35561,121.84425 649.79241,121.88715 647.68209,120.40902 z M 337.15554,114.73228 C 331.65074,112.53783 332.84757,99.093218 339.42365,89.253488 C 342.06104,85.307166 346.49989,82.59295 349.01226,83.390347 C 353.11414,84.692231 354.49045,91.698917 352.15479,99.38857 C 348.99391,109.7951 342.20127,116.74372 337.15554,114.73228 z M 688.30107,109.12488 C 684.58533,105.16965 685.66636,94.395249 690.53467,86.863033 C 694.02908,81.456506 696.792,79.232843 700.01526,79.232843 C 703.77959,79.232843 705.63497,82.034456 705.63497,87.718602 C 705.63497,96.30433 701.48407,105.42165 695.82462,109.26672 C 692.59979,111.45769 690.45465,111.41724 688.30107,109.12488 z M 396.985,89.735027 C 381.99186,87.594968 364.05524,78.695202 354.1582,68.485281 C 344.7789,58.809456 343.54203,49.180476 350.64231,41.114134 C 355.11674,36.030922 360.02044,34.393891 370.91787,34.345428 C 381.45174,34.298583 389.7834,36.210868 400.05674,41.033386 C 413.66251,47.420211 422.87969,55.422632 426.5455,64.03108 C 428.10564,67.694782 428.09339,74.376415 426.51972,78.099489 C 423.82422,84.476606 418.44806,88.289895 410.14557,89.713599 C 404.61164,90.662556 403.49592,90.664369 396.985,89.735027 z M 624.8083,88.318894 C 618.75853,82.269128 625.45727,61.381299 634.45288,58.245408 C 641.90353,55.648102 644.53244,66.814151 639.17148,78.287233 C 636.61658,83.755008 633.95303,87.036187 630.68226,88.744914 C 627.92568,90.185021 626.57658,90.087175 624.8083,88.318894 z M 697.53274,67.912748 C 672.26647,61.189596 645.73721,38.882863 645.64589,24.284452 C 645.56748,11.750074 661.25855,9.5798154 687.05975,18.55643 C 709.07076,26.214372 725.19725,38.549611 728.41008,50.185511 C 730.07418,56.212383 726.13556,63.979596 719.7288,67.305528 C 715.28406,69.612922 704.9814,69.89478 697.53274,67.912748 z"
       id="path3149" />
  </g>
</svg>
