<?xml version="1.0" encoding="UTF-8" standalone="no"?>
<!-- Created with Inkscape (http://www.inkscape.org/) -->
<svg
   xmlns:dc="http://purl.org/dc/elements/1.1/"
   xmlns:cc="http://creativecommons.org/ns#"
   xmlns:rdf="http://www.w3.org/1999/02/22-rdf-syntax-ns#"
   xmlns:svg="http://www.w3.org/2000/svg"
   xmlns="http://www.w3.org/2000/svg"
   xmlns:sodipodi="http://sodipodi.sourceforge.net/DTD/sodipodi-0.dtd"
   xmlns:inkscape="http://www.inkscape.org/namespaces/inkscape"
   width="210mm"
   height="297mm"
   id="svg2777"
   sodipodi:version="0.32"
   inkscape:version="0.46"
   sodipodi:docname="spurenfossilien.svg"
   inkscape:output_extension="org.inkscape.output.svg.inkscape">
  <defs
     id="defs2779">
    <inkscape:perspective
       sodipodi:type="inkscape:persp3d"
       inkscape:vp_x="0 : 526.18109 : 1"
       inkscape:vp_y="0 : 1000 : 0"
       inkscape:vp_z="744.09448 : 526.18109 : 1"
       inkscape:persp3d-origin="372.04724 : 350.78739 : 1"
       id="perspective2785" />
  </defs>
  <sodipodi:namedview
     id="base"
     pagecolor="#ffffff"
     bordercolor="#666666"
     borderopacity="1.0"
     inkscape:pageopacity="0.0"
     inkscape:pageshadow="2"
     inkscape:zoom="0.35"
     inkscape:cx="350"
     inkscape:cy="520"
     inkscape:document-units="px"
     inkscape:current-layer="layer1"
     showgrid="false"
     inkscape:window-width="640"
     inkscape:window-height="713"
     inkscape:window-x="20"
     inkscape:window-y="20" />
  <metadata
     id="metadata2782">
    <rdf:RDF>
      <cc:Work
         rdf:about="">
        <dc:format>image/svg+xml</dc:format>
        <dc:type
           rdf:resource="http://purl.org/dc/dcmitype/StillImage" />
      </cc:Work>
    </rdf:RDF>
  </metadata>
  <g
     inkscape:label="Ebene 1"
     inkscape:groupmode="layer"
     id="layer1">
    <path
       style="fill:#000000"
       d="M 194.51534,259.41479 C 135.14056,255.3014 80.048883,232.18883 34.452292,192.26363 C 23.321319,182.51715 1.3571429,159.03979 1.3571429,156.88845 C 1.3571429,155.99425 11.762741,147.42315 12.999923,147.29827 C 13.517664,147.24601 16.675634,150.43451 20.017622,154.38382 C 27.825501,163.61059 45.060705,180.40367 54.266604,187.75425 C 94.327657,219.74151 139.99644,238.17147 190.69743,242.81183 C 209.50459,244.53314 236.46945,243.44194 255.32255,240.1966 C 289.73027,234.27372 322.4612,221.53323 346.82637,204.5788 C 354.58323,199.18121 374.89967,186.4606 383.81696,181.4181 C 392.10191,176.73317 412.63162,166.85748 423.45446,162.35071 C 481.90949,138.00929 536.31157,132.49256 591.34742,145.32524 C 644.12545,157.63147 693.47013,187.83955 729.57084,229.94358 C 736.14415,237.60998 744.37362,248.47064 744.33223,249.42458 C 744.31852,249.74039 741.55171,252.02062 738.18376,254.49177 L 732.06022,258.98475 L 730.46122,257.05875 C 729.58177,255.99945 725.9711,251.44144 722.43751,246.92984 C 713.82422,235.93264 698.9038,220.65862 687.94004,211.61482 C 648.83282,179.35603 605.91258,161.20137 556.15063,155.86973 C 546.24299,154.8082 521.21785,154.80264 511.17759,155.85973 C 486.47568,158.46049 460.93194,164.90898 434.83679,175.13191 C 412.25837,183.97714 378.16082,202.54144 355.28117,218.44574 C 325.08989,239.43255 282.16726,254.42074 240.20556,258.62908 C 228.54277,259.79875 205.7222,260.19118 194.51534,259.41479 z M 187.2961,121.52746 C 124.30852,114.73151 70.207144,89.758471 26.039097,47.09167 C 17.035879,38.394473 1.3571429,20.996716 1.3571429,19.703586 C 1.3571429,19.119776 12.819849,9.2593719 13.450734,9.3004901 C 13.658593,9.3140349 15.189188,11.088255 16.852056,13.243197 C 22.934264,21.125248 37.05064,35.75064 46.171197,43.619554 C 87.473554,79.253864 134.79845,99.772289 188.42988,105.29796 C 199.42053,106.43033 226.28728,106.43316 237.18217,105.30309 C 268.86249,102.01706 296.52869,94.111045 324.48278,80.355696 C 331.56097,76.872735 340.33792,71.781393 345.64656,68.078993 C 399.09602,30.801814 455.2548,8.1806538 508.91004,2.3153151 C 519.61572,1.1450258 547.25628,1.1675804 558.34482,2.3556699 C 610.02265,7.8926978 656.30396,27.452418 697.8724,61.323755 C 705.86307,67.834809 721.11045,82.769048 728.5131,91.335158 C 734.64364,98.429221 744.35714,111.10295 744.35714,112.00773 C 744.35714,112.80551 732.20971,121.54797 731.63742,121.16206 C 731.35822,120.97379 728.74885,117.6965 725.83883,113.87919 C 694.17839,72.347691 649.8179,41.747716 599.9899,27.068303 C 577.81895,20.536698 557.38817,17.594358 534.12212,17.582348 C 526.37147,17.578349 516.50763,17.923734 512.20248,18.349875 C 461.08757,23.40944 406.70698,45.305325 353.96846,82.061475 C 330.90942,98.132482 294.04131,112.48761 260.23557,118.55773 C 240.30549,122.13634 205.91659,123.53649 187.2961,121.52746 z"
       id="path2775" />
  </g>
</svg>
