<?xml version="1.0" encoding="UTF-8" standalone="no"?>
<!-- Created with Inkscape (http://www.inkscape.org/) -->
<svg
   xmlns:dc="http://purl.org/dc/elements/1.1/"
   xmlns:cc="http://creativecommons.org/ns#"
   xmlns:rdf="http://www.w3.org/1999/02/22-rdf-syntax-ns#"
   xmlns:svg="http://www.w3.org/2000/svg"
   xmlns="http://www.w3.org/2000/svg"
   xmlns:sodipodi="http://sodipodi.sourceforge.net/DTD/sodipodi-0.dtd"
   xmlns:inkscape="http://www.inkscape.org/namespaces/inkscape"
   width="210mm"
   height="297mm"
   id="svg2534"
   sodipodi:version="0.32"
   inkscape:version="0.46"
   sodipodi:docname="trilobiten.svg"
   inkscape:output_extension="org.inkscape.output.svg.inkscape">
  <defs
     id="defs2536">
    <inkscape:perspective
       sodipodi:type="inkscape:persp3d"
       inkscape:vp_x="0 : 526.18109 : 1"
       inkscape:vp_y="0 : 1000 : 0"
       inkscape:vp_z="744.09448 : 526.18109 : 1"
       inkscape:persp3d-origin="372.04724 : 350.78739 : 1"
       id="perspective2542" />
  </defs>
  <sodipodi:namedview
     id="base"
     pagecolor="#ffffff"
     bordercolor="#666666"
     borderopacity="1.0"
     inkscape:pageopacity="0.0"
     inkscape:pageshadow="2"
     inkscape:zoom="0.35"
     inkscape:cx="350"
     inkscape:cy="520"
     inkscape:document-units="px"
     inkscape:current-layer="layer1"
     showgrid="false"
     inkscape:window-width="640"
     inkscape:window-height="713"
     inkscape:window-x="40"
     inkscape:window-y="40" />
  <metadata
     id="metadata2539">
    <rdf:RDF>
      <cc:Work
         rdf:about="">
        <dc:format>image/svg+xml</dc:format>
        <dc:type
           rdf:resource="http://purl.org/dc/dcmitype/StillImage" />
      </cc:Work>
    </rdf:RDF>
  </metadata>
  <g
     inkscape:label="Ebene 1"
     inkscape:groupmode="layer"
     id="layer1">
    <path
       style="fill:#000000"
       d="M 338.48024,910.13456 C 338.30459,909.59132 332.7473,876.63067 326.13072,836.88859 C 319.51413,797.14651 313.74056,762.60254 313.30054,760.12412 C 312.51272,755.68671 312.42995,755.57267 307.86997,752.6452 C 296.37782,745.26735 276.08881,728.77502 261.91192,715.28728 L 254.28002,708.02637 L 243.81011,740.07227 C 238.05167,757.69752 229.72784,783.23772 225.31272,796.82828 C 220.89759,810.41883 217.21867,821.62584 217.13732,821.73269 C 216.82875,822.13816 198.03433,815.84188 198.03487,815.33322 C 198.03518,815.03955 206.93109,787.50583 217.80355,754.1472 C 228.67602,720.78855 237.68933,692.9652 237.83315,692.31753 C 237.98242,691.64521 234.59894,687.14717 229.94763,681.83446 C 216.14467,666.06874 198.70308,643.58985 186.82523,626.2579 C 184.62536,623.04788 182.56074,620.68919 182.23717,621.01636 C 181.91361,621.34352 171.06407,644.78398 158.12709,673.10626 C 145.19011,701.42854 134.39222,724.8144 134.13179,725.07484 C 133.77706,725.42956 117.09769,718.47501 115.81686,717.43832 C 115.69319,717.33823 127.44444,691.35575 141.93074,659.69949 C 156.41705,628.04322 168.43507,601.38517 168.63747,600.45938 C 168.89536,599.27973 167.31216,595.91922 163.3459,589.22751 C 151.15308,568.65626 137.25296,541.43045 128.36515,520.71163 C 125.75932,514.63706 123.43489,509.66696 123.19974,509.66696 C 122.9646,509.66696 111.82308,532.43893 98.440805,560.27133 C 85.058542,588.10373 73.938633,610.98598 73.729892,611.12077 C 73.153675,611.49287 55.76404,603.12223 55.76404,602.47278 C 55.76404,602.16136 68.713462,575.05018 84.540528,542.22572 L 113.31703,482.54488 L 110.43553,474.50104 C 104.78485,458.72685 96.520426,428.76684 92.279918,408.68374 L 91.27409,403.92015 L 68.645714,440.88174 C 56.200103,461.21063 45.720943,478.30756 45.35869,478.87491 C 44.458194,480.28528 27.84365,470.16988 28.290723,468.48346 C 28.454491,467.86571 41.485949,446.30053 57.249525,420.56085 L 85.910568,373.76142 L 84.319695,359.16 C 82.330262,340.90042 81.222928,326.25455 81.222928,318.20122 L 81.222928,311.98617 L 66.349475,311.98617 L 51.476018,311.98617 L 33.319739,366.08631 C 23.333788,395.84139 14.948064,420.41031 14.684804,420.68392 C 14.276331,421.10844 5.1952572,419.87682 -0.20807766,418.66408 L -1.8928571,418.28595 L -1.8928571,340.56348 C -1.8928571,288.40466 -1.6281895,261.37965 -1.088169,258.39795 C 10.919262,192.0992 52.189785,129.45851 114.16973,83.458738 C 150.93629,56.171629 196.63556,34.027965 243.48558,20.798499 C 272.1017,12.717908 298.50973,8.0442879 333.56545,4.8564141 C 346.62738,3.6685982 390.88987,3.6685982 403.95179,4.8564141 C 454.2902,9.4340535 492.33654,18.043341 534.22082,34.334242 C 547.49986,39.499128 573.04212,51.715754 586.28237,59.234805 C 617.76895,77.115813 648.6653,101.56897 671.00099,126.28603 C 704.2531,163.08339 725.66111,202.84479 736.51414,247.96455 L 739.03571,258.44762 L 739.03571,338.54352 L 739.03571,418.6394 L 731.18599,419.94966 C 726.86864,420.67031 723.12157,421.01839 722.85917,420.72319 C 722.59676,420.42798 714.20483,395.84139 704.21044,366.08631 L 686.0388,311.98617 L 671.16656,311.98617 L 656.29432,311.98617 L 656.27299,318.91249 C 656.24661,327.47796 654.5986,349.28761 652.91691,363.32651 L 651.6554,373.85774 L 680.28651,420.60901 C 696.03361,446.3222 709.05723,467.86825 709.22789,468.4891 C 709.4409,469.26401 706.93817,471.20078 701.24518,474.66662 C 696.68403,477.44341 692.86381,479.71533 692.75579,479.71533 C 692.64776,479.71533 682.29377,462.91274 669.74691,442.37626 C 657.20005,421.83977 646.71712,405.41317 646.45151,405.8727 C 646.18591,406.33223 645.39908,409.57234 644.70303,413.07294 C 641.57183,428.82037 632.79029,461.17744 627.18438,477.62341 L 624.9622,484.14259 L 653.3577,543.04074 C 668.97524,575.43472 681.75321,602.1864 681.75321,602.48894 C 681.75321,603.12679 664.35537,611.48695 663.78736,611.12203 C 663.57862,610.98793 652.62524,588.44699 639.44653,561.03105 C 626.26781,533.61511 615.29878,511.17954 615.07092,511.17422 C 614.84305,511.16889 613.53419,513.94443 612.16233,517.34207 C 603.11393,539.75191 588.33703,569.43173 574.55362,592.88022 C 571.73814,597.66993 569.43458,601.77851 569.43458,602.01039 C 569.43458,602.24228 581.24115,628.2713 595.67141,659.85267 C 610.10167,691.43404 621.81088,717.3514 621.69189,717.44682 C 619.97631,718.82254 603.66855,725.38609 603.22413,724.87973 C 602.89384,724.50343 592.41755,701.78798 579.94348,674.40096 C 567.46941,647.01393 557.01265,624.13609 556.70625,623.56133 C 556.3144,622.82626 554.96941,624.26995 552.17182,628.42847 C 539.39067,647.42725 520.84922,671.22338 506.37611,687.20276 C 503.16945,690.74315 500.54582,694.06912 500.54582,694.59379 C 500.54582,695.11847 509.30667,722.42937 520.01438,755.28469 C 530.72209,788.13998 539.48294,815.20892 539.48294,815.4379 C 539.48294,815.84045 520.58759,822.0063 520.31328,821.6933 C 520.23859,821.60809 512.18049,796.9406 502.40638,766.87664 C 492.63227,736.81267 484.49066,711.96526 484.3139,711.66016 C 484.13714,711.35506 480.37738,714.38766 475.9589,718.39928 C 459.49444,733.34763 448.929,741.73659 433.4993,752.11221 L 424.48408,758.17442 L 411.80395,833.88766 C 404.82988,875.52994 398.94653,909.87518 398.72985,910.21042 C 398.51315,910.54565 394.03968,910.12228 388.78878,909.26956 C 381.36044,908.06326 379.23821,907.46213 379.22601,906.56103 C 379.21738,905.92411 384.31211,874.97689 390.54763,837.78954 C 396.78315,800.60218 401.72375,770.01498 401.52676,769.81797 C 401.32977,769.62096 399.64782,770.11164 397.7891,770.90836 C 394.9029,772.14558 394.33601,772.74934 393.90537,775.0449 C 392.21127,784.07517 369.75842,859.35232 368.75904,859.35232 C 367.85024,859.35232 348.60597,794.96252 343.33685,774.29169 C 342.66501,771.65603 342.11372,771.0504 339.42485,769.99423 C 337.70339,769.318 336.12792,768.9317 335.92381,769.13582 C 335.71971,769.33994 340.67557,800.25197 346.93682,837.82937 C 353.19808,875.40669 358.31072,906.50765 358.29824,906.94262 C 358.28577,907.37759 354.4848,908.32354 349.85165,909.04485 C 345.21851,909.76608 340.83642,910.5285 340.11368,910.73914 C 339.39095,910.94977 338.6559,910.67774 338.48024,910.13456 z M 369.50741,788.58679 C 369.50741,788.37825 372.03751,778.52229 375.12985,766.68465 C 413.48154,619.87236 435.35171,450.90431 435.38849,301.1287 C 435.40071,251.36125 433.25877,187.70309 430.48807,155.48888 C 427.03831,115.37949 421.34496,86.159852 414.07438,71.2499 C 410.1427,63.187089 407.27863,59.593329 402.58628,56.834934 L 399.08465,54.776501 L 368.75862,54.776501 L 338.43259,54.776501 L 334.92252,56.83988 C 315.43998,68.292605 305.87278,123.30934 302.8586,241.22543 C 300.68043,326.43606 303.33307,399.76853 311.51253,480.46412 C 321.32602,577.28053 339.24621,678.09899 362.3874,766.68465 C 365.47974,778.52229 368.00983,788.37825 368.00983,788.58679 C 368.00983,788.79532 368.34679,788.96597 368.75862,788.96597 C 369.17046,788.96597 369.50741,788.79532 369.50741,788.58679 z M 402.95154,745.86015 C 403.19922,745.21471 403.06395,744.34873 402.65096,743.93573 C 402.14895,743.43372 401.77812,743.8227 401.53218,745.10925 C 401.13314,747.1967 402.21834,747.77082 402.95154,745.86015 z M 335.81183,744.36871 C 335.81183,743.72665 335.46937,743.41298 335.05082,743.67166 C 334.63227,743.93034 334.48367,744.45566 334.72062,744.83904 C 335.36251,745.87764 335.81183,745.68398 335.81183,744.36871 z M 444.04246,719.08916 C 449.39655,714.79949 457.94323,707.28241 463.03509,702.38456 L 472.293,693.47937 L 445.24617,682.68192 C 430.37042,676.74332 418.06755,672.02948 417.90647,672.20672 C 417.7454,672.38396 416.02033,680.16605 414.07301,689.50026 L 410.5324,706.47154 L 415.95521,721.10794 L 421.37802,735.74433 L 427.84289,731.31645 C 431.39857,728.88112 438.68838,723.37884 444.04246,719.08916 z M 321.95417,719.97995 L 326.98273,706.40446 L 323.3715,689.27952 C 321.38533,679.8608 319.41264,672.15403 318.98776,672.15335 C 318.06306,672.15189 269.03457,691.63604 268.24851,692.31737 C 267.70363,692.78966 285.38668,709.50096 294.62833,717.24752 C 301.54747,723.04731 315.49252,733.55543 316.27011,733.55543 C 316.63063,733.55543 319.18847,727.44646 321.95417,719.97995 z M 490.94542,673.83936 C 500.65152,663.82463 522.21886,636.19729 534.94681,617.47444 C 540.88348,608.74158 541.61733,607.32645 540.45251,606.85744 C 538.20753,605.95353 433.18919,591.00102 432.67773,591.51248 C 432.41575,591.77446 430.569,601.51796 428.57383,613.16472 C 426.57866,624.81148 424.2466,638.01095 423.39148,642.49687 C 422.53636,646.98279 422.10879,650.91496 422.44134,651.23502 C 422.98609,651.75932 486.13368,677.27615 487.09573,677.36073 C 487.31713,677.38019 489.04949,675.79558 490.94542,673.83936 z M 284.14525,663.94213 C 300.82457,657.27332 314.75385,651.54466 315.0992,651.21177 C 315.44456,650.87888 315.18305,647.939 314.51807,644.6787 C 313.8531,641.4184 311.50929,628.22815 309.30962,615.36702 C 307.10994,602.5059 305.09657,591.76953 304.83546,591.50842 C 304.4403,591.11327 198.77998,606.04475 198.22823,606.57371 C 198.01698,606.77624 210.69648,624.91016 217.1197,633.59185 C 224.0157,642.91255 234.53622,656.01645 242.27362,664.92245 C 246.15269,669.3874 250.00039,673.83147 250.82406,674.79817 C 251.64773,675.76486 252.6586,676.44587 253.07043,676.31152 C 253.48227,676.17716 267.46594,670.61094 284.14525,663.94213 z M 560.6325,576.30935 C 567.7159,563.86597 578.69671,542.46144 584.64123,529.50992 C 590.20742,517.38269 598.34721,497.98015 599.05986,495.1407 L 599.54857,493.19356 L 522.39581,493.19356 L 445.24305,493.19356 L 444.76575,497.49911 C 443.43144,509.53536 437.44523,556.66651 436.43602,563.08137 C 435.79885,567.13144 435.38956,570.54752 435.52647,570.67265 C 435.66339,570.79779 462.22644,574.75741 494.55549,579.47181 C 547.73815,587.22721 553.42932,587.93041 554.31997,586.85635 C 554.86139,586.20344 557.70203,581.45729 560.6325,576.30935 z M 246.35758,578.91613 C 276.81892,574.50366 301.83656,570.80989 301.95232,570.70775 C 302.06808,570.60562 301.32601,564.66389 300.30326,557.5039 C 298.66417,546.02911 294.05001,509.39153 292.74622,497.49911 L 292.2742,493.19356 L 215.9514,493.19356 C 148.48886,493.19356 139.62862,493.32441 139.62862,494.32071 C 139.62862,495.97307 149.73228,519.25889 157.00897,534.37706 C 165.0177,551.01612 181.92288,581.96652 185.57611,586.67846 C 186.06446,587.30832 187.22588,587.54693 188.66594,587.31324 C 189.93499,587.1073 215.89622,583.32861 246.35758,578.91613 z M 289.86116,469.04506 C 289.12811,463.07912 285.02744,408.11539 284.44226,396.41234 L 283.92744,386.11647 L 196.42782,386.11647 C 113.59119,386.11647 108.92859,386.1863 108.93566,387.42685 C 108.94856,389.68676 113.92093,412.9156 117.07021,425.42799 C 120.24,438.02193 127.18159,461.43554 129.89853,468.69719 L 131.49952,472.97621 L 210.92185,472.97621 L 290.34418,472.97621 L 289.86116,469.04506 z M 608.27164,470.16824 C 615.64983,447.14837 622.47461,421.14942 626.30593,401.46668 C 627.58858,394.87732 628.8019,388.72788 629.0022,387.80125 L 629.36638,386.11647 L 541.47023,386.11647 L 453.57408,386.11647 L 453.05272,396.41234 C 452.46726,407.97418 448.41195,462.45575 447.6616,468.84006 L 447.17548,472.97621 L 527.27356,472.97621 L 607.37165,472.97621 L 608.27164,470.16824 z M 282.27914,339.50424 C 281.98388,324.98705 281.50659,312.85526 281.2185,312.54471 C 280.93041,312.23415 240.4467,312.06567 191.25469,312.17031 L 101.81468,312.36057 L 101.55404,315.35573 C 101.08064,320.79589 104.37209,361.56339 105.5592,364.96313 C 105.81817,365.70479 124.25252,365.89911 194.351,365.89911 L 282.81599,365.89911 L 282.27914,339.50424 z M 631.89528,365.25282 C 633.09181,363.31677 636.50878,321.45473 635.9681,315.35573 L 635.70257,312.36057 L 545.78072,312.17036 L 455.85886,311.98016 L 455.36575,331.63892 C 455.09454,342.45125 454.87195,354.58301 454.87111,358.5984 L 454.86957,365.89911 L 543.1827,365.89911 C 591.91376,365.89911 631.67486,365.60944 631.89528,365.25282 z M 34.031171,296.07437 L 34.049105,291.76882 L 157.97399,291.76882 L 281.89888,291.76882 L 281.90656,275.48262 C 281.92259,241.52014 283.99598,188.03024 286.4562,158.10965 C 293.31903,74.645596 306.18132,42.318928 335.43743,35.005616 C 339.412,34.012069 398.10524,34.012069 402.07982,35.005616 C 420.35476,39.573906 431.85496,53.947576 439.5123,81.791091 C 448.07812,112.938 452.60835,158.39342 454.87966,235.9839 C 455.27749,249.57445 455.60645,267.68583 455.61068,276.23141 L 455.61837,291.76882 L 579.54326,291.76882 L 703.46814,291.76882 L 703.46814,295.7076 C 703.46814,298.76223 705.55606,305.86379 712.76952,327.34401 L 722.0709,355.04165 L 722.12941,323.11017 C 722.2018,283.60128 721.16691,271.6047 715.76614,249.34661 C 701.90714,192.22986 664.87349,139.45157 610.46437,99.276384 C 527.81396,38.248116 412.90148,12.102865 301.54748,28.990635 C 229.59013,39.903572 162.15996,69.126938 111.65711,111.28667 C 101.15296,120.05552 83.444216,137.53236 75.119002,147.3463 C 45.08855,182.74681 26.050588,222.06125 18.665361,263.92617 C 16.020115,278.92135 15.358484,290.88477 15.386234,323.21803 L 15.41355,355.04165 L 24.713397,327.71078 C 32.306031,305.39714 34.01653,299.58953 34.031171,296.07437 z M 245.56084,275.059 C 239.58669,270.55758 230.49367,261.05583 226.52455,255.16704 C 222.3842,249.02423 218.04504,239.73815 215.98621,232.61434 C 213.93523,225.51771 213.16055,209.70321 214.45354,201.32643 C 218.40304,175.73938 235.97519,151.96292 259.80955,139.95632 C 265.06413,137.30932 275.78378,133.39956 276.31906,133.93485 C 276.66034,134.27613 281.89888,151.95186 281.89888,152.76212 C 281.89888,152.96014 280.12986,153.70156 277.96773,154.40973 C 242.15544,166.13943 223.71633,206.53329 239.93961,237.7165 C 244.49869,246.4796 252.65533,255.64277 260.33505,260.62867 L 262.35812,261.94212 L 257.89548,268.05717 C 255.44103,271.42046 252.66763,275.12975 251.73237,276.30005 L 250.03189,278.42787 L 245.56084,275.059 z M 482.40951,270.20272 L 476.62826,262.19158 L 478.65775,260.694 C 490.17525,252.19509 497.9801,241.99733 502.29114,229.81477 C 504.4262,223.78131 504.61401,222.47269 504.62962,213.52017 C 504.64367,205.45639 504.34387,202.75789 502.88261,197.79556 C 497.37273,179.0844 483.65191,163.74802 465.75668,156.29821 C 462.70888,155.02941 459.67579,153.9913 459.01648,153.9913 C 456.52225,153.9913 456.9193,151.14365 461.33937,137.33147 C 462.70479,133.06467 462.59895,133.05927 474.33814,137.99483 C 484.2991,142.18276 493.13048,148.13562 500.8512,155.86615 C 531.83766,186.89196 533.49149,233.56897 504.70525,264.64125 C 500.4812,269.20073 489.75178,278.32965 488.70794,278.25222 C 488.42349,278.23113 485.58921,274.60885 482.40951,270.20272 z"
       id="path2532" />
  </g>
</svg>
