<?xml version="1.0" encoding="UTF-8" standalone="no"?>
<!-- Created with Inkscape (http://www.inkscape.org/) -->
<svg
   xmlns:dc="http://purl.org/dc/elements/1.1/"
   xmlns:cc="http://creativecommons.org/ns#"
   xmlns:rdf="http://www.w3.org/1999/02/22-rdf-syntax-ns#"
   xmlns:svg="http://www.w3.org/2000/svg"
   xmlns="http://www.w3.org/2000/svg"
   xmlns:sodipodi="http://sodipodi.sourceforge.net/DTD/sodipodi-0.dtd"
   xmlns:inkscape="http://www.inkscape.org/namespaces/inkscape"
   width="210mm"
   height="297mm"
   id="svg2453"
   sodipodi:version="0.32"
   inkscape:version="0.46"
   sodipodi:docname="wirbeltiere.svg"
   inkscape:output_extension="org.inkscape.output.svg.inkscape">
  <defs
     id="defs2455">
    <inkscape:perspective
       sodipodi:type="inkscape:persp3d"
       inkscape:vp_x="0 : 526.18109 : 1"
       inkscape:vp_y="0 : 1000 : 0"
       inkscape:vp_z="744.09448 : 526.18109 : 1"
       inkscape:persp3d-origin="372.04724 : 350.78739 : 1"
       id="perspective2461" />
  </defs>
  <sodipodi:namedview
     id="base"
     pagecolor="#ffffff"
     bordercolor="#666666"
     borderopacity="1.0"
     inkscape:pageopacity="0.0"
     inkscape:pageshadow="2"
     inkscape:zoom="0.35"
     inkscape:cx="350"
     inkscape:cy="520"
     inkscape:document-units="px"
     inkscape:current-layer="layer1"
     showgrid="false"
     inkscape:window-width="640"
     inkscape:window-height="713"
     inkscape:window-x="20"
     inkscape:window-y="20" />
  <metadata
     id="metadata2458">
    <rdf:RDF>
      <cc:Work
         rdf:about="">
        <dc:format>image/svg+xml</dc:format>
        <dc:type
           rdf:resource="http://purl.org/dc/dcmitype/StillImage" />
      </cc:Work>
    </rdf:RDF>
  </metadata>
  <g
     inkscape:label="Ebene 1"
     inkscape:groupmode="layer"
     id="layer1">
    <path
       style="fill:#000000"
       d="M 50.058596,238.96134 C 49.231691,238.7985 46.694595,238.2938 44.420606,237.83977 C 27.054329,234.37241 9.1448108,217.34735 3.392952,198.83828 C -3.9987864,175.05218 13.020556,147.17635 49.494798,123.32851 C 53.732687,120.55766 57.200051,118.17202 57.200051,118.02708 C 57.200051,117.88215 53.732687,115.49651 49.494798,112.72565 C -0.71178914,79.899228 -12.031321,42.211236 19.349983,12.359624 C 25.365912,6.6369519 28.537705,4.4272028 34.871462,1.5460266 C 55.386,-7.7858929 76.668966,-3.3474346 102.30397,15.608721 C 111.50384,22.411681 132.53592,43.642369 140.26644,53.929688 L 146.2803,61.932564 L 371.04819,61.943488 L 595.81607,61.954411 L 599.57473,56.929632 C 610.15134,42.790227 627.25622,25.10088 638.7001,16.467354 C 656.63052,2.9402432 670.803,-2.8723762 686.02392,-2.9417364 C 694.67598,-2.9811616 699.61059,-1.9386498 707.22491,1.5373041 C 721.20936,7.9212471 733.69799,21.774908 738.37152,36.088282 C 740.57805,42.846155 740.74193,54.151733 738.73053,60.856145 C 733.51088,78.254261 716.76922,97.035198 692.15895,113.10055 C 688.16451,115.70809 684.89632,117.92502 684.89632,118.02708 C 684.89632,118.12913 688.16451,120.34608 692.15895,122.95361 C 716.76922,139.01896 733.51088,157.7999 738.73053,175.19802 C 740.47054,180.99781 740.53473,193.18147 738.85309,198.46241 C 735.95052,207.57756 731.83026,214.39638 724.83984,221.65371 C 704.75435,242.50611 679.00262,244.81534 651.44856,228.23491 C 647.72511,225.99435 641.9883,222.1171 638.7001,219.6188 C 627.14738,210.84133 610.10729,193.20503 599.57473,179.12452 L 595.81607,174.09974 L 371.04819,174.10224 L 146.2803,174.10474 L 140.26644,182.10941 C 132.52645,192.41161 111.49875,213.64623 102.30397,220.44543 C 93.605195,226.87786 85.024511,231.85302 77.436987,234.86352 C 68.893605,238.25327 56.149385,240.16074 50.058596,238.96134 z M 66.853116,223.62801 C 86.989645,218.0479 111.49084,197.53509 133.55299,167.78581 L 139.51369,159.7482 L 371.04819,159.7482 L 602.58269,159.7482 L 608.54338,167.78581 C 630.57687,197.49645 655.12801,218.05379 675.23,223.62433 C 691.66898,228.17981 707.06625,222.52105 718.43581,207.74546 C 725.92719,198.00986 727.9967,188.34813 724.82637,177.9105 C 719.81839,161.42284 696.71867,139.9425 667.60649,124.70194 L 663.47195,122.53747 L 663.47195,118.02708 L 663.47195,113.51669 L 667.60649,111.35222 C 689.69768,99.787227 710.13018,83.212393 719.19626,69.502571 C 729.10652,54.516184 728.54285,40.639447 717.47252,27.067495 C 712.93764,21.507828 704.68588,15.179108 699.17922,13.037347 C 692.90949,10.598796 682.99805,10.303675 675.59362,12.335043 C 655.20221,17.929344 630.74392,38.33246 608.54338,68.268349 L 602.58269,76.305951 L 371.0487,76.290686 L 139.51471,76.275432 L 133.51406,68.209564 C 111.30651,38.359006 86.982804,18.004366 66.853116,12.426148 C 50.428294,7.874594 35.026215,13.538173 23.660552,28.30871 C 13.590067,41.396061 13.268328,55.056579 22.699215,69.126705 C 32.27818,83.417781 51.498633,99.256147 72.462922,110.13389 L 78.982465,113.51669 L 78.982465,118.02708 L 78.982465,122.53747 L 72.470682,125.92026 C 57.616457,133.63686 40.91663,145.83727 31.700611,155.70569 C 13.562968,175.1273 11.054566,191.36304 23.660552,207.74546 C 35.029471,222.5202 50.423597,228.18086 66.853116,223.62801 z"
       id="path2451" />
  </g>
</svg>
