<?xml version="1.0" encoding="UTF-8" standalone="no"?>
<!-- Created with Inkscape (http://www.inkscape.org/) -->
<svg
   xmlns:dc="http://purl.org/dc/elements/1.1/"
   xmlns:cc="http://creativecommons.org/ns#"
   xmlns:rdf="http://www.w3.org/1999/02/22-rdf-syntax-ns#"
   xmlns:svg="http://www.w3.org/2000/svg"
   xmlns="http://www.w3.org/2000/svg"
   xmlns:sodipodi="http://sodipodi.sourceforge.net/DTD/sodipodi-0.dtd"
   xmlns:inkscape="http://www.inkscape.org/namespaces/inkscape"
   width="210mm"
   height="297mm"
   id="svg2453"
   sodipodi:version="0.32"
   inkscape:version="0.46"
   sodipodi:docname="wurzeln.svg"
   inkscape:output_extension="org.inkscape.output.svg.inkscape">
  <defs
     id="defs2455">
    <inkscape:perspective
       sodipodi:type="inkscape:persp3d"
       inkscape:vp_x="0 : 526.18109 : 1"
       inkscape:vp_y="0 : 1000 : 0"
       inkscape:vp_z="744.09448 : 526.18109 : 1"
       inkscape:persp3d-origin="372.04724 : 350.78739 : 1"
       id="perspective2461" />
  </defs>
  <sodipodi:namedview
     id="base"
     pagecolor="#ffffff"
     bordercolor="#666666"
     borderopacity="1.0"
     inkscape:pageopacity="0.0"
     inkscape:pageshadow="2"
     inkscape:zoom="0.35"
     inkscape:cx="350"
     inkscape:cy="520"
     inkscape:document-units="px"
     inkscape:current-layer="layer1"
     showgrid="false"
     inkscape:window-width="640"
     inkscape:window-height="713"
     inkscape:window-x="20"
     inkscape:window-y="20" />
  <metadata
     id="metadata2458">
    <rdf:RDF>
      <cc:Work
         rdf:about="">
        <dc:format>image/svg+xml</dc:format>
        <dc:type
           rdf:resource="http://purl.org/dc/dcmitype/StillImage" />
      </cc:Work>
    </rdf:RDF>
  </metadata>
  <g
     inkscape:label="Ebene 1"
     inkscape:groupmode="layer"
     id="layer1">
    <path
       style="fill:#000000"
       d="M 376.05442,1048.5086 C 370.5633,1045.9056 367.53245,1039.3693 368.47875,1032.1711 C 368.75297,1030.085 370.50951,1021.9252 372.38215,1014.0381 C 386.42914,954.87612 392.54031,900.85539 392.53214,835.91879 C 392.52632,789.53531 389.42632,747.7832 383.14577,709.49932 C 379.78275,688.99957 373.031,675.64297 359.65099,663.02096 C 346.18562,650.3184 329.26615,642.57042 305.1086,638.0442 C 296.84165,636.49529 270.03574,635.85199 260.52068,636.97417 C 210.25768,642.902 158.96089,673.18277 104.51933,729.06259 C 82.688713,751.46986 65.757726,771.44921 42.108589,802.71003 C 25.924432,824.10323 21.072404,829.97526 17.77752,832.15565 C 14.891979,834.06528 14.618438,834.10288 9.4577184,833.30217 C 6.5228276,832.84683 3.8905467,832.33154 3.6082323,832.15707 C 3.3259036,831.9826 2.4728503,829.78527 1.712544,827.27404 C 0.49652103,823.2578 0.44529083,822.19403 1.2868362,818.43359 C 7.6016385,790.2161 53.477293,726.54011 120.53352,652.91751 C 138.89274,632.76051 169.5503,601.91551 177.46694,595.636 C 194.44613,582.16804 216.48868,569.32756 283.22105,534.0309 C 316.12615,516.62647 341.35944,502.7515 356.4311,493.77508 C 376.78676,481.65158 394.73194,468.71002 401.76097,461.0844 C 413.47943,448.37139 425.22556,422.09473 436.29607,383.8278 C 440.84762,368.09462 447.03858,342.78898 456.05316,303.07032 C 471.11721,236.69746 475.14334,222.36773 483.36312,205.86954 C 499.17311,174.13677 555.92058,105.25142 641.26589,14.192494 L 655.23675,-0.71367143 L 658.87687,-0.71367143 C 670.99652,-0.71367143 710.47985,29.946714 727.39795,52.495693 C 732.98742,59.945507 737.56031,69.089492 738.81567,75.326658 C 739.99707,81.196312 738.96628,87.008511 735.36899,94.761291 C 730.78314,104.64459 724.55638,111.74753 692.69318,143.4422 C 675.133,160.90949 659.98538,176.64061 657.34769,180.14922 C 626.59502,221.05581 572.90767,322.18268 546.61208,388.73363 C 532.47622,424.50978 528.41845,441.03449 527.60096,466.15372 C 526.28651,506.54303 537.729,545.2222 569.64869,608.28798 C 585.06815,638.75321 595.83429,657.16589 636.33048,722.32995 C 696.31065,818.84648 704.52332,834.15842 708.4661,856.82205 C 711.27928,872.99268 711.86841,881.98624 711.81831,907.99671 C 711.78214,926.76687 711.46338,935.41932 710.58093,941.58275 C 708.79753,954.03866 707.70622,956.33811 700.86688,962.0502 L 695.10198,966.86501 L 690.93639,961.70937 C 688.64532,958.8737 684.85208,952.72792 682.50697,948.05183 C 666.50197,916.13885 624.40855,854.69736 557.7026,765.88197 C 533.52243,733.68741 533.27862,733.44643 516.43659,725.09008 C 503.04605,718.44626 494.06933,715.32809 485.3634,714.29648 C 478.87067,713.52711 477.89777,714.08291 476.93507,719.1115 C 474.9184,729.6454 473.98675,742.52644 471.89853,788.74727 C 467.83155,878.76687 463.60998,918.48772 454.45493,952.8749 C 448.65388,974.66405 436.20615,997.17201 415.99857,1022.4115 C 397.90775,1045.0071 385.61312,1053.0397 376.05442,1048.5086 z"
       id="path2451" />
  </g>
</svg>
