<?xml version="1.0" encoding="UTF-8" standalone="no"?>
<!-- Created with Inkscape (http://www.inkscape.org/) -->
<svg
   xmlns:dc="http://purl.org/dc/elements/1.1/"
   xmlns:cc="http://creativecommons.org/ns#"
   xmlns:rdf="http://www.w3.org/1999/02/22-rdf-syntax-ns#"
   xmlns:svg="http://www.w3.org/2000/svg"
   xmlns="http://www.w3.org/2000/svg"
   xmlns:sodipodi="http://sodipodi.sourceforge.net/DTD/sodipodi-0.dtd"
   xmlns:inkscape="http://www.inkscape.org/namespaces/inkscape"
   width="143.38403"
   height="80.176971"
   id="svg18233"
   sodipodi:version="0.32"
   inkscape:version="0.46"
   version="1.0"
   sodipodi:docname="knollig.svg"
   inkscape:output_extension="org.inkscape.output.svg.inkscape">
  <defs
     id="defs18235">
    <inkscape:perspective
       sodipodi:type="inkscape:persp3d"
       inkscape:vp_x="0 : 526.18109 : 1"
       inkscape:vp_y="0 : 1000 : 0"
       inkscape:vp_z="744.09448 : 526.18109 : 1"
       inkscape:persp3d-origin="372.04724 : 350.78739 : 1"
       id="perspective18241" />
  </defs>
  <sodipodi:namedview
     id="base"
     pagecolor="#ffffff"
     bordercolor="#666666"
     borderopacity="1.0"
     inkscape:pageopacity="0.0"
     inkscape:pageshadow="2"
     inkscape:zoom="6.6976835"
     inkscape:cx="71.692015"
     inkscape:cy="45.370303"
     inkscape:document-units="px"
     inkscape:current-layer="layer1"
     showgrid="false"
     units="cm"
     inkscape:window-width="1280"
     inkscape:window-height="752"
     inkscape:window-x="0"
     inkscape:window-y="22"
     showguides="true"
     inkscape:guide-bbox="true">
    <sodipodi:guide
       orientation="1,0"
       position="-20.982713,145.29539"
       id="guide5680" />
  </sodipodi:namedview>
  <metadata
     id="metadata18238">
    <rdf:RDF>
      <cc:Work
         rdf:about="">
        <dc:format>image/svg+xml</dc:format>
        <dc:type
           rdf:resource="http://purl.org/dc/dcmitype/StillImage" />
      </cc:Work>
    </rdf:RDF>
  </metadata>
  <g
     inkscape:label="Ebene 1"
     inkscape:groupmode="layer"
     id="layer1"
     transform="translate(0.2187807,0.5676795)">
    <path
       style="fill:none;fill-rule:evenodd;stroke:#000000;stroke-width:1px;stroke-linecap:butt;stroke-linejoin:miter;stroke-opacity:1"
       d="M -0.14930535,1.9409665 C -0.14930535,1.9409665 10.783562,5.7077399 15.676184,6.0013627 C 19.01321,6.201629 22.865908,5.4342105 26.719891,4.6357772 C 30.573873,3.8373439 34.429139,3.0078959 37.7713,3.0841033 C 42.024973,3.1810948 46.879627,4.3523945 51.73387,5.5376449 C 56.588113,6.7228953 61.441947,7.9220965 65.693981,8.074891 C 70.307319,8.2406688 75.652076,7.3521326 80.996851,6.4631182 C 86.341626,5.5741039 91.686418,4.6846115 96.299823,4.8484767 C 104.30143,5.1326888 114.69328,9.2848965 122.57619,9.522531 C 128.84807,9.7116 143.48244,6.2708218 143.48244,6.2708218"
       id="path6178"
       transform="translate(-0.2187807,-0.5676795)"
       sodipodi:nodetypes="cssssssssc" />
    <path
       style="fill:none;fill-rule:evenodd;stroke:#000000;stroke-width:1px;stroke-linecap:butt;stroke-linejoin:miter;stroke-opacity:1"
       d="M -0.069475347,19.140624 C -0.069475347,19.140624 8.9478506,20.674162 12.620455,20.11562 C 17.73494,19.337792 24.106337,15.463886 29.220822,14.686058 C 33.385484,14.052682 41.327253,19.628312 45.491915,18.994936 C 51.955888,18.011873 60.126601,14.760154 66.590574,13.777092 C 73.270614,12.761169 78.295397,17.976041 84.975437,16.960118 C 90.088919,16.182443 91.531901,12.756657 96.645383,11.978981 C 102.3994,11.10389 108.60847,20.924522 112.24213,16.377974 C 115.11849,12.778983 121.26005,14.824189 127.44196,16.679586 C 135.38599,19.063856 143.26366,18.095487 143.26366,18.095487"
       id="path6180"
       sodipodi:nodetypes="csssssssss" />
    <path
       style="fill:none;fill-rule:evenodd;stroke:#000000;stroke-width:1px;stroke-linecap:butt;stroke-linejoin:miter;stroke-opacity:1"
       d="M 0.079830003,11.078135 C 0.079830003,11.078135 22.132697,13.309528 27.102217,13.800863 C 33.53317,14.436689 38.816019,9.6791776 45.18693,10.762191 C 50.343318,11.638743 50.397956,13.458428 55.616624,13.108887 C 59.388358,12.856261 72.708201,9.1379746 76.362658,8.1711566 C 82.415338,6.5698676 83.344043,8.5725176 89.376941,10.246796 C 94.514834,11.672689 97.277615,11.973967 97.277615,11.973967"
       id="path6182"
       sodipodi:nodetypes="csssssc" />
    <path
       style="fill:none;fill-rule:evenodd;stroke:#000000;stroke-width:1px;stroke-linecap:butt;stroke-linejoin:miter;stroke-opacity:1"
       d="M -0.069475347,23.76909 C -0.069475347,23.76909 9.8076376,21.47351 14.127471,21.242802 C 21.476277,20.850327 31.260112,23.486201 38.599365,22.943654 C 44.551541,22.503646 52.059394,18.705733 58.027643,18.660881 C 64.831196,18.609751 73.492878,22.380708 80.245938,23.209648 C 85.188354,23.816331 96.829437,23.912185 96.829437,23.912185 C 106.35105,24.315555 131.23823,17.674486 134.13662,25.5429 L 143.71158,21.828121"
       id="path6184"
       sodipodi:nodetypes="cssssscc" />
    <path
       style="fill:none;fill-rule:evenodd;stroke:#000000;stroke-width:1px;stroke-linecap:butt;stroke-linejoin:miter;stroke-opacity:1"
       d="M 27.701321,22.873258 C 27.701321,22.873258 35.567403,26.098 38.938581,26.328248 C 46.705268,26.858704 57.060851,24.878484 64.827538,25.40894 C 69.102569,25.700921 78.684549,31.017304 82.95958,31.309284 C 88.646061,31.697665 93.241928,24.153017 98.928409,24.541398 C 106.05374,25.028051 114.80767,30.753305 121.93301,31.239958 C 128.46658,31.686194 129.54867,20.155438 143.56227,30.786442"
       id="path6186"
       sodipodi:nodetypes="csssssc" />
    <path
       style="fill:none;fill-rule:evenodd;stroke:#000000;stroke-width:1px;stroke-linecap:butt;stroke-linejoin:miter;stroke-opacity:1"
       d="M -0.14412824,-0.3932787 C -0.14412824,-0.3932787 11.673955,2.3875233 15.993788,2.1568153 C 23.342594,1.7643403 30.588238,2.160634 37.927491,1.618087 C 43.879667,1.178079 55.269459,1.7100213 61.237708,1.6651693 C 68.041261,1.6140393 73.418225,-0.73652323 80.171285,0.092416772 C 85.113701,0.69909977 97.79992,3.6317555 97.79992,3.6317555 C 107.32153,4.0351255 131.76079,-0.96358461 134.65918,6.9048294 L 143.33831,2.1449129"
       id="path6188"
       sodipodi:nodetypes="cssssscc" />
    <path
       style="fill:none;fill-rule:evenodd;stroke:#000000;stroke-width:1px;stroke-linecap:butt;stroke-linejoin:miter;stroke-opacity:1"
       d="M -0.59204407,32.819453 C -0.59204407,32.819453 10.340823,36.586226 15.233445,36.879849 C 18.570471,37.080115 22.423169,36.312697 26.277152,35.514263 C 30.131134,34.71583 33.9864,33.886382 37.328561,33.96259 C 41.582234,34.059581 46.436888,35.230881 51.291131,36.416131 C 56.145374,37.601382 60.999208,38.800583 65.251242,38.953377 C 69.86458,39.119155 75.209337,38.230619 80.554112,37.341604 C 85.898887,36.45259 91.243679,35.563098 95.857084,35.726963 C 103.85869,36.011175 114.25054,40.163383 122.13345,40.401017 C 128.40533,40.590086 143.0397,37.149308 143.0397,37.149308"
       id="path6190"
       sodipodi:nodetypes="cssssssssc" />
    <path
       style="fill:none;fill-rule:evenodd;stroke:#000000;stroke-width:1px;stroke-linecap:butt;stroke-linejoin:miter;stroke-opacity:1"
       d="M -0.29343407,50.58679 C -0.29343407,50.58679 8.7238919,52.120328 12.396497,51.561786 C 17.510982,50.783958 23.882379,46.910052 28.996864,46.132224 C 33.161526,45.498848 41.103295,51.074478 45.267957,50.441102 C 51.73193,49.458039 59.902643,46.20632 66.366616,45.223258 C 73.046656,44.207335 78.071439,49.422207 84.751479,48.406284 C 89.864961,47.628609 91.307943,44.202823 96.421425,43.425147 C 102.17544,42.550056 108.38451,52.370688 112.01817,47.82414 C 114.89453,44.225149 121.03609,46.270355 127.218,48.125752 C 135.16203,50.510022 143.0397,49.541653 143.0397,49.541653"
       id="path6192"
       sodipodi:nodetypes="csssssssss" />
    <path
       style="fill:none;fill-rule:evenodd;stroke:#000000;stroke-width:1px;stroke-linecap:butt;stroke-linejoin:miter;stroke-opacity:1"
       d="M -0.14412807,42.524301 C -0.14412807,42.524301 21.908739,44.755694 26.878259,45.247029 C 33.309212,45.882855 38.592061,41.125343 44.962972,42.208357 C 50.11936,43.084909 50.173998,44.904594 55.392666,44.555053 C 59.1644,44.302427 72.484243,40.58414 76.1387,39.617322 C 82.19138,38.016033 83.120085,40.018683 89.152983,41.692962 C 94.290876,43.118855 97.053657,43.420133 97.053657,43.420133"
       id="path6194"
       sodipodi:nodetypes="csssssc" />
    <path
       style="fill:none;fill-rule:evenodd;stroke:#000000;stroke-width:1px;stroke-linecap:butt;stroke-linejoin:miter;stroke-opacity:1"
       d="M -0.29343407,55.215256 C -0.29343407,55.215256 9.5836789,52.919676 13.903513,52.688968 C 21.252319,52.296493 31.036154,54.932367 38.375407,54.38982 C 44.327583,53.949812 51.835436,50.151899 57.803685,50.107047 C 64.607238,50.055917 73.26892,53.826874 80.02198,54.655814 C 84.964396,55.262497 96.605479,55.358351 96.605479,55.358351 C 106.12709,55.761721 131.01427,49.120652 133.91266,56.989066 L 143.48762,53.274287"
       id="path6196"
       sodipodi:nodetypes="cssssscc" />
    <path
       style="fill:none;fill-rule:evenodd;stroke:#000000;stroke-width:1px;stroke-linecap:butt;stroke-linejoin:miter;stroke-opacity:1"
       d="M 27.477363,54.319424 C 27.477363,54.319424 35.343445,57.544166 38.714623,57.774414 C 46.48131,58.30487 56.836893,56.32465 64.60358,56.855106 C 68.878611,57.147087 78.460591,62.46347 82.735622,62.75545 C 88.422103,63.143831 93.01797,55.599183 98.704451,55.987564 C 105.82978,56.474217 114.58371,62.199471 121.70905,62.686124 C 128.24262,63.13236 129.32471,51.601604 143.33831,62.232608"
       id="path6198"
       sodipodi:nodetypes="csssssc" />
    <path
       style="fill:none;fill-rule:evenodd;stroke:#000000;stroke-width:1px;stroke-linecap:butt;stroke-linejoin:miter;stroke-opacity:1"
       d="M -0.36808607,31.052887 C -0.36808607,31.052887 11.449997,33.833689 15.76983,33.602981 C 23.118636,33.210506 30.36428,33.6068 37.703533,33.064253 C 43.655709,32.624245 55.045501,33.156187 61.01375,33.111335 C 67.817303,33.060205 73.194267,30.709643 79.947327,31.538583 C 84.889743,32.145266 97.575962,35.077921 97.575962,35.077921 C 107.09757,35.481291 131.53683,30.482581 134.43522,38.350995 L 143.11435,33.591079"
       id="path6200"
       sodipodi:nodetypes="cssssscc" />
    <path
       style="fill:none;fill-rule:evenodd;stroke:#000000;stroke-width:1px;stroke-linecap:butt;stroke-linejoin:miter;stroke-opacity:1"
       d="M 0.453094,67.72007 C 0.453094,67.72007 9.47042,69.253608 13.143025,68.695066 C 18.25751,67.917238 24.628907,64.043332 29.743392,63.265504 C 33.908054,62.632128 41.849823,68.207758 46.014485,67.574382 C 52.478458,66.591319 60.649171,63.3396 67.113144,62.356538 C 73.793184,61.340615 78.817967,66.555487 85.498007,65.539564 C 90.611486,64.761889 92.054466,61.336103 97.167956,60.558427 C 102.92197,59.683336 109.13104,69.503968 112.7647,64.95742 C 115.64106,61.358429 121.78262,63.403635 127.96453,65.259032 C 135.90856,67.643302 143.78623,66.674933 143.78623,66.674933"
       id="path6202"
       sodipodi:nodetypes="csssssssss" />
    <path
       style="fill:none;fill-rule:evenodd;stroke:#000000;stroke-width:1px;stroke-linecap:butt;stroke-linejoin:miter;stroke-opacity:1"
       d="M 0.453094,72.348536 C 0.453094,72.348536 10.330207,70.052956 14.650041,69.822248 C 21.998847,69.429773 31.782682,72.065647 39.121935,71.5231 C 45.074111,71.083092 52.581964,67.285179 58.550213,67.240327 C 65.353766,67.189197 74.015448,70.960154 80.768508,71.789094 C 85.710924,72.395777 97.352006,72.491631 97.352006,72.491631 C 106.87362,72.895001 131.7608,66.253932 134.65919,74.122346 L 144.23415,70.407567"
       id="path6204"
       sodipodi:nodetypes="cssssscc" />
    <path
       style="fill:none;fill-rule:evenodd;stroke:#000000;stroke-width:1px;stroke-linecap:butt;stroke-linejoin:miter;stroke-opacity:1"
       d="M 28.223891,71.452704 C 28.223891,71.452704 36.089973,74.677446 39.461151,74.907694 C 47.227838,75.43815 57.583421,73.45793 65.350108,73.988386 C 69.625139,74.280367 79.207119,79.59675 83.48215,79.88873 C 89.168631,80.277111 93.764496,72.732463 99.450976,73.120844 C 106.57631,73.607497 115.33024,79.332751 122.45558,79.819404 C 128.98915,80.26564 130.07124,68.734884 144.08484,79.365888"
       id="path6206"
       sodipodi:nodetypes="csssssc" />
  </g>
</svg>
