<?xml version="1.0" encoding="UTF-8" standalone="no"?>
<!-- Created with Inkscape (http://www.inkscape.org/) -->
<svg
   xmlns:dc="http://purl.org/dc/elements/1.1/"
   xmlns:cc="http://creativecommons.org/ns#"
   xmlns:rdf="http://www.w3.org/1999/02/22-rdf-syntax-ns#"
   xmlns:svg="http://www.w3.org/2000/svg"
   xmlns="http://www.w3.org/2000/svg"
   xmlns:sodipodi="http://sodipodi.sourceforge.net/DTD/sodipodi-0.dtd"
   xmlns:inkscape="http://www.inkscape.org/namespaces/inkscape"
   width="961.90198"
   height="771.81549"
   id="svg7146"
   sodipodi:version="0.32"
   inkscape:version="0.46"
   version="1.0"
   sodipodi:docname="algen.svg"
   inkscape:output_extension="org.inkscape.output.svg.inkscape">
  <defs
     id="defs7148">
    <inkscape:perspective
       sodipodi:type="inkscape:persp3d"
       inkscape:vp_x="0 : 526.18109 : 1"
       inkscape:vp_y="0 : 1000 : 0"
       inkscape:vp_z="744.09448 : 526.18109 : 1"
       inkscape:persp3d-origin="372.04724 : 350.78739 : 1"
       id="perspective7154" />
  </defs>
  <sodipodi:namedview
     id="base"
     pagecolor="#ffffff"
     bordercolor="#666666"
     borderopacity="1.0"
     inkscape:pageopacity="0.0"
     inkscape:pageshadow="2"
     inkscape:zoom="0.35"
     inkscape:cx="350"
     inkscape:cy="520"
     inkscape:document-units="px"
     inkscape:current-layer="layer1"
     showgrid="false"
     inkscape:window-width="640"
     inkscape:window-height="713"
     inkscape:window-x="180"
     inkscape:window-y="182" />
  <metadata
     id="metadata7151">
    <rdf:RDF>
      <cc:Work
         rdf:about="">
        <dc:format>image/svg+xml</dc:format>
        <dc:type
           rdf:resource="http://purl.org/dc/dcmitype/StillImage" />
      </cc:Work>
    </rdf:RDF>
  </metadata>
  <g
     inkscape:label="Ebene 1"
     inkscape:groupmode="layer"
     id="layer1"
     transform="translate(752.37956,493.54557)">
    <path
       style="fill:#000000"
       d="M -315.41605,272.51993 C -364.96792,110.44251 -419.1616,-16.713307 -464.85369,-78.108827 C -473.89994,-90.264097 -489.34021,-106.40242 -497.52335,-112.25548 C -504.23254,-117.05428 -534.43224,-132.86693 -552.02335,-140.79183 C -583.70712,-155.06556 -622.72875,-168.7097 -653.02335,-176.10707 C -677.8975,-182.18086 -690.8863,-184.13831 -706.52335,-184.16967 C -718.61463,-184.19393 -719.93399,-184.00472 -725.39778,-181.46291 C -728.62872,-179.95985 -732.55095,-178.73007 -734.11386,-178.73007 C -741.77015,-178.73007 -748.80437,-186.0668 -751.22193,-196.57388 C -753.00133,-204.30746 -752.67821,-228.45613 -750.60433,-242.73007 C -744.89745,-282.00891 -732.56704,-321.20888 -716.31823,-351.73007 C -700.46008,-381.51744 -685.03275,-397.23286 -671.84489,-397.03391 C -665.24441,-396.93433 -660.96102,-393.94336 -655.95319,-385.93717 C -650.60037,-377.37942 -632.0172,-358.85286 -598.52335,-328.6823 C -567.54455,-300.77723 -542.49959,-275.85207 -533.82842,-264.29683 C -526.2178,-254.15488 -519.64027,-242.71492 -501.01726,-207.23007 C -482.24458,-171.46003 -471.88529,-152.5348 -471.3637,-153.05639 C -470.43708,-153.98301 -487.76906,-195.33905 -503.28745,-229.23007 C -536.18475,-301.07532 -574.10806,-370.60899 -598.45886,-403.73007 C -608.52221,-417.41786 -614.49418,-423.36585 -623.24372,-428.41536 C -634.88959,-435.13641 -638.24582,-440.40022 -636.57249,-449.31984 C -635.13201,-456.99824 -623.02432,-466.71808 -606.82216,-473.20288 C -584.71284,-482.05198 -557.43667,-487.05748 -531.02335,-487.11285 C -510.89957,-487.15504 -505.6128,-486.32247 -476.52335,-478.53013 C -466.07335,-475.73083 -456.39835,-473.25385 -455.02335,-473.02573 C -453.6377,-472.79584 -447.84308,-474.34979 -442.02335,-476.51196 C -416.87302,-485.85591 -396.75079,-491.29457 -381.64069,-492.83227 C -345.94437,-496.46494 -281.40324,-485.84582 -240.10485,-469.54502 C -221.95082,-462.37948 -212.08583,-453.79386 -211.99301,-445.07894 C -211.96403,-442.35831 -211.51359,-442.08518 -201.98635,-439.01138 C -190.46926,-435.29559 -170.13617,-426.83076 -155.08867,-419.48751 C -126.32499,-405.4507 -110.51441,-389.17722 -106.37448,-369.34708 C -104.71026,-361.37554 -105.13759,-354.45234 -108.00064,-343.00167 C -110.47501,-333.10554 -114.0145,-327.40751 -119.79993,-324.00665 C -124.43011,-321.28488 -124.8392,-321.22991 -140.52335,-321.22205 C -158.36177,-321.2131 -160.76481,-320.55772 -165.44165,-314.42607 C -170.80911,-307.38897 -174.43921,-296.06389 -181.54459,-264.18856 C -195.74663,-200.47708 -207.35806,-119.10416 -208.72189,-73.730067 C -209.41884,-50.542887 -208.57882,-38.024177 -206.44483,-39.795237 C -204.37246,-41.515147 -183.47054,-84.253697 -173.46482,-107.23007 C -120.07286,-229.83528 -78.884412,-359.16811 -79.047212,-403.70383 C -79.088612,-415.02957 -79.931832,-416.87356 -89.275142,-426.07078 C -107.57313,-444.08267 -110.61353,-463.54857 -97.274142,-477.2837 C -89.654512,-485.12939 -78.425672,-488.23657 -60.523352,-487.45319 C -29.496802,-486.0955 10.249838,-468.62366 58.746238,-435.02462 C 108.66798,-400.43808 150.10667,-362.1463 174.6884,-327.88725 C 191.64858,-304.2502 204.09112,-275.80564 208.20394,-251.26827 C 211.73141,-230.22312 207.90919,-197.327 199.9756,-180.45073 C 195.61125,-171.16693 187.54901,-167.2767 178.8715,-170.26748 C 176.45433,-171.10057 168.41792,-176.09538 161.0128,-181.36704 C 138.24677,-197.57406 125.36315,-204.06081 105.97665,-209.07711 C 66.519528,-219.28672 25.125168,-215.09658 -11.589572,-197.17649 C -23.074672,-191.57073 -38.291732,-181.90788 -48.023352,-174.04099 C -56.965452,-166.81234 -72.650372,-150.95759 -81.472092,-140.23007 C -95.844342,-122.75292 -102.38722,-112.65915 -121.06288,-79.153027 C -138.36659,-48.108337 -151.81881,-26.659847 -187.53866,26.837213 C -233.26,95.313373 -247.2494,117.78817 -260.06997,143.36313 C -285.67659,194.4442 -291.93203,229.16914 -282.61606,268.51993 L -280.30783,278.26993 L -296.98297,278.26993 L -313.65811,278.26993 L -315.41605,272.51993 z M -303.46359,236.51993 C -303.35799,205.62686 -296.77438,180.82256 -278.58026,142.76993 C -264.74862,113.84134 -247.57869,85.811773 -203.73281,20.582943 C -166.84044,-34.301267 -155.25807,-52.754627 -135.79012,-87.665247 C -113.51855,-127.60342 -100.69982,-145.87154 -80.046702,-167.10582 C -62.304622,-185.34716 -47.744662,-196.7609 -28.523352,-207.49563 C 22.634428,-236.06625 85.881488,-239.27053 137.28954,-215.89617 C 146.57546,-211.67402 154.14368,-207.02345 169.5901,-196.04791 C 176.80249,-190.9231 183.15168,-186.73007 183.6994,-186.73007 C 185.03467,-186.73007 188.43425,-197.31424 190.62761,-208.30015 C 193.18999,-221.13433 192.99867,-242.14319 190.20346,-254.87803 C 184.80569,-279.46999 171.60757,-305.25226 151.37429,-330.73007 C 141.43942,-343.24008 113.64238,-370.64246 96.476648,-384.84827 C 40.187158,-431.43164 -8.6810521,-460.15949 -46.225672,-468.73777 C -59.484502,-471.76718 -75.451502,-471.3577 -81.672622,-467.82872 C -86.572072,-465.04947 -88.519192,-461.86269 -88.387452,-456.83879 C -88.206202,-449.92613 -84.361002,-444.45803 -70.977492,-432.08077 C -65.417582,-426.93889 -63.159172,-421.0342 -62.346172,-409.51391 C -60.234322,-379.58874 -76.643192,-314.16541 -108.81734,-224.23007 C -140.00178,-137.0612 -185.06705,-35.361137 -199.36317,-19.892747 C -202.15477,-16.872237 -207.89851,-14.481917 -210.68466,-15.181197 C -216.69297,-16.689187 -221.8125,-23.927487 -224.15761,-34.230067 C -226.18111,-43.119767 -225.90364,-86.572727 -223.68507,-108.23007 C -218.47812,-159.05958 -208.52434,-220.94343 -197.90608,-268.50106 C -189.14045,-307.76109 -185.05336,-318.67578 -175.50411,-328.32628 C -167.54145,-336.37336 -162.01786,-338.0472 -143.78462,-337.93836 C -126.93615,-337.83778 -126.98262,-337.81821 -124.69138,-345.98073 C -118.75227,-367.13884 -125.24917,-381.51197 -147.21016,-395.79919 C -162.89209,-406.00143 -208.71124,-425.21108 -222.1822,-427.23118 C -226.2846,-427.84637 -226.94395,-427.60247 -232.10645,-423.56011 C -259.9193,-401.78197 -287.19995,-347.95247 -298.41077,-292.73007 C -302.09967,-274.55923 -303.12959,-261.51522 -303.06312,-233.80741 L -302.99734,-206.38475 L -300.53014,-203.15008 C -287.92276,-186.62096 -262.4165,-118.29588 -253.52326,-77.230067 C -238.96996,-10.028087 -246.22168,60.414993 -273.49448,116.76993 C -283.31129,137.05481 -294.73247,152.48255 -303.15815,156.83964 C -312.59672,161.72051 -322.48318,156.30802 -329.39092,142.47811 C -340.27413,120.68892 -348.04889,77.891893 -348.18778,39.008683 C -348.24746,22.299593 -348.04723,20.556303 -341.67104,-17.730067 C -324.21296,-122.55853 -320.04994,-163.06182 -320.03229,-228.25993 C -320.02267,-263.78442 -319.10491,-275.31909 -314.465,-298.23086 C -301.69255,-361.30101 -266.23129,-425.32002 -234.71383,-442.20747 C -232.68407,-443.29504 -231.02335,-444.5269 -231.02335,-444.94493 C -231.02335,-446.14772 -238.72634,-450.6942 -245.92895,-453.74255 C -260.06395,-459.72487 -288.48393,-467.38211 -310.68306,-471.18934 C -348.80418,-477.72725 -378.39107,-478.21065 -399.02335,-472.63269 C -408.65898,-470.02768 -425.24335,-464.61657 -424.83651,-464.21043 C -424.66427,-464.03849 -417.99835,-461.56336 -410.02335,-458.71014 C -392.93535,-452.59656 -376.38396,-444.36841 -369.86127,-438.74447 C -361.79531,-431.78989 -359.03923,-422.71354 -362.67004,-415.06218 C -363.57572,-413.1536 -366.73272,-409.50623 -369.68559,-406.9569 C -379.05643,-398.86671 -384.97908,-387.92933 -394.64079,-360.87204 C -399.92369,-346.07747 -403.25216,-334.50588 -407.0363,-317.77841 L -409.85316,-305.32676 L -401.59141,-293.77841 C -384.6365,-270.07869 -357.66847,-227.92764 -351.01667,-214.73007 C -344.63663,-202.07166 -341.77382,-187.69844 -339.96235,-159.23007 C -336.70913,-108.1034 -346.13393,-24.291347 -358.10545,2.1112726 C -361.64558,9.9188626 -363.4205,12.079333 -367.82603,13.943383 C -372.41307,15.884223 -377.08778,14.762603 -382.02496,10.536553 C -395.54204,-1.0335574 -416.72599,-69.804757 -434.01101,-158.23007 C -437.98942,-178.58246 -438.91646,-192.34362 -437.95197,-216.73007 C -435.61566,-275.8021 -421.25097,-345.74755 -402.97421,-387.04597 C -396.22585,-402.29465 -392.5105,-408.17463 -384.69677,-415.97215 L -377.87019,-422.78457 L -381.15847,-425.85629 C -389.55908,-433.70363 -426.2913,-447.59238 -469.52335,-459.26777 C -499.86944,-467.46314 -510.05837,-469.59136 -522.47972,-470.3291 C -553.73911,-472.18566 -601.36625,-461.40975 -615.88079,-449.19657 C -617.6092,-447.74221 -619.02335,-446.2192 -619.02335,-445.81211 C -619.02335,-445.40502 -616.66085,-443.98252 -613.77335,-442.651 C -597.31586,-435.06195 -571.52921,-399.09593 -537.75575,-336.62518 C -498.64162,-264.27583 -452.87868,-161.7894 -445.52154,-130.06605 C -443.30148,-120.49332 -443.55784,-116.43675 -446.61224,-112.8068 C -448.8356,-110.16449 -449.87338,-109.73007 -453.96221,-109.73007 C -466.40634,-109.73007 -477.33829,-125.17981 -511.98388,-191.73007 C -531.09353,-228.43755 -540.00683,-244.18633 -546.80742,-253.25923 C -555.5183,-264.88073 -578.79036,-288.06492 -609.52335,-315.73836 C -641.69857,-344.71046 -663.67208,-366.42932 -668.44793,-373.98007 C -670.44822,-377.14257 -672.72586,-379.73007 -673.50936,-379.73007 C -676.06127,-379.73007 -685.66727,-369.32764 -692.03238,-359.6713 C -714.9796,-324.85871 -732.99966,-267.57109 -735.57966,-221.23007 C -736.15949,-210.81517 -735.17914,-198.55252 -733.64393,-197.01731 C -733.431,-196.80439 -730.39177,-197.60277 -726.89007,-198.79149 C -718.08989,-201.77889 -707.05161,-202.25206 -690.64338,-200.34525 C -640.78549,-194.55124 -572.8569,-171.68636 -513.02335,-140.55804 C -491.76909,-129.50054 -485.42864,-125.19636 -473.80595,-113.93553 C -461.43281,-101.94763 -453.57853,-92.296947 -441.4913,-74.230067 C -410.06381,-27.255097 -375.35791,47.369793 -340.80338,142.26993 C -333.81624,161.45931 -311.76093,226.83202 -306.98124,242.51993 C -305.17985,248.43243 -303.66434,253.26993 -303.61342,253.26993 C -303.5625,253.26993 -303.49508,245.73243 -303.46359,236.51993 z M -302.22476,132.42837 C -295.94191,124.53308 -283.59993,100.0548 -278.69951,85.769933 C -260.22519,31.916683 -258.07787,-26.771757 -272.49355,-83.845777 C -276.78432,-100.83365 -291.09898,-144.01047 -298.08431,-161.03435 C -303.61316,-174.50865 -304.97412,-175.52901 -305.01437,-166.23007 C -305.02627,-163.48007 -305.93414,-152.23007 -307.03186,-141.23007 C -310.49815,-106.49523 -314.39688,-78.887147 -324.47218,-17.730067 C -327.96065,3.4449326 -331.10656,23.956773 -331.46309,27.851793 C -332.31884,37.200803 -330.45715,66.367523 -327.92579,83.269933 C -324.9761,102.96565 -319.70259,123.22055 -314.98887,132.95909 C -310.28287,142.68167 -310.3875,142.68602 -302.22476,132.42837 z M -369.6589,-16.230067 C -362.86,-40.550687 -357.85526,-81.225677 -356.43187,-123.73007 C -355.43597,-153.46895 -358.04052,-183.96802 -362.91296,-199.6232 C -365.36949,-207.51604 -376.57591,-226.18304 -400.37073,-262.01812 C -410.43242,-277.17105 -413.67481,-281.38733 -414.21302,-280.01812 C -416.04373,-275.36074 -420.3801,-235.45609 -421.5251,-212.73007 C -422.67498,-189.9072 -420.28714,-172.22854 -409.50392,-123.73007 C -401.06683,-85.783517 -388.67335,-40.970467 -381.90117,-23.922507 C -377.10563,-11.850427 -373.8674,-5.4837574 -372.98558,-6.3935974 C -372.53969,-6.8536574 -371.04269,-11.280067 -369.6589,-16.230067 z"
       id="path7144" />
  </g>
</svg>
