<?xml version="1.0" encoding="UTF-8" standalone="no"?>
<!-- Created with Inkscape (http://www.inkscape.org/) -->
<svg
   xmlns:dc="http://purl.org/dc/elements/1.1/"
   xmlns:cc="http://creativecommons.org/ns#"
   xmlns:rdf="http://www.w3.org/1999/02/22-rdf-syntax-ns#"
   xmlns:svg="http://www.w3.org/2000/svg"
   xmlns="http://www.w3.org/2000/svg"
   xmlns:sodipodi="http://sodipodi.sourceforge.net/DTD/sodipodi-0.dtd"
   xmlns:inkscape="http://www.inkscape.org/namespaces/inkscape"
   width="980.9436"
   height="1468.6523"
   id="svg6734"
   sodipodi:version="0.32"
   inkscape:version="0.46"
   version="1.0"
   sodipodi:docname="arachniden.svg"
   inkscape:output_extension="org.inkscape.output.svg.inkscape">
  <defs
     id="defs6736">
    <inkscape:perspective
       sodipodi:type="inkscape:persp3d"
       inkscape:vp_x="0 : 526.18109 : 1"
       inkscape:vp_y="0 : 1000 : 0"
       inkscape:vp_z="744.09448 : 526.18109 : 1"
       inkscape:persp3d-origin="372.04724 : 350.78739 : 1"
       id="perspective6742" />
  </defs>
  <sodipodi:namedview
     id="base"
     pagecolor="#ffffff"
     bordercolor="#666666"
     borderopacity="1.0"
     inkscape:pageopacity="0.0"
     inkscape:pageshadow="2"
     inkscape:zoom="0.35"
     inkscape:cx="350"
     inkscape:cy="520"
     inkscape:document-units="px"
     inkscape:current-layer="layer1"
     showgrid="false"
     inkscape:window-width="640"
     inkscape:window-height="713"
     inkscape:window-x="100"
     inkscape:window-y="102" />
  <metadata
     id="metadata6739">
    <rdf:RDF>
      <cc:Work
         rdf:about="">
        <dc:format>image/svg+xml</dc:format>
        <dc:type
           rdf:resource="http://purl.org/dc/dcmitype/StillImage" />
      </cc:Work>
    </rdf:RDF>
  </metadata>
  <g
     inkscape:label="Ebene 1"
     inkscape:groupmode="layer"
     id="layer1"
     transform="translate(140.47179,201.96402)">
    <path
       style="fill:#000000"
       d="M 150.5444,1263.0643 C 142.60934,1261.5896 135.95436,1259.895 135.75557,1259.2986 C 135.43988,1258.3516 225.23672,676.79758 225.76772,676.3502 C 225.87996,676.25564 230.06479,674.1317 235.06735,671.63033 L 244.1629,667.08239 L 244.84782,655.8054 C 246.122,634.82625 250.18772,613.05674 256.35443,594.19431 C 259.03202,586.00421 259.57161,583.41844 258.33685,584.69431 C 257.40375,585.65847 190.18214,669.47233 108.9555,770.94733 C 27.728858,872.42233 -39.114972,955.59093 -39.586352,955.76653 C -40.499342,956.10653 -64.543689,938.03513 -64.505812,937.03743 C -64.493492,936.71283 7.540228,836.99733 95.569108,715.44733 C 183.598,593.89733 259.92702,488.46257 265.18916,481.14785 L 274.75668,467.84838 L 272.12167,459.14785 C 270.67242,454.36257 268.94822,448.05098 268.29012,445.1221 C 267.10686,439.85604 264.82921,437.39098 63.310888,223.27637 L -140.47179,6.7558738 L -129.3532,-3.8983962 C -123.23797,-9.7582462 -117.87824,-14.552666 -117.44268,-14.552666 C -117.00711,-14.552666 -33.991742,65.453404 67.035928,163.23859 C 168.0636,261.02378 250.88357,340.86888 251.08031,340.67215 C 251.34144,340.41101 90.582518,-4.4608962 8.541868,-179.63919 L 4.754738,-187.72572 L 19.018338,-194.83746 L 33.281938,-201.94921 L 162.05612,42.749064 C 232.88191,177.33311 291.01344,287.67233 291.23729,287.94733 C 291.46113,288.22233 293.03301,286.64733 294.73033,284.44733 C 296.42766,282.24733 300.72119,277.64033 304.2715,274.20956 L 310.72661,267.97178 L 307.24137,264.11404 C 298.67198,254.62875 290.36929,239.72479 285.41233,224.92924 C 267.77176,172.27566 277.90076,106.9832 308.79262,74.217864 C 326.83076,55.085774 352.35397,49.470054 373.4742,59.986364 C 392.85447,69.636304 407.24731,88.681354 416.48427,116.89859 C 422.58289,135.52878 423.93718,145.16846 423.93718,169.94733 C 423.93718,194.81166 422.58655,204.35526 416.38812,223.28887 C 411.60825,237.88941 404.96409,250.67879 397.02096,260.56885 L 390.97179,268.10072 L 398.55985,275.77402 C 402.73329,279.99434 406.88544,284.54518 407.78685,285.887 C 408.68827,287.22881 409.58901,288.12881 409.7885,287.887 C 409.98799,287.64518 468.08437,177.32977 538.89157,42.741654 L 667.63193,-201.96402 L 681.98077,-194.80978 C 694.22857,-188.7031 696.19605,-187.40596 695.41747,-185.95117 C 694.0833,-183.45825 452.51492,333.81114 450.75324,337.94733 L 449.26254,341.44733 L 452.04618,338.94733 C 455.06137,336.23937 795.31441,7.2159138 809.72369,-6.9255362 L 818.4756,-15.514756 L 829.47369,-4.5507662 C 835.52265,1.4794238 840.47179,6.6973138 840.47179,7.0445338 C 840.47179,7.3917538 749.19976,104.68349 637.64506,223.2484 L 434.81833,438.82096 L 433.52543,444.63415 C 432.81433,447.8314 430.93043,454.44356 429.33898,459.32784 L 426.44543,468.20835 L 435.88627,481.32784 C 441.07873,488.54356 517.34665,593.89733 605.37052,715.44733 C 693.39439,836.99733 765.42694,936.71133 765.44286,937.03403 C 765.49034,937.99673 741.38857,956.08933 740.50384,955.75513 C 740.05575,955.58583 673.22739,872.42233 591.99637,770.94733 C 510.76535,669.47233 443.63611,585.77233 442.82028,584.94733 C 441.82095,583.93676 442.12807,585.56819 443.76153,589.94733 C 446.96292,598.52991 452.04282,619.08416 453.89452,630.94733 C 455.28057,639.82728 457.4607,660.90001 457.46837,665.49162 C 457.47101,667.06991 459.50508,668.53254 466.39173,671.90809 C 474.27364,675.77147 475.37585,676.6391 475.86316,679.3638 C 478.71522,695.31028 565.472,1257.7077 565.25428,1258.8382 C 565.04108,1259.9453 561.00783,1261.0569 549.96823,1263.0514 C 541.72019,1264.5416 534.88503,1265.6785 534.779,1265.5779 C 534.54271,1265.3538 435.48064,782.29605 435.44973,781.2172 C 435.4376,780.79377 434.02034,782.92233 432.30026,785.94733 C 422.19453,803.71973 414.30906,814.27433 404.3094,823.41273 C 384.10753,841.87453 360.32536,849.23943 336.6817,844.35563 C 310.47574,838.94263 288.29999,820.15233 270.48019,788.26057 L 265.90576,780.0738 L 217.12675,1018.2605 C 160.69251,1293.8276 166.48478,1265.9737 165.64081,1265.8465 C 165.27285,1265.791 158.47946,1264.5391 150.5444,1263.0643 z M 363.6763,811.64233 C 380.72745,805.39913 394.02552,791.20366 406.01412,766.44733 C 418.22624,741.22942 423.97326,715.7339 425.17422,681.44733 C 426.77602,635.7169 415.50938,592.25118 394.36852,562.60167 C 376.37011,537.35935 354.01941,528.94758 332.80536,539.43214 C 323.38861,544.08615 311.08654,555.76884 303.9677,566.81791 C 290.36329,587.93315 280.75596,617.29459 277.46339,647.81902 C 276.0197,661.20308 276.01114,687.60275 277.44616,700.96988 C 283.42319,756.64566 308.25804,801.53253 338.95873,812.14853 C 346.19364,814.65033 356.00991,814.44923 363.6763,811.64233 z M 364.14727,498.84492 C 383.64834,489.53079 401.6166,455.14693 405.37743,419.94733 C 408.6042,389.74635 407.69559,373.63014 401.38336,349.10373 C 394.90879,323.94655 388.35212,310.82285 376.07912,298.45526 C 366.4766,288.77874 361.48532,286.44183 350.47179,286.46593 C 344.1466,286.47977 341.07628,286.959 338.47179,288.33892 C 331.40048,292.08547 325.14106,297.6373 319.34376,305.30464 C 309.19438,318.72791 302.78672,334.48351 297.3535,359.37578 C 294.76463,371.2367 293.79238,398.22628 295.37316,414.35013 C 299.70282,458.51233 319.89993,495.05084 343.47179,501.36516 C 350.54205,503.25911 356.40036,502.54501 364.14727,498.84492 z M 360.30133,251.03429 C 364.67735,248.80181 372.36257,241.14682 376.54475,234.85476 C 382.64094,225.68309 388.41217,209.13612 390.98679,193.44733 C 392.91831,181.67739 392.88719,158.06026 390.9242,145.94733 C 389.03669,134.30012 383.55019,117.57278 378.87378,109.20778 C 374.29495,101.01732 365.51043,91.628544 359.87218,88.899114 C 340.42097,79.482944 319.77167,101.72235 311.31343,141.19719 C 308.12809,156.06325 308.15015,183.92966 311.35914,198.92177 C 316.73786,224.05074 328.459,244.77205 340.73061,250.8464 C 346.27115,253.58893 355.12717,253.67395 360.30133,251.03429 z"
       id="path6732" />
  </g>
</svg>
