<?xml version="1.0" encoding="UTF-8" standalone="no"?>
<!-- Created with Inkscape (http://www.inkscape.org/) -->
<svg
   xmlns:dc="http://purl.org/dc/elements/1.1/"
   xmlns:cc="http://creativecommons.org/ns#"
   xmlns:rdf="http://www.w3.org/1999/02/22-rdf-syntax-ns#"
   xmlns:svg="http://www.w3.org/2000/svg"
   xmlns="http://www.w3.org/2000/svg"
   xmlns:sodipodi="http://sodipodi.sourceforge.net/DTD/sodipodi-0.dtd"
   xmlns:inkscape="http://www.inkscape.org/namespaces/inkscape"
   width="979.79095"
   height="493.23923"
   id="svg5020"
   sodipodi:version="0.32"
   inkscape:version="0.46"
   version="1.0"
   sodipodi:docname="fische.svg"
   inkscape:output_extension="org.inkscape.output.svg.inkscape">
  <defs
     id="defs5022">
    <inkscape:perspective
       sodipodi:type="inkscape:persp3d"
       inkscape:vp_x="0 : 526.18109 : 1"
       inkscape:vp_y="0 : 1000 : 0"
       inkscape:vp_z="744.09448 : 526.18109 : 1"
       inkscape:persp3d-origin="372.04724 : 350.78739 : 1"
       id="perspective5028" />
  </defs>
  <sodipodi:namedview
     id="base"
     pagecolor="#ffffff"
     bordercolor="#666666"
     borderopacity="1.0"
     inkscape:pageopacity="0.0"
     inkscape:pageshadow="2"
     inkscape:zoom="0.35"
     inkscape:cx="350"
     inkscape:cy="520"
     inkscape:document-units="px"
     inkscape:current-layer="layer1"
     showgrid="false"
     inkscape:window-width="640"
     inkscape:window-height="713"
     inkscape:window-x="120"
     inkscape:window-y="122" />
  <metadata
     id="metadata5025">
    <rdf:RDF>
      <cc:Work
         rdf:about="">
        <dc:format>image/svg+xml</dc:format>
        <dc:type
           rdf:resource="http://purl.org/dc/dcmitype/StillImage" />
      </cc:Work>
    </rdf:RDF>
  </metadata>
  <g
     inkscape:label="Ebene 1"
     inkscape:groupmode="layer"
     id="layer1"
     transform="translate(139.89547,-285.74257)">
    <path
       style="fill:#000000"
       d="M 370.60906,774.3464 C 366.91658,771.79693 363.89547,769.16975 363.89547,768.50822 C 363.89547,767.8467 372.67047,745.82499 383.39547,719.5711 C 394.12047,693.31721 402.89547,671.70267 402.89547,671.53879 C 402.89547,671.37491 397.83297,670.92438 391.64547,670.53762 C 378.54741,669.7189 356.08441,666.8033 340.39547,663.8856 C 251.77956,647.40552 157.43852,606.71068 67.566876,546.19859 L 50.738296,534.86762 L 36.566876,543.60262 C -28.843444,583.92033 -88.160911,628.85163 -117.97907,660.6668 L -127.69953,671.03827 L -133.65203,665.85456 C -136.92591,663.00352 -139.72809,660.36439 -139.8791,659.98982 C -140.45186,658.56913 -125.8809,642.9978 -113.49609,631.79548 C -77.053886,598.83273 -21.031494,557.82468 25.629796,529.95617 C 30.694666,526.93117 34.851436,524.13889 34.867056,523.75111 C 34.882686,523.36333 31.182966,520.24002 26.645466,516.81044 C -34.885394,470.30344 -90.470622,411.61644 -119.74422,362.25189 L -124.01642,355.04761 L -116.68737,351.00189 C -112.65639,348.77674 -109.13215,346.95617 -108.85572,346.95617 C -108.57929,346.95617 -106.0802,350.89367 -103.30217,355.70617 C -77.91245,399.68993 -20.639374,459.41149 39.752596,504.87669 C 51.275526,513.55155 52.283096,514.10058 54.677796,513.00949 C 56.090226,512.36594 64.823216,507.58218 74.084446,502.37892 C 109.26639,482.61253 156.73094,459.87747 194.39547,444.75111 C 285.39737,408.20404 363.09781,392.43753 434.77429,395.97487 C 446.53365,396.55521 456.23803,396.90091 456.33959,396.7431 C 456.44114,396.58529 455.48669,373.95617 454.21859,346.45617 C 452.95049,318.95617 452.02152,294.92628 452.15421,293.05642 C 452.38958,289.73975 452.57871,289.60169 459.89547,287.40565 C 466.82589,285.32556 467.49478,285.27998 468.70316,286.80539 C 469.42239,287.71332 485.72362,315.94183 504.92811,349.53543 L 539.84537,410.6147 L 554.12042,414.31639 C 645.8744,438.10934 750.39235,489.08004 830.64547,549.17048 L 839.89547,556.09653 L 839.89547,560.91976 L 839.89547,565.74298 L 823.14547,574.24461 C 777.00592,597.66318 717.73502,620.52654 660.89547,636.83147 C 607.43513,652.16705 558.5287,661.69628 498.54275,668.46531 L 492.69003,669.12575 L 442.04275,717.19553 C 414.18675,743.63391 388.22908,768.35152 384.35906,772.12355 L 377.32264,778.9818 L 370.60906,774.3464 z M 471.92611,651.94499 C 491.43426,650.83884 515.94547,648.81348 526.39547,647.44418 C 616.95767,635.5775 715.42245,606.24215 801.71391,565.41931 C 808.41377,562.24973 813.89547,559.35744 813.89547,558.992 C 813.89547,557.69049 782.20924,536.11363 762.89547,524.26335 C 700.46578,485.95861 630.42496,454.30376 567.7153,436.05195 C 538.98651,427.69037 500.55183,420.05267 463.89547,415.42099 C 446.32066,413.20034 401.73447,412.35051 383.7577,413.89353 C 315.52505,419.75023 242.05246,441.03227 158.41188,479.1671 C 140.00197,487.56086 102.35704,506.5706 85.037826,516.21913 L 68.680176,525.33198 L 72.007726,528.0478 C 76.934256,532.06863 107.2167,551.37586 124.39547,561.44874 C 196.50401,603.73005 272.35732,633.3528 342.23117,646.51943 C 354.3099,648.79547 380.87268,652.47209 390.89547,653.25517 C 404.31997,654.30403 440.69434,653.71589 471.92611,651.94499 z"
       id="path5018" />
  </g>
</svg>
