<?xml version="1.0" encoding="UTF-8" standalone="no"?>
<!-- Created with Inkscape (http://www.inkscape.org/) -->
<svg
   xmlns:dc="http://purl.org/dc/elements/1.1/"
   xmlns:cc="http://creativecommons.org/ns#"
   xmlns:rdf="http://www.w3.org/1999/02/22-rdf-syntax-ns#"
   xmlns:svg="http://www.w3.org/2000/svg"
   xmlns="http://www.w3.org/2000/svg"
   xmlns:sodipodi="http://sodipodi.sourceforge.net/DTD/sodipodi-0.dtd"
   xmlns:inkscape="http://www.inkscape.org/namespaces/inkscape"
   width="868.38721"
   height="1529.8678"
   id="svg3835"
   sodipodi:version="0.32"
   inkscape:version="0.46"
   version="1.0"
   sodipodi:docname="koproliten.svg"
   inkscape:output_extension="org.inkscape.output.svg.inkscape">
  <defs
     id="defs3837">
    <inkscape:perspective
       sodipodi:type="inkscape:persp3d"
       inkscape:vp_x="0 : 526.18109 : 1"
       inkscape:vp_y="0 : 1000 : 0"
       inkscape:vp_z="744.09448 : 526.18109 : 1"
       inkscape:persp3d-origin="372.04724 : 350.78739 : 1"
       id="perspective3843" />
  </defs>
  <sodipodi:namedview
     id="base"
     pagecolor="#ffffff"
     bordercolor="#666666"
     borderopacity="1.0"
     inkscape:pageopacity="0.0"
     inkscape:pageshadow="2"
     inkscape:zoom="0.35"
     inkscape:cx="350"
     inkscape:cy="520"
     inkscape:document-units="px"
     inkscape:current-layer="layer1"
     showgrid="false"
     inkscape:window-width="640"
     inkscape:window-height="713"
     inkscape:window-x="180"
     inkscape:window-y="180" />
  <metadata
     id="metadata3840">
    <rdf:RDF>
      <cc:Work
         rdf:about="">
        <dc:format>image/svg+xml</dc:format>
        <dc:type
           rdf:resource="http://purl.org/dc/dcmitype/StillImage" />
      </cc:Work>
    </rdf:RDF>
  </metadata>
  <g
     inkscape:label="Ebene 1"
     inkscape:groupmode="layer"
     id="layer1"
     transform="translate(84.193615,232.57176)">
    <path
       style="fill:#000000"
       d="M 164.10662,1296.7417 C 125.5889,1292.2492 85.316633,1272.3716 56.529923,1243.644 C 40.144353,1227.2921 32.351843,1212.3527 30.992113,1194.6843 C 29.942493,1181.0454 34.192763,1166.1323 42.755683,1153.4092 C 48.708543,1144.5641 62.466573,1130.7229 73.872123,1122.1045 C 79.243153,1118.046 83.743153,1114.4093 83.872123,1114.0228 C 84.001103,1113.6364 80.506623,1112.7225 76.106623,1111.9919 C 35.565253,1105.26 -1.2653177,1080.3586 -33.058749,1038.1843 C -47.010186,1019.6776 -66.181248,987.06373 -72.872938,970.45233 C -82.261505,947.14623 -86.046691,919.81723 -83.337965,894.89493 C -80.839441,871.90663 -74.385807,850.47933 -62.944385,827.18433 C -50.354395,801.55083 -36.716905,782.84053 -14.46108,760.66645 C 11.967454,734.33495 43.688053,713.92147 74.964643,703.11739 C 80.817733,701.09552 85.593713,699.15845 85.577923,698.81279 C 85.488893,696.86308 43.244603,667.59935 22.606623,655.19091 C 3.9100273,643.94971 -2.5067887,639.29244 -10.007369,631.51996 C -19.452079,621.73287 -25.930358,612.38597 -32.385125,599.23321 C -49.881346,563.58146 -51.002178,526.03625 -35.360893,499.55206 C -31.535889,493.07547 -23.110343,483.46209 -18.676812,480.51585 L -16.460247,479.04287 L -18.350387,469.6136 C -22.760942,447.61083 -23.842889,435.93697 -23.858362,410.18433 C -23.874603,383.15343 -23.10977,375.25031 -18.196959,351.68433 C -2.2009857,274.95416 47.295393,205.55145 129.09786,145.15085 C 163.63804,119.64736 182.52287,110.52997 213.84004,104.2382 C 235.33979,99.918799 253.29242,98.490249 286.60662,98.447929 C 327.46012,98.396019 353.86142,100.52314 424.60662,109.56641 C 441.38162,111.71074 455.252,113.33161 455.42969,113.16835 C 455.60738,113.00509 454.61979,109.285 453.23503,104.90148 C 449.62606,93.477069 447.98307,83.022399 444.55747,49.684329 C 438.65744,-7.7348914 433.7235,-31.145531 420.63661,-63.815671 C 402.73066,-108.51615 366.82138,-155.17958 322.83836,-190.90267 C 312.34089,-199.42872 295.60662,-215.11834 295.60662,-216.43443 C 295.60662,-216.79904 299.93545,-220.57909 305.22624,-224.83455 L 314.84585,-232.57176 L 320.55428,-232.05413 C 328.07518,-231.37216 337.07455,-227.48556 358.4569,-215.68493 C 434.30756,-173.82397 509.8348,-118.67583 545.75984,-78.920901 C 559.46619,-63.753331 565.07921,-55.882131 578.70954,-32.715111 C 619.12699,35.981089 638.28755,80.432339 646.77957,125.20293 C 648.71291,135.39567 649.05625,140.54328 649.0794,159.68433 C 649.10363,179.70922 648.84844,183.33794 646.75966,192.67123 C 636.69488,237.64348 608.58296,270.98014 560.1366,295.39362 L 549.16658,300.92172 L 551.99386,303.17612 C 567.55478,315.58396 605.09104,331.50567 668.67927,352.67043 C 692.20099,360.49942 711.05899,367.38719 716.74676,370.2268 C 748.76704,386.21288 769.47797,409.71282 775.15543,436.50098 C 777.02308,445.31316 776.98542,461.93475 775.07688,471.17457 C 768.18816,504.525 740.26391,538.54987 695.60662,568.00672 C 689.28162,572.17882 683.61593,576.01371 683.01619,576.52871 C 682.40427,577.05416 681.63993,583.11251 681.27442,590.33429 C 680.6885,601.91121 676.41115,638.63066 674.98799,644.30097 C 674.3358,646.89951 674.41039,646.91925 691.60662,648.69828 C 729.96428,652.66655 746.53853,656.63966 758.66935,664.77429 C 767.7891,670.88975 773.21393,679.79957 775.97278,693.19366 C 777.83148,702.21757 778.41073,709.18688 779.62905,737.18433 C 780.17953,749.83433 781.55877,771.20933 782.69404,784.68433 C 784.94353,811.38433 784.74356,820.74973 781.54054,838.70853 C 772.77478,887.85663 738.9621,949.79863 686.57119,1012.6843 C 625.69239,1085.7582 541.16837,1157.2149 474.10662,1192.3021 C 455.81449,1201.8727 443.11458,1207.205 422.71804,1213.8786 C 390.18299,1224.5239 378.12164,1229.4643 323.1632,1254.6567 C 265.7666,1280.9668 241.81239,1289.6236 212.56619,1294.6251 C 198.74454,1296.9888 175.08521,1298.0222 164.10662,1296.7417 z M 206.10662,1262.2177 C 231.67718,1258.0109 255.21726,1249.4335 309.10662,1224.6872 C 363.05009,1199.9161 378.04251,1193.7467 407.89781,1184.0342 C 442.93286,1172.6367 467.69444,1160.0637 504.60662,1134.9288 C 562.16856,1095.7328 631.29049,1030.5269 675.33941,973.86883 C 712.73412,925.76983 737.95435,879.18673 747.17465,841.18563 C 751.47078,823.47933 751.9463,813.24533 749.68383,787.18433 C 748.58563,774.53433 747.20909,752.93433 746.62486,739.18433 C 745.4368,711.22302 744.15804,698.65135 742.09645,694.66466 C 740.31857,691.22662 733.63337,688.33275 722.60662,686.22797 C 714.5093,684.68236 674.47001,679.71127 669.9711,679.693 C 668.0785,679.68532 667.52267,680.96405 665.0848,690.93433 C 655.53599,729.98666 637.81517,771.32173 619.96295,796.18433 C 555.72891,885.64233 396.03433,1010.6876 269.10662,1070.9146 C 246.75113,1081.5222 233.42481,1086.8002 208.60662,1094.8763 C 138.87911,1117.5662 88.288513,1145.4845 70.776313,1170.9377 C 66.204703,1177.5823 63.278483,1187.1338 63.979333,1193.1237 C 65.600613,1206.9804 79.560803,1223.1789 103.83972,1239.3752 C 136.3369,1261.0538 168.93021,1268.3339 206.10662,1262.2177 z M 137.60662,1079.2797 C 154.91037,1076.6793 166.84003,1073.6215 192.60662,1065.1826 C 223.92835,1054.9242 236.87558,1049.6594 265.10662,1035.7016 C 394.16712,971.89213 557.00057,839.84963 602.40517,762.18433 C 618.04587,735.43066 633.67049,687.84779 641.49002,643.15614 C 644.50433,625.9282 648.05064,598.79501 647.37617,598.12055 C 647.1729,597.91728 642.9791,600.02719 638.05661,602.80924 C 624.01371,610.74588 582.85754,631.51447 563.60662,640.37885 C 518.43476,661.17893 470.42633,678.08003 428.10662,688.08087 C 366.34283,702.67666 242.66817,718.2622 133.60662,725.19389 C 110.69479,726.65012 96.961313,729.63916 78.350013,737.22029 C 31.065873,756.48102 -11.845417,797.08533 -34.388086,843.89733 C -56.819676,890.47873 -56.761702,932.94023 -34.209899,974.40593 C -7.4635597,1023.584 19.944033,1054.0817 50.970383,1069.1898 C 70.529823,1078.7142 86.535963,1081.877 111.60662,1081.1716 C 120.68162,1080.9163 132.38162,1080.0649 137.60662,1079.2797 z M 157.60662,690.17145 C 260.42734,682.60044 368.15704,668.25686 424.47749,654.63917 C 492.9589,638.08108 571.87408,603.94362 651.60662,556.38669 C 684.86768,536.54793 699.53997,525.69675 715.81033,508.90354 C 753.46767,470.03608 753.02843,432.84287 714.60662,406.97733 C 703.56962,399.54723 692.48968,395.12642 651.10662,381.6413 C 597.29245,364.10538 559.07935,347.83797 537.02405,333.07607 C 528.3333,327.25923 518.81134,318.53235 516.04427,313.84807 L 514.33295,310.95103 L 501.21978,314.43419 C 480.00849,320.06841 445.32644,331.94366 426.30667,340.0847 C 399.31379,351.63847 385.46992,358.91026 365.86905,371.83086 C 348.37807,383.36065 343.41086,387.63721 309.10662,420.70106 C 280.49418,448.27891 255.90914,467.25939 230.89323,481.08442 C 182.05141,508.07684 129.6454,514.87365 65.606623,502.52133 C 51.429843,499.7868 46.853803,499.33278 33.106623,499.29678 C 15.321941,499.25022 10.444684,500.41613 1.7855343,506.78415 C -23.452022,525.34405 -15.495963,580.94199 16.732553,611.23579 C 19.688293,614.01409 28.406623,620.05448 36.106623,624.65888 C 64.121493,641.41103 97.577863,665.01577 119.60662,683.57129 C 130.71102,692.92488 127.58547,692.38201 157.60662,690.17145 z M 149.60662,473.54475 C 184.85067,469.06573 217.9055,453.98581 252.10662,426.7833 C 263.7166,417.54908 274.21449,408.07365 292.64165,390.19623 C 325.04296,358.76156 338.36695,348.34777 367.30704,331.83909 C 406.22376,309.63931 466.91349,287.16816 519.10662,275.63337 C 530.80187,273.04869 548.80749,264.92935 562.32414,256.14511 C 590.67113,237.72291 606.07466,217.43841 613.9318,188.18433 C 615.80629,181.20514 616.07667,177.56849 616.05075,159.68433 C 616.02395,141.19823 615.75133,137.91608 613.27568,126.27448 C 606.9434,96.497419 592.87265,60.952639 572.65306,23.655819 C 562.57245,5.0612486 544.31899,-26.281941 538.30958,-35.315671 C 523.48889,-57.595091 492.97128,-86.456811 453.60662,-115.42263 C 439.01037,-126.16304 415.96083,-142.31567 415.2307,-142.31567 C 414.9243,-142.31567 416.63198,-139.50317 419.02556,-136.06567 C 430.76874,-119.20085 443.88251,-94.712581 452.09345,-74.315671 C 465.27379,-41.574151 472.31418,-7.8290414 477.65114,48.184329 C 480.13007,74.201589 482.53561,88.956719 485.63966,97.184329 C 487.95005,103.30827 491.48593,107.44122 500.8463,114.95875 C 505.0364,118.32393 505.81755,119.61751 508.05071,126.88919 L 510.55544,135.0452 L 505.33797,140.61477 C 502.11008,144.06048 498.59252,146.71237 496.11356,147.56906 C 488.81719,150.09056 473.29485,149.07104 423.10662,142.77391 C 345.23237,133.003 326.53219,131.46544 286.76849,131.56398 C 242.71572,131.67314 220.39741,134.64654 195.20287,143.76299 C 171.26408,152.42506 123.50182,188.30965 90.694173,222.28215 C 51.163973,263.21588 26.572043,305.919 15.242294,353.30201 C 7.0354083,387.62465 6.6451153,427.11415 14.151002,463.71818 L 14.670583,466.25202 L 22.888603,465.52208 C 33.688103,464.56285 50.350723,466.00224 70.188133,469.60803 C 102.6202,475.50312 125.33648,476.62915 149.60662,473.54475 z"
       id="path3833" />
  </g>
</svg>
