<?xml version="1.0" encoding="UTF-8" standalone="no"?>
<!-- Created with Inkscape (http://www.inkscape.org/) -->
<svg
   xmlns:dc="http://purl.org/dc/elements/1.1/"
   xmlns:cc="http://creativecommons.org/ns#"
   xmlns:rdf="http://www.w3.org/1999/02/22-rdf-syntax-ns#"
   xmlns:svg="http://www.w3.org/2000/svg"
   xmlns="http://www.w3.org/2000/svg"
   xmlns:sodipodi="http://sodipodi.sourceforge.net/DTD/sodipodi-0.dtd"
   xmlns:inkscape="http://www.inkscape.org/namespaces/inkscape"
   width="975.46338"
   height="640.0824"
   id="svg3119"
   sodipodi:version="0.32"
   inkscape:version="0.46"
   sodipodi:docname="nannofossilien.svg"
   inkscape:output_extension="org.inkscape.output.svg.inkscape"
   version="1.0">
  <defs
     id="defs3121">
    <inkscape:perspective
       sodipodi:type="inkscape:persp3d"
       inkscape:vp_x="0 : 526.18109 : 1"
       inkscape:vp_y="0 : 1000 : 0"
       inkscape:vp_z="744.09448 : 526.18109 : 1"
       inkscape:persp3d-origin="372.04724 : 350.78739 : 1"
       id="perspective3127" />
  </defs>
  <sodipodi:namedview
     id="base"
     pagecolor="#ffffff"
     bordercolor="#666666"
     borderopacity="1.0"
     inkscape:pageopacity="0.0"
     inkscape:pageshadow="2"
     inkscape:zoom="0.35"
     inkscape:cx="350"
     inkscape:cy="520"
     inkscape:document-units="px"
     inkscape:current-layer="layer1"
     showgrid="false"
     inkscape:window-width="640"
     inkscape:window-height="713"
     inkscape:window-x="202"
     inkscape:window-y="210" />
  <metadata
     id="metadata3124">
    <rdf:RDF>
      <cc:Work
         rdf:about="">
        <dc:format>image/svg+xml</dc:format>
        <dc:type
           rdf:resource="http://purl.org/dc/dcmitype/StillImage" />
      </cc:Work>
    </rdf:RDF>
  </metadata>
  <g
     inkscape:label="Ebene 1"
     inkscape:groupmode="layer"
     id="layer1"
     transform="translate(137.73168,-212.32099)">
    <path
       style="fill:#000000"
       d="M 316.97468,852.16448 C 225.52693,846.98675 152.46727,830.72538 81.474677,799.74769 C 42.230597,782.6235 3.9574469,759.83108 -27.025323,735.13379 C -41.629433,723.49242 -69.977295,695.84796 -79.702343,683.76385 C -114.95929,639.95443 -133.05163,597.32809 -137.10566,548.51913 C -141.22386,498.93755 -124.90373,444.93868 -91.693862,398.26385 C -30.235193,311.88673 84.611847,247.32268 220.41176,222.80611 C 260.90403,215.49586 298.07242,212.30314 342.47468,212.32107 C 386.173,212.33871 419.51433,215.05472 458.97468,221.81125 C 597.72989,245.56937 716.84968,308.85866 784.56162,394.79817 C 804.8203,420.51034 821.45073,452.26475 829.84547,481.26385 C 858.3688,579.79587 808.53404,682.37519 696.31203,756.12762 C 616.74075,808.42197 515.5552,840.93194 403.14631,850.31904 C 386.17728,851.7361 330.47693,852.92897 316.97468,852.16448 z M 348.97468,783.76385 L 348.97468,735.76385 L 359.47468,735.76385 L 369.97468,735.76385 L 369.97332,783.51385 L 369.97195,831.26385 L 375.72332,831.01828 C 417.85944,829.21918 467.34692,822.45793 505.97239,813.22293 C 527.23126,808.14013 549.97468,801.57594 549.97468,800.52303 C 549.97468,800.01881 542.38128,784.90423 533.10046,766.93506 C 523.81964,748.96589 515.26419,732.3586 514.08836,730.02996 L 511.95047,725.79608 L 521.08903,721.20642 C 526.11524,718.68211 530.55597,716.98736 530.95731,717.4403 C 531.35866,717.89325 540.41426,735.24977 551.08086,756.01034 C 562.04699,777.3539 571.06008,793.75835 571.82179,793.76034 C 572.56271,793.76227 581.78771,790.35576 592.32179,786.19033 C 628.96009,771.70264 670.09871,749.75805 697.47468,730.0986 C 709.61581,721.3797 730.35637,704.79476 729.78522,704.26185 C 729.61442,704.10249 714.62468,691.29765 696.47468,675.80666 C 678.32468,660.31566 663.47468,647.23508 663.47468,646.73869 C 663.47468,646.24231 666.3222,642.45039 669.80251,638.31221 L 676.13034,630.78824 L 685.80251,639.08898 C 691.1222,643.65438 706.67695,656.95198 720.36861,668.63919 L 745.26253,689.88866 L 749.22351,686.07626 C 756.70026,678.87996 773.97322,657.47936 781.65757,645.8916 C 796.35965,623.72131 808.29946,596.04764 812.94176,573.3822 C 815.00778,563.29516 817.39733,541.30764 816.64158,539.3382 C 816.27621,538.38605 808.55762,537.91849 784.81695,537.4104 C 767.5787,537.04147 742.78718,536.44951 729.72468,536.09493 L 705.97468,535.45025 L 705.97468,524.95211 L 705.97468,514.45397 L 726.72468,515.10038 C 738.13718,515.45591 762.82223,516.04533 781.58035,516.41019 L 815.68602,517.07358 L 814.87389,511.16872 C 810.11463,476.56488 792.13559,437.83966 765.1601,404.08971 C 756.79242,393.62062 734.36577,369.76385 732.89194,369.76385 C 732.40678,369.76385 715.68942,385.09306 695.74225,403.82875 L 659.47468,437.89365 L 652.22148,430.16528 C 648.23222,425.91468 645.08222,422.3591 645.22148,422.26399 C 645.43588,422.11757 708.76559,362.98898 714.39238,357.6817 C 716.94387,355.2751 716.37397,354.64099 701.69613,343.55518 C 678.56821,326.08723 651.50368,309.60909 622.47468,295.32149 C 609.23938,288.80729 582.05124,277.02061 576.45328,275.37016 C 574.62533,274.83122 572.57502,279.03227 555.02852,319.26902 C 544.35667,343.74118 535.29575,363.76385 534.89314,363.76385 C 534.49052,363.76385 531.08167,362.3708 527.3179,360.66818 C 523.55413,358.96556 519.5048,357.1929 518.3194,356.72894 C 516.24652,355.91763 516.88686,354.2316 535.0694,312.62602 C 545.4673,288.83338 553.97468,268.8348 553.97468,268.18473 C 553.97468,265.48375 503.80498,251.58789 471.47468,245.33411 C 439.28462,239.10746 395.22785,233.81719 375.22468,233.77655 L 368.97468,233.76385 L 368.99139,237.01385 C 369.00058,238.80135 370.10026,262.96029 371.43513,290.70037 C 372.77,318.44045 373.63593,341.50295 373.35941,341.95036 C 372.72755,342.97273 352.97607,343.03423 352.97082,342.01385 C 352.96869,341.60135 351.84435,317.86385 350.47228,289.26385 C 349.10021,260.66385 347.97695,236.25135 347.97614,235.01385 C 347.97471,232.80771 347.74563,232.76404 336.22468,232.77353 C 312.63953,232.79295 273.81698,235.82689 245.47468,239.86555 C 229.01388,242.21114 191.82613,249.54569 190.67931,250.67285 C 190.24186,251.10281 197.79583,273.6327 207.46592,300.73929 C 217.136,327.84587 224.91707,350.1548 224.75718,350.31468 C 224.15213,350.91974 207.53911,356.76385 206.42418,356.76385 C 205.78194,356.76385 197.26789,334.37635 187.50405,307.01385 C 177.74021,279.65135 169.56926,256.95711 169.34638,256.58221 C 168.80043,255.66388 157.87276,258.74459 138.02745,265.4116 C 103.90271,276.87576 73.649277,290.24509 44.974677,306.53266 C 33.118867,313.26693 5.5320469,331.05299 4.5975569,332.56502 C 4.3076669,333.03407 17.989047,350.45558 35.000617,371.27948 C 52.012177,392.10339 65.828117,409.23196 65.702707,409.34298 C 62.165767,412.47388 50.295487,421.76174 49.829867,421.76263 C 49.383807,421.76347 -7.0333331,353.2622 -12.665933,345.88069 C -13.695693,344.53119 -46.375894,375.74392 -58.60002,389.75215 C -81.543211,416.0439 -101.02783,451.25615 -109.4726,481.68813 C -113.02677,494.4961 -117.01512,516.76385 -115.75498,516.76385 C -115.50307,516.76385 -91.498341,518.56367 -62.411141,520.76345 C -33.323943,522.96323 -8.7498831,524.76323 -7.8021131,524.76345 C -6.2479031,524.76381 -6.1378731,525.72003 -6.6801631,534.51385 C -7.0108631,539.87635 -7.5988631,544.61642 -7.9868531,545.04733 C -8.3748331,545.47824 -32.895453,543.99398 -62.4771,541.74896 C -92.058751,539.50394 -116.46758,537.87278 -116.71895,538.12414 C -116.97031,538.3755 -116.66525,543.90977 -116.04104,550.42251 C -111.52915,597.49734 -90.039859,642.04144 -51.8548,683.471 C -41.433504,694.77777 -27.254913,708.34241 -26.589173,707.64259 C -26.391013,707.43428 -12.218043,689.93885 4.9063069,668.76385 C 22.030657,647.58885 36.415337,630.13423 36.872247,629.97579 C 37.842207,629.63947 52.474677,641.39501 52.474677,642.51059 C 52.474677,642.92488 38.524677,660.50817 21.474677,681.58456 C 4.4246769,702.66095 -9.6308631,720.43595 -9.7598631,721.08456 C -10.136743,722.97948 13.068217,739.34059 34.474677,752.273 C 50.155797,761.74653 85.764187,779.25045 104.49149,786.69096 C 127.95685,796.01395 145.98039,801.9182 146.52727,800.46126 C 146.77447,799.80268 153.9028,780.22481 162.36801,756.95488 C 170.83321,733.68495 178.00486,714.40033 178.30502,714.10018 C 178.89898,713.50621 196.83288,719.67991 197.36764,720.66243 C 197.54767,720.99321 190.62209,740.61385 181.97746,764.26385 C 173.33283,787.91385 166.36267,807.39326 166.48823,807.55144 C 166.61379,807.70961 170.7121,808.90091 175.5956,810.19878 C 211.42815,819.72187 256.3299,827.07443 294.97468,829.74683 C 316.28691,831.22063 319.51366,831.3675 335.22468,831.57887 L 348.97468,831.76385 L 348.97468,783.76385 z M 211.9671,583.75107 C 192.02798,581.31786 175.05265,566.80606 169.46137,547.41395 C 167.29945,539.91581 167.27851,526.96641 169.41641,519.61227 C 177.29209,492.52089 205.20766,476.96618 232.13312,484.66617 C 241.16136,487.24802 247.34312,491.0107 254.47468,498.26492 C 267.16604,511.17456 271.76823,528.75869 267.10468,546.52179 C 260.73225,570.79386 237.01526,586.80774 211.9671,583.75107 z M 484.60876,583.17739 C 467.86646,579.12496 454.13306,566.07529 448.39213,548.76385 C 445.88604,541.20687 445.90097,526.22947 448.422,518.80249 C 453.9365,502.55673 466.92077,489.80702 482.73641,485.10798 C 490.18812,482.89398 503.69387,482.87366 511.06636,485.06537 C 529.47876,490.53903 544.01429,507.18374 546.98778,526.19919 C 552.56278,561.85124 519.87101,591.71253 484.60876,583.17739 z"
       id="path3117" />
  </g>
</svg>
