<?xml version="1.0" encoding="UTF-8" standalone="no"?>
<!-- Created with Inkscape (http://www.inkscape.org/) -->
<svg
   xmlns:dc="http://purl.org/dc/elements/1.1/"
   xmlns:cc="http://creativecommons.org/ns#"
   xmlns:rdf="http://www.w3.org/1999/02/22-rdf-syntax-ns#"
   xmlns:svg="http://www.w3.org/2000/svg"
   xmlns="http://www.w3.org/2000/svg"
   xmlns:sodipodi="http://sodipodi.sourceforge.net/DTD/sodipodi-0.dtd"
   xmlns:inkscape="http://www.inkscape.org/namespaces/inkscape"
   width="979.4043"
   height="439.66138"
   id="svg2957"
   sodipodi:version="0.32"
   inkscape:version="0.46"
   sodipodi:docname="ostrakoden.svg"
   inkscape:output_extension="org.inkscape.output.svg.inkscape"
   version="1.0">
  <defs
     id="defs2959">
    <inkscape:perspective
       sodipodi:type="inkscape:persp3d"
       inkscape:vp_x="0 : 526.18109 : 1"
       inkscape:vp_y="0 : 1000 : 0"
       inkscape:vp_z="744.09448 : 526.18109 : 1"
       inkscape:persp3d-origin="372.04724 : 350.78739 : 1"
       id="perspective2965" />
  </defs>
  <sodipodi:namedview
     id="base"
     pagecolor="#ffffff"
     bordercolor="#666666"
     borderopacity="1.0"
     inkscape:pageopacity="0.0"
     inkscape:pageshadow="2"
     inkscape:zoom="0.35"
     inkscape:cx="350"
     inkscape:cy="520"
     inkscape:document-units="px"
     inkscape:current-layer="layer1"
     showgrid="false"
     inkscape:window-width="640"
     inkscape:window-height="713"
     inkscape:window-x="122"
     inkscape:window-y="130" />
  <metadata
     id="metadata2962">
    <rdf:RDF>
      <cc:Work
         rdf:about="">
        <dc:format>image/svg+xml</dc:format>
        <dc:type
           rdf:resource="http://purl.org/dc/dcmitype/StillImage" />
      </cc:Work>
    </rdf:RDF>
  </metadata>
  <g
     inkscape:label="Ebene 1"
     inkscape:groupmode="layer"
     id="layer1"
     transform="translate(139.70214,-312.53149)">
    <path
       style="fill:#000000"
       d="M 318.48533,751.94926 C 266.44839,748.87402 236.39954,745.44033 199.98533,738.40822 C 85.206323,716.24274 -9.3656968,671.28676 -71.045951,609.57016 C -105.51651,575.07928 -127.71442,536.37135 -135.93493,496.41902 C -148.33841,436.1371 -130.21375,379.6403 -80.070105,322.28149 L -71.546556,312.53149 L 348.56198,312.53149 L 768.67052,312.53149 L 777.13395,321.78149 C 823.34636,372.28879 843.74758,422.44507 839.04102,473.97966 C 834.47677,523.95584 812.10741,568.54037 771.02354,609.54575 C 719.30294,661.16753 645.13529,700.89964 553.80435,725.91152 C 508.71525,738.25961 464.82025,745.72045 411.48533,750.10151 C 394.62373,751.48656 331.78282,752.7351 318.48533,751.94926 z M 410.98533,729.09495 C 531.55023,718.85951 631.95357,686.77129 709.02075,633.84487 C 732.73694,617.55761 760.46153,592.42162 774.99393,574.03149 C 801.07299,541.02955 814.91773,508.32021 818.1208,472.14066 C 822.13853,426.75935 805.01139,384.79687 763.27377,337.76226 L 759.48533,333.49302 L 668.57912,333.76226 L 577.67291,334.03149 L 586.38049,339.35245 C 607.89687,352.50049 632.34707,374.37854 644.18432,391.07535 C 674.69058,434.10536 675.81551,480.88085 647.37677,523.82086 C 638.98903,536.48563 618.82997,557.07054 604.31095,567.79643 C 553.00781,605.69652 478.65525,630.28256 392.98533,637.67514 C 374.18475,639.29747 320.56387,639.2845 301.98533,637.65313 C 201.55215,628.83416 118.78094,597.46826 69.630103,549.60283 C 41.983673,522.67941 28.692063,495.8034 27.310553,464.03149 C 26.222453,439.00727 32.495723,418.60703 48.836233,394.03149 C 60.864233,375.94182 85.290083,353.59046 108.59017,339.35245 L 117.29776,334.03149 L 27.891543,333.74759 L -61.514667,333.46368 L -66.312054,338.61887 C -82.655077,356.18081 -99.663594,383.4751 -108.46362,406.26125 C -124.87337,448.7515 -121.56105,493.91087 -98.835287,537.53149 C -87.689931,558.92428 -75.46309,575.18411 -55.564077,595.07557 C -26.849037,623.77972 3.6942732,644.9653 47.485333,666.55315 C 124.28356,704.41267 214.43101,725.94351 316.98533,730.92059 C 333.0045,731.69802 394.35963,730.5064 410.98533,729.09495 z M 397.48533,616.08596 C 455.01001,610.84844 508.78675,596.63716 551.1241,575.48472 C 602.06833,550.03213 633.78712,518.04306 644.2835,481.53149 C 646.06081,475.34915 646.43215,471.48402 646.39718,459.53149 C 646.35949,446.65023 646.04943,444.03363 643.61983,436.09313 C 634.65863,406.80575 610.51804,379.06841 574.70568,356.91131 C 564.18083,350.39958 545.86409,340.92126 535.30485,336.52264 L 528.12437,333.53149 L 346.95469,333.53149 L 165.78501,333.53149 L 159.63517,336.25082 C 101.13373,362.11888 63.318143,397.02635 51.305473,436.24965 C 48.926973,444.01584 48.611003,446.70846 48.573483,459.53149 C 48.525883,475.79986 50.000333,482.87054 56.342503,496.78752 C 76.650783,541.35111 135.75231,580.59686 213.98533,601.4686 C 248.1899,610.59401 279.94952,615.33217 324.48533,617.95388 C 336.55176,618.6642 381.91754,617.50338 397.48533,616.08596 z"
       id="path2955" />
  </g>
</svg>
