<?xml version="1.0" encoding="UTF-8" standalone="no"?>
<!-- Created with Inkscape (http://www.inkscape.org/) -->
<svg
   xmlns:dc="http://purl.org/dc/elements/1.1/"
   xmlns:cc="http://creativecommons.org/ns#"
   xmlns:rdf="http://www.w3.org/1999/02/22-rdf-syntax-ns#"
   xmlns:svg="http://www.w3.org/2000/svg"
   xmlns="http://www.w3.org/2000/svg"
   xmlns:sodipodi="http://sodipodi.sourceforge.net/DTD/sodipodi-0.dtd"
   xmlns:inkscape="http://www.inkscape.org/namespaces/inkscape"
   width="210mm"
   height="297mm"
   id="svg3313"
   sodipodi:version="0.32"
   inkscape:version="0.46"
   sodipodi:docname="reptilien.svg"
   inkscape:output_extension="org.inkscape.output.svg.inkscape">
  <defs
     id="defs3315">
    <inkscape:perspective
       sodipodi:type="inkscape:persp3d"
       inkscape:vp_x="0 : 526.18109 : 1"
       inkscape:vp_y="0 : 1000 : 0"
       inkscape:vp_z="744.09448 : 526.18109 : 1"
       inkscape:persp3d-origin="372.04724 : 350.78739 : 1"
       id="perspective3321" />
  </defs>
  <sodipodi:namedview
     id="base"
     pagecolor="#ffffff"
     bordercolor="#666666"
     borderopacity="1.0"
     inkscape:pageopacity="0.0"
     inkscape:pageshadow="2"
     inkscape:zoom="0.35"
     inkscape:cx="350"
     inkscape:cy="520"
     inkscape:document-units="px"
     inkscape:current-layer="layer1"
     showgrid="false"
     inkscape:window-width="640"
     inkscape:window-height="713"
     inkscape:window-x="180"
     inkscape:window-y="180" />
  <metadata
     id="metadata3318">
    <rdf:RDF>
      <cc:Work
         rdf:about="">
        <dc:format>image/svg+xml</dc:format>
        <dc:type
           rdf:resource="http://purl.org/dc/dcmitype/StillImage" />
      </cc:Work>
    </rdf:RDF>
  </metadata>
  <g
     inkscape:label="Ebene 1"
     inkscape:groupmode="layer"
     id="layer1">
    <path
       style="fill:#000000"
       d="M 249.97163,653.00507 C 178.76959,650.16677 122.13085,628.15445 77.8448,586.10897 C 51.23122,560.84185 31.778169,531.47107 17.14525,494.46303 C -0.19849704,450.59903 -0.96732012,409.27831 14.756725,366.08968 C 33.589869,314.36139 83.891619,253.3462 137.80407,216.83531 L 148.42281,209.64402 L 150.31921,201.99176 C 154.93152,183.38035 166.37369,167.9275 179.05578,163.18252 C 189.64688,159.21988 208.03887,159.1785 226.8662,163.07494 L 233.39924,164.427 L 240.17885,161.40272 C 255.59754,154.52468 269.47411,148.66775 280.47988,144.39271 C 291.89509,139.95864 325.93565,128.39672 335.27053,125.78301 C 339.79,124.51759 340.03482,124.3222 341.7535,120.60926 C 345.24167,113.07359 353.37676,107.02865 364.84839,103.44817 C 369.75075,101.91805 372.0425,101.6848 382.17406,101.6848 C 389.12598,101.6848 396.0541,102.11361 399.29755,102.74463 L 404.74502,103.80446 L 420.38967,98.318523 C 444.19762,89.970064 453.79987,85.828964 506.0903,61.358996 C 533.76952,48.406155 556.73444,36.272028 573.18878,25.905707 C 577.26132,23.339993 583.1521,20.025328 586.2794,18.539802 C 597.14586,13.378001 605.60986,14.744688 609.61939,22.308528 L 611.4543,25.770002 L 617.41165,22.67309 C 622.76607,19.889615 623.91458,19.576171 628.75933,19.576171 C 633.08447,19.576171 635.10957,20.007151 639.00736,21.757119 C 648.26761,25.914664 650.96033,25.481258 675.42632,15.895331 C 700.78688,5.9589057 708.44713,4.0604561 717.28851,5.5205812 C 729.67392,7.5659901 738.71728,12.997672 742.64625,20.751123 C 746.18613,27.736752 745.869,32.35476 741.33465,39.85042 C 739.89036,42.237958 738.84244,45.313642 738.38311,48.513258 C 737.27618,56.224132 737.18045,56.469396 733.99787,59.748823 C 730.47128,63.382732 726.4145,65.540171 713.62866,70.581377 C 690.95917,79.51951 681.25441,86.040164 677.05302,95.156648 C 672.51588,105.00168 670.96728,107.60768 667.65365,110.97399 C 663.71286,114.97743 657.62068,118.42517 650.21407,120.84355 C 647.44884,121.74644 644.86432,122.8898 644.47069,123.38434 C 644.06187,123.89798 643.96552,126.54441 644.24598,129.55654 C 645.47719,142.77955 640.14845,149.91898 617.97874,164.74928 C 611.12897,169.33139 604.6089,173.9283 603.4897,174.96463 L 601.45478,176.84886 L 603.73052,180.15653 C 611.0737,190.82949 615.49101,210.21711 617.61475,241.09456 C 618.29672,251.00991 618.93688,259.20959 619.03732,259.31607 C 619.13777,259.42255 629.01089,259.76153 640.97761,260.06936 L 662.73526,260.62904 L 663.22726,263.6422 C 663.49787,265.29944 663.95123,268.26552 664.23474,270.23349 C 664.51825,272.20146 665.15316,273.81681 665.64566,273.82315 C 668.10551,273.85485 668.29196,274.90125 666.98597,281.34543 L 665.68852,287.74749 L 662.21895,287.57075 L 658.7494,287.39402 L 657.29308,291.71385 L 655.83676,296.03368 L 652.14946,295.83568 L 648.46216,295.63767 L 652.20596,298.84884 C 654.26505,300.61498 656.9769,303.01525 658.23228,304.18278 L 660.5148,306.30554 L 639.04603,305.91671 C 616.75671,305.51301 607.99339,304.79512 596.46092,302.42816 C 574.91257,298.00552 571.6613,293.31969 565.61655,257.97443 C 561.35313,233.04508 559.60231,227.98394 554.30088,225.26384 C 549.25399,222.67434 542.7741,223.10702 535.64911,226.50925 C 518.91206,234.50132 493.01483,255.29862 457.51795,289.25407 C 451.29444,295.20732 445.88525,299.60893 441.67457,302.14626 C 431.23772,308.43543 416.14863,314.85713 400.35832,319.72984 L 392.72012,322.0869 L 392.72012,337.87364 L 392.72012,353.66039 L 395.54496,353.66191 C 399.68225,353.66414 449.48689,355.93675 449.66553,356.13146 C 449.74902,356.22245 450.05841,359.22833 450.35308,362.81119 C 450.84254,368.76251 450.76777,369.36436 449.4879,369.77552 C 448.30864,370.15435 448.05202,371.14995 447.86614,376.06717 C 447.56071,384.14776 447.43119,384.42156 443.78615,384.69213 L 440.69048,384.92193 L 439.0573,390.57161 C 438.15905,393.67893 437.11141,396.17232 436.72922,396.11247 C 436.34702,396.05262 432.15469,395.75702 427.41293,395.45558 L 418.79154,394.9075 L 419.96106,396.69433 C 423.47307,402.06013 437.16642,424.71556 436.99243,424.87244 C 436.87978,424.97402 427.30497,419.76401 415.7151,413.29464 L 394.6426,401.53215 L 372.5805,400.62796 L 350.51841,399.72376 L 347.26447,396.84259 C 345.4748,395.25794 338.87553,389.38518 332.59943,383.792 L 321.18832,373.62258 L 321.17293,363.7572 C 321.16447,358.33125 320.94019,350.8296 320.67452,347.08687 L 320.19149,340.28192 L 316.27555,342.0747 C 302.76604,348.25956 285.52836,349.56154 242.43872,347.65168 C 222.81886,346.78206 209.22231,347.30415 204.35736,349.11394 C 178.42218,358.76196 130.20512,429.10786 112.50119,483.1268 C 106.20875,502.32654 105.11499,514.52469 109.07932,521.28929 C 119.21417,538.58312 170.01458,559.42011 231.89266,571.66408 C 262.87494,577.79463 284.75388,580.16698 322.89988,581.53213 C 364.26084,583.01232 380.64476,584.92631 400.24402,590.56757 C 419.88355,596.22042 432.7749,605.59724 433.40219,614.68591 C 433.74278,619.62074 433.32138,620.95312 430.3537,624.32459 C 425.17728,630.20531 414.24776,635.32029 397.22808,639.82726 C 364.547,648.48152 329.39797,652.52815 282.73975,653.00803 C 268.44607,653.15504 253.70041,653.1537 249.97163,653.00507 z M 316.26117,638.39358 C 360.25805,635.31017 397.64689,627.96085 414.73557,619.03701 C 420.67247,615.93672 420.65693,615.19448 414.57341,611.29069 C 404.4546,604.79747 386.1795,599.92245 362.21187,597.32286 C 356.41153,596.69374 338.10658,595.69365 321.5342,595.10042 C 281.29768,593.66013 263.5804,591.70424 228.73295,584.85565 C 178.78107,575.03858 138.31083,560.73454 106.89166,541.79132 C 77.501932,524.07171 49.358478,501.72969 31.064065,481.59469 C 27.076538,477.20598 24.438079,474.79557 24.742363,475.81939 C 26.796239,482.72999 36.029736,504.42819 41.037144,514.11121 C 72.935424,575.79417 126.02928,616.84298 193.8515,632.25758 C 210.7937,636.1082 231.27357,638.52754 254.86801,639.46565 C 265.32336,639.88134 304.89158,639.19039 316.26117,638.39358 z M 94.350029,498.29211 C 101.40171,459.48308 136.02653,395.47004 169.24923,359.82136 C 179.74105,348.5634 187.46348,342.24161 195.77243,338.10871 C 202.5441,334.74046 202.66516,334.71252 213.8514,333.93666 C 221.83077,333.38321 230.38227,333.40176 243.19201,334.00029 C 280.69523,335.75263 295.81534,334.89534 308.52645,330.29592 C 314.61962,328.09116 315.62967,327.39425 324.3115,319.40466 L 333.58684,310.86888 L 334.19865,338.83518 C 334.5985,357.11271 335.09617,367.14574 335.63515,367.79518 C 336.08874,368.3417 340.84756,372.73758 346.21031,377.56378 L 355.96077,386.33869 L 376.78864,387.19354 C 388.24397,387.6637 397.77317,387.92273 397.96464,387.76916 C 398.15611,387.61558 397.96696,386.91213 397.54429,386.20593 C 397.12164,385.49973 395.97533,383.60254 394.99696,381.98994 L 393.21809,379.05796 L 400.31369,379.57712 C 404.21627,379.86265 408.97327,380.2874 410.88481,380.52099 C 414.18613,380.92442 414.38619,380.84268 414.87624,378.89016 C 415.15999,377.7596 415.21543,376.65789 414.99944,376.4419 C 414.78345,376.22591 409.76699,374.7838 403.85175,373.23722 L 393.09677,370.42525 L 396.48658,369.53853 C 402.66912,367.92127 402.21496,367.65906 392.34348,367.14653 C 386.95745,366.86687 381.82263,366.59943 380.93274,366.5522 L 379.31479,366.46632 L 379.04952,327.05157 L 378.78425,287.63683 L 376.58607,284.30235 C 372.44746,278.0244 357.40601,263.71541 349.78258,258.80408 C 336.83282,250.46133 327.22867,247.74402 313.037,248.40765 C 296.46448,249.18261 282.8077,252.60651 268.56748,259.55663 C 260.70361,263.39469 258.4577,264.91023 253.81347,269.5127 C 250.38778,272.90756 247.55652,276.55181 246.25665,279.23941 L 244.17799,283.53726 L 239.16526,281.60778 C 236.40826,280.54657 233.55931,279.5052 232.83427,279.29362 C 231.12708,278.79544 231.13605,278.74167 233.80376,273.48079 C 243.75117,253.86399 266.65962,241.01053 301.16031,235.6884 C 325.22552,231.97607 343.36203,236.64528 363.3927,251.70998 C 371.43174,257.75599 381.57277,268.02838 387.75456,276.3874 L 391.83723,281.908 L 392.38309,294.80884 C 392.6833,301.9043 392.98258,307.70968 393.04814,307.70968 C 393.67328,307.70968 411.75375,301.33164 416.28884,299.51132 C 432.34397,293.06703 439.3663,288.28715 454.48992,273.50899 C 486.41423,242.31396 518.89513,217.52227 535.53218,211.65189 C 544.31813,208.55177 553.71932,209.37631 562.19727,213.99059 C 571.11836,218.84606 574.00285,225.94425 579.16,255.73266 C 582.03728,272.35224 584.01855,280.40238 585.96135,283.36748 C 588.08577,286.60976 595.61176,288.95119 609.91024,290.81829 C 623.54516,292.59876 623.50192,292.70444 612.81722,283.71416 C 607.71882,279.42428 603.6533,275.8257 603.78272,275.71732 C 603.91214,275.60893 610.79765,276.4815 619.08384,277.65636 C 636.5596,280.13417 636.24919,280.11026 635.86202,278.94875 C 635.699,278.4597 632.20918,276.93429 628.10688,275.55895 C 621.70254,273.41184 619.61571,273.05833 613.34499,273.05833 L 606.04186,273.05833 L 605.57536,266.0904 C 605.31878,262.25803 604.58929,251.32801 603.95428,241.80145 C 601.94551,211.66554 597.87155,194.43895 590.60574,185.35766 C 589.25444,183.66872 584.43133,177.0455 579.8877,170.63939 C 566.45487,151.70031 554.26993,140.48346 547.14462,140.49774 C 543.65586,140.50474 535.63676,142.7617 530.63868,145.14332 C 523.71697,148.44155 516.49606,155.68499 515.80183,160.02645 C 515.36533,162.7562 515.07884,163.13727 513.70641,162.8137 C 512.83203,162.60755 509.78843,162.19991 506.94286,161.90783 L 501.7691,161.37679 L 502.21975,158.08893 C 503.61084,147.9398 514.6038,136.74396 528.9657,130.84938 C 534.97031,128.3849 544.42865,126.66942 549.48443,127.12787 C 560.67142,128.14226 572.01633,137.11439 586.36942,156.29835 C 589.31422,160.23429 591.99857,163.94552 592.33465,164.54554 C 592.82561,165.42208 593.73763,165.03436 596.97529,162.57268 C 599.19156,160.88759 604.91276,156.95745 609.68907,153.83903 C 620.91562,146.50928 625.731,142.66733 628.59852,138.7521 C 630.87278,135.64689 630.91025,135.45593 630.45344,129.29957 C 629.56482,117.32392 632.98826,112.38138 645.08511,108.17535 C 656.77222,104.11178 659.29198,101.87209 663.49953,91.8077 C 664.6926,88.953913 666.34492,85.602057 667.17136,84.359129 L 668.67399,82.099258 L 666.10098,84.473681 L 663.52796,86.848113 L 648.08551,86.227085 C 639.59217,85.885521 628.82464,85.519384 624.15769,85.413456 L 615.67232,85.220855 L 608.51243,94.959406 C 604.5745,100.31562 600.99916,104.69796 600.56722,104.69796 C 598.86691,104.69796 590.10322,97.898263 590.48188,96.872793 C 590.69421,96.297739 594.98838,90.236299 600.02448,83.402925 L 609.18102,70.978617 L 618.65217,71.443691 C 623.8613,71.699478 634.90293,72.118308 643.18913,72.374419 L 658.25493,72.84008 L 667.14988,62.592192 L 676.04484,52.344296 L 685.89933,52.344296 L 695.75383,52.344296 L 703.02758,45.197982 L 710.30133,38.051668 L 718.17619,36.503318 C 727.96449,34.578737 729.09248,34.110929 730.49792,31.393088 C 731.52292,29.410955 731.50124,28.972231 730.26365,26.652361 C 728.62374,23.578372 722.96951,20.505882 716.67266,19.267051 C 709.68908,17.893117 703.27509,19.598581 677.84048,29.59243 C 659.68175,36.727414 653.75329,38.311945 646.98624,37.839007 C 644.06921,37.635144 640.32662,36.946004 638.66938,36.307583 C 637.01215,35.66917 634.0594,34.532229 632.10771,33.781055 L 628.55921,32.415287 L 621.01269,36.353474 C 611.58208,41.274877 607.5093,41.657503 603.35744,38.012128 C 601.92951,36.758382 600.13806,34.217301 599.37646,32.365269 C 598.59734,30.470676 597.49752,29.003952 596.86178,29.011666 C 594.88591,29.035658 589.8633,31.645003 579.85342,37.847821 C 558.0492,51.359233 533.42931,63.924461 484.99818,86.258964 C 444.26366,105.0441 433.5312,108.9761 355.43226,133.72741 C 333.05954,140.81783 309.3309,148.4954 302.70194,150.78866 C 279.95571,158.65766 248.46474,172.08244 218.14789,186.83453 C 163.9299,213.21686 130.12233,235.7954 100.38103,265.48567 C 54.324231,311.46346 26.975454,357.20665 19.515033,400.74103 C 16.073672,420.82269 16.523981,433.4377 21.040612,443.47843 C 29.576603,462.45443 51.795143,486.08462 82.741186,509.09914 L 92.533959,516.38201 L 92.99715,509.78526 C 93.251913,506.15703 93.860707,500.98512 94.350029,498.29211 z M 170.65467,196.10008 C 172.84803,194.78969 182.88925,189.40362 192.96852,184.13103 L 211.29444,174.5445 L 205.23119,174.00778 C 195.20512,173.12027 185.37504,174.62598 180.21406,177.83975 C 176.53173,180.13275 172.46971,184.99141 168.93875,191.32634 C 166.2655,196.12245 165.4029,198.4826 166.32325,198.4826 C 166.51217,198.4826 168.46131,197.41046 170.65467,196.10008 z M 683.83074,69.34284 C 686.54359,67.756313 688.76318,66.33343 688.76318,66.180882 C 688.76318,66.028333 687.31004,65.90352 685.53397,65.90352 C 682.38648,65.90352 682.14374,66.089364 675.94115,73.2481 L 669.57753,80.592677 L 674.23791,76.410058 C 676.80112,74.109623 681.1179,70.929367 683.83074,69.34284 z M 719.58548,53.129194 C 725.02747,50.382088 725.59747,48.970535 720.96634,49.709671 C 718.56201,50.093412 716.92082,51.056998 714.37505,53.579624 C 710.53085,57.388877 711.27443,57.324599 719.58548,53.129194 z"
       id="path3311" />
  </g>
</svg>
