<?xml version="1.0" encoding="UTF-8" standalone="no"?>
<!-- Created with Inkscape (http://www.inkscape.org/) -->
<svg
   xmlns:dc="http://purl.org/dc/elements/1.1/"
   xmlns:cc="http://creativecommons.org/ns#"
   xmlns:rdf="http://www.w3.org/1999/02/22-rdf-syntax-ns#"
   xmlns:svg="http://www.w3.org/2000/svg"
   xmlns="http://www.w3.org/2000/svg"
   xmlns:xlink="http://www.w3.org/1999/xlink"
   xmlns:sodipodi="http://sodipodi.sourceforge.net/DTD/sodipodi-0.dtd"
   xmlns:inkscape="http://www.inkscape.org/namespaces/inkscape"
   width="127.86996"
   height="9.3734322"
   id="svg11057"
   sodipodi:version="0.32"
   inkscape:version="0.46"
   sodipodi:docname="sandsteinschnuere.svg"
   inkscape:output_extension="org.inkscape.output.svg.inkscape"
   version="1.0">
  <defs
     id="defs11059">
    <inkscape:perspective
       sodipodi:type="inkscape:persp3d"
       inkscape:vp_x="0 : 526.18109 : 1"
       inkscape:vp_y="0 : 1000 : 0"
       inkscape:vp_z="744.09448 : 526.18109 : 1"
       inkscape:persp3d-origin="372.04724 : 350.78739 : 1"
       id="perspective11065" />
  </defs>
  <sodipodi:namedview
     id="base"
     pagecolor="#ffffff"
     bordercolor="#666666"
     borderopacity="1.0"
     inkscape:pageopacity="0.0"
     inkscape:pageshadow="2"
     inkscape:zoom="9.2515868"
     inkscape:cx="63.934978"
     inkscape:cy="4.6867161"
     inkscape:document-units="px"
     inkscape:current-layer="layer1"
     showgrid="false"
     inkscape:window-width="1280"
     inkscape:window-height="752"
     inkscape:window-x="20"
     inkscape:window-y="42" />
  <metadata
     id="metadata11062">
    <rdf:RDF>
      <cc:Work
         rdf:about="">
        <dc:format>image/svg+xml</dc:format>
        <dc:type
           rdf:resource="http://purl.org/dc/dcmitype/StillImage" />
      </cc:Work>
    </rdf:RDF>
  </metadata>
  <g
     inkscape:label="Ebene 1"
     inkscape:groupmode="layer"
     id="layer1"
     transform="translate(-274.5143,-505.77094)">
    <g
       id="g11591">
      <path
         transform="matrix(0.2676366,0,0,0.2676366,243.20067,502.84105)"
         d="M 211.42857,33.076469 A 5,5 0 1 1 201.42857,33.076469 A 5,5 0 1 1 211.42857,33.076469 z"
         sodipodi:ry="5"
         sodipodi:rx="5"
         sodipodi:cy="33.076469"
         sodipodi:cx="206.42857"
         id="path16959"
         style="fill:#000000;fill-opacity:1;stroke:#000000;stroke-width:0.09341022;stroke-miterlimit:4;stroke-dasharray:none;stroke-opacity:1"
         sodipodi:type="arc" />
      <use
         height="141.73228"
         width="141.73228"
         transform="translate(-13.043516,-0.5413638)"
         id="use11000"
         xlink:href="#path16959"
         y="0"
         x="0" />
      <path
         transform="matrix(0.2676366,0,0,0.2676366,269.3611,503.11585)"
         d="M 211.42857,33.076469 A 5,5 0 1 1 201.42857,33.076469 A 5,5 0 1 1 211.42857,33.076469 z"
         sodipodi:ry="5"
         sodipodi:rx="5"
         sodipodi:cy="33.076469"
         sodipodi:cx="206.42857"
         id="path11039"
         style="fill:#000000;fill-opacity:1;stroke:#000000;stroke-width:0.09341022;stroke-miterlimit:4;stroke-dasharray:none;stroke-opacity:1"
         sodipodi:type="arc" />
      <use
         height="141.73228"
         width="141.73228"
         transform="translate(15.754936,-4.6733875e-2)"
         id="use11041"
         xlink:href="#path16959"
         y="0"
         x="0" />
      <path
         transform="matrix(0.2676366,0,0,0.2676366,300.54114,500.86665)"
         d="M 211.42857,33.076469 A 5,5 0 1 1 201.42857,33.076469 A 5,5 0 1 1 211.42857,33.076469 z"
         sodipodi:ry="5"
         sodipodi:rx="5"
         sodipodi:cy="33.076469"
         sodipodi:cx="206.42857"
         id="path11043"
         style="fill:#000000;fill-opacity:1;stroke:#000000;stroke-width:0.09341022;stroke-miterlimit:4;stroke-dasharray:none;stroke-opacity:1"
         sodipodi:type="arc" />
      <path
         transform="matrix(0.2676366,0,0,0.2676366,278.55759,502.62533)"
         d="M 211.42857,33.076469 A 5,5 0 1 1 201.42857,33.076469 A 5,5 0 1 1 211.42857,33.076469 z"
         sodipodi:ry="5"
         sodipodi:rx="5"
         sodipodi:cy="33.076469"
         sodipodi:cx="206.42857"
         id="path11045"
         style="fill:#000000;fill-opacity:1;stroke:#000000;stroke-width:0.09341022;stroke-miterlimit:4;stroke-dasharray:none;stroke-opacity:1"
         sodipodi:type="arc" />
      <path
         transform="matrix(0.2676366,0,0,0.2676366,321.20568,500.75673)"
         d="M 211.42857,33.076469 A 5,5 0 1 1 201.42857,33.076469 A 5,5 0 1 1 211.42857,33.076469 z"
         sodipodi:ry="5"
         sodipodi:rx="5"
         sodipodi:cy="33.076469"
         sodipodi:cx="206.42857"
         id="path11047"
         style="fill:#000000;fill-opacity:1;stroke:#000000;stroke-width:0.09341022;stroke-miterlimit:4;stroke-dasharray:none;stroke-opacity:1"
         sodipodi:type="arc" />
      <path
         transform="matrix(0.2676366,0,0,0.2676366,311.75276,501.30632)"
         d="M 211.42857,33.076469 A 5,5 0 1 1 201.42857,33.076469 A 5,5 0 1 1 211.42857,33.076469 z"
         sodipodi:ry="5"
         sodipodi:rx="5"
         sodipodi:cy="33.076469"
         sodipodi:cx="206.42857"
         id="path11049"
         style="fill:#000000;fill-opacity:1;stroke:#000000;stroke-width:0.09341022;stroke-miterlimit:4;stroke-dasharray:none;stroke-opacity:1"
         sodipodi:type="arc" />
      <path
         transform="matrix(0.2676366,0,0,0.2676366,333.62639,500.09723)"
         d="M 211.42857,33.076469 A 5,5 0 1 1 201.42857,33.076469 A 5,5 0 1 1 211.42857,33.076469 z"
         sodipodi:ry="5"
         sodipodi:rx="5"
         sodipodi:cy="33.076469"
         sodipodi:cx="206.42857"
         id="path11051"
         style="fill:#000000;fill-opacity:1;stroke:#000000;stroke-width:0.09341022;stroke-miterlimit:4;stroke-dasharray:none;stroke-opacity:1"
         sodipodi:type="arc" />
      <path
         transform="matrix(0.2676366,0,0,0.2676366,290.20886,502.18566)"
         d="M 211.42857,33.076469 A 5,5 0 1 1 201.42857,33.076469 A 5,5 0 1 1 211.42857,33.076469 z"
         sodipodi:ry="5"
         sodipodi:rx="5"
         sodipodi:cy="33.076469"
         sodipodi:cx="206.42857"
         id="path11053"
         style="fill:#000000;fill-opacity:1;stroke:#000000;stroke-width:0.09341022;stroke-miterlimit:4;stroke-dasharray:none;stroke-opacity:1"
         sodipodi:type="arc" />
      <use
         height="141.73228"
         width="141.73228"
         transform="translate(20.73474,-1050.8252)"
         id="use18250"
         xlink:href="#use18248"
         y="0"
         x="0" />
      <use
         height="141.73228"
         width="141.73228"
         transform="translate(-14.560029,-0.3733352)"
         id="use18252"
         xlink:href="#use18250"
         y="0"
         x="0" />
      <use
         height="141.73228"
         width="141.73228"
         transform="translate(-8.7111289,10.204465)"
         id="use18254"
         xlink:href="#use18252"
         y="0"
         x="0" />
      <use
         height="141.73228"
         width="141.73228"
         transform="translate(316.17756,-378.66921)"
         id="use18264"
         xlink:href="#use18262"
         y="0"
         x="0" />
      <use
         height="141.73228"
         width="141.73228"
         transform="translate(13.191141,8.8355748)"
         id="use18306"
         xlink:href="#use18252"
         y="0"
         x="0" />
      <use
         height="141.73228"
         width="141.73228"
         transform="translate(-9.5822389,-2.7377852)"
         id="use18308"
         xlink:href="#use18306"
         y="0"
         x="0" />
      <use
         height="141.73228"
         width="141.73228"
         transform="translate(-6.0977889,-13.564475)"
         id="use18310"
         xlink:href="#use18308"
         y="0"
         x="0" />
      <use
         height="141.73228"
         width="141.73228"
         transform="translate(11.573361,2.3644548)"
         id="use18312"
         xlink:href="#use18310"
         y="0"
         x="0" />
      <use
         height="141.73228"
         width="141.73228"
         transform="translate(-1.4933389,13.937815)"
         id="use18314"
         xlink:href="#use18252"
         y="0"
         x="0" />
      <use
         height="141.73228"
         width="141.73228"
         transform="translate(-11.200029,-10.951135)"
         id="use18316"
         xlink:href="#use18314"
         y="0"
         x="0" />
      <use
         height="141.73228"
         width="141.73228"
         transform="translate(330.98648,-344.6958)"
         id="use18322"
         xlink:href="#use18320"
         y="0"
         x="0" />
      <use
         height="141.73228"
         width="141.73228"
         transform="translate(317.91979,-350.91804)"
         id="use18354"
         xlink:href="#use18352"
         y="0"
         x="0" />
      <use
         height="141.73228"
         width="141.73228"
         transform="translate(268.9361,705.88049)"
         id="use18248"
         xlink:href="#use18246"
         y="0"
         x="0" />
      <use
         height="141.73228"
         width="141.73228"
         transform="translate(-14.560035,1.6177748)"
         id="use11003"
         xlink:href="#use18248"
         y="0"
         x="0" />
      <use
         height="141.73228"
         width="141.73228"
         transform="translate(221.09643,324.44972)"
         id="use11005"
         xlink:href="#use18250"
         y="0"
         x="0" />
      <use
         height="141.73228"
         width="141.73228"
         transform="translate(226.94533,335.02753)"
         id="use11007"
         xlink:href="#use18252"
         y="0"
         x="0" />
      <use
         height="141.73228"
         width="141.73228"
         transform="translate(260.04763,332.66308)"
         id="use18256"
         xlink:href="#use18254"
         y="0"
         x="0" />
      <use
         height="141.73228"
         width="141.73228"
         transform="translate(12.320025,-3.2355652)"
         id="use18258"
         xlink:href="#use18256"
         y="0"
         x="0" />
      <use
         height="141.73228"
         width="141.73228"
         transform="translate(280.88279,673.77375)"
         id="use11011"
         xlink:href="#use18262"
         y="0"
         x="0" />
      <use
         height="141.73228"
         width="141.73228"
         transform="translate(262.03875,331.79196)"
         id="use18266"
         xlink:href="#use18264"
         y="0"
         x="0" />
      <use
         height="141.73228"
         width="141.73228"
         transform="translate(272.42055,722.43164)"
         id="use18270"
         xlink:href="#use18268"
         y="0"
         x="0" />
      <use
         height="141.73228"
         width="141.73228"
         transform="translate(8.0889051,8.3377948)"
         id="use18272"
         xlink:href="#use18270"
         y="0"
         x="0" />
      <use
         height="141.73228"
         width="141.73228"
         transform="translate(264.82943,708.74272)"
         id="use18300"
         xlink:href="#use18298"
         y="0"
         x="0" />
      <use
         height="141.73228"
         width="141.73228"
         transform="translate(248.84761,333.65863)"
         id="use11017"
         xlink:href="#use18252"
         y="0"
         x="0" />
      <use
         height="141.73228"
         width="141.73228"
         transform="translate(226.07422,322.08527)"
         id="use11019"
         xlink:href="#use18306"
         y="0"
         x="0" />
      <use
         height="141.73228"
         width="141.73228"
         transform="translate(229.55867,311.25858)"
         id="use11021"
         xlink:href="#use18308"
         y="0"
         x="0" />
      <use
         height="141.73228"
         width="141.73228"
         transform="translate(247.22982,327.18751)"
         id="use11023"
         xlink:href="#use18310"
         y="0"
         x="0" />
      <use
         height="141.73228"
         width="141.73228"
         transform="translate(234.16313,338.76087)"
         id="use11025"
         xlink:href="#use18252"
         y="0"
         x="0" />
      <use
         height="141.73228"
         width="141.73228"
         transform="translate(224.45644,313.87192)"
         id="use11027"
         xlink:href="#use18314"
         y="0"
         x="0" />
      <use
         height="141.73228"
         width="141.73228"
         transform="translate(295.69172,707.74716)"
         id="use11029"
         xlink:href="#use18320"
         y="0"
         x="0" />
      <use
         height="141.73228"
         width="141.73228"
         transform="translate(251.58539,332.1653)"
         id="use18324"
         xlink:href="#use18322"
         y="0"
         x="0" />
      <use
         height="141.73228"
         width="141.73228"
         transform="translate(281.62946,688.45823)"
         id="use18330"
         xlink:href="#use18328"
         y="0"
         x="0" />
      <use
         height="141.73228"
         width="141.73228"
         transform="translate(11.448915,10.204465)"
         id="use18332"
         xlink:href="#use18330"
         y="0"
         x="0" />
      <use
         height="141.73228"
         width="141.73228"
         transform="translate(308.50952,692.06713)"
         id="use18338"
         xlink:href="#use18336"
         y="0"
         x="0" />
      <use
         height="141.73228"
         width="141.73228"
         transform="translate(268.68721,711.35606)"
         id="use18344"
         xlink:href="#use18342"
         y="0"
         x="0" />
      <use
         height="141.73228"
         width="141.73228"
         transform="translate(274.03834,716.95608)"
         id="use18348"
         xlink:href="#use18320"
         y="0"
         x="0" />
      <use
         height="141.73228"
         width="141.73228"
         transform="translate(282.62502,701.52493)"
         id="use11037"
         xlink:href="#use18352"
         y="0"
         x="0" />
      <path
         id="path11158"
         d="M 275.0143,513.54519 C 287.53416,514.38317 300.03721,514.64437 312.60619,514.64437 C 325.11341,514.64437 337.46041,513.76502 349.97824,513.76502 C 358.61329,513.76502 366.95196,512.85906 375.47916,512.00634 C 383.51071,511.20318 391.49107,510.72389 399.44124,509.58815 C 405.09639,508.78027 399.46154,507.16996 397.24288,507.16996 C 393.47783,507.16996 389.6545,508.0493 385.81143,508.0493 C 381.60313,508.0493 377.45828,507.38979 373.28081,507.38979 C 367.84796,507.38979 362.33992,506.29061 356.79314,506.29061 C 352.42512,506.29061 347.44873,506.09304 343.16333,506.95012 C 335.31516,508.51975 326.13185,507.82946 318.10208,507.82946 C 308.13549,507.82946 298.18794,507.16996 288.20444,507.16996 C 285.10023,507.16996 282.55076,508.4185 280.51019,508.92864 C 279.49068,509.18352 278.25147,509.94809 277.21266,510.46749 C 275.7162,511.21572 275.0143,511.8882 275.0143,513.54519 z"
         style="fill:none;fill-rule:evenodd;stroke:#000000;stroke-width:1px;stroke-linecap:butt;stroke-linejoin:miter;stroke-opacity:1" />
    </g>
  </g>
</svg>
