<?xml version="1.0" encoding="UTF-8" standalone="no"?>
<!-- Created with Inkscape (http://www.inkscape.org/) -->
<svg
   xmlns:dc="http://purl.org/dc/elements/1.1/"
   xmlns:cc="http://creativecommons.org/ns#"
   xmlns:rdf="http://www.w3.org/1999/02/22-rdf-syntax-ns#"
   xmlns:svg="http://www.w3.org/2000/svg"
   xmlns="http://www.w3.org/2000/svg"
   xmlns:sodipodi="http://sodipodi.sourceforge.net/DTD/sodipodi-0.dtd"
   xmlns:inkscape="http://www.inkscape.org/namespaces/inkscape"
   width="31.805527"
   height="10.514218"
   id="svg11510"
   sodipodi:version="0.32"
   inkscape:version="0.46"
   sodipodi:docname="trogfuellungen.svg"
   inkscape:output_extension="org.inkscape.output.svg.inkscape"
   version="1.0">
  <defs
     id="defs11512">
    <inkscape:perspective
       sodipodi:type="inkscape:persp3d"
       inkscape:vp_x="0 : 526.18109 : 1"
       inkscape:vp_y="0 : 1000 : 0"
       inkscape:vp_z="744.09448 : 526.18109 : 1"
       inkscape:persp3d-origin="372.04724 : 350.78739 : 1"
       id="perspective11518" />
  </defs>
  <sodipodi:namedview
     id="base"
     pagecolor="#ffffff"
     bordercolor="#666666"
     borderopacity="1.0"
     inkscape:pageopacity="0.0"
     inkscape:pageshadow="2"
     inkscape:zoom="17.072505"
     inkscape:cx="15.902763"
     inkscape:cy="5.257109"
     inkscape:document-units="px"
     inkscape:current-layer="layer1"
     showgrid="false"
     inkscape:window-width="640"
     inkscape:window-height="713"
     inkscape:window-x="40"
     inkscape:window-y="62" />
  <metadata
     id="metadata11515">
    <rdf:RDF>
      <cc:Work
         rdf:about="">
        <dc:format>image/svg+xml</dc:format>
        <dc:type
           rdf:resource="http://purl.org/dc/dcmitype/StillImage" />
      </cc:Work>
    </rdf:RDF>
  </metadata>
  <g
     inkscape:label="Ebene 1"
     inkscape:groupmode="layer"
     id="layer1"
     transform="translate(-21.240094,-232.81936)">
    <path
       style="fill:none;fill-rule:evenodd;stroke:#000000;stroke-width:1px;stroke-linecap:butt;stroke-linejoin:miter;stroke-opacity:1"
       d="M 21.740094,233.31936 C 21.740094,233.35539 21.740094,233.39142 21.740094,233.42745 C 21.740094,235.24632 24.851248,238.49984 26.496035,239.0481 C 27.978041,239.54211 29.056674,241.1863 31.143886,241.53416 C 35.065824,242.18782 39.964875,243.52276 43.898455,242.39888 C 48.356742,241.12508 47.043194,239.63499 50.275739,237.21058 C 51.220095,236.50232 52.221352,235.69493 52.221352,234.61643 C 52.221352,234.23982 52.448566,233.94582 52.54562,233.75172"
       id="path11214" />
    <path
       style="fill:none;fill-rule:evenodd;stroke:#000000;stroke-width:1px;stroke-linecap:butt;stroke-linejoin:miter;stroke-opacity:1"
       d="M 25.523229,234.18407 C 25.523229,234.1418 26.487884,235.63649 28.117378,236.9944 C 28.432966,237.25739 28.765916,237.49882 29.090184,237.75103 C 30.77446,239.06102 33.115572,239.15619 35.1432,239.15619 C 37.176751,239.15619 39.197435,239.80473 41.304305,239.80473 C 43.406226,239.80473 43.990604,239.60449 45.411709,238.18339 C 46.199507,237.39559 46.29099,236.55112 47.141142,235.91351 C 47.849815,235.382 48.017829,235.12895 48.330127,234.40025"
       id="path11216" />
    <path
       style="fill:none;fill-rule:evenodd;stroke:#000000;stroke-width:1px;stroke-linecap:butt;stroke-linejoin:miter;stroke-opacity:1"
       d="M 29.846811,233.96789 C 30.330505,235.02511 31.08847,235.99389 32.224782,236.56204 C 33.404343,237.15182 35.339297,237.31365 36.656454,237.64294 C 38.328593,238.06097 39.792273,237.31867 41.412395,237.31867 C 43.278233,237.31867 43.597857,236.29852 44.222724,235.04879 C 44.36828,234.75768 44.375645,234.43711 44.438903,234.18407"
       id="path11220" />
  </g>
</svg>
