<?xml version="1.0" encoding="UTF-8" standalone="no"?>
<!-- Created with Inkscape (http://www.inkscape.org/) -->
<svg
   xmlns:dc="http://purl.org/dc/elements/1.1/"
   xmlns:cc="http://creativecommons.org/ns#"
   xmlns:rdf="http://www.w3.org/1999/02/22-rdf-syntax-ns#"
   xmlns:svg="http://www.w3.org/2000/svg"
   xmlns="http://www.w3.org/2000/svg"
   xmlns:sodipodi="http://sodipodi.sourceforge.net/DTD/sodipodi-0.dtd"
   xmlns:inkscape="http://www.inkscape.org/namespaces/inkscape"
   width="987.99487"
   height="575.76221"
   id="svg5135"
   sodipodi:version="0.32"
   inkscape:version="0.46"
   version="1.0"
   sodipodi:docname="farne.svg"
   inkscape:output_extension="org.inkscape.output.svg.inkscape">
  <defs
     id="defs5137">
    <inkscape:perspective
       sodipodi:type="inkscape:persp3d"
       inkscape:vp_x="0 : 526.18109 : 1"
       inkscape:vp_y="0 : 1000 : 0"
       inkscape:vp_z="744.09448 : 526.18109 : 1"
       inkscape:persp3d-origin="372.04724 : 350.78739 : 1"
       id="perspective5143" />
  </defs>
  <sodipodi:namedview
     id="base"
     pagecolor="#ffffff"
     bordercolor="#666666"
     borderopacity="1.0"
     inkscape:pageopacity="0.0"
     inkscape:pageshadow="2"
     inkscape:zoom="0.35"
     inkscape:cx="350"
     inkscape:cy="520"
     inkscape:document-units="px"
     inkscape:current-layer="layer1"
     showgrid="false"
     inkscape:window-width="640"
     inkscape:window-height="713"
     inkscape:window-x="160"
     inkscape:window-y="162" />
  <metadata
     id="metadata5140">
    <rdf:RDF>
      <cc:Work
         rdf:about="">
        <dc:format>image/svg+xml</dc:format>
        <dc:type
           rdf:resource="http://purl.org/dc/dcmitype/StillImage" />
      </cc:Work>
    </rdf:RDF>
  </metadata>
  <g
     inkscape:label="Ebene 1"
     inkscape:groupmode="layer"
     id="layer1"
     transform="translate(143.99743,-244.48107)">
    <path
       style="fill:#000000"
       d="M 340.80734,819.56482 C 330.28258,817.49227 327.12475,816.60484 322.52536,814.42714 C 300.60297,804.04737 293.45983,780.28011 304.69236,755.09166 C 312.42328,737.75541 334.03307,714.17717 353.30734,702.04831 C 358.11919,699.02032 392.97315,680.37525 411.30734,671.0213 C 465.0464,643.60407 510.63969,626.39848 555.79376,616.49627 L 559.78019,615.62205 L 543.79376,608.77723 C 507.83705,593.38183 430.72906,559.02623 399.7368,544.5924 C 381.548,536.12144 366.14177,529.19066 365.50073,529.19066 C 364.85969,529.19066 353.64144,539.68996 340.57127,552.52243 C 272.89528,618.96768 249.20573,637.32251 208.30734,655.00146 C 170.34419,671.4116 142.93443,674.13409 122.06726,663.56732 C 111.42895,658.18026 101.01247,643.69542 98.25393,630.45324 C 96.86152,623.76907 97.55875,610.94517 99.68648,604.10469 C 104.94661,587.19379 119.19726,569.83414 137.80734,557.66715 C 147.78116,551.14642 152.47251,548.80998 168.80734,542.22818 C 175.95734,539.34723 198.23234,528.98524 218.30734,519.20153 C 249.25095,504.12091 279.223,491.19066 283.23593,491.19066 C 286.48482,491.19066 282.40266,488.78665 265.04933,480.48044 C 254.46624,475.41482 225.17631,461.35232 199.9606,449.23044 C 174.74489,437.10856 153.59489,427.19292 152.9606,427.19569 C 152.32631,427.19846 146.18996,433.12399 139.32426,440.36355 C 124.21093,456.29986 103.90174,475.09176 92.33425,483.84296 C 71.05179,499.94385 37.94102,510.1264 6.7172996,510.17272 C -18.87282,510.21069 -36.1558,501.60204 -44.05533,484.88287 C -49.680602,472.97712 -51.052229,467.28191 -51.085943,455.69066 C -51.112262,446.64217 -50.728967,443.7238 -48.925445,439.24083 C -42.59521,423.50592 -28.97948,412.77807 -9.6926604,408.32926 C -5.0176604,407.2509 16.91984,403.32273 39.05734,399.6 C 61.19484,395.87726 79.30734,392.5359 79.30734,392.17475 C 79.30734,391.8136 76.71984,390.36472 73.55734,388.95503 C 70.39484,387.54533 56.33234,381.1197 42.30734,374.67584 C 14.78744,362.03167 -17.43321,348.19066 -19.34781,348.19066 C -19.99951,348.19066 -26.0812,349.78874 -32.86269,351.74195 C -60.244235,359.62841 -89.0352,363.86238 -103.81727,362.17645 C -128.14325,359.40201 -143.93141,338.9749 -143.99721,310.19066 C -144.0428,290.24557 -136.87102,275.40588 -121.82917,264.32105 C -107.29201,253.60813 -96.195776,249.81381 -79.19266,249.74161 C -66.305529,249.6869 -62.226465,250.80878 -53.561423,256.79107 C -45.849734,262.11518 -34.28172,280.12232 -22.54716,305.06888 C -18.76431,313.11086 -14.43701,322.10247 -12.93095,325.05023 L -10.19266,330.4098 L 10.30734,339.12655 C 31.60393,348.18202 69.49583,365.25503 79.65853,370.37423 C 82.87669,371.99529 85.62198,373.17965 85.75918,373.00614 C 85.89638,372.83262 81.51652,366.16566 76.02617,358.19066 C 58.33469,332.49294 53.28369,322.02377 49.80499,303.84222 C 47.79267,293.32481 47.91941,286.02738 50.27429,276.81988 C 52.22326,269.19947 56.8333,260.85332 61.50829,256.48149 C 66.03589,252.24749 75.47024,247.36618 82.41546,245.66416 C 101.47445,240.99352 123.09412,250.25363 143.07005,271.64366 C 154.62415,284.01567 164.08633,299.87726 168.17875,313.73373 C 171.0291,323.38467 172.6449,342.2518 171.85764,356.69066 C 170.80221,376.04797 167.10517,403.34201 164.68398,409.65154 C 164.38174,410.43917 165.03116,411.28562 166.22951,411.66596 C 167.36626,412.02675 195.41131,425.39173 228.55183,441.36592 C 261.69236,457.34011 291.15589,471.47373 294.02635,472.77397 L 299.24536,475.13803 L 296.64941,467.91434 C 286.38055,439.33938 266.52599,388.62948 255.84248,363.69066 C 249.15667,348.08378 245.66238,337.75729 242.13804,323.19066 C 241.34449,319.9108 240.80734,311.83757 240.80734,303.19066 C 240.80734,286.47127 242.57089,279.44913 249.12635,270.06582 C 262.2789,251.23963 292.45329,247.12135 316.30734,260.89677 C 324.38694,265.56264 340.11038,281.13069 346.56383,290.85424 C 360.41813,311.72882 372.29845,339.62075 377.4667,363.40622 C 379.16363,371.21589 379.56959,377.73167 380.02242,404.42649 C 380.58042,437.32115 379.5656,462.81566 376.64835,489.19066 C 375.76626,497.16566 374.99118,505.43116 374.92595,507.55845 L 374.80734,511.42623 L 400.30734,523.38486 C 444.12659,543.93458 575.30734,601.78 575.30734,600.55281 C 575.30734,600.30748 568.17367,588.08814 559.45473,573.39871 C 507.24943,485.44461 487.44662,447.71571 476.93507,416.17978 C 467.64641,388.31269 463.2948,365.69753 463.3247,345.44724 C 463.37642,310.43345 476.90845,293.86419 504.18232,295.41928 C 521.07345,296.38237 536.24876,305.15763 557.38441,326.18387 C 587.30231,355.94691 614.78837,401.20258 627.84117,442.19066 C 638.89489,476.90124 648.30855,542.09025 652.60674,613.69066 L 653.80734,633.69066 L 676.80734,642.99979 C 745.60316,670.84455 818.2884,695.88916 838.63687,698.76019 C 841.29312,699.13496 843.68314,700.00642 843.94805,700.69675 C 844.39292,701.85607 841.70553,718.12581 840.94325,718.88809 C 840.53751,719.29382 829.04365,716.91751 817.8897,714.12185 C 793.65227,708.0469 739.83178,688.94137 679.46992,664.98474 L 644.13249,650.9599 L 640.24926,653.82528 C 484.0294,769.09778 456.06562,787.90587 417.80734,803.43694 C 387.26653,815.83507 355.5752,822.47291 340.80734,819.56482 z M 369.52986,798.14531 C 392.15418,793.53477 422.54425,781.66859 443.85136,769.12555 C 470.3951,753.49983 525.94159,714.21824 619.05734,645.22268 C 620.84484,643.89821 622.29881,642.56167 622.28838,642.2526 C 622.27796,641.94353 616.51688,639.32816 609.48599,636.44066 C 594.75847,630.39225 593.82325,630.30655 574.30734,633.21713 C 536.81655,638.80845 493.27472,653.39862 443.06022,677.19595 C 418.37523,688.8945 372.74652,712.91525 362.30734,719.70746 C 335.23524,737.32179 314.99106,767.16121 319.28763,783.11745 C 320.96405,789.34321 327.44556,795.85845 334.32493,798.233 C 341.89681,800.84659 356.45238,800.81033 369.52986,798.14531 z M 174.09509,646.7766 C 191.04486,642.09097 213.93758,631.82959 232.35151,620.66387 C 252.87874,608.21671 271.57444,592.12438 321.18212,544.20292 L 346.55689,519.69066 L 330.21588,511.8531 L 313.87487,504.01553 L 307.8411,505.15412 C 287.14744,509.05907 263.64375,518.2915 222.30734,538.75245 C 204.98234,547.32809 184.73234,556.8209 177.30734,559.8476 C 169.88234,562.8743 160.51153,567.11401 156.48332,569.26918 C 130.75215,583.03587 113.46152,607.69383 117.22708,625.25204 C 119.90209,637.72516 126.25699,645.01431 137.80734,648.85786 C 144.169,650.9748 162.7672,649.90811 174.09509,646.7766 z M 632.89779,611.94066 C 630.56565,567.2574 623.24455,506.99835 616.28352,475.19066 C 613.06814,460.49833 607.67824,442.43296 603.29879,431.66964 C 597.17063,416.60855 585.09038,394.1488 574.80338,378.69066 C 553.65671,346.91384 533.94093,326.99756 514.73245,318.00882 C 506.06461,313.95265 496.21445,313.41275 491.6315,316.74264 C 484.39744,321.99875 481.06895,337.62675 483.16048,356.51594 C 485.36693,376.44297 490.77808,398.38701 498.79757,419.92956 C 509.0213,447.39335 539.21584,502.03916 601.2656,605.37531 L 606.48043,614.05996 L 617.64389,618.74663 C 630.91356,624.31754 632.68439,625.04396 633.19834,625.12727 C 633.41339,625.16214 633.27814,619.22816 632.89779,611.94066 z M 357.68698,483.19066 C 361.69405,441.76127 362.20875,390.96024 358.82905,370.46914 C 357.02512,359.53188 351.98743,344.18288 345.20761,328.96684 C 326.82271,287.70537 302.51167,267.38413 278.4419,273.15838 C 261.21657,277.29067 255.84602,293.97182 262.33383,323.19066 C 264.81749,334.37619 266.58646,339.33322 275.53825,360.19216 C 283.89078,379.65476 302.38967,427.05785 315.89834,463.61422 L 324.73881,487.53777 L 339.77308,494.7369 C 349.67803,499.47987 355.02633,501.553 355.44922,500.81334 C 355.80225,500.19587 356.80924,492.26566 357.68698,483.19066 z M 23.06392,489.70682 C 51.78087,485.33346 70.806,477.06372 89.98513,460.61788 C 98.16797,453.60121 133.30734,419.13834 133.30734,418.12972 C 133.30734,417.80973 128.38629,415.17136 122.37168,412.26667 L 111.43602,406.98541 L 82.12168,412.04883 C 65.99879,414.83372 39.30734,419.42877 22.80734,422.26005 C 6.3073396,425.09134 -9.5113004,428.27491 -12.3452,429.33464 C -20.17639,432.26311 -26.11451,437.30962 -29.23565,443.689 C -31.68879,448.70305 -31.89654,449.99059 -31.45684,457.45552 C -29.84073,484.89306 -12.53752,495.12863 23.06392,489.70682 z M 148.70497,390.64902 C 151.55002,374.00677 152.58379,359.17495 152.0746,342.3043 C 151.6331,327.67643 151.24987,324.73622 148.86835,317.70542 C 144.48335,304.75988 138.13072,295.02249 126.30734,283.12364 C 113.62859,270.36397 104.98501,265.25557 94.67345,264.42785 C 83.10014,263.49886 73.00345,269.56808 69.73078,279.42115 C 67.59027,285.86565 68.288,300.74677 71.1608,309.92035 C 74.8956,321.84651 86.62795,340.51227 113.04356,376.5544 L 123.93733,391.41813 L 134.87234,396.63774 C 142.23329,400.15134 146.0306,401.48965 146.49043,400.73236 C 146.86612,400.11362 147.86267,395.57612 148.70497,390.64902 z M -71.19266,340.65484 C -61.49379,338.93904 -35.08272,332.50833 -33.04016,331.36526 C -32.14249,330.8629 -34.38973,325.35503 -41.07217,311.6792 C -56.364396,280.38319 -63.218681,271.26125 -72.962429,269.23846 C -84.720232,266.79755 -102.85345,272.91875 -113.50384,282.92396 C -123.7575,292.55648 -127.35298,308.0735 -122.80259,323.05465 C -120.26234,331.41787 -113.59753,339.41037 -107.19266,341.77422 C -102.26763,343.5919 -84.708755,343.04592 -71.19266,340.65484 z"
       id="path5133" />
  </g>
</svg>
