<?xml version="1.0" encoding="UTF-8" standalone="no"?>
<!-- Created with Inkscape (http://www.inkscape.org/) -->
<svg
   xmlns:dc="http://purl.org/dc/elements/1.1/"
   xmlns:cc="http://creativecommons.org/ns#"
   xmlns:rdf="http://www.w3.org/1999/02/22-rdf-syntax-ns#"
   xmlns:svg="http://www.w3.org/2000/svg"
   xmlns="http://www.w3.org/2000/svg"
   xmlns:sodipodi="http://sodipodi.sourceforge.net/DTD/sodipodi-0.dtd"
   xmlns:inkscape="http://www.inkscape.org/namespaces/inkscape"
   width="210mm"
   height="297mm"
   id="svg2696"
   sodipodi:version="0.32"
   inkscape:version="0.46"
   sodipodi:docname="stromatoliten.svg"
   inkscape:output_extension="org.inkscape.output.svg.inkscape">
  <defs
     id="defs2698">
    <inkscape:perspective
       sodipodi:type="inkscape:persp3d"
       inkscape:vp_x="0 : 526.18109 : 1"
       inkscape:vp_y="0 : 1000 : 0"
       inkscape:vp_z="744.09448 : 526.18109 : 1"
       inkscape:persp3d-origin="372.04724 : 350.78739 : 1"
       id="perspective2704" />
  </defs>
  <sodipodi:namedview
     id="base"
     pagecolor="#ffffff"
     bordercolor="#666666"
     borderopacity="1.0"
     inkscape:pageopacity="0.0"
     inkscape:pageshadow="2"
     inkscape:zoom="0.35"
     inkscape:cx="350"
     inkscape:cy="520"
     inkscape:document-units="px"
     inkscape:current-layer="layer1"
     showgrid="false"
     inkscape:window-width="640"
     inkscape:window-height="713"
     inkscape:window-x="20"
     inkscape:window-y="20" />
  <metadata
     id="metadata2701">
    <rdf:RDF>
      <cc:Work
         rdf:about="">
        <dc:format>image/svg+xml</dc:format>
        <dc:type
           rdf:resource="http://purl.org/dc/dcmitype/StillImage" />
      </cc:Work>
    </rdf:RDF>
  </metadata>
  <g
     inkscape:label="Ebene 1"
     inkscape:groupmode="layer"
     id="layer1">
    <path
       style="fill:#000000"
       d="M 2.7721221,493.45627 C 1.7967859,490.21026 0.71868422,449.6462 1.1562286,432.6579 C 3.6369811,336.33984 20.648578,257.48697 53.524798,189.91692 C 62.567397,171.33179 67.931912,161.92301 78.884054,145.43954 C 126.11291,74.357967 193.70321,29.765976 280.51036,12.418717 C 309.8208,6.561412 332.04297,4.569135 368.33434,4.5450637 C 396.04782,4.5266818 408.49643,5.2106052 429.77344,7.9205097 C 547.97158,22.974588 635.15036,86.129959 685.68146,193.30927 C 713.71517,252.77033 729.88259,321.0204 735.14722,402.12681 C 736.71311,426.25087 736.21499,491.18886 734.44355,493.86001 C 733.97661,494.56411 721.00169,493.83505 720.22788,493.06123 C 720.04449,492.87784 720.30543,483.96135 720.80774,473.24681 C 722.18689,443.82937 720.90284,402.11477 717.70195,372.34958 C 705.26574,256.70471 667.44672,165.69216 607.22906,106.4934 C 594.28165,93.765067 590.33536,90.334059 577.72247,80.839555 C 538.19592,51.0855 489.85114,31.740102 435.05042,23.748651 C 411.67335,20.339633 399.78263,19.595154 368.71127,19.595154 C 337.63991,19.595154 325.74918,20.339633 302.37212,23.748651 C 243.71802,32.30203 193.74971,53.326491 151.26925,87.326076 C 142.09182,94.671298 122.6881,113.51251 114.71159,122.82392 C 58.313964,188.65996 25.699777,281.70501 17.338722,400.61911 C 16.304125,415.3335 16.033439,462.80987 16.882376,480.6578 L 17.480213,493.22655 L 13.113107,493.68009 C 10.7112,493.92954 7.485971,494.26111 5.9459378,494.4169 C 3.8336691,494.63059 3.0540711,494.39463 2.7721221,493.45627 z M 91.788549,485.61614 C 90.493239,463.13659 91.686492,421.65371 94.298536,398.35754 C 109.92933,258.95027 174.55473,167.22939 278.58159,136.81019 C 336.38981,119.90609 413.3998,121.06558 468.21999,139.66546 C 531.27145,161.05811 578.69056,204.89703 609.00974,269.82544 C 633.30361,321.85066 646.12862,386.58442 646.12398,457.15815 C 646.12326,468.14558 645.90277,480.95167 645.63399,485.61614 L 645.14531,494.097 L 640.07775,494.097 C 637.29059,494.097 633.90512,493.87598 632.55449,493.60586 L 630.09879,493.11472 L 630.61293,485.64982 C 631.4963,472.82393 631.13077,437.14959 629.94251,420.21931 C 623.46709,327.9576 594.76293,253.47967 547.41091,206.07673 C 535.25498,193.90772 527.70647,187.62151 515.33587,179.36544 C 488.92937,161.7419 458.80601,150.07724 424.87339,144.33569 C 386.58794,137.85763 341.73646,138.42718 304.63368,145.86255 C 210.56558,164.71374 147.53939,230.34589 120.43985,337.6723 C 109.94315,379.24394 105.84811,417.36162 106.51506,467.28779 L 106.8613,493.20721 L 104.63683,493.6521 C 103.41337,493.8968 100.13195,494.097 97.344792,494.097 L 92.277227,494.097 L 91.788549,485.61614 z M 179.90972,493.15468 C 179.07002,490.43319 178.8344,467.61627 179.50308,453.77749 C 185.16594,336.57959 236.41324,263.40206 324.61081,246.57387 C 340.33846,243.57302 349.74583,242.78511 369.46512,242.81712 C 395.21372,242.85892 410.65095,244.91129 431.44084,251.05676 C 500.52404,271.47767 544.17506,332.14914 555.58809,423.61165 C 558.36981,445.90396 559.33709,469.39356 558.18794,486.74692 L 557.70121,494.097 L 552.63217,494.097 C 549.84419,494.097 546.53355,493.89108 545.27519,493.63941 L 542.98726,493.18183 L 543.3969,477.24309 C 544.23717,444.54876 540.0651,409.73128 531.89703,381.27232 C 512.70024,314.38737 471.55467,273.35428 411.92836,261.63157 C 395.70643,258.44229 388.90023,257.84143 369.0882,257.84952 C 344.17999,257.8597 330.17931,259.65159 311.10573,265.27045 C 246.67775,284.25019 206.63984,341.15346 196.51218,428.13478 C 194.46821,445.68937 193.62686,463.71772 194.15105,478.7289 L 194.65421,493.13804 L 192.25681,493.61752 C 187.99475,494.46993 180.22567,494.1787 179.90972,493.15468 z"
       id="path2694" />
  </g>
</svg>
