<?xml version="1.0" encoding="UTF-8" standalone="no"?>
<!-- Created with Inkscape (http://www.inkscape.org/) -->
<svg
   xmlns:dc="http://purl.org/dc/elements/1.1/"
   xmlns:cc="http://creativecommons.org/ns#"
   xmlns:rdf="http://www.w3.org/1999/02/22-rdf-syntax-ns#"
   xmlns:svg="http://www.w3.org/2000/svg"
   xmlns="http://www.w3.org/2000/svg"
   xmlns:sodipodi="http://sodipodi.sourceforge.net/DTD/sodipodi-0.dtd"
   xmlns:inkscape="http://www.inkscape.org/namespaces/inkscape"
   width="144.5027"
   height="143.87479"
   id="svg18233"
   sodipodi:version="0.32"
   inkscape:version="0.46"
   version="1.0"
   sodipodi:docname="unsure_rippled.svg"
   inkscape:output_extension="org.inkscape.output.svg.inkscape">
  <defs
     id="defs18235">
    <inkscape:perspective
       sodipodi:type="inkscape:persp3d"
       inkscape:vp_x="0 : 526.18109 : 1"
       inkscape:vp_y="0 : 1000 : 0"
       inkscape:vp_z="744.09448 : 526.18109 : 1"
       inkscape:persp3d-origin="372.04724 : 350.78739 : 1"
       id="perspective18241" />
  </defs>
  <sodipodi:namedview
     id="base"
     pagecolor="#ffffff"
     bordercolor="#666666"
     borderopacity="1.0"
     inkscape:pageopacity="0.0"
     inkscape:pageshadow="2"
     inkscape:zoom="5.4977248"
     inkscape:cx="85.868241"
     inkscape:cy="132.61704"
     inkscape:document-units="px"
     inkscape:current-layer="layer1"
     showgrid="true"
     units="cm"
     inkscape:window-width="1280"
     inkscape:window-height="752"
     inkscape:window-x="74"
     inkscape:window-y="24">
    <inkscape:grid
       type="xygrid"
       id="grid54313"
       visible="true"
       enabled="true" />
  </sodipodi:namedview>
  <metadata
     id="metadata18238">
    <rdf:RDF>
      <cc:Work
         rdf:about="">
        <dc:format>image/svg+xml</dc:format>
        <dc:type
           rdf:resource="http://purl.org/dc/dcmitype/StillImage" />
      </cc:Work>
    </rdf:RDF>
  </metadata>
  <g
     inkscape:label="Ebene 1"
     inkscape:groupmode="layer"
     id="layer1"
     transform="translate(43.611404,76.555805)">
    <path
       style="fill:none;fill-rule:evenodd;stroke:#000000;stroke-width:0.625;stroke-linecap:butt;stroke-linejoin:miter;stroke-miterlimit:4;stroke-dasharray:0.625,1.25;stroke-opacity:1;stroke-dashoffset:0"
       d="M -42.571328,-74.782625 C -42.571328,-74.782625 -35.561593,-73.30494 -31.293936,-73.327478 C -27.026279,-73.350015 -19.401959,-75.762648 -14.377847,-75.692092 C -9.3537345,-75.621536 -2.4807325,-72.772945 1.8106665,-72.963691 C 6.1020655,-73.154437 9.9137995,-75.93138 13.633741,-76.055879 C 17.353683,-76.180379 21.897812,-73.723387 26.002491,-73.691264 C 30.10717,-73.659141 36.552522,-76.136145 40.553966,-76.237772 C 44.55541,-76.3394 50.649048,-75.010233 52.377036,-74.782625 C 54.105024,-74.555017 59.903552,-72.640906 63.290642,-73.327478 C 63.290642,-73.327478 73.038482,-76.243374 76.750762,-76.055879 C 80.463032,-75.868385 83.693162,-73.047807 87.300572,-72.781797 C 90.907982,-72.515788 100.21501,-74.782625 100.21501,-74.782625"
       id="path54515"
       sodipodi:nodetypes="czzzzzzzzzzc" />
    <path
       style="fill:none;fill-rule:evenodd;stroke:#000000;stroke-width:0.625;stroke-linecap:butt;stroke-linejoin:miter;stroke-miterlimit:4;stroke-dasharray:0.625,1.25;stroke-opacity:1;stroke-dashoffset:0"
       d="M -42.844172,-67.870675 C -42.844172,-67.870675 -35.834442,-66.39299 -31.566782,-66.415527 C -27.299122,-66.438065 -19.674802,-68.850698 -14.650692,-68.780142 C -9.626582,-68.709586 -2.753582,-65.860995 1.537818,-66.05174 C 5.829218,-66.242486 9.640958,-69.019429 13.360898,-69.143929 C 17.080838,-69.268428 21.624968,-66.811437 25.729648,-66.779314 C 29.834328,-66.747191 36.279678,-69.224195 40.281118,-69.325822 C 44.282568,-69.42745 50.376198,-68.098283 52.104188,-67.870675 C 53.832178,-67.643067 59.630704,-65.728956 63.017794,-66.415527 C 63.017794,-66.415527 72.765634,-69.331423 76.477914,-69.143929 C 80.190184,-68.956434 83.420314,-66.135856 87.027724,-65.869847 C 90.635134,-65.603838 99.942164,-67.870675 99.942164,-67.870675"
       id="path54517"
       sodipodi:nodetypes="czzzzzzzzzzc" />
    <path
       style="fill:none;fill-rule:evenodd;stroke:#000000;stroke-width:0.625;stroke-linecap:butt;stroke-linejoin:miter;stroke-miterlimit:4;stroke-dasharray:0.625,1.25;stroke-opacity:1;stroke-dashoffset:0"
       d="M -42.298483,-62.021024 C -42.298483,-62.021024 -35.288749,-60.54334 -31.021091,-60.565877 C -26.753434,-60.588414 -19.129114,-63.001048 -14.105002,-62.930492 C -9.08089,-62.859935 -2.207888,-60.011344 2.083511,-60.20209 C 6.37491,-60.392836 10.186644,-63.169779 13.906586,-63.294278 C 17.626528,-63.418778 22.170657,-60.961787 26.275336,-60.929664 C 30.380015,-60.897541 36.825367,-63.374544 40.826811,-63.476172 C 44.828255,-63.5778 50.921893,-62.248632 52.649881,-62.021024 C 54.377869,-61.793417 60.176394,-59.879306 63.563484,-60.565877 C 63.563484,-60.565877 73.311324,-63.481773 77.023604,-63.294278 C 80.735874,-63.106784 83.966004,-60.286206 87.573414,-60.020197 C 91.180824,-59.754188 100.48785,-62.021024 100.48785,-62.021024"
       id="path54523"
       sodipodi:nodetypes="czzzzzzzzzzc" />
    <path
       style="fill:none;fill-rule:evenodd;stroke:#000000;stroke-width:0.625;stroke-linecap:butt;stroke-linejoin:miter;stroke-miterlimit:4;stroke-dasharray:0.625,1.25;stroke-opacity:1;stroke-dashoffset:0"
       d="M -42.571327,-55.109074 C -42.571327,-55.109074 -35.561598,-53.631389 -31.293937,-53.653926 C -27.026277,-53.676464 -19.401957,-56.089097 -14.377847,-56.018541 C -9.353737,-55.947985 -2.480737,-53.099394 1.810662,-53.290139 C 6.102062,-53.480885 9.913802,-56.257828 13.633742,-56.382328 C 17.353682,-56.506828 21.897813,-54.049836 26.002493,-54.017713 C 30.107173,-53.98559 36.552523,-56.462594 40.553963,-56.564222 C 44.555413,-56.665849 50.649043,-55.336682 52.377033,-55.109074 C 54.105023,-54.881466 59.903544,-52.967355 63.290634,-53.653926 C 63.290634,-53.653926 73.038474,-56.569823 76.750754,-56.382328 C 80.463024,-56.194833 83.693154,-53.374255 87.300564,-53.108246 C 90.907974,-52.842237 100.215,-55.109074 100.215,-55.109074"
       id="path54525"
       sodipodi:nodetypes="czzzzzzzzzzc" />
    <path
       style="fill:none;fill-rule:evenodd;stroke:#000000;stroke-width:0.625;stroke-linecap:butt;stroke-linejoin:miter;stroke-miterlimit:4;stroke-dasharray:0.625,1.25;stroke-opacity:1;stroke-dashoffset:0"
       d="M -42.298483,-50.016058 C -42.298483,-50.016058 -35.288748,-48.538374 -31.021091,-48.560911 C -26.753434,-48.583448 -19.129114,-50.996081 -14.105002,-50.925525 C -9.08089,-50.854969 -2.207888,-48.006378 2.083511,-48.197124 C 6.37491,-48.38787 10.186644,-51.164813 13.906586,-51.289312 C 17.626528,-51.413812 22.170657,-48.956821 26.275336,-48.924698 C 30.380015,-48.892575 36.825367,-51.369578 40.826811,-51.471206 C 44.828255,-51.572833 50.921893,-50.243666 52.649881,-50.016058 C 54.377869,-49.78845 60.176394,-47.874339 63.563484,-48.560911 C 63.563484,-48.560911 73.311324,-51.476807 77.023604,-51.289312 C 80.735874,-51.101818 83.966004,-48.28124 87.573414,-48.01523 C 91.180824,-47.749221 100.48785,-50.016058 100.48785,-50.016058"
       id="path54527"
       sodipodi:nodetypes="czzzzzzzzzzc" />
    <path
       style="fill:none;fill-rule:evenodd;stroke:#000000;stroke-width:0.625;stroke-linecap:butt;stroke-linejoin:miter;stroke-miterlimit:4;stroke-dasharray:0.625,1.25;stroke-opacity:1;stroke-dashoffset:0"
       d="M -42.571327,-43.104108 C -42.571327,-43.104108 -35.561598,-41.626423 -31.293938,-41.64896 C -27.026278,-41.671498 -19.401958,-44.084131 -14.377848,-44.013575 C -9.353738,-43.943019 -2.480738,-41.094428 1.810662,-41.285173 C 6.102062,-41.475919 9.913802,-44.252862 13.633742,-44.377362 C 17.353682,-44.501861 21.897812,-42.04487 26.002492,-42.012747 C 30.107172,-41.980624 36.552522,-44.457628 40.553962,-44.559255 C 44.555412,-44.660883 50.649042,-43.331716 52.377032,-43.104108 C 54.105022,-42.8765 59.903544,-40.962389 63.290634,-41.64896 C 63.290634,-41.64896 73.038474,-44.564856 76.750754,-44.377362 C 80.463024,-44.189867 83.693154,-41.369289 87.300564,-41.10328 C 90.907974,-40.837271 100.215,-43.104108 100.215,-43.104108"
       id="path54529"
       sodipodi:nodetypes="czzzzzzzzzzc" />
    <path
       style="fill:none;fill-rule:evenodd;stroke:#000000;stroke-width:0.625;stroke-linecap:butt;stroke-linejoin:miter;stroke-miterlimit:4;stroke-dasharray:0.625,1.25;stroke-opacity:1;stroke-dashoffset:0"
       d="M -43.02606,-39.116983 C -43.02606,-39.116983 -36.016325,-37.639298 -31.748668,-37.661836 C -27.481011,-37.684373 -19.856691,-40.097006 -14.832579,-40.02645 C -9.808467,-39.955894 -2.935465,-37.107303 1.355934,-37.298049 C 5.647333,-37.488794 9.459067,-40.265737 13.179009,-40.390237 C 16.898951,-40.514736 21.44308,-38.057745 25.547759,-38.025622 C 29.652438,-37.993499 36.09779,-40.470503 40.099234,-40.57213 C 44.100678,-40.673758 50.194316,-39.344591 51.922304,-39.116983 C 53.650292,-38.889375 59.448824,-36.975264 62.835914,-37.661836 C 62.835914,-37.661836 72.583754,-40.577731 76.296034,-40.390237 C 80.008304,-40.202742 83.238434,-37.382164 86.845844,-37.116155 C 90.453254,-36.850146 99.760284,-39.116983 99.760284,-39.116983"
       id="path54531"
       sodipodi:nodetypes="czzzzzzzzzzc" />
    <path
       style="fill:none;fill-rule:evenodd;stroke:#000000;stroke-width:0.625;stroke-linecap:butt;stroke-linejoin:miter;stroke-miterlimit:4;stroke-dasharray:0.625,1.25;stroke-opacity:1;stroke-dashoffset:0"
       d="M -43.298904,-32.205033 C -43.298904,-32.205033 -36.289175,-30.727348 -32.021515,-30.749885 C -27.753854,-30.772423 -20.129534,-33.185056 -15.105424,-33.1145 C -10.081314,-33.043944 -3.208314,-30.195353 1.083086,-30.386098 C 5.374486,-30.576844 9.186226,-33.353787 12.906166,-33.478287 C 16.626106,-33.602786 21.170236,-31.145795 25.274916,-31.113672 C 29.379596,-31.081549 35.824946,-33.558552 39.826386,-33.66018 C 43.827836,-33.761808 49.921466,-32.432641 51.649456,-32.205033 C 53.377446,-31.977425 59.175974,-30.063314 62.563064,-30.749885 C 62.563064,-30.749885 72.310904,-33.665781 76.023184,-33.478287 C 79.735454,-33.290792 82.965584,-30.470214 86.572994,-30.204205 C 90.180404,-29.938196 99.487434,-32.205033 99.487434,-32.205033"
       id="path54533"
       sodipodi:nodetypes="czzzzzzzzzzc" />
    <path
       style="fill:none;fill-rule:evenodd;stroke:#000000;stroke-width:0.625;stroke-linecap:butt;stroke-linejoin:miter;stroke-miterlimit:4;stroke-dasharray:0.625,1.25;stroke-opacity:1;stroke-dashoffset:0"
       d="M -42.753216,-26.355382 C -42.753216,-26.355382 -35.743481,-24.877698 -31.475824,-24.900235 C -27.208166,-24.922772 -19.583846,-27.335406 -14.559734,-27.26485 C -9.535622,-27.194293 -2.66262,-24.345702 1.628779,-24.536448 C 5.920178,-24.727194 9.731912,-27.504137 13.451854,-27.628636 C 17.171796,-27.753136 21.715925,-25.296145 25.820604,-25.264022 C 29.925283,-25.231899 36.370635,-27.708902 40.372079,-27.81053 C 44.373523,-27.912158 50.467161,-26.58299 52.195149,-26.355382 C 53.923137,-26.127775 59.721664,-24.213664 63.108754,-24.900235 C 63.108754,-24.900235 72.856594,-27.816131 76.568874,-27.628636 C 80.281144,-27.441142 83.511274,-24.620564 87.118684,-24.354555 C 90.726094,-24.088546 100.03312,-26.355382 100.03312,-26.355382"
       id="path54535"
       sodipodi:nodetypes="czzzzzzzzzzc" />
    <path
       style="fill:none;fill-rule:evenodd;stroke:#000000;stroke-width:0.625;stroke-linecap:butt;stroke-linejoin:miter;stroke-miterlimit:4;stroke-dasharray:0.625,1.25;stroke-opacity:1;stroke-dashoffset:0"
       d="M -43.02606,-19.443432 C -43.02606,-19.443432 -36.01633,-17.965747 -31.74867,-17.988284 C -27.481009,-18.010822 -19.856689,-20.423455 -14.832579,-20.352899 C -9.808469,-20.282343 -2.935469,-17.433752 1.35593,-17.624497 C 5.64733,-17.815243 9.45907,-20.592186 13.17901,-20.716686 C 16.89895,-20.841186 21.443081,-18.384194 25.547761,-18.352071 C 29.652441,-18.319948 36.097791,-20.796952 40.099231,-20.89858 C 44.100681,-21.000207 50.194311,-19.67104 51.922301,-19.443432 C 53.650291,-19.215824 59.448814,-17.301713 62.835904,-17.988284 C 62.835904,-17.988284 72.583744,-20.904181 76.296024,-20.716686 C 80.008294,-20.529191 83.238424,-17.708613 86.845834,-17.442604 C 90.453244,-17.176595 99.760274,-19.443432 99.760274,-19.443432"
       id="path54537"
       sodipodi:nodetypes="czzzzzzzzzzc" />
    <path
       style="fill:none;fill-rule:evenodd;stroke:#000000;stroke-width:0.625;stroke-linecap:butt;stroke-linejoin:miter;stroke-miterlimit:4;stroke-dasharray:0.625,1.25;stroke-opacity:1;stroke-dashoffset:0"
       d="M -42.753216,-14.350416 C -42.753216,-14.350416 -35.743481,-12.872732 -31.475824,-12.895269 C -27.208166,-12.917806 -19.583846,-15.330439 -14.559734,-15.259883 C -9.535622,-15.189327 -2.66262,-12.340736 1.628779,-12.531482 C 5.920178,-12.722228 9.731912,-15.499171 13.451854,-15.62367 C 17.171796,-15.74817 21.715925,-13.291179 25.820604,-13.259056 C 29.925283,-13.226933 36.370635,-15.703936 40.372079,-15.805564 C 44.373523,-15.907191 50.467161,-14.578024 52.195149,-14.350416 C 53.923137,-14.122808 59.721664,-12.208697 63.108754,-12.895269 C 63.108754,-12.895269 72.856594,-15.811165 76.568874,-15.62367 C 80.281144,-15.436176 83.511274,-12.615598 87.118684,-12.349588 C 90.726094,-12.083579 100.03312,-14.350416 100.03312,-14.350416"
       id="path54539"
       sodipodi:nodetypes="czzzzzzzzzzc" />
    <path
       style="fill:none;fill-rule:evenodd;stroke:#000000;stroke-width:0.625;stroke-linecap:butt;stroke-linejoin:miter;stroke-miterlimit:4;stroke-dasharray:0.625,1.25;stroke-opacity:1;stroke-dashoffset:0"
       d="M -43.02606,-7.4384661 C -43.02606,-7.4384661 -36.01633,-5.9607811 -31.748671,-5.9833181 C -27.48101,-6.0058561 -19.85669,-8.4184891 -14.83258,-8.3479331 C -9.80847,-8.2773771 -2.93547,-5.4287861 1.35593,-5.6195311 C 5.64733,-5.8102771 9.45907,-8.5872201 13.17901,-8.7117201 C 16.89895,-8.8362191 21.44308,-6.3792281 25.54776,-6.3471051 C 29.65244,-6.3149821 36.09779,-8.7919861 40.09923,-8.8936131 C 44.10068,-8.9952411 50.19431,-7.6660741 51.9223,-7.4384661 C 53.65029,-7.2108581 59.448814,-5.2967471 62.835904,-5.9833181 C 62.835904,-5.9833181 72.583744,-8.8992141 76.296024,-8.7117201 C 80.008294,-8.5242251 83.238424,-5.7036471 86.845834,-5.4376381 C 90.453244,-5.1716291 99.760274,-7.4384661 99.760274,-7.4384661"
       id="path54541"
       sodipodi:nodetypes="czzzzzzzzzzc" />
    <path
       style="fill:none;fill-rule:evenodd;stroke:#000000;stroke-width:0.625;stroke-linecap:butt;stroke-linejoin:miter;stroke-miterlimit:4;stroke-dasharray:0.625,1.25;stroke-opacity:1;stroke-dashoffset:0"
       d="M -42.48038,-1.2377751 C -42.48038,-1.2377751 -35.470645,0.23990491 -31.202988,0.21737491 C -26.935331,0.19483491 -19.311011,-2.2178051 -14.286899,-2.1472451 C -9.262787,-2.0766851 -2.389785,0.77190491 1.901614,0.58115491 C 6.193013,0.39041491 10.004747,-2.3865351 13.724689,-2.5110351 C 17.444631,-2.6355351 21.98876,-0.17853509 26.093439,-0.14641509 C 30.198118,-0.11429509 36.64347,-2.5912951 40.644914,-2.6929251 C 44.646358,-2.7945551 50.739996,-1.4653851 52.467984,-1.2377751 C 54.195972,-1.0101651 59.994504,0.90394491 63.381594,0.21737491 C 63.381594,0.21737491 73.129434,-2.6985251 76.841714,-2.5110351 C 80.553984,-2.3235351 83.784114,0.49704491 87.391524,0.76305491 C 90.998934,1.0290549 100.30596,-1.2377751 100.30596,-1.2377751"
       id="path54543"
       sodipodi:nodetypes="czzzzzzzzzzc" />
    <path
       style="fill:none;fill-rule:evenodd;stroke:#000000;stroke-width:0.625;stroke-linecap:butt;stroke-linejoin:miter;stroke-miterlimit:4;stroke-dasharray:0.625,1.25;stroke-opacity:1;stroke-dashoffset:0"
       d="M -42.753224,5.6741749 C -42.753224,5.6741749 -35.743494,7.1518549 -31.475834,7.1293249 C -27.208174,7.1067849 -19.583854,4.6941449 -14.559744,4.7647049 C -9.535634,4.8352649 -2.662634,7.6838549 1.628766,7.4931049 C 5.920166,7.3023649 9.731906,4.5254149 13.451846,4.4009149 C 17.171786,4.2764149 21.715916,6.7334149 25.820596,6.7655349 C 29.925276,6.7976549 36.370626,4.3206549 40.372066,4.2190249 C 44.373516,4.1173949 50.467146,5.4465649 52.195136,5.6741749 C 53.923126,5.9017849 59.721654,7.8158949 63.108744,7.1293249 C 63.108744,7.1293249 72.856584,4.2134249 76.568864,4.4009149 C 80.281134,4.5884149 83.511264,7.4089949 87.118674,7.6750049 C 90.726084,7.9410049 100.03311,5.6741749 100.03311,5.6741749"
       id="path54545"
       sodipodi:nodetypes="czzzzzzzzzzc" />
    <path
       style="fill:none;fill-rule:evenodd;stroke:#000000;stroke-width:0.625;stroke-linecap:butt;stroke-linejoin:miter;stroke-miterlimit:4;stroke-dasharray:0.625,1.25;stroke-opacity:1;stroke-dashoffset:0"
       d="M -42.207536,11.523825 C -42.207536,11.523825 -35.197801,13.001505 -30.930143,12.978975 C -26.662486,12.956435 -19.038166,10.543795 -14.014054,10.614355 C -8.989942,10.684915 -2.11694,13.533505 2.174459,13.342755 C 6.465858,13.152015 10.277592,10.375065 13.997534,10.250565 C 17.717476,10.126065 22.261605,12.583065 26.366284,12.615185 C 30.470963,12.647305 36.916315,10.170305 40.917759,10.068675 C 44.919203,9.9670449 51.012841,11.296215 52.740829,11.523825 C 54.468817,11.751435 60.267344,13.665545 63.654434,12.978975 C 63.654434,12.978975 73.402274,10.063075 77.114554,10.250565 C 80.826824,10.438065 84.056954,13.258645 87.664364,13.524655 C 91.271774,13.790655 100.5788,11.523825 100.5788,11.523825"
       id="path54547"
       sodipodi:nodetypes="czzzzzzzzzzc" />
    <path
       style="fill:none;fill-rule:evenodd;stroke:#000000;stroke-width:0.625;stroke-linecap:butt;stroke-linejoin:miter;stroke-miterlimit:4;stroke-dasharray:0.625,1.25;stroke-opacity:1;stroke-dashoffset:0"
       d="M -42.48038,18.435775 C -42.48038,18.435775 -35.47065,19.913455 -31.202989,19.890925 C -26.935329,19.868385 -19.311009,17.455755 -14.286899,17.526305 C -9.262789,17.596865 -2.389789,20.445455 1.90161,20.254705 C 6.19301,20.063965 10.00475,17.287015 13.72469,17.162515 C 17.44463,17.038015 21.988761,19.495015 26.093441,19.527135 C 30.198121,19.559255 36.643471,17.082255 40.644911,16.980625 C 44.646361,16.878995 50.739991,18.208165 52.467981,18.435775 C 54.195971,18.663385 59.994494,20.577495 63.381584,19.890925 C 63.381584,19.890925 73.129424,16.975025 76.841704,17.162515 C 80.553974,17.350015 83.784104,20.170595 87.391514,20.436605 C 90.998924,20.702615 100.30595,18.435775 100.30595,18.435775"
       id="path54549"
       sodipodi:nodetypes="czzzzzzzzzzc" />
    <path
       style="fill:none;fill-rule:evenodd;stroke:#000000;stroke-width:0.625;stroke-linecap:butt;stroke-linejoin:miter;stroke-miterlimit:4;stroke-dasharray:0.625,1.25;stroke-opacity:1;stroke-dashoffset:0"
       d="M -42.207535,23.528789 C -42.207535,23.528789 -35.1978,25.006479 -30.930143,24.983939 C -26.662486,24.961399 -19.038166,22.548769 -14.014054,22.619329 C -8.989942,22.689879 -2.11694,25.538469 2.174459,25.347729 C 6.465858,25.156979 10.277592,22.380039 13.997534,22.255539 C 17.717476,22.131039 22.261605,24.588029 26.366284,24.620149 C 30.470963,24.652279 36.916315,22.175269 40.917759,22.073649 C 44.919203,21.972019 51.012841,23.301189 52.740829,23.528789 C 54.468817,23.756399 60.267344,25.670509 63.654434,24.983939 C 63.654434,24.983939 73.402274,22.068049 77.114554,22.255539 C 80.826824,22.443029 84.056954,25.263609 87.664364,25.529619 C 91.271774,25.795629 100.5788,23.528789 100.5788,23.528789"
       id="path54551"
       sodipodi:nodetypes="czzzzzzzzzzc" />
    <path
       style="fill:none;fill-rule:evenodd;stroke:#000000;stroke-width:0.625;stroke-linecap:butt;stroke-linejoin:miter;stroke-miterlimit:4;stroke-dasharray:0.625,1.25;stroke-opacity:1;stroke-dashoffset:0"
       d="M -42.48038,30.440739 C -42.48038,30.440739 -35.47065,31.918429 -31.20299,31.895889 C -26.93533,31.873349 -19.31101,29.460719 -14.2869,29.531279 C -9.26279,29.601829 -2.38979,32.450419 1.90161,32.259679 C 6.19301,32.068929 10.00475,29.291989 13.72469,29.167489 C 17.44463,29.042989 21.98876,31.499979 26.09344,31.532109 C 30.19812,31.564229 36.64347,29.087219 40.64491,28.985599 C 44.64636,28.883969 50.73999,30.213139 52.46798,30.440739 C 54.19597,30.668349 59.994494,32.582459 63.381584,31.895889 C 63.381584,31.895889 73.129424,28.979999 76.841704,29.167489 C 80.553974,29.354989 83.784104,32.175559 87.391514,32.441569 C 90.998924,32.707579 100.30595,30.440739 100.30595,30.440739"
       id="path54553"
       sodipodi:nodetypes="czzzzzzzzzzc" />
    <path
       style="fill:none;fill-rule:evenodd;stroke:#000000;stroke-width:0.625;stroke-linecap:butt;stroke-linejoin:miter;stroke-miterlimit:4;stroke-dasharray:0.625,1.25;stroke-opacity:1;stroke-dashoffset:0"
       d="M -42.662273,33.305429 C -42.662273,33.305429 -35.652538,34.783109 -31.384881,34.760569 C -27.117224,34.738039 -19.492904,32.325399 -14.468792,32.395959 C -9.44468,32.466519 -2.571678,35.315109 1.719721,35.124359 C 6.01112,34.933609 9.822854,32.156669 13.542796,32.032169 C 17.262738,31.907669 21.806867,34.364659 25.911546,34.396789 C 30.016225,34.428909 36.461577,31.951909 40.463021,31.850279 C 44.464465,31.748649 50.558103,33.077819 52.286091,33.305429 C 54.014079,33.533029 59.812604,35.447149 63.199694,34.760569 C 63.199694,34.760569 72.947534,31.844679 76.659814,32.032169 C 80.372084,32.219669 83.602214,35.040239 87.209624,35.306249 C 90.817034,35.572259 100.12406,33.305429 100.12406,33.305429"
       id="path54555"
       sodipodi:nodetypes="czzzzzzzzzzc" />
    <path
       style="fill:none;fill-rule:evenodd;stroke:#000000;stroke-width:0.625;stroke-linecap:butt;stroke-linejoin:miter;stroke-miterlimit:4;stroke-dasharray:0.625,1.25;stroke-opacity:1;stroke-dashoffset:0"
       d="M -42.935118,40.217379 C -42.935118,40.217379 -35.925388,41.695059 -31.657728,41.672519 C -27.390068,41.649989 -19.765748,39.237349 -14.741638,39.307909 C -9.717528,39.378469 -2.844528,42.227059 1.446872,42.036309 C 5.738272,41.845569 9.550012,39.068619 13.269952,38.944119 C 16.989892,38.819619 21.534022,41.276609 25.638702,41.308739 C 29.743382,41.340859 36.188732,38.863859 40.190172,38.762229 C 44.191622,38.660599 50.285252,39.989769 52.013242,40.217379 C 53.741232,40.444979 59.539764,42.359099 62.926854,41.672519 C 62.926854,41.672519 72.674694,38.756629 76.386974,38.944119 C 80.099244,39.131619 83.329374,41.952199 86.936784,42.218199 C 90.544194,42.484209 99.851224,40.217379 99.851224,40.217379"
       id="path54557"
       sodipodi:nodetypes="czzzzzzzzzzc" />
    <path
       style="fill:none;fill-rule:evenodd;stroke:#000000;stroke-width:0.625;stroke-linecap:butt;stroke-linejoin:miter;stroke-miterlimit:4;stroke-dasharray:0.625,1.25;stroke-opacity:1;stroke-dashoffset:0"
       d="M -42.389429,46.067029 C -42.389429,46.067029 -35.379694,47.544709 -31.112037,47.522169 C -26.84438,47.499639 -19.22006,45.086999 -14.195948,45.157559 C -9.171836,45.228119 -2.298834,48.076709 1.992565,47.885959 C 6.283964,47.695219 10.095698,44.918269 13.81564,44.793769 C 17.535582,44.669269 22.079711,47.126259 26.18439,47.158389 C 30.289069,47.190509 36.734421,44.713509 40.735865,44.611879 C 44.737309,44.510249 50.830947,45.839419 52.558935,46.067029 C 54.286923,46.294629 60.085454,48.208749 63.472544,47.522169 C 63.472544,47.522169 73.220384,44.606279 76.932664,44.793769 C 80.644934,44.981269 83.875064,47.801849 87.482474,48.067849 C 91.089884,48.333859 100.39691,46.067029 100.39691,46.067029"
       id="path54559"
       sodipodi:nodetypes="czzzzzzzzzzc" />
    <path
       style="fill:none;fill-rule:evenodd;stroke:#000000;stroke-width:0.625;stroke-linecap:butt;stroke-linejoin:miter;stroke-miterlimit:4;stroke-dasharray:0.625,1.25;stroke-opacity:1;stroke-dashoffset:0"
       d="M -42.662273,52.978979 C -42.662273,52.978979 -35.652543,54.456669 -31.384883,54.434129 C -27.117223,54.411589 -19.492903,51.998949 -14.468793,52.069509 C -9.444683,52.140069 -2.571683,54.988659 1.719716,54.797919 C 6.011116,54.607169 9.822856,51.830219 13.542796,51.705719 C 17.262736,51.581219 21.806867,54.038219 25.911547,54.070339 C 30.016227,54.102459 36.461577,51.625459 40.463017,51.523829 C 44.464467,51.422199 50.558097,52.751369 52.286087,52.978979 C 54.014077,53.206589 59.812604,55.120699 63.199694,54.434129 C 63.199694,54.434129 72.947534,51.518229 76.659814,51.705719 C 80.372084,51.893219 83.602214,54.713799 87.209624,54.979809 C 90.817034,55.245819 100.12406,52.978979 100.12406,52.978979"
       id="path54561"
       sodipodi:nodetypes="czzzzzzzzzzc" />
    <path
       style="fill:none;fill-rule:evenodd;stroke:#000000;stroke-width:0.625;stroke-linecap:butt;stroke-linejoin:miter;stroke-miterlimit:4;stroke-dasharray:0.625,1.25;stroke-opacity:1;stroke-dashoffset:0"
       d="M -42.389429,58.071999 C -42.389429,58.071999 -35.379694,59.549679 -31.112037,59.527139 C -26.84438,59.504609 -19.22006,57.091969 -14.195948,57.162529 C -9.171836,57.233089 -2.298834,60.081679 1.992565,59.890929 C 6.283964,59.700189 10.095698,56.923239 13.81564,56.798739 C 17.535582,56.674239 22.079711,59.131229 26.18439,59.163359 C 30.289069,59.195479 36.734421,56.718479 40.735865,56.616849 C 44.737309,56.515219 50.830947,57.844389 52.558935,58.071999 C 54.286923,58.299609 60.085454,60.213719 63.472544,59.527139 C 63.472544,59.527139 73.220384,56.611249 76.932664,56.798739 C 80.644934,56.986239 83.875064,59.806819 87.482474,60.072829 C 91.089884,60.338829 100.39691,58.071999 100.39691,58.071999"
       id="path54563"
       sodipodi:nodetypes="czzzzzzzzzzc" />
    <path
       style="fill:none;fill-rule:evenodd;stroke:#000000;stroke-width:0.625;stroke-linecap:butt;stroke-linejoin:miter;stroke-miterlimit:4;stroke-dasharray:0.625,1.25;stroke-opacity:1;stroke-dashoffset:0"
       d="M -42.662273,64.983949 C -42.662273,64.983949 -35.652543,66.461629 -31.384884,66.439099 C -27.117224,66.416559 -19.492904,64.003919 -14.468794,64.074479 C -9.444684,64.145039 -2.571684,66.993629 1.719716,66.802879 C 6.011116,66.612139 9.822856,63.835189 13.542796,63.710689 C 17.262736,63.586189 21.806866,66.043189 25.911546,66.075309 C 30.016226,66.107429 36.461576,63.630429 40.463016,63.528799 C 44.464466,63.427169 50.558096,64.756339 52.286086,64.983949 C 54.014076,65.211559 59.812604,67.125669 63.199694,66.439099 C 63.199694,66.439099 72.947534,63.523199 76.659814,63.710689 C 80.372084,63.898189 83.602214,66.718769 87.209624,66.984779 C 90.817034,67.250779 100.12406,64.983949 100.12406,64.983949"
       id="path54565"
       sodipodi:nodetypes="czzzzzzzzzzc" />
  </g>
</svg>
