<?xml version="1.0" encoding="UTF-8" standalone="no"?>
<!-- Created with Inkscape (http://www.inkscape.org/) -->
<svg
   xmlns:dc="http://purl.org/dc/elements/1.1/"
   xmlns:cc="http://creativecommons.org/ns#"
   xmlns:rdf="http://www.w3.org/1999/02/22-rdf-syntax-ns#"
   xmlns:svg="http://www.w3.org/2000/svg"
   xmlns="http://www.w3.org/2000/svg"
   xmlns:sodipodi="http://sodipodi.sourceforge.net/DTD/sodipodi-0.dtd"
   xmlns:inkscape="http://www.inkscape.org/namespaces/inkscape"
   width="982.57556"
   height="862.88354"
   id="svg7388"
   sodipodi:version="0.32"
   inkscape:version="0.46"
   version="1.0"
   sodipodi:docname="akritarchen.svg"
   inkscape:output_extension="org.inkscape.output.svg.inkscape">
  <defs
     id="defs7390">
    <inkscape:perspective
       sodipodi:type="inkscape:persp3d"
       inkscape:vp_x="0 : 526.18109 : 1"
       inkscape:vp_y="0 : 1000 : 0"
       inkscape:vp_z="744.09448 : 526.18109 : 1"
       inkscape:persp3d-origin="372.04724 : 350.78739 : 1"
       id="perspective7396" />
  </defs>
  <sodipodi:namedview
     id="base"
     pagecolor="#ffffff"
     bordercolor="#666666"
     borderopacity="1.0"
     inkscape:pageopacity="0.0"
     inkscape:pageshadow="2"
     inkscape:zoom="0.35"
     inkscape:cx="350"
     inkscape:cy="520"
     inkscape:document-units="px"
     inkscape:current-layer="layer1"
     showgrid="false"
     inkscape:window-width="640"
     inkscape:window-height="713"
     inkscape:window-x="200"
     inkscape:window-y="202" />
  <metadata
     id="metadata7393">
    <rdf:RDF>
      <cc:Work
         rdf:about="">
        <dc:format>image/svg+xml</dc:format>
        <dc:type
           rdf:resource="http://purl.org/dc/dcmitype/StillImage" />
      </cc:Work>
    </rdf:RDF>
  </metadata>
  <g
     inkscape:label="Ebene 1"
     inkscape:groupmode="layer"
     id="layer1"
     transform="translate(141.28778,-100.9204)">
    <path
       style="fill:#000000"
       d="M -89.976156,963.14678 C -107.3573,961.13187 -117.92471,958.47372 -128.97616,953.33666 C -141.31493,947.60121 -143.85566,942.17804 -138.9252,932.10054 C -133.73133,921.48466 -114.67622,903.24537 -30.976156,828.7732 C 71.893284,737.24508 125.67705,684.0412 166.12799,633.79422 C 197.83491,594.4088 216.51079,554.96467 236.01098,486.1988 C 255.84984,416.23865 268.16958,353.48488 293.51364,193.29422 C 305.20768,119.38045 309.00998,105.22772 318.10534,101.7602 C 323.36722,99.754151 328.88463,101.37709 333.37903,106.25295 C 349.64101,123.89511 370.26338,200.9659 381.15255,284.79422 C 383.34851,301.6994 383.81605,309.23976 383.81877,327.79422 C 383.82247,353.02812 383.21901,361.12429 376.99866,419.29422 C 370.62988,478.85224 370.16945,484.97952 370.19818,509.79422 C 370.25509,558.96422 377.77221,577.46707 405.12608,595.76674 C 424.74539,608.89201 450.27246,619.78846 507.02384,639.26266 C 591.80222,668.35432 614.62468,677.37476 643.96451,693.38766 C 672.15222,708.77176 687.62487,720.67065 714.5778,747.6912 C 733.13947,766.29945 745.29761,780.04125 761.11864,800.29422 C 798.90997,848.67203 837.76617,913.52426 841.03342,933.67451 C 841.59709,937.15087 841.28146,939.04163 839.50392,942.83676 C 837.31051,947.51977 837.15823,947.62684 832.14401,948.01161 C 822.41505,948.75817 814.33211,943.7271 726.02384,881.95913 C 620.71774,808.30188 585.6833,786.11574 553.71717,772.84309 C 500.01941,750.54725 437.48691,738.61647 366.52384,737.12787 C 294.38238,735.61454 245.14033,745.06073 197.02384,769.64338 C 154.13934,791.553 118.1458,823.46219 58.258264,892.66258 C 30.055014,925.2516 18.043024,935.5422 -4.9761563,946.83516 C -30.433136,959.32408 -65.274952,966.01027 -89.976156,963.14678 z M -66.626365,941.77251 C -40.088366,939.42355 -18.594286,932.01079 2.4378737,917.95402 C 13.150834,910.79404 23.209224,900.84115 42.518034,878.29422 C 60.332724,857.49197 87.200944,828.34381 100.68818,815.18794 C 160.2666,757.07334 217.20583,728.6168 293.73787,718.70742 C 317.21475,715.66764 372.75751,714.91359 401.52384,717.24413 C 451.24268,721.27216 494.07492,729.54974 533.49483,742.74829 C 584.2108,759.72898 612.57439,776.56111 736.02384,862.93742 C 797.15524,905.71043 809.52384,914.16292 809.52384,913.16611 C 809.52384,910.90342 790.05491,878.50851 776.24604,857.79422 C 751.6225,820.85717 726.64677,789.84256 700.07168,763.20172 C 673.25094,736.31461 657.00527,724.12778 628.09335,709.20656 C 599.77016,694.58918 581.21567,687.29586 510.02384,662.7963 C 455.56414,644.05485 435.4582,636.28526 416.02384,626.47167 C 386.61431,611.62101 369.57723,597.08273 361.14153,579.63886 C 353.30115,563.42603 349.89705,546.85338 348.85277,519.8117 C 348.05591,499.17699 349.63744,475.58336 355.52364,420.29422 C 362.098,358.54118 362.84901,347.50028 362.25009,321.40589 C 361.58433,292.39903 357.01695,258.45825 347.90347,214.79422 C 342.01141,186.56449 332.2613,151.20731 327.22143,139.79422 L 325.23429,135.29422 L 323.93233,141.29422 C 322.62173,147.33408 318.2651,173.66308 303.4969,264.79422 C 273.52084,449.76958 245.24599,552.20682 207.4855,612.6348 C 175.58873,663.67909 108.44728,733.32865 -12.476156,840.81325 C -82.15727,902.75035 -116.77493,934.82878 -115.40839,936.19532 C -114.1081,937.49561 -97.009697,941.10782 -89.058604,941.76198 C -84.063257,942.17296 -79.526156,942.56949 -78.976156,942.64316 C -78.426156,942.71684 -72.86875,942.32504 -66.626365,941.77251 z"
       id="path7386" />
  </g>
</svg>
