<?xml version="1.0" encoding="UTF-8" standalone="no"?>
<!-- Created with Inkscape (http://www.inkscape.org/) -->
<svg
   xmlns:dc="http://purl.org/dc/elements/1.1/"
   xmlns:cc="http://creativecommons.org/ns#"
   xmlns:rdf="http://www.w3.org/1999/02/22-rdf-syntax-ns#"
   xmlns:svg="http://www.w3.org/2000/svg"
   xmlns="http://www.w3.org/2000/svg"
   xmlns:sodipodi="http://sodipodi.sourceforge.net/DTD/sodipodi-0.dtd"
   xmlns:inkscape="http://www.inkscape.org/namespaces/inkscape"
   width="977.07196"
   height="1087.0924"
   id="svg6187"
   sodipodi:version="0.32"
   inkscape:version="0.46"
   version="1.0"
   sodipodi:docname="bryozoa.svg"
   inkscape:output_extension="org.inkscape.output.svg.inkscape">
  <defs
     id="defs6189">
    <inkscape:perspective
       sodipodi:type="inkscape:persp3d"
       inkscape:vp_x="0 : 526.18109 : 1"
       inkscape:vp_y="0 : 1000 : 0"
       inkscape:vp_z="744.09448 : 526.18109 : 1"
       inkscape:persp3d-origin="372.04724 : 350.78739 : 1"
       id="perspective6195" />
  </defs>
  <sodipodi:namedview
     id="base"
     pagecolor="#ffffff"
     bordercolor="#666666"
     borderopacity="1.0"
     inkscape:pageopacity="0.0"
     inkscape:pageshadow="2"
     inkscape:zoom="0.35"
     inkscape:cx="350"
     inkscape:cy="520"
     inkscape:document-units="px"
     inkscape:current-layer="layer1"
     showgrid="false"
     inkscape:window-width="640"
     inkscape:window-height="713"
     inkscape:window-x="60"
     inkscape:window-y="62" />
  <metadata
     id="metadata6192">
    <rdf:RDF>
      <cc:Work
         rdf:about="">
        <dc:format>image/svg+xml</dc:format>
        <dc:type
           rdf:resource="http://purl.org/dc/dcmitype/StillImage" />
      </cc:Work>
    </rdf:RDF>
  </metadata>
  <g
     inkscape:label="Ebene 1"
     inkscape:groupmode="layer"
     id="layer1"
     transform="translate(138.53598,11.184046)">
    <path
       style="fill:#000000"
       d="M 362.55686,1067.6872 C 328.18186,1063.296 299.92197,1059.5769 299.75711,1059.4227 C 299.06555,1058.7757 309.63333,824.91436 312.74938,771.90841 C 316.66142,705.36206 315.55157,654.3295 308.97614,598.40841 C 301.40721,534.03803 290.44596,490.66608 272.58353,454.40841 C 242.2125,392.76048 180.96588,324.67801 97.049853,259.2831 C 72.877593,240.4459 48.247503,223.51517 -11.443137,184.70501 C -44.168137,163.42759 -86.018137,136.19507 -104.44314,124.1883 L -137.94314,102.35781 L -138.23956,96.749782 L -138.53598,91.141742 L -89.315672,39.978849 L -40.095362,-11.184046 L -35.329417,-10.887817 C -30.679967,-10.598829 -29.224667,-9.5160604 24.206913,33.408412 C 79.941613,78.183108 174.68507,154.87696 200.05686,175.75713 C 232.71846,202.63659 247.25862,215.47408 267.55686,235.35278 C 291.37383,258.67749 302.39618,267.55626 316.55686,274.82344 C 334.54787,284.05633 352.25594,288.09582 375.05686,288.1682 C 389.61947,288.21444 394.79336,287.37801 410.66347,282.4119 C 445.06243,271.6477 492.61308,239.88829 533.55686,200.33056 C 539.61338,194.47907 573.53467,169.18703 651.55686,112.34864 C 711.78186,68.475332 762.4493,31.528137 764.15116,30.243767 L 767.24546,27.908548 L 802.90116,78.306918 C 838.03064,127.96149 838.55654,128.77689 838.53551,133.55685 C 838.51543,138.11827 838.26127,138.58538 834.28551,141.36769 C 825.10649,147.79132 787.23848,175.89572 773.05686,186.80959 C 716.35591,230.44541 675.43634,265.64506 648.88056,293.62796 C 640.27525,302.69572 625.95004,316.00173 612.42772,327.48726 C 569.93874,363.57638 557.95835,374.32663 538.50658,393.81816 C 507.19346,425.19529 490.54005,447.59797 478.94739,473.93899 C 468.8972,496.77521 458.22596,548.33279 448.42461,621.40841 C 444.69429,649.22042 444.22876,654.97937 443.89781,677.40841 C 443.41571,710.0803 440.54736,1037.4247 440.55272,1059.1584 L 440.55686,1075.9084 L 432.80686,1075.7899 C 428.54436,1075.7247 396.93186,1072.0785 362.55686,1067.6872 z M 416.91834,1043.6584 C 417.211,1039.6709 418.14686,950.45841 418.99803,845.40841 L 420.5456,654.40841 L 424.08701,626.90841 C 431.71758,567.65511 437.68255,533.45778 446.61558,497.75159 C 451.37165,478.74114 454.23911,470.61068 461.02022,456.90841 C 482.22478,414.06132 512.55017,380.9562 591.55686,314.40634 C 605.0732,303.0211 620.84452,288.51174 631.05686,278.06698 C 669.95747,238.28104 720.39934,195.9758 791.82398,143.23274 C 801.63734,135.98612 809.68573,129.76752 809.70927,129.41361 C 809.73281,129.05971 799.07813,113.69923 786.0322,95.279212 C 769.32999,71.696766 761.8847,61.952365 760.86696,62.342909 C 757.12444,63.77905 553.43979,213.38476 549.05686,217.91674 C 538.29504,229.04453 510.07085,252.58894 492.05686,265.46571 C 460.93199,287.71441 430.08017,302.78906 402.55686,309.19673 C 389.90167,312.14297 361.366,312.30788 346.05686,309.52325 C 327.55469,306.15784 309.56944,299.11629 294.05686,289.16432 C 282.63701,281.838 274.14535,274.55621 253.55686,254.43463 C 231.37046,232.75137 225.7079,227.68771 197.40318,204.22007 C 162.47694,175.26248 23.837083,63.101757 -33.073057,17.763016 C -33.836707,17.154633 -46.073359,29.163765 -70.823054,54.811124 C -90.9641,75.68268 -107.418,93.130432 -107.38728,93.583912 C -107.35655,94.037382 -91.944054,104.37356 -73.137277,116.55318 C 60.545123,203.12843 80.947833,216.83165 110.77171,240.07322 C 142.56068,264.84618 165.01929,284.44095 191.92956,310.88213 C 247.09213,365.08311 283.63778,416.02147 303.87038,466.90841 C 324.17414,517.97433 337.00432,600.88028 338.22617,688.90841 C 338.67253,721.06631 338.3806,733.03261 336.1769,772.90841 C 332.74998,834.91826 323.58269,1038.0105 324.17597,1038.7773 C 324.33295,1038.9802 344.84536,1041.7426 369.75912,1044.9158 C 394.67288,1048.0891 415.35597,1050.7356 415.72154,1050.7969 C 416.08711,1050.8582 416.62567,1047.6459 416.91834,1043.6584 z"
       id="path6185" />
  </g>
</svg>
