<?xml version="1.0" encoding="UTF-8" standalone="no"?>
<!-- Created with Inkscape (http://www.inkscape.org/) -->
<svg
   xmlns:dc="http://purl.org/dc/elements/1.1/"
   xmlns:cc="http://creativecommons.org/ns#"
   xmlns:rdf="http://www.w3.org/1999/02/22-rdf-syntax-ns#"
   xmlns:svg="http://www.w3.org/2000/svg"
   xmlns="http://www.w3.org/2000/svg"
   xmlns:sodipodi="http://sodipodi.sourceforge.net/DTD/sodipodi-0.dtd"
   xmlns:inkscape="http://www.inkscape.org/namespaces/inkscape"
   width="986.37347"
   height="939.93842"
   id="svg5325"
   sodipodi:version="0.32"
   inkscape:version="0.46"
   version="1.0"
   sodipodi:docname="echinodermen.svg"
   inkscape:output_extension="org.inkscape.output.svg.inkscape">
  <defs
     id="defs5327">
    <inkscape:perspective
       sodipodi:type="inkscape:persp3d"
       inkscape:vp_x="0 : 526.18109 : 1"
       inkscape:vp_y="0 : 1000 : 0"
       inkscape:vp_z="744.09448 : 526.18109 : 1"
       inkscape:persp3d-origin="372.04724 : 350.78739 : 1"
       id="perspective5333" />
  </defs>
  <sodipodi:namedview
     id="base"
     pagecolor="#ffffff"
     bordercolor="#666666"
     borderopacity="1.0"
     inkscape:pageopacity="0.0"
     inkscape:pageshadow="2"
     inkscape:zoom="0.35"
     inkscape:cx="350"
     inkscape:cy="520"
     inkscape:document-units="px"
     inkscape:current-layer="layer1"
     showgrid="false"
     inkscape:window-width="640"
     inkscape:window-height="713"
     inkscape:window-x="260"
     inkscape:window-y="262" />
  <metadata
     id="metadata5330">
    <rdf:RDF>
      <cc:Work
         rdf:about="">
        <dc:format>image/svg+xml</dc:format>
        <dc:type
           rdf:resource="http://purl.org/dc/dcmitype/StillImage" />
      </cc:Work>
    </rdf:RDF>
  </metadata>
  <g
     inkscape:label="Ebene 1"
     inkscape:groupmode="layer"
     id="layer1"
     transform="translate(143.18672,-62.392973)">
    <path
       style="fill:#000000"
       d="M 47.843147,996.84038 C 43.804657,993.82033 40.116647,990.96699 39.647557,990.49962 C 39.177937,990.03172 46.183377,977.81024 55.237027,963.30274 C 133.56645,837.78819 184.96694,733.40384 198.48993,672.38412 C 200.69677,662.42617 201.61225,640.76729 200.11002,634.05465 C 195.54932,613.67527 158.16295,582.22229 94.000447,544.78516 C 40.088737,513.3291 -38.336453,474.78557 -119.49955,439.85658 C -139.10871,431.41768 -143.44027,429.20126 -143.17553,427.74184 C -142.99732,426.75943 -141.70816,422.24752 -140.31072,417.71539 C -138.0401,410.35138 -137.54288,409.52732 -135.63474,409.96574 C -95.734802,419.13323 18.554677,439.69387 69.500447,446.86951 C 157.36656,459.24531 217.18529,461.74969 245.4657,454.23648 C 252.39201,452.39638 254.06651,451.48481 258.30362,447.24769 C 272.9457,432.60561 289.83274,378.78818 305.93351,295.45563 C 316.06605,243.01278 329.62346,151.18609 337.30728,82.955637 L 339.5596,62.955637 L 350.03359,62.674305 L 360.50758,62.392973 L 363.32687,87.174305 C 371.33261,157.54413 383.97891,242.83141 394.65542,298.45563 C 409.63024,376.47382 426.08207,429.93001 439.96762,445.6865 C 443.3374,449.51032 445.35304,450.79304 450.48054,452.37676 C 460.93992,455.60734 472.30322,456.66562 496.00045,456.61611 C 543.6501,456.51654 600.10186,450.5019 694.00045,435.52024 C 735.26511,428.9364 817.87373,414.02785 835.68884,409.94944 C 837.66756,409.49645 838.11565,410.23925 840.36563,417.70204 C 841.73424,422.24151 842.99947,426.75542 843.17724,427.73293 C 843.4421,429.18939 838.26537,431.73965 814.50045,441.86021 C 727.89011,478.74421 653.94744,514.56896 599.00045,546.26856 C 577.40527,558.7271 554.30736,573.60407 540.00045,584.26948 C 525.97489,594.72515 509.5866,610.96435 505.50045,618.45563 C 502.80091,623.40479 502.50962,624.80693 502.59204,632.45563 C 502.86123,657.43692 521.13503,708.78849 558.2836,788.95563 C 577.85863,831.19883 621.24931,916.07888 650.81078,969.95563 C 656.84634,980.95563 661.59369,990.2735 661.36044,990.662 C 661.12719,991.0505 657.36025,993.83176 652.98947,996.84256 L 645.04259,1002.3168 L 628.77152,983.64259 C 504.315,840.80487 401.9803,749.07188 356.81648,739.86167 C 350.15504,738.5032 348.62671,738.50688 341.95789,739.89737 C 333.0185,741.76128 316.36124,749.71552 303.00045,758.50048 C 271.87234,778.96776 240.73118,805.79124 191.66017,854.40361 C 149.95289,895.72106 111.85985,936.63984 70.843147,984.1828 L 55.185837,1002.3314 L 47.843147,996.84038 z M 595.72724,911.25732 C 588.87466,898.93048 547.01314,814.62652 537.9771,794.95563 C 502.50583,717.73692 485.53481,670.78566 481.87368,639.74245 C 479.48623,619.49891 484.98535,606.38766 503.59161,587.96166 C 525.23731,566.52566 561.08501,542.58548 617.25087,512.05656 C 640.04497,499.66684 696.28879,471.73122 724.23366,458.91952 C 736.18692,453.43938 745.54414,448.8122 745.02748,448.6369 C 744.51082,448.46161 740.35588,449.00649 735.79427,449.84776 C 722.70638,452.26149 660.32896,462.09332 640.50045,464.86782 C 578.90281,473.48686 533.34856,477.4472 496.00045,477.43016 C 451.19769,477.40973 434.93135,473.08584 422.73797,457.95563 C 404.41719,435.22223 385.90923,371.39546 368.07828,269.45563 C 364.32286,247.98585 354.80051,185.90039 352.40362,167.25724 C 351.43498,159.72313 350.33227,153.75056 349.95315,153.98487 C 349.57403,154.21917 348.95769,157.23345 348.58349,160.68326 C 348.20929,164.13306 345.65728,182.03063 342.91235,200.45563 C 321.26712,345.74649 299.4611,430.09856 276.00775,459.26224 C 265.10841,472.8153 247.48091,478.11768 209.82417,479.17036 C 163.43932,480.46702 94.054377,473.07153 -3.999553,456.37967 C -23.524553,453.05589 -41.074553,450.09918 -42.999553,449.8092 C -45.206578,449.47673 -41.512363,451.61374 -32.999553,455.59396 C -8.827903,466.89557 49.046007,495.89486 68.500447,506.45328 C 160.43613,556.34915 208.49146,594.07895 219.4334,624.95563 C 221.77422,631.56109 222.66154,652.41553 221.07803,663.60862 C 214.6289,709.19452 184.1211,781.57412 131.99585,874.95563 C 127.69773,882.65563 122.94012,891.20563 121.42338,893.95563 C 118.98484,898.37694 120.03234,897.50891 130.47397,886.45563 C 151.27493,864.4362 203.98143,812.37166 220.50045,797.52566 C 285.68865,738.93964 327.16939,714.71359 356.00045,718.38942 C 388.56629,722.54142 436.25934,756.13504 511.00045,827.567 C 529.19225,844.95336 574.35128,891.5231 591.08258,910.1508 C 595.13105,914.65815 598.6205,918.16891 598.83692,917.9525 C 599.05333,917.73608 597.65398,914.72325 595.72724,911.25732 z M 240.37155,738.3072 C 236.04244,734.99531 232.41197,731.98634 232.30383,731.6206 C 232.19569,731.25487 254.52354,701.48063 281.92128,665.45563 C 309.31902,629.43063 331.4575,599.65836 331.1179,599.29503 C 330.7783,598.9317 293.03795,584.34147 247.25045,566.8723 C 201.46295,549.40313 163.99563,534.6254 163.98975,534.0329 C 163.97436,532.48408 170.40321,515.47336 171.00045,515.48259 C 171.27545,515.48684 208.96063,529.8165 254.7453,547.32626 L 337.99014,579.1622 L 338.2453,486.55892 L 338.50045,393.95563 L 348.75045,393.67065 L 359.00045,393.38566 L 359.00045,486.03722 L 359.00045,578.68878 L 361.25045,578.22684 C 362.48795,577.97278 402.15235,563.05972 449.39356,545.08671 C 496.63477,527.1137 535.48094,512.60278 535.71838,512.84022 C 536.38652,513.50837 543.12464,531.67523 542.79347,531.91562 C 542.63231,532.03261 503.00023,547.12632 454.72219,565.45721 C 406.44415,583.78809 367.06915,599.13647 367.22219,599.5647 C 367.45306,600.2107 418.89738,661.41202 462.27033,712.63981 L 473.04022,725.36012 L 465.49363,731.65788 C 461.34301,735.12164 457.54583,737.95563 457.05544,737.95563 C 456.56506,737.95563 432.45634,709.83063 403.48051,675.45563 C 374.50468,641.08063 350.44802,612.58323 350.02127,612.12808 C 349.59452,611.67293 328.17156,639.12293 302.41469,673.12808 C 276.65783,707.13323 253.93222,737.0646 251.91334,739.64223 L 248.24265,744.32882 L 240.37155,738.3072 z"
       id="path5312" />
  </g>
</svg>
