<?xml version="1.0" encoding="UTF-8" standalone="no"?>
<!-- Created with Inkscape (http://www.inkscape.org/) -->
<svg
   xmlns:dc="http://purl.org/dc/elements/1.1/"
   xmlns:cc="http://creativecommons.org/ns#"
   xmlns:rdf="http://www.w3.org/1999/02/22-rdf-syntax-ns#"
   xmlns:svg="http://www.w3.org/2000/svg"
   xmlns="http://www.w3.org/2000/svg"
   xmlns:sodipodi="http://sodipodi.sourceforge.net/DTD/sodipodi-0.dtd"
   xmlns:inkscape="http://www.inkscape.org/namespaces/inkscape"
   width="210mm"
   height="297mm"
   id="svg2878"
   sodipodi:version="0.32"
   inkscape:version="0.46"
   sodipodi:docname="foraminiferen.svg"
   inkscape:output_extension="org.inkscape.output.svg.inkscape">
  <defs
     id="defs2880">
    <inkscape:perspective
       sodipodi:type="inkscape:persp3d"
       inkscape:vp_x="0 : 526.18109 : 1"
       inkscape:vp_y="0 : 1000 : 0"
       inkscape:vp_z="744.09448 : 526.18109 : 1"
       inkscape:persp3d-origin="372.04724 : 350.78739 : 1"
       id="perspective2886" />
  </defs>
  <sodipodi:namedview
     id="base"
     pagecolor="#ffffff"
     bordercolor="#666666"
     borderopacity="1.0"
     inkscape:pageopacity="0.0"
     inkscape:pageshadow="2"
     inkscape:zoom="0.35"
     inkscape:cx="350"
     inkscape:cy="520"
     inkscape:document-units="px"
     inkscape:current-layer="layer1"
     showgrid="false"
     inkscape:window-width="640"
     inkscape:window-height="713"
     inkscape:window-x="20"
     inkscape:window-y="20" />
  <metadata
     id="metadata2883">
    <rdf:RDF>
      <cc:Work
         rdf:about="">
        <dc:format>image/svg+xml</dc:format>
        <dc:type
           rdf:resource="http://purl.org/dc/dcmitype/StillImage" />
      </cc:Work>
    </rdf:RDF>
  </metadata>
  <g
     inkscape:label="Ebene 1"
     inkscape:groupmode="layer"
     id="layer1">
    <path
       style="fill:#000000"
       d="M 131.84176,291.29829 C 104.91323,289.0063 78.828679,278.95126 56.975888,262.43909 C 49.169439,256.54046 35.526832,242.87929 29.784183,235.21038 C 10.119629,208.94972 0.67868301,180.66025 0.65013014,147.91114 C 0.62575408,119.9513 7.481612,95.563866 22.063671,71.739601 C 32.529187,54.640963 50.986648,36.182531 68.081541,25.719303 C 92.027956,11.062475 115.82275,4.3565987 143.88304,4.3568245 C 172.33208,4.3570578 194.74734,10.531651 219.141,25.087678 C 237.28785,35.916141 255.50249,53.897821 266.57641,71.916392 C 270.52792,78.345964 276.64849,90.5924 278.75468,96.283468 C 279.61266,98.601804 280.62019,101.32257 280.99361,102.32962 C 281.62764,104.03947 281.92146,103.74657 285.43431,97.902801 C 300.2529,73.251448 323.15635,56.924826 351.04288,51.134003 C 360.20103,49.232252 376.47689,48.886014 385.83741,50.393815 C 414.91149,55.077097 440.44721,72.426336 455.47108,97.703661 L 458.73021,103.18707 L 461.13014,96.951081 C 468.63588,77.448016 478.20685,62.517334 493.00384,47.228189 C 514.46291,25.0554 541.89646,10.960418 574.01466,5.6059562 C 584.16501,3.9137808 606.50971,3.9100405 617.25567,5.5987164 C 663.98694,12.942314 703.6727,41.927875 724.7583,84.116166 C 734.94555,104.49894 739.34993,123.75496 739.34993,147.91114 C 739.34993,167.13768 737.18205,180.05983 731.14329,196.82882 C 724.1133,216.35035 712.57245,234.39338 697.43092,249.53491 C 675.48063,271.48519 648.1121,285.37462 617.25567,290.22357 C 606.50971,291.91224 584.16501,291.9085 574.01466,290.21632 C 542.0072,284.88033 516.45802,271.87693 494.14968,249.5686 C 478.81085,234.22976 468.87203,218.96463 461.11981,198.83771 L 458.70501,192.56823 L 455.44796,198.08513 C 441.30401,222.04267 417.59415,238.87337 389.77616,244.70295 C 378.94829,246.97205 361.87075,246.97205 351.04288,244.70295 C 323.09418,238.84598 300.24695,222.56094 285.45432,197.95276 L 281.71257,191.72822 L 280.64876,194.27852 C 280.06366,195.68119 279.14343,198.18346 278.60379,199.83914 C 277.24433,204.01017 270.46121,217.58238 266.57572,223.90589 C 258.52943,237.00096 243.91025,253.06214 231.55857,262.37706 C 212.30067,276.90024 189.25853,286.64544 166.05549,290.08025 C 156.3446,291.51779 140.88636,292.06811 131.84176,291.29829 z M 165.34488,273.70236 C 193.91724,268.4582 217.07042,256.12701 236.45034,235.83218 C 270.39496,200.28506 280.83327,150.18152 263.98885,103.64811 C 252.7931,72.719357 227.72244,45.71901 197.63684,32.188997 C 180.5355,24.498228 167.45206,21.393927 148.7748,20.595515 C 103.1267,18.644166 59.978696,41.785886 35.411793,81.395891 C 27.044288,94.887094 20.850144,111.69783 18.113109,128.34407 C 16.817378,136.22449 16.806699,159.77032 18.095521,167.10192 C 23.34496,196.9638 35.538949,220.24047 56.338287,240.10215 C 75.923819,258.80476 100.12918,270.59477 126.5737,274.31263 C 136.14837,275.65874 156.42459,275.33959 165.34488,273.70236 z M 616.87938,273.70265 C 643.40519,268.82458 665.2735,257.73769 684.40649,239.46746 C 728.30517,197.54829 735.98098,128.7455 702.42898,77.921231 C 685.28996,51.959188 657.4222,31.99733 627.8051,24.467658 C 607.39984,19.279945 583.9071,19.182991 564.19879,24.205158 C 524.03639,34.439527 490.60143,64.490022 476.18816,103.30689 C 465.55652,131.93929 465.51788,163.00246 476.07761,192.17417 C 479.51977,201.68329 483.22654,208.86855 489.73795,218.65363 C 510.09309,249.24247 541.66365,269.10299 578.21066,274.31037 C 587.68272,275.65999 607.9695,275.34116 616.87938,273.70265 z M 383.42159,229.19627 C 396.52082,226.91196 405.27458,223.43829 416.30367,216.14801 C 433.08365,205.05636 445.43206,187.4014 450.57131,167.15434 C 452.49536,159.57421 452.26807,135.38173 450.19658,127.26851 C 445.29324,108.06403 432.54641,90.32552 415.68298,79.239366 C 407.57378,73.908307 400.22619,70.668452 390.03211,67.928839 C 383.66664,66.218147 381.38015,65.99252 370.40952,65.99252 C 359.4389,65.99252 357.1524,66.218147 350.78693,67.928839 C 340.65412,70.651985 333.24688,73.905754 325.37589,79.091101 C 308.71518,90.067039 296.33859,107.13427 290.96537,126.54297 C 288.29614,136.18458 287.61931,152.33286 289.47046,162.21016 C 292.69754,179.42923 300.34416,194.02812 312.5065,206.19045 C 331.15295,224.8369 358.16634,233.60041 383.42159,229.19627 z"
       id="path2876" />
  </g>
</svg>
