<?xml version="1.0" encoding="UTF-8" standalone="no"?>
<!-- Created with Inkscape (http://www.inkscape.org/) -->
<svg
   xmlns:dc="http://purl.org/dc/elements/1.1/"
   xmlns:cc="http://creativecommons.org/ns#"
   xmlns:rdf="http://www.w3.org/1999/02/22-rdf-syntax-ns#"
   xmlns:svg="http://www.w3.org/2000/svg"
   xmlns="http://www.w3.org/2000/svg"
   xmlns:sodipodi="http://sodipodi.sourceforge.net/DTD/sodipodi-0.dtd"
   xmlns:inkscape="http://www.inkscape.org/namespaces/inkscape"
   width="210mm"
   height="297mm"
   id="svg3057"
   sodipodi:version="0.32"
   inkscape:version="0.46"
   sodipodi:docname="silicoflagellata.svg"
   inkscape:output_extension="org.inkscape.output.svg.inkscape">
  <defs
     id="defs3059">
    <inkscape:perspective
       sodipodi:type="inkscape:persp3d"
       inkscape:vp_x="0 : 526.18109 : 1"
       inkscape:vp_y="0 : 1000 : 0"
       inkscape:vp_z="744.09448 : 526.18109 : 1"
       inkscape:persp3d-origin="372.04724 : 350.78739 : 1"
       id="perspective3065" />
  </defs>
  <sodipodi:namedview
     id="base"
     pagecolor="#ffffff"
     bordercolor="#666666"
     borderopacity="1.0"
     inkscape:pageopacity="0.0"
     inkscape:pageshadow="2"
     inkscape:zoom="0.35"
     inkscape:cx="350"
     inkscape:cy="520"
     inkscape:document-units="px"
     inkscape:current-layer="layer1"
     showgrid="false"
     inkscape:window-width="640"
     inkscape:window-height="713"
     inkscape:window-x="80"
     inkscape:window-y="80" />
  <metadata
     id="metadata3062">
    <rdf:RDF>
      <cc:Work
         rdf:about="">
        <dc:format>image/svg+xml</dc:format>
        <dc:type
           rdf:resource="http://purl.org/dc/dcmitype/StillImage" />
      </cc:Work>
    </rdf:RDF>
  </metadata>
  <g
     inkscape:label="Ebene 1"
     inkscape:groupmode="layer"
     id="layer1">
    <path
       style="fill:#000000"
       d="M 367.85258,547.90452 C 367.85258,547.73121 363.08301,529.76574 357.25353,507.98127 L 346.65448,468.37313 L 264.63252,386.3483 L 182.61057,304.32348 L 91.698138,294.39937 L 0.78571286,284.47526 L 0.78571286,276.34667 C 0.78571286,268.52718 0.850468,268.20453 2.4886004,267.86169 C 3.4251886,267.66567 44.201648,263.18715 93.102953,257.90941 L 182.01442,248.31353 L 264.26626,166.61741 L 346.51809,84.921289 L 348.10151,79.112255 C 348.97239,75.917288 353.83871,57.879788 358.91555,39.028937 L 368.14619,4.7546471 L 374.54326,4.9711863 L 380.94031,5.1877179 L 391.39605,44.759956 L 401.85179,84.332196 L 484.09524,166.2326 L 566.33868,248.13301 L 656.87299,258.1032 C 706.66686,263.58681 747.49243,268.09946 747.5965,268.13132 C 747.70057,268.16317 747.78571,271.85258 747.78571,276.33 L 747.78571,284.47077 L 656.85315,294.41726 L 565.9206,304.36373 L 483.87345,386.41088 L 401.82631,468.45802 L 392.00687,505.50068 C 386.60619,525.87415 381.84388,543.82051 381.42397,545.38149 L 380.6605,548.21963 L 374.25654,548.21963 C 370.73436,548.21963 367.85258,548.07783 367.85258,547.90452 z M 381.09052,482.25829 L 387.00377,459.81519 L 472.65009,374.17137 L 558.2964,288.52755 L 613.03996,282.53578 C 643.14892,279.24031 667.91823,276.4093 668.08288,276.24465 C 668.24753,276.08 664.36592,275.51483 659.45708,274.98871 C 654.54824,274.46259 629.89417,271.78089 604.67027,269.02938 L 558.80861,264.02663 L 472.89415,178.50383 L 386.97968,92.981033 L 381.90231,73.681639 C 374.63518,46.058888 374.55486,45.796992 373.89801,47.580081 C 373.59323,48.407442 370.66087,59.101039 367.38165,71.343627 L 361.41945,93.60289 L 275.71983,178.81475 L 190.02022,264.02663 L 165.22135,266.76703 C 151.58198,268.27426 126.88714,270.9731 110.34393,272.76446 C 93.800728,274.55583 80.382943,276.13906 80.526636,276.28275 C 80.670337,276.42645 105.4225,279.24031 135.53146,282.53578 L 190.27502,288.52755 L 275.91882,374.16885 L 361.56262,459.81016 L 367.10755,480.7421 C 370.15726,492.25467 372.96918,502.84744 373.35627,504.2816 C 373.85191,506.11789 374.2253,506.56561 374.61867,505.79528 C 374.92591,505.19365 377.83824,494.602 381.09052,482.25829 z M 340.65526,393.49498 L 307.03113,359.86447 L 310.52567,352.43643 C 312.44766,348.35101 319.32906,334.10991 325.81767,320.78954 L 337.61515,296.5707 L 374.44786,296.3742 C 394.70584,296.26613 411.5738,296.47095 411.93219,296.82934 C 412.69801,297.59516 442.02279,358.0302 442.02279,358.84264 C 442.02279,359.14624 426.78053,374.63408 408.1511,393.26005 L 374.27941,427.12548 L 340.65526,393.49498 z M 250.15035,302.99005 L 223.68256,276.51415 L 252.41791,247.77133 C 270.61396,229.57055 281.33723,219.36929 281.65483,219.95766 C 281.93069,220.46869 286.77841,233.37973 292.42754,248.64885 L 302.69868,276.41088 L 289.65841,302.93841 L 276.61814,329.46594 L 250.15035,302.99005 z M 459.85979,302.21619 L 447.15677,276.45286 L 457.62706,248.09614 C 463.38572,232.49995 468.31769,219.82729 468.58701,219.9347 C 468.85631,220.04209 481.61068,232.84009 496.93004,248.37467 L 524.78343,276.61937 L 499.1117,302.29945 C 484.99224,316.42348 473.24259,327.97951 473.00138,327.97951 C 472.76017,327.97951 466.84645,316.38602 459.85979,302.21619 z M 338.83135,255.51219 C 338.03979,254.23093 313.36018,188.45036 313.36018,187.62179 C 313.36018,186.43527 373.68694,126.45038 374.54629,126.78242 C 374.91121,126.92342 389.04604,140.67118 405.95703,157.33299 L 436.70426,187.62719 L 424.59956,219.7722 C 417.94198,237.45195 412.11549,252.85379 411.65181,253.99851 L 410.80876,256.07982 L 374.9954,256.07982 C 355.29805,256.07982 339.02423,255.82438 338.83135,255.51219 z"
       id="path3055" />
  </g>
</svg>
