<?xml version="1.0" encoding="UTF-8" standalone="no"?>
<!-- Created with Inkscape (http://www.inkscape.org/) -->
<svg
   xmlns:dc="http://purl.org/dc/elements/1.1/"
   xmlns:cc="http://creativecommons.org/ns#"
   xmlns:rdf="http://www.w3.org/1999/02/22-rdf-syntax-ns#"
   xmlns:svg="http://www.w3.org/2000/svg"
   xmlns="http://www.w3.org/2000/svg"
   xmlns:sodipodi="http://sodipodi.sourceforge.net/DTD/sodipodi-0.dtd"
   xmlns:inkscape="http://www.inkscape.org/namespaces/inkscape"
   width="210mm"
   height="297mm"
   id="svg2976"
   sodipodi:version="0.32"
   inkscape:version="0.46"
   sodipodi:docname="spiculn.svg"
   inkscape:output_extension="org.inkscape.output.svg.inkscape">
  <defs
     id="defs2978">
    <inkscape:perspective
       sodipodi:type="inkscape:persp3d"
       inkscape:vp_x="0 : 526.18109 : 1"
       inkscape:vp_y="0 : 1000 : 0"
       inkscape:vp_z="744.09448 : 526.18109 : 1"
       inkscape:persp3d-origin="372.04724 : 350.78739 : 1"
       id="perspective2984" />
  </defs>
  <sodipodi:namedview
     id="base"
     pagecolor="#ffffff"
     bordercolor="#666666"
     borderopacity="1.0"
     inkscape:pageopacity="0.0"
     inkscape:pageshadow="2"
     inkscape:zoom="0.35"
     inkscape:cx="350"
     inkscape:cy="520"
     inkscape:document-units="px"
     inkscape:current-layer="layer1"
     showgrid="false"
     inkscape:window-width="640"
     inkscape:window-height="713"
     inkscape:window-x="40"
     inkscape:window-y="40" />
  <metadata
     id="metadata2981">
    <rdf:RDF>
      <cc:Work
         rdf:about="">
        <dc:format>image/svg+xml</dc:format>
        <dc:type
           rdf:resource="http://purl.org/dc/dcmitype/StillImage" />
      </cc:Work>
    </rdf:RDF>
  </metadata>
  <g
     inkscape:label="Ebene 1"
     inkscape:groupmode="layer"
     id="layer1">
    <path
       style="fill:#000000"
       d="M 620.42206,310.82445 C 560.5663,271.07757 511.0883,238.55428 510.47098,238.55045 C 509.57031,238.54486 13.733351,360.47424 9.4050977,361.76566 C 8.4154558,362.06094 7.8250138,360.69365 6.278069,354.52447 C 4.9339748,349.16423 4.6269754,346.83557 5.2380588,346.63572 C 5.7149203,346.47978 118.65345,318.66331 256.21256,284.82136 C 445.24437,238.31621 506.62223,222.94935 507.55751,221.89339 C 508.23812,221.12496 537.50202,171.52415 572.5884,111.66936 L 636.38183,2.84247 L 642.91783,6.6717361 C 646.51263,8.7778294 649.54708,10.57339 649.66104,10.661862 C 649.77501,10.750334 621.38367,59.409625 586.56917,118.79362 C 551.75468,178.17762 523.27895,226.95704 523.28979,227.19233 C 523.30062,227.42761 535.92841,235.98946 551.35154,246.21865 C 566.77468,256.44785 615.06203,288.49804 658.65675,317.4413 L 737.91989,370.06541 L 733.58532,376.57845 L 729.25074,383.0915 L 620.42206,310.82445 z"
       id="path2974" />
  </g>
</svg>
